<svg xmlns="http://www.w3.org/2000/svg" viewBox="0 0 1770.002 951.703">
    <defs>
        <style>
            .cls-1{fill:#3b3b3b}
        </style>
    </defs>
    <g id="background" transform="translate(-92 -79.496)">
        <path id="패스_217" d="M0 976.3c1.6-.7 1.7-2.2 2-3.6a26.028 26.028 0 0 1 9.2-14.7c15.9-13 40.6-4.1 44.1 16.1 2.6 15.2-7.2 27.6-20.3 30.8-15.2 3.7-30.1-6.3-33-20.2-.3-1.4-.4-2.9-2-3.6zm29.9-21.9c-.1 1.5-.2 2.8-.2 4 0 5.9-.1 11.8 0 17.7a6.765 6.765 0 0 1-2.3 5.4c-4.1 3.8-8 7.8-12 11.7-1.1 1.1-2.2 2.3-3.2 3.4 5.4 6.8 18.7 8.9 28 3.8a24.767 24.767 0 0 0 12.6-27.1c-2.1-10.2-11.4-18.1-22.9-18.9zm-3.1.1c-8.1-.4-18.8 6.2-22.1 17-2.7 8.7-.2 18.8 5.7 23.2.6-.5 1.2-.9 1.8-1.5 4.3-4.3 8.6-8.6 13-12.8a6.061 6.061 0 0 0 2.1-5c-.1-6.1 0-12.1-.1-18.2a12.588 12.588 0 0 0-.4-2.7z" class="cls-1" data-name="패스 217" transform="translate(92 -49.9)"/>
        <path id="패스_218" d="M0 446.4c1.3-.6 1.5-1.9 1.9-3.1a40.969 40.969 0 0 1 2-5.9A26.923 26.923 0 0 1 30.8 422c13.1 1.3 22.5 10.5 24.5 22 2.9 16.6-9 28.8-21.6 31.2-14.9 2.8-29.2-7.3-31.8-20.9-.2-1.3-.5-2.5-1.9-3.1v-4.8zm12.2 20.5c5.8 6.6 19.4 9.5 30.1 2.4a24.661 24.661 0 0 0 9.5-29.1 23.727 23.727 0 0 0-10.6-12.5c-3.4-1.9-7-3.6-11.4-3.1-.1 1.8-.2 3.4-.2 4.9 0 5.4-.1 10.9 0 16.3a7.026 7.026 0 0 1-2.5 5.9c-4.4 4.2-8.7 8.5-13 12.8-.6.7-1.2 1.6-1.9 2.4zm-2-1.9c.8-.7 1.4-1.1 2-1.7 4.3-4.3 8.6-8.6 13-12.8a6.463 6.463 0 0 0 2.2-5c-.1-6.1 0-12.1-.1-18.2a25.124 25.124 0 0 0-.4-2.7c-8.7-.1-17.2 5.8-21.1 14.2-3.9 8.3-2.4 20.1 4.4 26.2z" class="cls-1" data-name="패스 218" transform="translate(92 -49.9)"/>
        <path id="패스_219" d="M1297 1081c0-10.5-.1-21.1-.1-31.6a5.636 5.636 0 0 1 .4-1.2c.3-.1.4-.2.6-.2a.758.758 0 0 1 .4.2c7.3 5.2 14.6 10.3 21.9 15.5a16.61 16.61 0 0 1 1.4 1.3c.1.1.1.3.2.7q-1.35 1.05-3 2.1c-5.4 3.4-10.8 6.8-16.2 10.3-1.3.8-2.9 1.5-3.6 3a14.789 14.789 0 0 0-2-.1z" class="cls-1" data-name="패스 219" transform="translate(92 -49.9)"/>
        <path id="패스_220" d="M219.8 1081c-.1-1.6-.3-3.2-.3-4.8v-24.4c0-1.2.1-2.5.2-4 2.4.3 3.7 2 5.4 3.1 1.6 1 3.1 2.2 4.7 3.3 1.7 1.2 3.4 2.4 5 3.6 1.6 1.1 3.1 2.2 4.7 3.3 1.7 1.2 3.3 2.4 5.3 3.9a21.78 21.78 0 0 1-2.6 2.1c-5.6 3.6-11.3 7.1-17 10.7-1.3.8-2.9 1.5-3.6 3a4.964 4.964 0 0 1-1.8.2z" class="cls-1" data-name="패스 220" transform="translate(92 -49.9)"/>
        <path id="패스_228" d="M876.7 181.9c9.7.3 13 3.4 13.8 13.2 1 .5 2.2.9 3.3 1.5a8.437 8.437 0 0 1 4.6 8.3 8.262 8.262 0 0 1-6.4 7.5 15.827 15.827 0 0 1-3.8.5h-37.9a14.875 14.875 0 0 1-4.7-.7 9.842 9.842 0 0 1-1.4-18 28.147 28.147 0 0 1 4.2-1.7c-.5-8.1 2.4-14.6 10.6-17.1 7.2-2.3 13.2.2 17.7 6.5z" class="cls-1" data-name="패스 228" transform="translate(92 -49.9)"/>
        <path id="패스_230" d="M1132.8 979.2c.1 12.5-9.9 26.4-27.2 26.5a26.851 26.851 0 1 1 27.2-26.5zm-43.5 17.6c5.4 6.7 19 9.2 28.8 3.3a24.584 24.584 0 0 0 11.3-28.4c-3.1-10.1-13.1-17.7-22.4-17-.1 1.2-.2 2.5-.2 3.7 0 5.9-.1 11.8 0 17.7a6.765 6.765 0 0 1-2.3 5.4c-4.2 4-8.2 8-12.3 12.1-1 1.1-1.9 2.1-2.9 3.2zm14.7-42.7c-11 1.5-18.2 6.9-22 16.7-3 7.8-.9 19.1 5.3 23.9a7.945 7.945 0 0 0 1.8-1.4c4.4-4.4 8.8-8.8 13.3-13.1a5.792 5.792 0 0 0 2-4.6c-.1-6.2 0-12.5 0-18.7a26.028 26.028 0 0 0-.4-2.8z" class="cls-1" data-name="패스 230" transform="translate(92 -49.9)"/>
        <path id="패스_232" d="M1241.9 799.3a49.64 49.64 0 0 1 8.9-3.8c.9 1.6 1.7 3 2.4 4.4 1.1.2 1.3-.5 1.7-1.3.4-1 1-2 1.5-3a36.689 36.689 0 0 1 9.2 3.6c-.5 1.8-1 3.4-1.5 5.2 2.2.4 3.5-1.2 5.4-1.2 1.9 2.5 2.6 5.6 4.1 8.7-1.8 1-3.5 1.9-5.4 2.9 1.9 1 3.5 1.9 5.3 2.8a53.338 53.338 0 0 1-3.7 9c-1.8-.6-3.4-1.1-5.3-1.7-.4 2 1 3.4 1.3 5.4-2.5 2-5.6 2.9-8.9 4.1-.9-1.7-1.7-3.2-2.8-5.1-1 1.8-1.9 3.2-2.9 5-3.1-.5-5.8-2-9-3.3.4-1.8.7-3.4 1.1-5-2.1-1-3.5 1.3-5.6.3-.5-1-1.1-2.2-1.7-3.5-.6-1.4-1.2-2.9-1.8-4.6 1.6-.9 3.1-1.8 4.7-2.8-1-1.8-3.2-1.5-4.5-3.1.2-3.1 1.9-5.7 3.3-8.8 1.8.4 3.5.8 5.6 1.3-.5-2.2-.9-3.8-1.4-5.5zm20.9.9c-1.8-.7-3.3-1.2-5-1.8-.8 1.7-1.5 3.1-2.2 4.5-.9 1.7-2.8 1.6-3.8-.1-.8-1.4-1.4-2.8-2.2-4.2-2 .5-3.7.8-4.7 2.5.5 1.3 1 2.4 1.4 3.6.6 1.6.6 1.6-1.6 3.4q-2.55-.9-5.4-1.8c-1.1 1.6-2 3-1.9 4.9 1.9.9 3.6 1.7 5.1 2.5.6 1.7.2 2.6-1.2 3.4-1.4.7-3.2.7-4.1 2.7.6 1.2 1.3 2.6 2.1 4.1 2.1-.7 3.8-1.3 5.4-1.9 1.7.8 2.3 1.8 1.7 3.6-.5 1.3-1.6 2.4-.9 4.1.6.3 1.4.7 2.1 1s1.4.5 2.3.8a22.258 22.258 0 0 1 1.4-2.7c.6-1.2.8-2.9 2.8-2.8 1.9.1 2 1.7 2.7 3 .4.8.9 1.6 1.4 2.5 1.8-.8 3.6-.9 4.6-2.6-.4-1.1-.8-2.2-1.2-3.2-.4-1.1-.6-2.1.4-3.1.9-.8 1.7-.6 2.7-.3 1.3.5 2.5 1.3 4.1 1 .8-1.4 1.8-2.7 1.4-4.7a25.213 25.213 0 0 0-3.3-1.5 2.348 2.348 0 0 1-1.7-2.1 2.058 2.058 0 0 1 1.5-2.2c1.2-.6 2.5-1.3 3.9-2-.4-1.1-.6-2-1-2.9a6.9 6.9 0 0 0-1.1-1.7c-1.5.5-2.8.9-4.1 1.4-1.7.7-2.7-.1-3.4-1.7a45.454 45.454 0 0 1 1.8-5.7z" class="cls-1" data-name="패스 232" transform="translate(108 -17.9)"/>
        <path id="패스_233" d="M166.1 804.2c-.4-1.6-.9-3.2-1.4-5 2.5-1.1 4.8-2.1 7.1-3.1a10.577 10.577 0 0 1 2-.3c.8 1.5 1.5 2.8 2.3 4.4 2.1-.7 1.6-3 3.3-4.4 3 .3 5.9 1.9 9 3.4-.5 1.8-1 3.4-1.6 5.6 2.2-.7 3.8-1.2 5.5-1.8.4.6.8 1.1 1.1 1.6q1.5 3.45 3 7.2c-1.8 1-3.4 1.9-5.3 2.9 1.9 1 3.5 1.9 5.3 2.8a63.159 63.159 0 0 1-3.7 9c-1.8-.6-3.4-1.1-5.3-1.7-.4 2.1 1.1 3.5 1.3 5.5-2.5 2-5.8 2.7-8.9 4.2-1-1.9-1.8-3.4-2.9-5.3-1.1 1.8-1.9 3.3-2.9 5-3.2-.5-5.9-2.1-9-3.3.4-1.8.8-3.3 1.2-4.9-1.8-1.4-3.3 1-5 .3-2-2.4-2.7-4.1-3.9-8.6 1.4-.8 2.8-1.6 4.5-2.6-1.1-1.8-3.3-1.5-4.4-3a5.652 5.652 0 0 1 0-1.3c.9-2.4 1.9-4.7 2.7-6.8 2.3-1.5 3.9 1.3 6 .2zm6.7 27.4c.8-1.8 1.4-3.1 2-4.4a1.922 1.922 0 0 1 1.8-1.3 2.165 2.165 0 0 1 2.3 1.4c.6 1.3 1.2 2.6 1.9 3.9a8.185 8.185 0 0 0 4.9-2.2c-.2-.7-.5-1.5-.7-2.2-.3-.8-.6-1.5-.8-2.2a2.148 2.148 0 0 1 2.6-2.5c1.5.4 3 1 4.4 1.5 1.7-2.4 1.6-2.4 1.8-5a7.974 7.974 0 0 0-1.6-.8 21.389 21.389 0 0 1-2.2-1 2.105 2.105 0 0 1-.1-3.8c1.3-.8 2.7-1.4 4-2.1a7.085 7.085 0 0 0-2.1-4.7l-3.6 1.2c-2 .7-2 .7-3.7-1.6.3-1.8 1.8-3.4 1.5-5.5-1.4-.7-2.7-1.7-4.7-1.4-.6 1.2-1.2 2.5-1.8 3.8-.4 1-1.1 1.7-2.2 1.5a3.8 3.8 0 0 1-1.8-1.3c-.9-1.2-.9-3.1-2.8-4.1-1.2.6-2.6 1.2-4.2 2 .7 2.1 1.4 3.8 2.1 5.8-.7.7-1.4 1.3-1.9 1.8-2.1-.7-3.9-1.2-5.8-1.8-.5 1.1-1 1.9-1.4 2.8-.2.6-.3 1.2-.5 2 1.9 1 3.7 1.9 5.3 2.8.4 1.4.3 2.5-.9 3.1-1.4.7-2.8 1.4-4.4 2.1.6 1.9.9 3.6 2.5 4.8 1.4-.5 2.7-1.1 4-1.6a2.014 2.014 0 0 1 2.2.4 2.119 2.119 0 0 1 .6 2.6c-.5 1.3-1 2.6-1.6 4.2a17.248 17.248 0 0 1 4.9 1.8z" class="cls-1" data-name="패스 233" transform="translate(92 -49.9)"/>
        <path id="패스_234" d="M1297.3 550.8c-.7-4.2-.7-28.6-.1-32.6a.758.758 0 0 1 .4-.2.6.6 0 0 1 .4.1c7.3 5.2 14.6 10.3 21.9 15.5l1.8 1.5c-2.4 2.3-18.7 12.8-24.4 15.7z" class="cls-1" data-name="패스 234" transform="translate(92 -49.9)"/>
        <path id="패스_235" d="M220.2 518c3.6 1.7 21.7 14.5 24.3 17.3-3.3 2.8-20.5 13.6-24.2 15.2-.1-.1-.3-.1-.4-.2a.758.758 0 0 1-.2-.4c-.1-9.9-.1-19.8-.2-29.7a12.5 12.5 0 0 1 .3-1.9c.1-.1.3-.2.4-.3z" class="cls-1" data-name="패스 235" transform="translate(92 -49.9)"/>
        <path id="패스_236" d="M1243.6 274.8c-.7-2.2-1.2-3.7-1.8-5.4 2.7-1.9 5.7-2.8 8.9-4 .9 1.5 1.8 3 2.8 4.5 2-.8 1.6-3.1 3.2-4.4 2.9.4 5.7 2 8.9 3.3-.5 1.7-.9 3.4-1.3 4.9.7 1 1.4.4 2.1.1 1-.4 2.1-.7 3.2-1.2a48.368 48.368 0 0 1 4 9c-1.8 1-3.4 1.8-5.3 2.9 1.9 1 3.6 1.9 5.4 2.8a78.194 78.194 0 0 1-3.6 9.1c-1.9-.6-3.5-1.2-5.1-1.7-1 1.1-.1 1.9.2 2.8a14.383 14.383 0 0 0 .9 2.4c-2.6 2.1-5.8 3-9.1 4.2-.9-1.7-1.7-3.2-2.8-5.1-1 1.8-1.9 3.2-2.8 4.9-1.6.3-3-.8-4.4-1.3-1.5-.5-2.9-1.2-4.7-1.9.5-1.9.9-3.6 1.4-5.9-2.1.7-3.6 1.2-5.5 1.8a35.4 35.4 0 0 1-3.9-8.9c1.6-.9 3.1-1.7 4.8-2.7-1.3-1.6-3.3-1.6-4.7-2.8.2-3.2 1.9-5.9 3.3-9 1.9.6 3.5 1 5.9 1.6zm17.2 1.2c.5-1.7 1.1-3.7 1.8-5.7-1.7-.9-3.1-2-5.1-1.5-.6 1.2-1.2 2.3-1.7 3.5a2.165 2.165 0 0 1-2.2 1.5c-1.1 0-1.6-.7-2.1-1.6-.7-1.2-.8-2.8-2.7-3.6-1.1.5-2.5 1.2-4.1 1.9.7 2.1 1.4 3.8 2.1 5.7-.7.7-1.4 1.3-2 1.8-2.1-.6-3.8-1.2-5.9-1.8-.7 1.7-1.3 3.1-1.9 4.7 2.1 1.1 3.9 2 5.5 2.8.4 1.7 0 2.6-1.4 3.3-1.3.7-3.2.7-3.8 2.6.6 1.4.7 3.1 2.4 4.1 1.1-.4 2.3-.9 3.5-1.4 1.9-.7 2-.7 3.5 1.8-.6 1.6-1.1 3.2-1.8 5a16.376 16.376 0 0 0 2.2 1.2q1.2.45 2.7.9c1-1.9 1.8-3.6 2.5-5.1 1.8-.7 3-.3 3.7 1.4.5 1.3.9 2.7 2.3 3.7 1.4-.6 2.8-1.3 4.3-2-.6-1.8-1.2-3.2-1.6-4.7a2.054 2.054 0 0 1 2.5-2.5c1.5.4 3 1 4.6 1.5 1.1-1.5 2-3 1.7-5-1.3-.6-2.6-1.1-3.9-1.8a2.217 2.217 0 0 1-.1-3.9 45 45 0 0 1 4.4-2.2c-.8-1.7-1.4-3.1-2.1-4.7-1.6.6-3 1-4.3 1.5-1 .6-2.1.1-3-1.4z" class="cls-1" data-name="패스 236" transform="translate(92 -49.9)"/>
        <path id="패스_237" d="M174 304.4c-3-1.2-5.8-2.3-8.8-3.5.5-1.9.9-3.7 1.4-5.9-1.3.4-2.2.7-3 .9-.7.2-1.5.5-2.4.8-2-2.8-2.8-5.8-4.1-8.8 1.8-1 3.3-1.8 4.8-2.7-1.1-1.9-3.3-1.5-4.5-3.1.3-3.1 1.9-5.7 3.3-8.8 1.8.5 3.4.9 5.3 1.3.5-2.1-1.3-3.4-1-5.5 2.5-1.7 5.5-2.6 8.7-3.8.9 1.6 1.8 3.1 2.6 4.6 2.3-.6 1.4-3.5 3.7-4.5 2.1.8 4.5 1.7 6.8 2.6a11.993 11.993 0 0 1 1.7 1.1c-.5 1.7-.9 3.3-1.4 5.1 2.2.2 3.5-1.3 5.5-1.3 1.8 2.6 2.7 5.6 3.9 8.7-1.7.9-3.4 1.8-5.3 2.9 1.9 1 3.5 1.8 5.4 2.8a53.876 53.876 0 0 1-3.8 9c-1.8-.5-3.4-1-5.3-1.6-.4 2 1.1 3.4 1.3 5.3-2.5 2-5.7 2.9-8.9 4.1-.9-1.7-1.7-3.2-2.8-5.1-1.1 2-2 3.4-3.1 5.4zm-4.3-28.1c-2 1.7-2 1.8-3 1.5-1.5-.5-3-1-4.6-1.5-.5.9-.9 1.6-1.2 2.3s-.5 1.5-.8 2.4q2.85 1.5 5.4 2.7c.6 1.7.1 2.6-1.3 3.4-1.4.7-3.2.7-3.9 2.6.3.7.5 1.4.9 2.2.3.7.8 1.3 1.2 2.1 1-.4 1.7-.6 2.4-.9s1.5-.6 2.2-.9a2.181 2.181 0 0 1 2.6 2.5c-.4 1.5-1.1 2.9-1.7 4.6a15.694 15.694 0 0 0 2.1 1.2 15.388 15.388 0 0 0 2.8.9c1-1.9 1.8-3.6 2.7-5.3h2.7c1 1.8 1.9 3.5 2.8 5.2 1.8-.7 3.6-.8 4.7-2.5-.5-1.3-.9-2.5-1.4-3.7a1.851 1.851 0 0 1 .6-2.5 2.854 2.854 0 0 1 2.2-.4c1.5.3 2.8 1.5 4.7.9.5-1.4 1.7-2.6 1.2-4.6-.6-.3-1.3-.6-2-1-1.2-.6-2.9-.7-3-2.6s1.5-2.2 2.8-2.8c.8-.4 1.6-.9 2.7-1.5-.7-1.6-1.3-3-2-4.7-1.6.6-2.9 1-4.3 1.5-1.7.6-2.8.1-3.4-1.6.6-1.7 1.1-3.5 1.8-5.4-1.6-1-3.1-1.9-5-1.6-.7 1.4-1.2 2.7-1.9 3.9a2.1 2.1 0 0 1-3.8 0c-.8-1.3-.9-3.1-2.8-4.2-1.2.5-2.6 1.2-4.2 1.9.5 2.1 1.1 3.8 1.8 5.9z" class="cls-1" data-name="패스 237" transform="translate(92 -49.9)"/>
        <path id="패스_238" d="M1685.8 182.8c-1.2-1.3-2.1-2-2.7-2.8-4.7-5.9-9.4-11.7-13.9-17.7-4.9-6.6-5.8-13.8-2.2-21.2 3.6-7.3 9.7-11.3 17.9-11.6 8.8-.3 15.5 3.6 19.4 11.5 3.8 7.7 2.7 15.2-2.6 22-4.1 5.3-8.3 10.5-12.4 15.8-1.1 1.2-2.1 2.4-3.5 4zm-.6-5c.7-.2.9-.2 1-.3 4.9-6.1 10-12.1 14.5-18.4 4-5.6 3.5-13.7-.6-19.4a17.843 17.843 0 0 0-18.6-6.9c-13 3.4-17.6 18.2-9.7 28.1 3.9 4.9 7.7 9.8 11.6 14.7.5.7 1.2 1.4 1.8 2.2z" class="cls-1" data-name="패스 238" transform="translate(92 -49.9)"/>
        <path id="패스_239" d="M608.8 182.8a18.2 18.2 0 0 1-2.4-2.3c-4.9-6.1-9.8-12.2-14.5-18.4-4.8-6.4-5.6-13.6-2.1-20.8 3.5-7.3 9.6-11.4 17.8-11.7 8.8-.3 15.6 3.4 19.5 11.3s2.8 15.5-2.7 22.4c-4.1 5.1-8.1 10.3-12.1 15.4-1.1 1.2-2.1 2.4-3.5 4.1zm-.6-5a8.409 8.409 0 0 0 1-.4c4.8-6 9.7-11.9 14.2-18 3.2-4.4 3.6-9.5 2-14.7a17.341 17.341 0 0 0-15.1-12.3c-7.8-.6-13.8 2.4-17.5 9.3-3.6 6.7-2.8 13.3 1.8 19.3 3.6 4.7 7.3 9.3 11 13.9.9 1 1.7 1.9 2.6 2.9z" class="cls-1" data-name="패스 239" transform="translate(92 -49.9)"/>
        <path id="패스_240" d="M1685.6 712.5a15.046 15.046 0 0 1-2.2-2.1c-4.9-6.1-9.8-12.2-14.5-18.4-4.9-6.6-5.6-13.9-1.8-21.2 3.7-7.3 9.9-11 18.1-11.3a20.577 20.577 0 0 1 21.1 18.7 18.964 18.964 0 0 1-3.7 13.5c-5 6.6-10.2 13.1-15.4 19.6a10.449 10.449 0 0 1-1.6 1.2zm-.1-4.5a12.446 12.446 0 0 0 1.5-1.3c4.4-5.5 8.8-11 13-16.6a17.191 17.191 0 0 0 .8-19.4c-3.8-6.1-11.2-9.6-18.1-8.3-14.1 2.7-19.2 18.3-10.9 28.5 3.8 4.7 7.5 9.5 11.3 14.3.7 1 1.5 1.7 2.4 2.8z" class="cls-1" data-name="패스 240" transform="translate(92 -49.9)"/>
        <path id="패스_242" d="M22.3 232.2a9.034 9.034 0 0 1-.5-1.6c0-8.5-.1-16.9-.1-25.4a24.177 24.177 0 0 1 .3-2.5 9.766 9.766 0 0 1 2.3-.6h41.2a14.346 14.346 0 0 1 2.2.4c.6 3.8.7 24.7.1 29.6a12.91 12.91 0 0 1-2.1.5H24a10.807 10.807 0 0 0-1.7-.4zm1.8-27.5c-.7 2.7-.3 5.5-.3 8.4-.1 2.9-.1 5.8 0 8.6s-.4 5.7.3 8.3a5.4 5.4 0 0 0 1.2.4c12 0 24 .1 36 .1 1.3 0 2.5-.1 3.8-.1a.9.9 0 0 0 .5-.1l.3-.3c.6-3.8.7-20.9.1-25.2-1.4-.9-2.4.2-3.5.8-4.9 3.1-9.7 6.2-14.6 9.3a13.787 13.787 0 0 1-3 1.4c-1.5-.9-2.9-1.7-4.2-2.6-4.3-2.7-8.6-5.5-12.9-8.2-1.1-.8-2.1-1.6-3.7-.8zm21.1 9.5c4.5-2.9 8.6-5.5 12.8-8.2a1.107 1.107 0 0 0 .5-1.7H32.4c-.2 0-.4.4-.7.5a2.01 2.01 0 0 0 .4.8c4.2 2.8 8.5 5.6 13.1 8.6z" class="cls-1" data-name="패스 242" transform="translate(92 -49.9)"/>
        <path id="패스_243" d="M1144.8 202.4c.7 3.6.8 23.9.2 29.5a10.891 10.891 0 0 1-2.6.5h-40.7a14.6 14.6 0 0 1-2.2-.3 7.075 7.075 0 0 1-.5-1.6c-.1-8.3-.1-16.6-.1-24.9a22.821 22.821 0 0 1 .2-2.7c1.5-1.5 3.2-1 4.7-1h38.9a15.976 15.976 0 0 0 2.1.5zm-43.8 2.4a107.279 107.279 0 0 0-.1 12.7c.1 4.2-.5 8.5.5 13.1h14c4.6 0 9.3.1 13.9 0s9.2.4 13.7-.3c.7-4.7.6-21.8 0-25.5-1.2-.7-2.1.1-3.1.7-4.4 2.8-8.9 5.7-13.3 8.5-1.3.8-2.7 1.6-4.2 2.5-1.5-.9-2.9-1.6-4.2-2.5-4.5-2.8-8.9-5.7-13.3-8.5-1.1-.8-2.2-1.6-3.9-.7zm34.9 0c-3.2-.8-13.6-1.1-25.5-.6-.6 0-1.3-.1-1.5.7a64.549 64.549 0 0 0 14.1 8.9c4.2-2.7 8.4-5.5 12.7-8.3.1 0 .1-.4.2-.7z" class="cls-1" data-name="패스 243" transform="translate(92 -49.9)"/>
        <path id="패스_245" d="M900.1 916.5c-1.9 1.3-3.6 1.3-5.6-.3-2.9-2.3-6.5-3.3-10.1-4.3-.9-.2-1.9-.5-2.8-.7a16.908 16.908 0 0 1-12.8-18.4 17.336 17.336 0 0 1 15.4-15.3 17.525 17.525 0 0 1 18.7 12.6c0 .2.1.3.1.5 2.4 8.7 2.4 8.7 6.5 15a49.083 49.083 0 0 1-5.5 5.7 17.952 17.952 0 0 0-3.8 4.9c0 .2 0 .2-.1.3zm6.4-11.3c-3-4.6-4.5-9.9-6.1-15.3a14.776 14.776 0 0 0-15.6-10.2 14.943 14.943 0 0 0-3 29.3c5.3 1.4 10.4 3 15 5.9 2.8-2 2.8-2 3.7-4.2-2.8-2.9-5.5-5.8-8.4-8.5a9.609 9.609 0 0 0-3.3-1.8c-2.1-.7-4.3-1.2-6.5-1.8-.7-.2-1.6-.1-1.8-1.1a28.906 28.906 0 0 1 9.1-8.5c.8 2.6 1.4 5.2 2.2 7.7a11.7 11.7 0 0 0 1.5 3.4c2 2.3 4.2 4.3 6.4 6.5.9.9 1.9 1.7 3 2.7a11.6 11.6 0 0 0 3.8-4.1zm-22.8-8.7c2.4 1.1 3.9 1.7 6 1.2-.8-1.7-.1-3.6-2.4-4.7-1 1-2 1.9-3.6 3.5z" class="cls-1" data-name="패스 245" transform="translate(92 -49.9)"/>
        <path id="패스_246" d="M1145.1 762.2c-6 .6-41.9.5-45.8-.1-.9-2.3-.4-4.9-.5-7.4-.1-2.4 0-4.8 0-7.2v-7.7c.1-2.4-.3-4.7.5-7.4 3.8-.7 7.6-.3 11.4-.3 3.8-.1 7.7 0 11.5 0 3.7 0 7.3-.1 11 0 3.8.1 7.6-.4 11.6.4 1.1 3.3.4 6.7.5 10q.15 4.8 0 9.6a69.154 69.154 0 0 1-.2 10.1zm-43.7-2a8.587 8.587 0 0 0 1.7.3h37.9a7.173 7.173 0 0 0 2.1-.5c.7-7.3.5-22.1-.4-25.8a26.8 26.8 0 0 0-3 1.2c-4.9 3.1-9.7 6.2-14.6 9.3a29.419 29.419 0 0 1-3.1 1.6c-1.6-1-3.1-1.9-4.5-2.8-4.5-2.8-8.9-5.7-13.4-8.5-1-.6-1.9-1.1-3-.3-.5 4.9-.4 21.6.3 25.5zm6.3-25.4c5.4 3.5 10 6.4 14.4 9.2 5.8-2.9 11.8-6.9 13.8-9.3-3.6-.6-22.7-.7-28.2.1z" class="cls-1" data-name="패스 246" transform="translate(92 -49.9)"/>
        <path id="패스_247" d="M22.3 762.2a9.036 9.036 0 0 1-.5-1.6c0-8.5-.1-16.9-.1-25.4 0-.8.2-1.5.3-2.6a15.053 15.053 0 0 1 2.8-.5h40.7a21.114 21.114 0 0 1 2.1.3 4.923 4.923 0 0 1 .6 1.7v26.8a5.4 5.4 0 0 1-.4 1.2 11.8 11.8 0 0 1-2 .4H24.2a18.16 18.16 0 0 1-1.9-.3zm2-1.9c.8.1 1.2.3 1.7.3h37.9a13.034 13.034 0 0 0 2.1-.4c.7-5.5.5-22-.2-25.5-1.2-.6-2.1.2-3.1.8-4.9 3.1-9.7 6.2-14.5 9.3-.9.6-1.9 1-3 1.6-1.4-.9-2.8-1.6-4.1-2.5-4.6-2.9-9.2-5.8-13.7-8.7-1-.6-1.9-1.1-3.1-.4-.7 4-.7 21.1 0 25.5zm21-16.1c4.5-2.8 8.6-5.5 12.8-8.2a1.107 1.107 0 0 0 .5-1.7H32.4c-.2 0-.4.3-.9.7 4.2 3.4 8.9 6 13.8 9.2z" class="cls-1" data-name="패스 247" transform="translate(92 -49.9)"/>
        <path id="패스_248" d="M1657.4 317.5c3.9-.7 24.5-.9 32.5-.4a4.419 4.419 0 0 1 .6 1.6v29.2a9.667 9.667 0 0 1-.3 1.1 6.221 6.221 0 0 1-1.6.4h-29.2a14.253 14.253 0 0 1-1.6-.3c-1-3.4-.3-6.9-.5-10.3-.1-3.7-.1-7.3 0-11 0-3.5-.2-7 .1-10.3zm3.2 29.1c4.3.8 8.8.4 13.2.4 4.5 0 9.2.5 13.6-.4.7-5.1.6-22.7-.2-26.9-4.3-.2-8.7-.2-13.2-.1-4.6.1-9.2-.5-13.6.4-.8 5-.7 22.9.2 26.6z" class="cls-1" data-name="패스 248" transform="translate(92 -49.9)"/>
        <path id="패스_249" d="M580.6 349.1c-.7-4.3-.7-27.4 0-32 2.5-.6 5.2-.2 7.9-.3s5.4 0 8.1 0h8.1a77.885 77.885 0 0 1 8.3.2c.6 5.4.2 10.6.3 15.8s0 10.5 0 15.9a5.837 5.837 0 0 1-1.9.6h-29.7c-.2.1-.5 0-1.1-.2zm30.1-2.8v-8.8c0-3 .1-6.1 0-9.1-.1-2.8.3-5.7-.3-8.4a7.322 7.322 0 0 0-1.6-.4h-23.9a10.077 10.077 0 0 0-1.9.6c0 3-.1 5.8-.1 8.7 0 3-.1 6.1 0 9.1.1 2.8-.5 5.7.5 8.4 3.9.7 22.6.8 27.3-.1z" class="cls-1" data-name="패스 249" transform="translate(62 -88.9)"/>
        <path id="패스_250" d="M1657.2 879v-29.9a8.578 8.578 0 0 1 .3-1.7c3.7-.6 26.1-.8 32.4-.2a10.893 10.893 0 0 1 .5 2.6v26.8a24.966 24.966 0 0 1-.2 2.5c-2.7 1-5.5.4-8.1.5-2.7.1-5.4 0-8.1 0s-5.4.1-8.1 0-5.4.3-8.7-.6zm30.4-2.5c.4-4.7.2-9.1.2-13.5-.1-4.4.4-8.8-.4-13.1-6.1-.7-23.6-.5-27.1.2a4.952 4.952 0 0 0-.4 1.3v23.5a6.038 6.038 0 0 0 .5 1.6c4 .5 22 .6 27.2 0z" class="cls-1" data-name="패스 250" transform="translate(92 -49.9)"/>
        <path id="패스_251" d="M612.8 847c.7 3.9.8 26.3.2 32a4.284 4.284 0 0 1-1.6.5h-29.2a6.182 6.182 0 0 1-1.6-.4c-1.1-3.4-.4-6.9-.5-10.3-.1-3.7-.1-7.3 0-11a94.19 94.19 0 0 1 .2-10.6c2.9-.6 5.6-.3 8.3-.3 2.7-.1 5.4 0 8.1 0h8.1a53.247 53.247 0 0 1 8 .1zm-29.5 2.7c-.8 5.4-.7 23.1.2 26.9a96.7 96.7 0 0 0 13.2.2c4.5-.1 9.2.6 13.8-.5.1-1 .2-1.8.2-2.6 0-7.7-.1-15.3-.1-23 0-.3-.3-.5-.4-.8-.3-.1-.5-.4-.8-.4-7.8-.1-15.6-.1-23.5-.1-.8.1-1.6.2-2.6.3z" class="cls-1" data-name="패스 251" transform="translate(67 -33.9)"/>
        <path id="패스_252" d="M393.7 693.5c0 9-.1 17.9.1 26.9.1 5.7-2.2 7.6-7.3 7.5q-12.45-.3-24.9 0c-5.2.1-7.4-1.9-7.4-7.5.2-17.7.2-35.5 0-53.2-.1-5.7 2-7.9 7.6-7.8 8.2.2 16.3 0 24.5.1a17.744 17.744 0 0 1 3.3.2 4.775 4.775 0 0 1 4 4.2 24.438 24.438 0 0 1 .1 3.8v25.8zm-38.1-.1v25.4c0 1.3 0 2.6.1 3.8.2 2.2 1.4 3.4 3.7 3.8a27.156 27.156 0 0 0 2.9.1h23.5c5.5 0 6.5-1 6.5-6.4v-52.8c0-5.6-.9-6.4-6.4-6.4-8-.1-16 0-24 0a19.273 19.273 0 0 0-2.4.1c-2.4.3-3.5 1.3-3.7 3.6-.1 1.3-.1 2.6-.1 3.8-.1 8.4-.1 16.7-.1 25z" class="cls-1" data-name="패스 252" transform="translate(92 -49.9)"/>
        <path id="패스_253" d="M354.2 163.6v-26.8c-.4-5.2 2.1-7.4 7-7.3 8.5.2 16.9 0 25.4 0h1.9c3.3.3 4.9 1.9 5.1 5.2.1 1.1 0 2.2 0 3.4v51.3c0 1.1 0 2.2-.1 3.4-.3 3.2-1.9 4.8-5.3 5h-1.9c-8.3 0-16.6-.2-24.9.1-5.5.1-7.5-2.2-7.4-7.4.3-9 .2-17.9.2-26.9zm1.4-.1v25.9c0 6.3.8 7.1 7.3 7.1H385a28.1 28.1 0 0 0 2.9-.1c3.1-.3 4.2-1.5 4.4-4.6.1-2.2.1-4.5.1-6.7v-47c0-6.5-.8-7.3-7.1-7.3h-22.6c-6.2 0-7 .8-7 6.8-.1 8.7-.1 17.3-.1 25.9z" class="cls-1" data-name="패스 253" transform="translate(92 -49.9)"/>
        <path id="패스_254" d="M1431.3 163.2c0-8.8.1-17.6-.1-26.4-.1-5.2 1.9-7.5 7.5-7.4 8.3.2 16.6.1 24.9.1h1.4c3.9.2 5.5 1.8 5.7 5.6a28.059 28.059 0 0 1 0 2.9v51.3c0 1.4 0 2.9-.1 4.3a4.88 4.88 0 0 1-4.1 4.1 27.149 27.149 0 0 1-2.9.1h-25.4a19.268 19.268 0 0 1-2.4-.1 4.805 4.805 0 0 1-4.4-4.3 24.445 24.445 0 0 1-.1-3.8zm1.5.2v26.4c0 5.8.9 6.7 6.7 6.7h23c6 0 7-1 7-7v-51.8a18.292 18.292 0 0 0-.2-3.3 3.847 3.847 0 0 0-3.5-3.5 19.418 19.418 0 0 0-2.4-.2h-25a6.15 6.15 0 0 0-1.4.1c-2.8.3-4 1.5-4.2 4.2-.1 1.3-.1 2.6-.1 3.8 0 8.3.1 16.4.1 24.6z" class="cls-1" data-name="패스 254" transform="translate(92 -49.9)"/>
        <path id="패스_255" d="M1431.3 694c0-9 .2-17.9-.1-26.9-.1-5.7 2.1-7.9 7.6-7.8 8.2.2 16.3 0 24.5.1a17.744 17.744 0 0 1 3.3.2 4.989 4.989 0 0 1 4.1 4.2 18.217 18.217 0 0 1 .1 3.3c0 17.8-.1 35.5.1 53.2.1 5.7-2.2 7.6-7.3 7.5q-12.45-.3-24.9 0c-5.3.1-7.5-2-7.4-7.5.1-8.7 0-17.5 0-26.3zm1.5-.4v25.9c0 6.3.8 7.1 7.3 7.1h22.1c6.5 0 7.4-.8 7.4-7.6v-50.4c0-1.1 0-2.2-.1-3.4-.3-2.9-1.4-4-4.2-4.3a19.274 19.274 0 0 0-2.4-.1h-23.5c-5.8 0-6.5.8-6.6 6.8-.1 8.7 0 17.3 0 26z" class="cls-1" data-name="패스 255" transform="translate(92 -49.9)"/>
        <path id="패스_256" d="M1759.2 496.9c1.2.6 2.1 1.2 3 1.6 0 .5.2.9.1 1.1-6.5 11.3-12.9 22.6-19.3 33.8-.6.1-1 .3-1.2.2-1-.5-1.9-1-2.8-1.5 1.9-4.6 17.6-31.8 20.2-35.2z" class="cls-1" data-name="패스 256" transform="translate(92 -49.9)"/>
        <path id="패스_257" d="M665 533.9l-3.2-1.6a5.664 5.664 0 0 1 .3-1.5c4.2-7.3 8.3-14.7 12.5-22 2.2-3.9 4.4-7.7 6.6-11.5a3.894 3.894 0 0 1 3.9 1.4c-1.3 3.5-16.9 31-20.1 35.2z" class="cls-1" data-name="패스 257" transform="translate(92 -49.9)"/>
        <path id="패스_258" d="M1742 1063.8c-1.1-.6-2.1-1.1-3.2-1.7a17.109 17.109 0 0 1 .7-1.8c5.1-8.9 10.1-17.8 15.2-26.6 1.3-2.2 2.3-4.5 4.2-6.7q1.8.75 3.3 1.5a4.652 4.652 0 0 1 0 1.2c-6.3 11.1-12.7 22.2-19.1 33.3-.1.2-.4.3-1.1.8z" class="cls-1" data-name="패스 258" transform="translate(92 -49.9)"/>
        <path id="패스_259" d="M665.4 1064.1c-1.5-.8-2.6-1.4-3.9-2.1 6.7-11.7 13.3-23.2 19.8-34.6 1.9-.4 3 .5 4.2 1.8-6.6 11.4-13.2 22.9-20.1 34.9z" class="cls-1" data-name="패스 259" transform="translate(92 -49.9)"/>
        <path id="패스_260" d="M1770 525.2a8.48 8.48 0 0 1-8.4 8.2 8.308 8.308 0 0 1-8.5-8.5 8.461 8.461 0 0 1 16.9.3zm-4.6-.2a3.873 3.873 0 0 0-4.2-3.7 3.866 3.866 0 0 0 .3 7.7 3.991 3.991 0 0 0 3.9-4z" class="cls-1" data-name="패스 260" transform="translate(92 -49.9)"/>
        <path id="패스_261" d="M684.4 533.4a8.259 8.259 0 0 1-8.3-8.2 8.11 8.11 0 0 1 8.2-8.2 8.31 8.31 0 0 1 8.6 8.4 8.464 8.464 0 0 1-8.5 8zm3.8-8.5a3.787 3.787 0 0 0-4.2-3.6 3.907 3.907 0 0 0-3.3 4 3.979 3.979 0 0 0 3.7 3.7 3.929 3.929 0 0 0 3.8-4.1z" class="cls-1" data-name="패스 261" transform="translate(92 -49.9)"/>
        <path id="패스_262" d="M1739.5 513.6a8.106 8.106 0 1 1 8.5-7.7c-.1 4.5-3.7 7.8-8.5 7.7zm3.9-8.1a3.6 3.6 0 0 0-4.1-3.6 3.745 3.745 0 0 0-3.4 3.9 3.979 3.979 0 0 0 3.7 3.7 3.785 3.785 0 0 0 3.8-4z" class="cls-1" data-name="패스 262" transform="translate(92 -49.9)"/>
        <path id="패스_263" d="M662.7 513.6a8.112 8.112 0 1 1 8.3-8 8.092 8.092 0 0 1-8.3 8zm3.6-8.1a3.559 3.559 0 0 0-4.1-3.6 3.652 3.652 0 0 0-3.4 3.8 3.9 3.9 0 0 0 3.7 3.7 3.6 3.6 0 0 0 3.8-3.9z" class="cls-1" data-name="패스 263" transform="translate(92 -49.9)"/>
        <path id="패스_264" d="M662.5 1043.6c-4.3.2-8.1-3-8.3-8.1a8.4 8.4 0 0 1 16.8.2c-.1 4.7-3.7 7.9-8.5 7.9zm.2-4.1a3.744 3.744 0 0 0 3.6-4.2 3.527 3.527 0 0 0-3.8-3.4 3.738 3.738 0 0 0-3.7 3.6 4.06 4.06 0 0 0 3.9 4z" class="cls-1" data-name="패스 264" transform="translate(92 -49.9)"/>
        <path id="패스_265" d="M1770 1055.2a8.451 8.451 0 0 1-16.9-.1 8.466 8.466 0 0 1 16.9.1zm-4.6-.1a3.828 3.828 0 0 0-3.6-3.8 3.925 3.925 0 0 0-4 3.9 3.828 3.828 0 0 0 3.6 3.8 3.925 3.925 0 0 0 4-3.9z" class="cls-1" data-name="패스 265" transform="translate(92 -49.9)"/>
        <path id="패스_266" d="M692.9 1055.3a8.415 8.415 0 0 1-8.5 8.1 8.308 8.308 0 0 1-8.4-8.6 8.192 8.192 0 0 1 8.6-7.8 8.339 8.339 0 0 1 8.3 8.3zm-4.7-.2a3.828 3.828 0 0 0-3.6-3.8 3.925 3.925 0 0 0-4 3.9 3.8 3.8 0 1 0 7.6-.1z" class="cls-1" data-name="패스 266" transform="translate(92 -49.9)"/>
        <path id="패스_267" d="M1739.6 1043.6a7.9 7.9 0 0 1-8.2-8.1 8.259 8.259 0 0 1 8.3-8.2 8.087 8.087 0 0 1 8.4 8.4c-.1 4.7-3.7 7.9-8.5 7.9zm3.8-8.1a3.607 3.607 0 0 0-3.6-3.7 3.674 3.674 0 0 0-3.9 3.9 4.066 4.066 0 0 0 3.6 3.8 3.754 3.754 0 0 0 3.9-4z" class="cls-1" data-name="패스 267" transform="translate(92 -49.9)"/>
        <path id="패스_268" d="M941.3 1079.1a10.066 10.066 0 0 1-10.3-10.3 10.451 10.451 0 1 1 20.9.2 10.237 10.237 0 0 1-10.6 10.1zm8.5-10a8.409 8.409 0 0 0-16.8-.7 8.409 8.409 0 1 0 16.8.7z" class="cls-1" data-name="패스 268" transform="translate(92 -49.9)"/>
        <path id="패스_269" d="M941.6 549.1a10.3 10.3 0 1 1 10.2-10.3 10.214 10.214 0 0 1-10.2 10.3zm0-18.6a8.214 8.214 0 0 0-8.7 8.1 8.431 8.431 0 0 0 8.4 8.6 8.307 8.307 0 0 0 8.4-8 8.092 8.092 0 0 0-8.1-8.7z" class="cls-1" data-name="패스 269" transform="translate(92 -49.9)"/>
        <path id="패스_271" d="M964.4 559.1a7.945 7.945 0 0 1-1.4 1.8 1.878 1.878 0 0 1-2.6.2 8.638 8.638 0 0 1-1.4-1.3c-2.8-2.8-5.7-5.5-8.4-8.4-1.9-2-1.8-2.7 1-4.8 2.1.4 3.2 2.3 4.7 3.6 1.4 1.3 2.8 2.6 4.1 4 1.4 1.5 3.2 2.6 4 4.9z" class="cls-1" data-name="패스 271" transform="translate(92 -49.9)"/>
        <path id="패스_274" d="M907.1 919.4c-1.7 1-3.4 2.1-5.5 3.3-.2-1-.4-1.7-.5-2.4l10.8-10.8h2.7c-1.1 2-1.5 3.8-2.8 5.1-1.6 1.6-3.2 3.2-4.7 4.8z" class="cls-1" data-name="패스 274" transform="translate(92 -49.9)"/>
        <path id="패스_275" d="M911.8 909.6L901 920.4c-2.5-.6-2.6-.8-1.7-2.7a7.63 7.63 0 0 1 .8-1.1c.1-.1.1-.2.2-.3 1.9-1.6 3.8-3.3 5.7-4.9 1.6-1.4 2.8-3.3 4.8-4.2 1.5.5 1.1 1.5 1 2.4z" class="cls-1" data-name="패스 275" transform="translate(92 -49.9)"/>
        <path id="패스_277" d="M907.1 919.4c1.6-1.6 3.1-3.2 4.7-4.7.8-1 1.7-1.4 2.8-.5 0 .3.1.7 0 .9-2.4 2.5-4.9 5-7.4 7.5-.3.3-1.2.4-1.2.3-.2-.5-.6-1.2-.4-1.6a7.007 7.007 0 0 1 1.5-1.9z" class="cls-1" data-name="패스 277" transform="translate(92 -49.9)"/>
        <path id="패스_278" d="M1479.6 405c-.5.7-1 1.4-1.6 2.2-1-.5-1.8-1-2.8-1.5.5-1.1 1-2 1.5-3a3.294 3.294 0 0 1 2.9 2.3z" class="cls-1" data-name="패스 278" transform="translate(92 -49.9)"/>
        <path id="패스_279" d="M431 964.9a21.232 21.232 0 0 1 1.4 1.9c.2.2.2.6.3 1.2-.8.5-1.7 1-2.7 1.7a9.255 9.255 0 0 1-1.1-1.6 13.085 13.085 0 0 1-.5-1.5c.8-.5 1.6-1 2.6-1.7z" class="cls-1" data-name="패스 279" transform="translate(92 -49.9)"/>
        <path id="패스_280" d="M440 410.3c1.2-.3 2-.5 3.1-.7a28.32 28.32 0 0 0 .9 2.7c-2.9 2-3.5 1.8-4-2z" class="cls-1" data-name="패스 280" transform="translate(92 -49.9)"/>
        <path id="패스_281" d="M1521.3 412.9c-1.3.3-2.2.6-3.4.9-.4-1.1-.7-2-1.2-3.2 1.3-.3 2.2-.6 3.4-.9a14.392 14.392 0 0 1 1.2 3.2z" class="cls-1" data-name="패스 281" transform="translate(92 -49.9)"/>
        <path id="패스_282" d="M1485.1 965.1c3.1 1.5 3.1 1.5 1.4 4.5-.9-.4-1.9-.8-3.1-1.3.6-1.1 1.1-2.1 1.7-3.2z" class="cls-1" data-name="패스 282" transform="translate(92 -49.9)"/>
        <path id="패스_283" d="M1506.9 969.9c-.6-1.4-1-2.2-1.5-3.2 1-.6 1.7-1 2.7-1.6.7 1 1.3 1.8 2.1 2.9-1.1.6-2 1.1-3.3 1.9z" class="cls-1" data-name="패스 283" transform="translate(92 -49.9)"/>
        <path id="패스_284" d="M1476.9 932.4c1 .7 1.9 1.3 2.7 1.9-1.4 3.2-1.4 3.2-4.4 1 .5-.8 1-1.7 1.7-2.9z" class="cls-1" data-name="패스 284" transform="translate(92 -49.9)"/>
        <path id="패스_285" d="M399.7 402.3c1.2.9 1.9 1.4 2.5 1.9a2.576 2.576 0 0 1-1.7 2.9c-.7-.4-1.5-.8-2.5-1.4.5-1.1 1-2 1.7-3.4z" class="cls-1" data-name="패스 285" transform="translate(92 -49.9)"/>
        <path id="패스_286" d="M1473.5 955.8c3.2-1.9 3.2-1.9 4.2 1.5-.8.5-1.8 1-2.9 1.6-.5-1.2-.9-2.1-1.3-3.1z" class="cls-1" data-name="패스 286" transform="translate(92 -49.9)"/>
        <path id="패스_287" d="M409.3 969.6c-.9-.4-1.9-.9-3.1-1.5.7-1.1 1.2-1.9 1.7-2.8 3.3 1.2 3.3 1.2 1.4 4.3z" class="cls-1" data-name="패스 287" transform="translate(92 -49.9)"/>
        <path id="패스_288" d="M397.5 428.7c-.5-1.1-.8-1.9-1.1-2.7a2.974 2.974 0 0 1 .7-.8c1.9-1 2.5-.9 3.1.4.6 1.4.4 1.9-1.4 2.8-.2.1-.6.1-1.3.3z" class="cls-1" data-name="패스 288" transform="translate(92 -49.9)"/>
        <path id="패스_289" d="M1473.4 425.9a9.012 9.012 0 0 1 1.2-1c1.6-.7 2.2-.5 2.7.7.6 1.3.4 1.8-1 2.6a13.085 13.085 0 0 1-1.5.5c-.4-.9-.9-1.8-1.4-2.8z" class="cls-1" data-name="패스 289" transform="translate(92 -49.9)"/>
        <path id="패스_290" d="M402.7 430.4c.8.7 1.5 1.3 2.4 2.1-.7.9-1.4 1.7-2.2 2.7-1-.8-1.7-1.5-2.7-2.3a29.462 29.462 0 0 1 2.5-2.5z" class="cls-1" data-name="패스 290" transform="translate(92 -49.9)"/>
        <path id="패스_291" d="M1479.8 430.4c.8.7 1.5 1.3 2.4 2.1-.7.9-1.4 1.7-2.2 2.7-1-.8-1.7-1.5-2.7-2.3.9-1 1.7-1.7 2.5-2.5z" class="cls-1" data-name="패스 291" transform="translate(92 -49.9)"/>
        <path id="패스_292" d="M1480 960.3c.9 1 1.5 1.6 2.3 2.4-.9.9-1.7 1.6-2.6 2.4-.9-.9-1.5-1.7-2.4-2.6.9-.7 1.6-1.3 2.7-2.2z" class="cls-1" data-name="패스 292" transform="translate(92 -49.9)"/>
        <path id="패스_293" d="M428.3 436.5c1-.6 1.8-1 2.8-1.6.7 1 1.3 1.9 2 3-1.2.7-2.1 1.2-3.2 1.8-.6-1.1-1.1-2.1-1.6-3.2z" class="cls-1" data-name="패스 293" transform="translate(92 -49.9)"/>
        <path id="패스_294" d="M1488.2 436.4c-.6 1.3-1 2.1-1.5 3.2-1.1-.5-2-.9-3.3-1.4.6-1.1 1-2 1.7-3.2a33.29 33.29 0 0 0 3.1 1.4z" class="cls-1" data-name="패스 294" transform="translate(92 -49.9)"/>
        <path id="패스_295" d="M1505.4 436.8a6.606 6.606 0 0 1 1.2-.9 14.367 14.367 0 0 1 1.6-.7c.6.8 1.2 1.6 2 2.8-1.1.7-1.9 1.2-3.1 1.9-.6-1.2-1.1-2.1-1.7-3.1z" class="cls-1" data-name="패스 295" transform="translate(92 -49.9)"/>
        <path id="패스_296" d="M402.3 965.3c-.7-.9-1.3-1.7-2-2.6.8-.7 1.5-1.4 2.3-2.1 2.9 2.1 2.9 2.1-.3 4.7z" class="cls-1" data-name="패스 296" transform="translate(92 -49.9)"/>
        <path id="패스_297" d="M1510.8 397c.8.6 1.5 1.1 2.4 1.8a7.774 7.774 0 0 1-1.3 1.9c-1.4 1.1-2.2 0-3.1-.8a3.19 3.19 0 0 1 2-2.9z" class="cls-1" data-name="패스 297" transform="translate(92 -49.9)"/>
        <path id="패스_298" d="M1482.9 396.7c.9 1.3 1.4 2 1.8 2.7-2.3 2.5-2.3 2.5-4.5-.3a24.656 24.656 0 0 0 2.7-2.4z" class="cls-1" data-name="패스 298" transform="translate(92 -49.9)"/>
        <path id="패스_299" d="M397.8 958.8c-.5-.9-1-1.8-1.7-2.9 1.1-.6 2-1 3.1-1.7a10.757 10.757 0 0 1 1.1 2.1c.4 1.7-1.2 1.9-2.5 2.5z" class="cls-1" data-name="패스 299" transform="translate(92 -49.9)"/>
        <path id="패스_300" d="M439.3 402.3c.7 1.1 1.3 2 2 3.1-1.2.6-2.1 1.1-2.9 1.6-2-2.5-2-2.5.9-4.7z" class="cls-1" data-name="패스 300" transform="translate(92 -49.9)"/>
        <path id="패스_301" d="M1521.5 948a22.755 22.755 0 0 0-.1 2.4 1.774 1.774 0 0 1-2.6.5 1.667 1.667 0 0 1-.8-2.4c.7-1.5 1.9-1.2 3.5-.5z" class="cls-1" data-name="패스 301" transform="translate(92 -49.9)"/>
        <path id="패스_302" d="M1472 947.8c3.1-.3 3.5-.2 3.5 1.2s-.5 2-1.9 2.1c-1.3.1-1.6-.3-1.6-3.3z" class="cls-1" data-name="패스 302" transform="translate(92 -49.9)"/>
        <path id="패스_303" d="M444.4 947.6a14.549 14.549 0 0 1 0 2.1 6.117 6.117 0 0 1-.5 1.2c-2.7-.2-3.1-.4-3.1-1.8-.1-1.3.4-1.5 3.6-1.5z" class="cls-1" data-name="패스 303" transform="translate(92 -49.9)"/>
        <path id="패스_304" d="M395 947.8c3-.2 3.4 0 3.5 1.4 0 1.3-.6 1.9-2 2-1.4 0-1.6-.4-1.5-3.4z" class="cls-1" data-name="패스 304" transform="translate(92 -49.9)"/>
        <path id="패스_305" d="M443 955.7c-.5 1.1-1 2-1.4 2.8-1.4-.2-2.6-.3-2.8-1.6a2.582 2.582 0 0 1 .7-2.1c1.4-1 2.3.2 3.5.9z" class="cls-1" data-name="패스 305" transform="translate(92 -49.9)"/>
        <path id="패스_306" d="M433.3 396.7c1.2 1 1.9 1.5 2.5 2.1-1.8 3.1-1.8 3.1-4.4.9.6-.9 1.1-1.7 1.9-3z" class="cls-1" data-name="패스 306" transform="translate(92 -49.9)"/>
        <path id="패스_307" d="M407.9 399.8c-2.8 2-2.8 2-4.7-.7.8-.6 1.5-1.3 2.5-2.1.7.9 1.4 1.7 2.2 2.8z" class="cls-1" data-name="패스 307" transform="translate(92 -49.9)"/>
        <path id="패스_308" d="M1520.1 955.9c-.5.9-.9 1.8-1.3 2.7-1.4-.2-2.6-.3-2.8-1.6a2.266 2.266 0 0 1 .7-2c1.3-1.1 2.3-.1 3.4.9z" class="cls-1" data-name="패스 308" transform="translate(92 -49.9)"/>
        <path id="패스_309" d="M425.2 971.1a7.925 7.925 0 0 1-1.7.4c-1.1.1-1.8-.2-1.9-1.4-.1-1 .1-1.9 1.3-2.1 1.3-.3 2 .1 2.3 1.5a8.383 8.383 0 0 1 0 1.6z" class="cls-1" data-name="패스 309" transform="translate(92 -49.9)"/>
        <path id="패스_310" d="M1502.4 971a8.561 8.561 0 0 1-1.5.5c-1 .1-1.9.1-2.1-1.2-.3-1.5.2-2.2 1.9-2.4a9.633 9.633 0 0 1 1.2.2c.1.9.3 1.9.5 2.9z" class="cls-1" data-name="패스 310" transform="translate(92 -49.9)"/>
        <path id="패스_311" d="M1498.3 396.1c-3.4.2-3.4.2-3.2-3.1h3.2z" class="cls-1" data-name="패스 311" transform="translate(92 -49.9)"/>
        <path id="패스_312" d="M421.1 396.3h-3c-.1-1.1-.2-2.1-.3-3.3h3.3z" class="cls-1" data-name="패스 312" transform="translate(92 -49.9)"/>
        <path id="패스_313" d="M425.2 441.1a7.924 7.924 0 0 1-1.7.4c-1.1.1-1.8-.2-1.9-1.4-.1-1 0-1.9 1.3-2.1 1.3-.3 2 .1 2.3 1.5a8.383 8.383 0 0 1 0 1.6z" class="cls-1" data-name="패스 313" transform="translate(92 -49.9)"/>
        <path id="패스_314" d="M1502.2 441c-2.7.7-3.1.6-3.4-.6-.3-1.4.2-2.2 1.4-2.4 1.6-.3 2 .3 2 3z" class="cls-1" data-name="패스 314" transform="translate(92 -49.9)"/>
        <path id="패스_315" d="M411 436.5c-.6 1.2-1 2.1-1.5 3.3-1.1-.6-2-1.1-3.2-1.8.6-1 1-1.8 1.7-2.8.9.4 1.8.8 3 1.3z" class="cls-1" data-name="패스 315" transform="translate(92 -49.9)"/>
        <path id="패스_316" d="M1520.1 425.9c-.5 1-.9 1.8-1.3 2.5-1.5-.1-2.8-.3-2.9-1.9a2.748 2.748 0 0 1 1-1.9c1.1-.5 2.1.2 3.2 1.3z" class="cls-1" data-name="패스 316" transform="translate(92 -49.9)"/>
        <path id="패스_317" d="M442.9 425.6a22.4 22.4 0 0 0-1.2 2.9c-1.6-.1-2.8-.3-2.9-1.9a1.99 1.99 0 0 1 .7-1.6c1.2-1.1 2.2-.1 3.4.6z" class="cls-1" data-name="패스 317" transform="translate(92 -49.9)"/>
        <path id="패스_318" d="M1472.1 421v-3a3.708 3.708 0 0 1 1.4-.4c.9-.1 1.9 0 2.1 1.2.2 1.3-.2 1.9-1.6 2.3a6.611 6.611 0 0 1-1.9-.1z" class="cls-1" data-name="패스 318" transform="translate(92 -49.9)"/>
        <path id="패스_319" d="M395.1 421c-.2-.9-.3-1.7-.5-2.8.7-.2 1.2-.5 1.7-.6 1-.1 1.9.1 2 1.3.2 1.3-.3 1.9-1.7 2.2a9.888 9.888 0 0 1-1.5-.1z" class="cls-1" data-name="패스 319" transform="translate(92 -49.9)"/>
        <path id="패스_320" d="M1473.3 410.1c1.3-.2 2.6-.2 2.9 1.4a2.079 2.079 0 0 1-.9 1.9 2.443 2.443 0 0 1-2.2-.1c-1.1-1-.6-2.2.2-3.2z" class="cls-1" data-name="패스 320" transform="translate(92 -49.9)"/>
        <path id="패스_321" d="M399.2 411.7a1.686 1.686 0 0 1-2 1.9c-1.2-.1-1.7-.6-1.7-1.7a1.819 1.819 0 0 1 1.5-2c1.3 0 2.2.7 2.2 1.8z" class="cls-1" data-name="패스 321" transform="translate(92 -49.9)"/>
        <path id="패스_322" d="M1515.6 407.1c-2.1-2.6-2.1-2.6.4-4.4 1.4 1 1.4 1 2.2 2.9-.8.4-1.6.9-2.6 1.5z" class="cls-1" data-name="패스 322" transform="translate(92 -49.9)"/>
        <path id="패스_323" d="M417.9 922.9h3.3a7.543 7.543 0 0 1 0 2.6c-.4 1.1-1.6 1-2.4.7-1.5-.5-1.1-1.7-.9-3.3z" class="cls-1" data-name="패스 323" transform="translate(92 -49.9)"/>
        <path id="패스_324" d="M1494.8 922.9h3.4a11.534 11.534 0 0 1 .1 2.6c-.4 1.1-1.5 1-2.4.7-1.8-.6-.8-2-1.1-3.3z" class="cls-1" data-name="패스 324" transform="translate(92 -49.9)"/>
        <path id="패스_325" d="M1506.4 925c-.4 1-.8 1.8-1.3 2.9-1-.3-1.8-.6-2.8-.9.2-1.1.3-2 .4-2.7 1.6-1.1 2.5 0 3.7.7z" class="cls-1" data-name="패스 325" transform="translate(92 -49.9)"/>
        <path id="패스_326" d="M396.1 940.1c1.3-.3 2.6-.4 3 1.2a2.578 2.578 0 0 1-.7 2 2.694 2.694 0 0 1-2.5-.3c-1-.8-.4-2 .2-2.9z" class="cls-1" data-name="패스 326" transform="translate(92 -49.9)"/>
        <path id="패스_327" d="M1515.4 937.1c-.6-.9-1.2-1.6-1.8-2.5.9-.8 1.7-1.4 2.7-2.3.7 1.1 1.3 1.9 2.1 3a29.742 29.742 0 0 1-3 1.8z" class="cls-1" data-name="패스 327" transform="translate(92 -49.9)"/>
        <path id="패스_328" d="M440.2 940.4c.8-.2 1.7-.4 2.9-.7a7.712 7.712 0 0 1 .7 2.7c-.1 1.2-1.3 1.3-2.2 1.2-1.7-.4-1.8-1.7-1.4-3.2z" class="cls-1" data-name="패스 328" transform="translate(92 -49.9)"/>
        <path id="패스_329" d="M441.2 935.3c-2.7 1.7-3.3 1.8-4.1.3-.7-1.2-.5-1.4 2.1-3.2.7 1 1.4 1.9 2 2.9z" class="cls-1" data-name="패스 329" transform="translate(92 -49.9)"/>
        <path id="패스_330" d="M1476.3 941.6a1.733 1.733 0 0 1-1.5 2c-1.4.2-2.3-.5-2.3-1.6 0-1.2.5-2 1.4-2.1a2.031 2.031 0 0 1 2.4 1.7z" class="cls-1" data-name="패스 330" transform="translate(92 -49.9)"/>
        <path id="패스_331" d="M1482.5 927.4c.8-.1 2.1 1.1 2.2 2.1.1.7-.9 1.8-1.8 1.9-.9.2-2.1-.8-2.4-1.8-.2-.8 1-2.1 2-2.2z" class="cls-1" data-name="패스 331" transform="translate(92 -49.9)"/>
        <path id="패스_332" d="M407.6 930a26.472 26.472 0 0 0-2.2 1.7c-.8-.8-1.5-1.6-2.2-2.3 2.6-2.8 2.7-2.8 4.4.6z" class="cls-1" data-name="패스 332" transform="translate(92 -49.9)"/>
        <path id="패스_333" d="M1513.1 929.4c-2.1 2.1-2.1 2.1-4.4.5.4-.8.9-1.7 1.3-2.5 1.6-.3 2.4.6 3.1 2z" class="cls-1" data-name="패스 333" transform="translate(92 -49.9)"/>
        <path id="패스_334" d="M1516.9 940.5c1.1-.3 2-.6 3.2-1 .3 1 .9 1.8.8 2.7-.1 1.2-1.2 1.3-2.2 1.3-1.9-.1-1.4-1.6-1.8-3z" class="cls-1" data-name="패스 334" transform="translate(92 -49.9)"/>
        <path id="패스_335" d="M433.6 927.2c2.4 1.6 2.6 1.9 1.8 3-1 1.4-1.7 1.4-3.8-.2a2.715 2.715 0 0 1 2-2.8z" class="cls-1" data-name="패스 335" transform="translate(92 -49.9)"/>
        <path id="패스_336" d="M436.7 435.2c-1-.9-1.7-1.6-2.6-2.4.7-.8 1.3-1.5 2.1-2.4.9.7 1.7 1.3 2.8 2.1-.8.9-1.4 1.7-2.3 2.7z" class="cls-1" data-name="패스 336" transform="translate(92 -49.9)"/>
        <path id="패스_337" d="M1513.5 430.4c.9.8 1.7 1.4 2.7 2.2l-2.5 2.5c-.9-.9-1.6-1.7-2.7-2.9.9-.6 1.6-1.1 2.5-1.8z" class="cls-1" data-name="패스 337" transform="translate(92 -49.9)"/>
        <path id="패스_338" d="M417.4 441.6c-1.3-.2-2.3-.3-3.3-.4.2-2.9.4-3.3 1.8-3.3 1.3 0 1.6.5 1.5 3.7z" class="cls-1" data-name="패스 338" transform="translate(92 -49.9)"/>
        <path id="패스_339" d="M1494.3 441.5c-1-.1-1.9-.1-2.7-.2-.9-1.3-.7-2.4.2-3.1a2.238 2.238 0 0 1 2.1-.1c1.2.7.9 1.9.4 3.4z" class="cls-1" data-name="패스 339" transform="translate(92 -49.9)"/>
        <path id="패스_340" d="M1521.5 418.2a21.12 21.12 0 0 0-.2 2.6c-1.5.4-2.7.5-3.3-.9-.2-.5-.2-1.4.2-1.7.9-1.1 2.1-1 3.3 0z" class="cls-1" data-name="패스 340" transform="translate(92 -49.9)"/>
        <path id="패스_341" d="M409.8 394.7c1.3-.4 2.3-.7 3.5-1.1.3 1.2.5 2 .7 2.9-2.8 1.6-2.8 1.6-4.2-1.8z" class="cls-1" data-name="패스 341" transform="translate(92 -49.9)"/>
        <path id="패스_342" d="M426 393.5c1.3.6 2.2 1 3.1 1.4-1 2.9-1.2 3.1-2.6 2.7-1.4-.5-1.5-.7-.5-4.1z" class="cls-1" data-name="패스 342" transform="translate(92 -49.9)"/>
        <path id="패스_343" d="M1486.9 394.7c1.3-.4 2.3-.7 3.5-1a25.164 25.164 0 0 1 .6 2.9c-2.7 1.5-2.7 1.5-4.1-1.9z" class="cls-1" data-name="패스 343" transform="translate(92 -49.9)"/>
        <path id="패스_344" d="M1506.2 394.9c-.2 1.4-.4 2.8-2.1 2.6-.5 0-1.5-.5-1.5-.8a3.626 3.626 0 0 1 .4-2.6c1.2-1 2.3 0 3.2.8z" class="cls-1" data-name="패스 344" transform="translate(92 -49.9)"/>
        <path id="패스_345" d="M443.8 421c-2.7-.3-3-.4-3.1-1.8 0-1.4.4-1.6 3.1-1.5 1 1.1.7 2.2 0 3.3z" class="cls-1" data-name="패스 345" transform="translate(92 -49.9)"/>
        <path id="패스_346" d="M1494.7 971.6c-1.5-.1-2.4-.2-3.6-.3a15.159 15.159 0 0 1 .2-2.3c.3-1.1 1.2-1.3 2.2-1 1.8.5 1.1 1.9 1.2 3.6z" class="cls-1" data-name="패스 346" transform="translate(92 -49.9)"/>
        <path id="패스_347" d="M417.3 971.6c-1.3-.2-2.3-.4-3.3-.5.3-2.9.5-3.3 1.9-3.2 1.4 0 1.6.5 1.4 3.7z" class="cls-1" data-name="패스 347" transform="translate(92 -49.9)"/>
        <path id="패스_348" d="M400.8 937c-.9-.4-1.8-.9-2.9-1.5.7-1.1 1.2-1.9 1.7-2.8 3.3 1.6 3.3 1.6 1.2 4.3z" class="cls-1" data-name="패스 348" transform="translate(92 -49.9)"/>
        <path id="패스_349" d="M1511.4 962.9c2-2.7 2-2.7 4.5-.1-.7.7-1.3 1.5-2.2 2.4a24.857 24.857 0 0 0-2.3-2.3z" class="cls-1" data-name="패스 349" transform="translate(92 -49.9)"/>
        <path id="패스_350" d="M439.1 962.7l-2.5 2.5c-.9-.9-1.5-1.7-2.5-2.7.7-.8 1.3-1.5 2-2.3 1.2 1 2 1.6 3 2.5z" class="cls-1" data-name="패스 350" transform="translate(92 -49.9)"/>
        <path id="패스_351" d="M409.4 924.9c1.6-.6 2.4-1 3.6-1.4a20.519 20.519 0 0 1 .8 2.8c.1 1-.9 1.3-1.6 1.4-1.9.3-1.7-1.5-2.8-2.8z" class="cls-1" data-name="패스 351" transform="translate(92 -49.9)"/>
        <path id="패스_352" d="M429.2 924.6c-1.3 3.2-1.3 3.2-4 2.3.1-1 .3-2 .4-3.3 1.3.4 2.3.7 3.6 1z" class="cls-1" data-name="패스 352" transform="translate(92 -49.9)"/>
        <path id="패스_353" d="M1490.5 924c.2.8.4 1.7.6 2.9-.9.4-1.8.7-2.8 1.1-.5-1-1-1.8-1.4-2.6 1-1.3 2-1.9 3.6-1.4z" class="cls-1" data-name="패스 353" transform="translate(92 -49.9)"/>
        <path id="패스_354" d="M50.3 980.9c.3 6.5-4.3 13.7-11.2 17.2-7.8 4-15.6 3.9-23.4-1A9.594 9.594 0 0 1 17 995c4-4.1 8.1-8.2 12.1-12.3a6.321 6.321 0 0 1 5-2.2c4.6.1 9.3 0 13.9.1a14.3 14.3 0 0 1 2.3.3z" class="cls-1" data-name="패스 354" transform="translate(92 -49.9)"/>
        <path id="패스_355" d="M50.5 450.5c0 7.5-4.9 14.7-12.1 18.1-7.6 3.5-15.1 3.4-22.4-1.4a7.2 7.2 0 0 1 1-1.8c4.2-4.4 8.5-8.7 12.8-13a4.743 4.743 0 0 1 3.7-1.8c5.4-.1 11-.1 17-.1z" class="cls-1" data-name="패스 355" transform="translate(92 -49.9)"/>
        <path id="패스_356" d="M1092.7 997a19.172 19.172 0 0 1 1.9-2.3c3.8-3.9 7.7-7.7 11.4-11.6a6.909 6.909 0 0 1 5.9-2.5c4.3.2 8.6 0 12.9.1a24.772 24.772 0 0 1 2.7.3c.4 6.4-4.3 13.7-11.1 17.2-7.9 4-15.6 3.8-23.7-1.2z" class="cls-1" data-name="패스 356" transform="translate(92 -49.9)"/>
        <path id="패스_358" d="M1253.8 807.5a7.351 7.351 0 1 1 .1 14.7 7.353 7.353 0 1 1-.1-14.7zm-.1 2.4a4.863 4.863 0 0 0-4.8 5.3 5.056 5.056 0 0 0 10.1-.4 5 5 0 0 0-5.3-4.9z" class="cls-1" data-name="패스 358" transform="translate(108 -17.9)"/>
        <path id="패스_359" d="M176.6 822.2a7.71 7.71 0 0 1-7.4-7.3 7.514 7.514 0 1 1 7.4 7.3zm5.2-7.6a4.873 4.873 0 0 0-5.4-4.7 4.956 4.956 0 0 0-4.7 5 5.053 5.053 0 1 0 10.1-.3z" class="cls-1" data-name="패스 359" transform="translate(92 -49.9)"/>
        <path id="패스_360" d="M1253.8 292.1a7.312 7.312 0 1 1 .5-14.6 7.3 7.3 0 1 1-.5 14.6zm5.1-7.3a5.053 5.053 0 0 0-10.1-.2 5.209 5.209 0 0 0 5 5.3 5 5 0 0 0 5.1-5.1z" class="cls-1" data-name="패스 360" transform="translate(92 -49.9)"/>
        <path id="패스_361" d="M184.2 284.7a7.275 7.275 0 0 1-7.2 7.4 7.3 7.3 0 1 1 7.2-7.4zm-2.4.3a5.079 5.079 0 0 0-5.1-5.2 4.96 4.96 0 0 0-5 4.7 5.057 5.057 0 1 0 10.1.5z" class="cls-1" data-name="패스 361" transform="translate(92 -49.9)"/>
        <path id="패스_362" d="M1694.1 151a8.337 8.337 0 0 1-9.3 7.6 8.2 8.2 0 0 1-7.5-8.9 8.431 8.431 0 0 1 9-7.5 8.569 8.569 0 0 1 7.8 8.8zm-3.2-.3a5.467 5.467 0 0 0-5.3-5.6 5.7 5.7 0 0 0-5.4 5.2 5.451 5.451 0 0 0 5 5.5 5.156 5.156 0 0 0 5.7-5.1z" class="cls-1" data-name="패스 362" transform="translate(92 -49.9)"/>
        <path id="패스_363" d="M616.9 150.5a8.4 8.4 0 1 1-8.3-8.3 8.547 8.547 0 0 1 8.3 8.3zm-8.3 5.3a5.021 5.021 0 0 0 5.2-5.1 5.4 5.4 0 0 0-5.4-5.5 5.773 5.773 0 0 0-5.3 5.2 5.338 5.338 0 0 0 5.5 5.4z" class="cls-1" data-name="패스 363" transform="translate(92 -49.9)"/>
        <path id="패스_364" d="M1685.6 672.2a8.351 8.351 0 0 1 .3 16.7 8.354 8.354 0 1 1-.3-16.7zm5.3 8.4a5.441 5.441 0 0 0-5-5.4 5.553 5.553 0 0 0-5.7 5.3 5.405 5.405 0 0 0 5.6 5.3 5.079 5.079 0 0 0 5.1-5.2z" class="cls-1" data-name="패스 364" transform="translate(92 -49.9)"/>
        <path id="패스_366" d="M389.9 718.2c-4.2.8-27.8.8-31.9 0a19.968 19.968 0 0 1-.5-2.6c-.6-14.4-.2-42.6.7-46.6 3.3-.7 6.8-.2 10.3-.3 3.7-.1 7.3-.1 11 0 3.5.1 7-.5 10.6.5.1 1.2.3 2.3.3 3.4.4 21.4.2 41.1-.5 45.6zm-30.3-1H379c3.1-.1 6.3.3 9.5-.3.1-.9.3-1.5.3-2.1v-42.2a9.869 9.869 0 0 0-.6-2.5c-5 0-9.7-.1-14.5 0-4.7.1-9.5-.4-14.1.3-.7 4.3-.7 42 0 46.8z" class="cls-1" data-name="패스 366" transform="translate(92 -49.9)"/>
        <path id="패스_367" d="M374 724.9a2.257 2.257 0 0 1-2.4-2.4 2.5 2.5 0 0 1 2.5-2.3 2.339 2.339 0 0 1 2.1 2.7 2.056 2.056 0 0 1-2.2 2zm.4-2.5a2.091 2.091 0 0 1-.6-.4c-.1.2-.3.4-.3.6s.3.3.5.4a.918.918 0 0 0 .4-.6z" class="cls-1" data-name="패스 367" transform="translate(92 -49.9)"/>
        <path id="패스_368" d="M358 188.3c-.6-3.9-.9-38.3-.4-46.9a12.853 12.853 0 0 1 .4-2.5c5.4-.8 10.6-.3 15.8-.4s10.5-.1 15.4 0c1.7 1.6 1.2 3.3 1.2 4.8v39.8a13.762 13.762 0 0 1-.4 4.9 7.945 7.945 0 0 1-2.2.6H360a5.116 5.116 0 0 1-2-.3zm1.1-1.3c3.7.5 6.9.2 10 .3 3.3 0 6.7.1 10 0 3.1-.1 6.3.5 9.5-.5.1-1 .2-1.8.2-2.6V143a20.729 20.729 0 0 0-.5-3h-26.9a7.189 7.189 0 0 0-1.9.4 14.812 14.812 0 0 0-.3 1.9c-.1 14.8-.1 29.5-.1 44.7z" class="cls-1" data-name="패스 368" transform="translate(92 -49.9)"/>
        <path id="패스_369" d="M376.3 192.5a2.311 2.311 0 0 1-2.3 2.5 2.2 2.2 0 0 1-2.3-1.9 2.279 2.279 0 0 1 2.1-2.7 2.141 2.141 0 0 1 2.5 2.1zm-1.9.3c-.1-.2-.3-.5-.4-.7 0 0-.4.1-.4.2 0 .3.1.5.1.8a1.08 1.08 0 0 1 .7-.3z" class="cls-1" data-name="패스 369" transform="translate(92 -49.9)"/>
        <path id="패스_370" d="M1467.2 188.4a16.737 16.737 0 0 1-2.8.3c-9.4 0-18.8-.1-28.2-.2-.3 0-.5-.3-1-.6a6.222 6.222 0 0 1-.4-1.6v-46a3.5 3.5 0 0 1 .5-1.3 3.816 3.816 0 0 1 1.3-.4c9.3 0 18.5-.1 27.8-.1.8 0 1.5.2 2.5.3a15.67 15.67 0 0 1 .6 2.8v44.1c0 .8-.2 1.6-.3 2.7zm-1.5-1.6c.1-.9.3-1.5.3-2.1v-42.1a10.616 10.616 0 0 0-.5-2.3c-1.2-.1-2.1-.2-3-.2-8.3 0-16.6.1-24.9.1-.3 0-.5.3-1.2.6-.4 3.6-.1 7.4-.2 11.1v23.5a106.087 106.087 0 0 0 .2 11.3c3.9.7 24 .8 29.3.1z" class="cls-1" data-name="패스 370" transform="translate(92 -49.9)"/>
        <path id="패스_371" d="M1453.4 192.7a2.305 2.305 0 0 1-4.6.1 2.315 2.315 0 0 1 2.3-2.5 2.287 2.287 0 0 1 2.3 2.4zm-1.8.1c-.1-.3-.2-.7-.4-.7-.2-.1-.5.2-.8.3a2.991 2.991 0 0 0 .4.8 5.935 5.935 0 0 0 .8-.4z" class="cls-1" data-name="패스 371" transform="translate(92 -49.9)"/>
        <path id="패스_372" d="M1435.7 668.7h29.6a9.687 9.687 0 0 1 2 .5c.1 1.2.3 2.2.3 3.3.4 21.9.2 41.3-.5 45.6a7.173 7.173 0 0 1-2.1.5h-27.8a8.8 8.8 0 0 1-2-.4 10.615 10.615 0 0 1-.5-2.3c0-15.3.1-30.6.2-45.9 0-.3.4-.7.8-1.3zm29.8 48.3a13.013 13.013 0 0 0 .4-1.9v-42.7a13.975 13.975 0 0 0-.6-2.4c-5 0-9.8-.1-14.5 0s-9.5-.5-14.3.4c-.1.9-.3 1.5-.3 2.1v42.2a9.019 9.019 0 0 0 .6 2.2c9.6.1 19 .1 28.7.1z" class="cls-1" data-name="패스 372" transform="translate(92 -49.9)"/>
        <path id="패스_373" d="M1453.4 722.9a2.225 2.225 0 0 1-2.7 2 2.276 2.276 0 0 1-2-2.3 2.5 2.5 0 0 1 2.5-2.3 2.328 2.328 0 0 1 2.2 2.6zm-2.2.2a2.118 2.118 0 0 0 .3-.7c0-.1-.4-.2-.6-.3a2.118 2.118 0 0 0-.3.7 3.326 3.326 0 0 0 .6.3z" class="cls-1" data-name="패스 373" transform="translate(92 -49.9)"/>
        <path id="패스_374" d="M374.4 722.4c-.1.2-.3.5-.4.7-.2-.1-.5-.3-.5-.4 0-.2.2-.4.3-.6z" class="cls-1" data-name="패스 374" transform="translate(92 -49.9)"/>
        <path id="패스_375" d="M374.4 192.8a1.854 1.854 0 0 1-.7.2c0-.3-.1-.5-.1-.8 0-.1.3-.2.4-.2.1.3.3.5.4.8z" class="cls-1" data-name="패스 375" transform="translate(92 -49.9)"/>
        <path id="패스_376" d="M1451.6 192.8c-.3.1-.5.3-.8.4a2.991 2.991 0 0 0-.4-.8c.3-.1.6-.4.8-.3.3 0 .3.4.4.7z" class="cls-1" data-name="패스 376" transform="translate(92 -49.9)"/>
        <path id="패스_377" d="M1451.2 723.1c-.2-.1-.5-.2-.5-.4s.2-.4.3-.7c.2.1.6.2.6.3a5.918 5.918 0 0 1-.4.8z" class="cls-1" data-name="패스 377" transform="translate(92 -49.9)"/>
    </g>
</svg>
