<svg xmlns="http://www.w3.org/2000/svg" viewBox="0 0 80 80">
    <defs>
        <style>
            .cls-1{fill:#e77f7e}.cls-2{fill:#bd0f1b}.cls-3{fill:#fff;stroke:#bd0f1b;stroke-width:3px}
        </style>
    </defs>
    <g id="bigicon4" transform="translate(-648 -3750)">
        <g id="그룹_129" data-name="그룹 129" transform="translate(659.662 3818.14)">
            <path id="패스_911" d="M11.6 67.6h37.819s-.1 8.266 5.417 9.778H14.91S11.4 75.866 11.6 67.6z" class="cls-1" data-name="패스 911" transform="translate(-11.592 -67.6)"/>
        </g>
        <g id="그룹_130" data-name="그룹 130" transform="translate(712.526 3751.613)">
            <path id="패스_912" d="M64.3 11.882h14.145S79.147 1.6 71.422 1.6 64.3 11.882 64.3 11.882z" class="cls-1" data-name="패스 912" transform="translate(-64.289 -1.6)"/>
        </g>
        <path id="패스_913" d="M15.028 16.7l26.785 26.813-9.731 8.366L6 26.478z" class="cls-1" data-name="패스 913" transform="translate(648.052 3750.134)"/>
        <path id="패스_914" d="M79.923 8.87A8.446 8.446 0 0 0 71.1 0H26.555a8.692 8.692 0 0 0-8.828 10.483c.1.5.8 1.31 1.2 1.31a2.539 2.539 0 0 0 1.705-1.008c.3-.4.2-1.21.2-1.814.1-3.73 2.107-5.746 5.718-5.746h35.818a17 17 0 0 1 2.107.1c-1.806 2.419-1.605 4.939-1.605 7.459v60.884a5.4 5.4 0 0 1-4.916 5.04 5.24 5.24 0 0 1-5.718-4.133 18.163 18.163 0 0 1-.1-3.326c0-2.621-.3-2.923-2.809-2.923h-28.39V52.617c0-1.109-.4-2.016-1.705-1.915-1.2.1-1.5.907-1.4 1.915v13.709h-5.221c-1.605 0-2.909.706-3.21 2.218-1.4 6.048 2.408 11.39 7.925 11.39 13.643.1 27.186.1 40.829-.1a9.355 9.355 0 0 0 5.016-1.915c2.608-1.814 3.11-4.637 3.11-7.762v-56.65h9.129c5.015.302 4.513.403 4.513-4.637zm-31.4 67.838h-30.8a5.3 5.3 0 0 1-5.517-5.645c0-.907.2-1.411 1.2-1.411h34.717s-.1 4.939 1.906 6.955a7.072 7.072 0 0 1-1.505.101zm27.99-66.426H66.381c-.5-2.52 0-4.536 2.006-5.947A4.811 4.811 0 0 1 74 4.032c2.312 1.31 3.014 3.528 2.513 6.25z" class="cls-2" data-name="패스 914" transform="translate(648.062 3750)"/>
        <path id="패스_915" d="M5.518 27.932a2.1 2.1 0 0 1-1.1-.4L1.4 24.5c-.1-.1-.2-.2-.2-.3a5.588 5.588 0 0 1 .4-7.459l3.812-3.83a5.522 5.522 0 0 1 7.423-.4c.1.1.2.1.3.2l3.009 3.024a1.52 1.52 0 0 1 .4 1.109 2.12 2.12 0 0 1-.4 1.109l-9.53 9.576a2.1 2.1 0 0 1-1.096.403zm-1.706-5.443L5.618 24.3l7.423-7.459-1.906-1.811-.1-.1a2.5 2.5 0 0 0-3.511.1l-3.812 3.83a2.536 2.536 0 0 0-.1 3.528c.1 0 .1 0 .2.101z" class="cls-2" data-name="패스 915" transform="translate(648.033 3750.09)"/>
        <g id="그룹_131" data-name="그룹 131" transform="translate(673.614 3761.592)">
            <path id="패스_916" d="M56.3 14.726H27.105a1.588 1.588 0 0 1-1.605-1.613 1.588 1.588 0 0 1 1.605-1.613H56.3a1.588 1.588 0 0 1 1.6 1.613 1.654 1.654 0 0 1-1.6 1.613z" class="cls-1" data-name="패스 916" transform="translate(-25.5 -11.5)"/>
        </g>
        <g id="그룹_132" data-name="그룹 132" transform="translate(684.348 3769.656)">
            <path id="패스_917" d="M56.263 22.726H37.805a1.588 1.588 0 0 1-1.605-1.613 1.588 1.588 0 0 1 1.605-1.613h18.458a1.588 1.588 0 0 1 1.605 1.613 1.588 1.588 0 0 1-1.605 1.613z" class="cls-1" data-name="패스 917" transform="translate(-36.2 -19.5)"/>
        </g>
        <g id="그룹_133" data-name="그룹 133" transform="translate(687.959 3777.72)">
            <path id="패스_918" d="M56.252 30.726H41.405a1.588 1.588 0 0 1-1.605-1.613 1.588 1.588 0 0 1 1.605-1.613h14.847a1.588 1.588 0 0 1 1.605 1.613 1.588 1.588 0 0 1-1.605 1.613z" class="cls-1" data-name="패스 918" transform="translate(-39.8 -27.5)"/>
        </g>
        <g id="그룹_134" data-name="그룹 134" transform="translate(694.179 3785.885)">
            <path id="패스_919" d="M56.232 38.826h-8.627A1.588 1.588 0 0 1 46 37.213a1.588 1.588 0 0 1 1.605-1.613h8.627a1.588 1.588 0 0 1 1.605 1.613 1.588 1.588 0 0 1-1.605 1.613z" class="cls-1" data-name="패스 919" transform="translate(-46 -35.6)"/>
        </g>
        <path id="패스_920" d="M45.948 53.29v-.2l-2.709-9.979A1.535 1.535 0 0 0 42.136 42a1.419 1.419 0 0 0-1.4.4l-1.1 1.109.8.806.6 2.117.4 1.613 1.5 5.746v.1a.371.371 0 0 1-.1.3.367.367 0 0 1-.3.1h-.1l-6.119-1.613-3.31-.806-.9-.907-.9 1.109a1.5 1.5 0 0 0-.4 1.411A1.535 1.535 0 0 0 31.9 54.6l7.925 2.117 4.113.806c1 .1 2.207.3 2.608-.2.606-.707-.297-2.923-.598-4.033z" class="cls-2" data-name="패스 920" transform="translate(648.131 3750.335)"/>
        <path id="패스_921" d="M43.023 42.718L16.138 15.7a1.45 1.45 0 0 0-2.107 0L4.5 25.28a1.622 1.622 0 0 0-.5 1.108 2.12 2.12 0 0 0 .4 1.112l26.886 27.011a1.712 1.712 0 0 0 2.207 0L35.3 52.7l-2.006-.5-2.911-2.93L7.712 26.388l7.423-7.459L37.2 41.206l2.508 2.52.8.806.6 2.117 1.806-1.814a1.781 1.781 0 0 0 .1-2.117z" class="cls-2" data-name="패스 921" transform="translate(648.046 3750.122)"/>
        <path id="패스_922" d="M32.2 52.171a2.957 2.957 0 0 1 3.009-3.024 2.539 2.539 0 0 0 2.809-2.822 3.056 3.056 0 0 1 3.11-3.125" class="cls-3" data-name="패스 922" transform="translate(648.135 3750.345)"/>
    </g>
</svg>
