<svg xmlns="http://www.w3.org/2000/svg" viewBox="0 0 83.633 83.621">
    <defs>
        <style>
            .cls-1{fill:#e77f7e}.cls-2{fill:none;stroke:#b1131b}.cls-2,.cls-4{stroke-width:3px}.cls-3{fill:#bd0f1b}.cls-4,.cls-5{fill:#fff}.cls-4{stroke:#dc7a79}
        </style>
    </defs>
    <g id="bigicon5" transform="translate(-1105.49 -3749.879)">
        <path id="패스_1013" d="M67.563 42.74a7.86 7.86 0 0 1-4.377 1.769c-1.98.312-2.71-.936-2.293-2.913a47.18 47.18 0 0 0 .938-5.306c.208-2.809-1.042-3.849-3.752-3.433-1.146.208-2.293.832-3.439.936s-3.023.207-3.44-.416a6.08 6.08 0 0 1-.73-4.057c.521-2.081 1.772-4.057 2.5-6.138.521-1.456 1.668-3.225.208-4.473s-3.127-.1-4.482.624c-2.084 1.04-4.065 2.393-6.149 3.433-1.772.832-3.648 1.665-5.42-.1-1.251-1.352-.938-4.161.938-6.034C42.654 11.947 47.448 7.473 52.034 3l27.411 27.36c-3.856 3.953-7.713 8.323-11.882 12.38z" class="cls-1" data-name="패스 1013" transform="translate(1107.034 3750.04)"/>
        <path id="패스_1014" d="M81.441 31.441l-2.5-2.5v-.1C69.977 19.893 61.118 10.947 52.155 2a7.673 7.673 0 0 1-.625.52 3899.306 3899.306 0 0 1-29.5 29.441c-.73.728-.521 1.248-.313 2.081 1.251 3.953 2.5 7.906 3.544 11.964a5.064 5.064 0 0 1-2.293 6.034 70.141 70.141 0 0 1-8.65 4.785c-7.604 3.12-11.252 9.05-12.711 16.644-.73 3.953.938 7.594 5.315 8.323a.224.224 0 0 1 .209.208h2.814a45.063 45.063 0 0 0 5.315-1.665c5.211-2.289 9.276-5.826 11.569-11.131 1.042-2.289 2.189-4.681 3.439-6.866 2.606-4.473 4.273-5.306 9.276-3.953a75.318 75.318 0 0 1 9.276 3.225c1.251.52 1.98.52 2.918-.52 7.712-7.8 15.529-15.6 23.346-23.3z" class="cls-2" data-name="패스 1014" transform="translate(1105.559 3750)"/>
        <ellipse id="타원_152" cx="3.856" cy="3.849" class="cls-3" data-name="타원 152" rx="3.856" ry="3.849" transform="translate(1112.376 3818.892)"/>
        <path id="패스_1015" d="M53.333 57.738C43.223 48.376 32.905 38.6 22.9 29.338c2.084-1.873 4.169-4.161 6.358-6.138 10.005 9.363 20.323 18.934 30.433 28.3-2.191 1.973-4.274 4.158-6.358 6.238z" class="cls-4" data-name="패스 1015" transform="translate(1106.465 3750.855)"/>
        <path id="패스_1016" d="M37.663 14.5s-3.022 5.306-.625 7.7 8.338-1.456 8.338-1.456 5.624-4.579 7.712-2.395-1.668 8.01-1.668 8.01-2.606 4.265-.208 6.658 7.608-2.393 10.005 0-1.563 8.843 0 10.4 5.42.936 8.234-1.873" class="cls-2" data-name="패스 1016" transform="translate(1107.023 3750.504)"/>
        <path id="패스_1023" d="M.066 1.064l51.441-.047v2.187L.064 3.251z" class="cls-5" data-name="패스 1023" transform="rotate(43.34 -4192.897 3307.96)"/>
        <path id="패스_1024" d="M.066 1.064l51.441-.047v2.187L.064 3.251z" class="cls-5" data-name="패스 1024" transform="rotate(43.34 -4175.052 3314.95)"/>
    </g>
</svg>
