<svg xmlns="http://www.w3.org/2000/svg" viewBox="0 0 80 80">
    <defs>
        <style>
            .cls-1{fill:#e77f7e}.cls-2{fill:#bd0f1b}.cls-3{fill:#fff}
        </style>
    </defs>
    <g id="bigicon3" transform="translate(-1559 -3370)">
        <path id="패스_905" d="M57.106 55.2h3.011l17.567 16.2v5.333l-2.811 1.409-3.513-1.407L55.4 61.036v-2.817z" class="cls-1" data-name="패스 905" transform="translate(1559.208 3370.347)"/>
        <g id="그룹_125" data-name="그룹 125" transform="translate(1559 3370)">
            <path id="패스_906" d="M30.113 0a30.189 30.189 0 0 0 0 60.377A29.64 29.64 0 0 0 52.5 50.314l-.6-.6a7.8 7.8 0 0 1-.9.3l-1.606-.7a26.8 26.8 0 0 1-19.272 8.05 27.17 27.17 0 1 1 27.1-27.17 27.508 27.508 0 0 1-2.409 11.17l2.911.906a30.707 30.707 0 0 0 2.509-12.176A30.025 30.025 0 0 0 30.113 0z" class="cls-1" data-name="패스 906"/>
        </g>
        <g id="그룹_126" data-name="그룹 126" transform="translate(1567.833 3378.553)">
            <ellipse id="타원_116" cx="21.782" cy="21.836" class="cls-1" data-name="타원 116" rx="21.782" ry="21.836"/>
        </g>
        <path id="패스_907" d="M30.088 9.519A20.629 20.629 0 1 1 9.511 30.148 20.631 20.631 0 0 1 30.088 9.519m0-3.019a23.7 23.7 0 1 0 23.689 23.648A23.591 23.591 0 0 0 30.088 6.5z" class="cls-2" data-name="패스 907" transform="translate(1559.024 3370.041)"/>
        <path id="패스_908" d="M15.306 30.307A1.546 1.546 0 0 1 13.8 28.8c0-15.195 15.358-15.6 15.558-15.6a1.546 1.546 0 0 1 1.506 1.509 1.48 1.48 0 0 1-1.506 1.509c-.5 0-12.547.4-12.547 12.579a1.48 1.48 0 0 1-1.505 1.51z" class="cls-3" data-name="패스 908" transform="translate(1559.052 3370.083)"/>
        <g id="그룹_127" data-name="그룹 127" transform="translate(1613.806 3410.553)">
            <ellipse id="타원_117" cx="1.506" cy="1.509" class="cls-1" data-name="타원 117" rx="1.506" ry="1.509"/>
        </g>
        <path id="패스_909" d="M55.425 56.952a1.85 1.85 0 0 1-1.2-.5L49.2 51.518a1.706 1.706 0 0 1 2.411-2.418l5.019 4.931a1.647 1.647 0 0 1 0 2.415 1.588 1.588 0 0 1-1.205.506z" class="cls-2" data-name="패스 909" transform="translate(1559.183 3370.305)"/>
        <path id="패스_910" d="M58.82 56.519a2.276 2.276 0 0 1 1.606.6l15.659 15.8a2.133 2.133 0 0 1 0 3.119 2.438 2.438 0 0 1-3.212 0l-15.558-15.7a2.453 2.453 0 0 1 0-3.22 2.04 2.04 0 0 1 1.506-.6m0-3.019a5.233 5.233 0 0 0-3.714 8.956l15.759 15.7a5.324 5.324 0 0 0 7.428 0 5.356 5.356 0 0 0 0-7.447l-15.759-15.7A5.148 5.148 0 0 0 58.82 53.5z" class="cls-2" data-name="패스 910" transform="translate(1559.202 3370.336)"/>
    </g>
</svg>
