<svg xmlns="http://www.w3.org/2000/svg" viewBox="0 0 80 80.002">
    <defs>
        <style>
            .cls-1,.cls-4{fill:#fff}.cls-1{stroke:#dc7a79;stroke-width:3px}.cls-2{fill:#e77f7e}.cls-3{fill:#bd0f1b}.cls-5{fill:#dc7a79}
        </style>
    </defs>
    <g id="bigicon6" transform="translate(-1559 -3750)">
        <path id="선_65" d="M0 26.263L26.306 0" class="cls-1" data-name="선 65" transform="translate(1606.446 3752.02)"/>
        <path id="선_66" d="M0 26.364L26.407 0" class="cls-1" data-name="선 66" transform="translate(1610.493 3755.656)"/>
        <path id="패스_1017" d="M27.194 45.9l6.172 6.162-9.308 8.081s-3.44 7.778-4.148 8.485c-.809.606-14.367 8.889-14.367 8.889L1.9 74.587l8.6-14.647 6.172-2.525z" class="cls-2" data-name="패스 1017" transform="translate(1559.016 3750.464)"/>
        <g id="그룹_166" data-name="그룹 166" transform="translate(1559 3750.06)">
            <path id="패스_1018" d="M70.621 80a9.09 9.09 0 0 1-5.261-1.717 19.615 19.615 0 0 1-2.631-2.323l-7.082-7.071c-10.118-10-20.539-20.4-30.758-30.707-1.012-1.01-1.72-1.212-3.541-.909a18.164 18.164 0 0 1-17.2-6.566C.1 25.858-.911 20.1.809 12.929l.607-2.429 4.958 4.444c2.226 2.02 4.351 3.939 6.475 5.758 1.922 1.717 2.934 1.616 4.856-.2.911-.808 1.72-1.717 2.529-2.525 1.72-1.818 1.821-2.929 0-4.848-1.922-2.121-3.845-4.343-5.767-6.465L10.725 2.02l1.922-.808a17.989 17.989 0 0 1 14.064.606 17.638 17.638 0 0 1 9.511 11.111c.911 2.828.708 5.96.607 8.889v.4c-.1 1.212.1 1.515.607 2.02 6.272 6.162 12.444 12.428 18.717 18.59l19.831 19.8c2.226 2.222 4.351 4.848 3.946 8.889a8.68 8.68 0 0 1-5.261 7.576 9.8 9.8 0 0 1-4.048.907zm-48.16-46.061a5.923 5.923 0 0 1 4.452 1.919l30.758 30.707 7.082 7.071a19.2 19.2 0 0 0 2.226 2.02 6.32 6.32 0 0 0 9.915-4.646c.2-2.525-1.012-4.343-3.035-6.465-6.576-6.364-13.153-13.03-19.831-19.6-6.273-6.162-12.445-12.424-18.718-18.586a5.3 5.3 0 0 1-1.518-4.242v-.4c.1-2.727.3-5.556-.4-7.879A14.465 14.465 0 0 0 25.4 4.646a14.95 14.95 0 0 0-9.511-1.212l.911 1.01c1.922 2.121 3.845 4.343 5.767 6.465 2.833 3.131 2.732 5.96-.1 8.99-.809.909-1.72 1.717-2.631 2.626-3.035 2.929-5.868 3.03-9 .3-2.136-1.917-4.26-3.836-6.587-5.755l-1.113-1.01a14.888 14.888 0 0 0 3.238 12.626c3.845 4.545 8.6 6.465 14.367 5.556a6.174 6.174 0 0 1 1.72-.303z" class="cls-3" data-name="패스 1018" transform="translate(-.006 -.059)"/>
        </g>
        <g id="그룹_167" data-name="그룹 167" transform="translate(1623.949 3814.848)">
            <path id="패스_1019" d="M68.836 65.8a3.238 3.238 0 0 0-3.136 3.232 3.479 3.479 0 0 0 3.238 3.232 3.415 3.415 0 0 0 3.238-3.333 3.136 3.136 0 0 0-3.34-3.131z" class="cls-4" data-name="패스 1019" transform="translate(-64.182 -64.184)"/>
            <path id="패스_1020" d="M68.955 73.695a4.953 4.953 0 0 1-4.755-4.748 4.761 4.761 0 0 1 9.511-.3 4.359 4.359 0 0 1-1.416 3.434 4.117 4.117 0 0 1-3.339 1.616zm0-6.364a1.772 1.772 0 0 0-1.72 1.717 1.936 1.936 0 0 0 1.72 1.717 1.75 1.75 0 0 0 1.214-.606 2.1 2.1 0 0 0 .506-1.212 1.685 1.685 0 0 0-1.72-1.616z" class="cls-5" data-name="패스 1020" transform="translate(-64.2 -64.2)"/>
        </g>
        <path id="패스_1021" d="M54.451 37.778L41.5 24.747l1.214-1.414c.3-.3.607-.707.911-1.01l7.386-7.374L61.735 4.242A13.429 13.429 0 0 1 71.651 0a7.925 7.925 0 0 1 6.374 3.03c1.518 2.121 1.922 4.949 1.012 8.182A14.19 14.19 0 0 1 76 16.869c-4.856 5.051-9.915 10-14.873 14.848l-4.856 4.848a2.681 2.681 0 0 1-.607.505zm-8.8-13.131l9.106 9.192L59 29.6c4.856-4.848 9.915-9.8 14.772-14.848A10.49 10.49 0 0 0 76.1 10.4a6.744 6.744 0 0 0-.5-5.552 5.129 5.129 0 0 0-4.051-1.818 10.047 10.047 0 0 0-7.689 3.233C60.319 9.9 56.677 13.434 53.135 16.97l-7.386 7.374c0 .201-.101.201-.101.302z" class="cls-3" data-name="패스 1021" transform="translate(1559.482 3750)"/>
        <g id="그룹_168" data-name="그룹 168" transform="translate(1559.109 3793.838)">
            <path id="패스_1022" d="M5.159 79.057a3.285 3.285 0 0 1-2.429-1.213l-1.214-1.212C-.2 74.915-.3 74.107 1.01 72.087a13.829 13.829 0 0 0 .809-1.414l.3-.4c1.922-3.232 3.845-6.667 5.969-9.9a6.363 6.363 0 0 1 3.744-2.828A12.174 12.174 0 0 0 18.615 53c1.619-2.02 3.339-3.939 5.059-5.859.708-.808 1.518-1.616 2.226-2.525l1.113-1.216 8.9 9.091L34.7 53.5c-.809.707-1.619 1.515-2.529 2.222-1.922 1.717-3.946 3.535-6.071 5.152a11.626 11.626 0 0 0-4.249 6.465 7.742 7.742 0 0 1-2.934 3.838q-3.491 2.273-6.981 4.242l-4.551 2.728a3.484 3.484 0 0 1-2.226.91zm-1.822-4.95a1.4 1.4 0 0 1 .3.4l1.315 1.313c.1.1.2.2.3.2s.2-.1.506-.3L10.319 73c2.226-1.313 4.654-2.727 6.88-4.242a4.249 4.249 0 0 0 1.72-2.121 15.106 15.106 0 0 1 5.362-8.081c2.024-1.515 3.946-3.333 5.868-5.051.4-.4.911-.808 1.315-1.212l-4.452-4.444c-.4.4-.809.909-1.214 1.313-1.72 1.919-3.339 3.737-4.856 5.657a14.793 14.793 0 0 1-8.4 5.657 3.54 3.54 0 0 0-1.922 1.616c-2.024 3.131-4.047 6.465-5.969 9.7l-.2.4A14.82 14.82 0 0 0 3.54 73.7c0 .1-.101.205-.203.407z" class="cls-3" data-name="패스 1022" transform="translate(-.114 -43.4)"/>
        </g>
    </g>
</svg>
