<svg xmlns="http://www.w3.org/2000/svg" viewBox="0 0 80 80">
    <defs>
        <style>
            .cls-1{fill:#e77f7e}.cls-2{fill:#bd0f1b}.cls-3{fill:#fff}.cls-4{fill:#b1131b}.cls-5{fill:none;stroke:#fff;stroke-linecap:round;stroke-miterlimit:10;stroke-width:2px}
        </style>
    </defs>
    <g id="bigicon1" transform="translate(-648 -3369)">
        <g id="그룹_113" data-name="그룹 113" transform="translate(693.711 3375.8)">
            <path id="패스_883" d="M48.7 33.9l-3-2.4L70.406 6.8l2.7 2.7z" class="cls-1" data-name="패스 883" transform="translate(-45.7 -6.8)"/>
        </g>
        <path id="패스_884" d="M79.8 4a1.048 1.048 0 0 0-.1-1.3l-.5-.5L77.8.8l-.5-.5A1.049 1.049 0 0 0 76 .2l-5.6 3.7a1 1 0 0 0-.4.5l-1 2.7a.913.913 0 0 0 .2 1.1l.6.6 1.4 1.4.6.6a.913.913 0 0 0 1.1.2l2.7-1.1a1 1 0 0 0 .5-.4z" class="cls-2" data-name="패스 884" transform="translate(648.016 3369)"/>
        <path id="패스_885" d="M69 72.5a3 3 0 1 1 3-3 2.947 2.947 0 0 1-3 3z" class="cls-3" data-name="패스 885" transform="translate(648.016 3369)"/>
        <path id="패스_886" d="M68.416 80a11.426 11.426 0 0 1-8.2-3.4l-.2-.2c-.1 0-.1-.1-.1-.2l-.1-.1c-.2-.2-.4-.5-.6-.7L28.907 39.8A20.6 20.6 0 0 1 0 21.6v-.2a3.211 3.211 0 0 1 1-2.2 3.293 3.293 0 0 1 4.6-.1l.1.1 7 7 9.2 2.5 6.7-6.7-2.5-9.2-7-7-.1-.1a3.415 3.415 0 0 1 .1-4.7 3.721 3.721 0 0 1 2.2-1h.2a20.635 20.635 0 0 1 18.2 29l35.518 30.1a5.009 5.009 0 0 1 .8.7l.1.1c.1 0 .1.1.2.2s.2.1.2.2a11.647 11.647 0 0 1 0 16.4 11.513 11.513 0 0 1-8.102 3.3zm-6.4-5.8l.3.3a8.628 8.628 0 0 0 12.2-12.2l-.3-.2a4.35 4.35 0 0 1-.7-.6.1.1 0 0 1-.1-.1L37.009 30.5a1.529 1.529 0 0 1-.4-1.8 17.584 17.584 0 0 0-15-25.7.368.368 0 0 0-.3.1.454.454 0 0 0 0 .5l7.2 7.2a1.612 1.612 0 0 1 .4.7l2.8 10.5a1.418 1.418 0 0 1-.4 1.4l-7.9 7.9a1.486 1.486 0 0 1-1.4.4L11.6 28.9a1.612 1.612 0 0 1-.7-.4l-7.2-7.2h-.1a.454.454 0 0 0-.5 0 .31.31 0 0 0-.1.2v.1a17.928 17.928 0 0 0 5.1 11.8 17.624 17.624 0 0 0 20.5 3.2 1.4 1.4 0 0 1 1.8.4l30.914 36.4a.1.1 0 0 0 .1.1 4.349 4.349 0 0 1 .6.7z" class="cls-2" data-name="패스 886" transform="translate(648 3369)"/>
        <g id="그룹_114" data-name="그룹 114" transform="translate(648 3410.2)">
            <path id="패스_887" d="M13 78.4a2.1 2.1 0 0 1-1.1-.4L2 68a1.5 1.5 0 0 1-.4-1.1 2.1 2.1 0 0 1 .4-1.1l22.705-22.7a1.5 1.5 0 0 1 1.1-.4 2.1 2.1 0 0 1 1.1.4l10 10a1.45 1.45 0 0 1 0 2.1L14.1 78a1.5 1.5 0 0 1-1.1.4z" class="cls-1" data-name="패스 887" transform="translate(0 -41.2)"/>
            <path id="패스_888" d="M25.706 44.2l10 10L13 76.9l-10-10 22.706-22.7m0-3a2.879 2.879 0 0 0-2.1.9L.9 64.8a2.9 2.9 0 0 0 0 4.2l10 10a2.9 2.9 0 0 0 4.2 0l22.709-22.7a2.9 2.9 0 0 0 0-4.2l-10-10a2.879 2.879 0 0 0-2.1-.9z" class="cls-4" data-name="패스 888" transform="translate(0 -41.2)"/>
        </g>
        <g id="그룹_115" data-name="그룹 115" transform="translate(713.015 3434)">
            <ellipse id="타원_115" cx="3.401" cy="3.4" class="cls-1" data-name="타원 115" rx="3.401" ry="3.4"/>
        </g>
        <path id="선_36" d="M16.304 0L0 16.3" class="cls-5" data-name="선 36" transform="translate(658.302 3418.8)"/>
        <path id="선_37" d="M16.304 0L0 16.3" class="cls-5" data-name="선 37" transform="translate(661.803 3422.3)"/>
    </g>
</svg>
