<svg xmlns="http://www.w3.org/2000/svg" viewBox="0 0 75 80">
    <defs>
        <style>
            .cls-1{fill:#e77f7e}.cls-2{fill:#bd0f1b}
        </style>
    </defs>
    <g id="bigicon2" transform="translate(-1106 -3369)">
        <g id="그룹_120" data-name="그룹 120" transform="translate(1125.452 3370.898)">
            <path id="패스_897" d="M19.4 21.875s20.254 12.385 36.5-.6l-1.6-3.2A23.367 23.367 0 0 0 39.453 1.9h-4.812L30.63 4.7s-9.124 5.893-9.325 10.886c-.105 5.091-1.905 6.289-1.905 6.289z" class="cls-1" data-name="패스 897" transform="translate(-19.4 -1.9)"/>
        </g>
        <path id="패스_898" d="M37.554 25.368h-2.707a43.8 43.8 0 0 1-8.422-1 16.092 16.092 0 0 1-4.813-1.9 3 3 0 0 1-1-.9l.2-.1a9.028 9.028 0 0 0 1-.9 3.039 3.039 0 0 0 .8-1.6A14.817 14.817 0 0 1 28.63 7.79l1.6 6.792a1.847 1.847 0 0 0 .4 1 2.377 2.377 0 0 0 1.7 1 1.983 1.983 0 0 0 1.4-.6 2.042 2.042 0 0 0 .5-1.7c-.1-1.1-.3-2.2-.4-3.3l-.3-2.3c-.1-1.1-.3-2.2-.4-3.3a15.513 15.513 0 0 1 1.7-.5 1.934 1.934 0 0 0 1.5-1.9h1.2V0h-1.2c-2.005 0-2.807.6-3.008 2.3-.6.2-1.3.4-2.106.7a.868.868 0 0 0-.6.3v-.1l-1.8.9c-.1.1-.3.1-.4.2a18.076 18.076 0 0 0-8.824 14.282 5.56 5.56 0 0 1-.8.6l-.5.4a2.338 2.338 0 0 0-.6 3.1 5.454 5.454 0 0 0 2.206 2.3 16.416 16.416 0 0 0 5.816 2.3 49.853 49.853 0 0 0 9.024 1h2.807v-2.9z" class="cls-2" data-name="패스 898" transform="translate(1106.046 3369)"/>
        <path id="패스_899" d="M35.595 77.062c-3.209 0-6.417-.1-9.726-.3a102.076 102.076 0 0 1-14.138-1.6 52.732 52.732 0 0 1-8.723-2.5 24.605 24.605 0 0 1 2.507-10.181c1.5-3.1 3.91-5.493 7.52-7.79a49.994 49.994 0 0 1 6.618-3.1l1.2-.5c.8-.3 1.5-.6 2.406-.9l.9-.3h2.011a10.968 10.968 0 0 1-2.507-3l-.3.1c-.4.1-.8.3-1.1.4-.8.3-1.7.6-2.507.9l-1.2.5a49.653 49.653 0 0 0-7.019 3.3 21.6 21.6 0 0 0-8.723 9.089A28.438 28.438 0 0 0 0 72.568a2.63 2.63 0 0 0 1.8 2.8 47.887 47.887 0 0 0 9.325 2.7 130.924 130.924 0 0 0 14.539 1.7c3.309.2 6.718.3 9.926.3z" class="cls-2" data-name="패스 899" transform="translate(1106 3368.941)"/>
        <path id="패스_900" d="M37.5 25.368h2.707a43.8 43.8 0 0 0 8.422-1 16.092 16.092 0 0 0 4.813-1.9 3 3 0 0 0 1-.9l-.2-.1a9.028 9.028 0 0 1-1-.9 3.039 3.039 0 0 1-.8-1.6A14.817 14.817 0 0 0 46.424 7.79l-1.6 6.792a1.847 1.847 0 0 1-.4 1 2.377 2.377 0 0 1-1.7 1 1.983 1.983 0 0 1-1.4-.6 2.042 2.042 0 0 1-.5-1.7c.1-1.1.3-2.2.4-3.3l.3-2.3c.1-1.1.3-2.2.4-3.3a15.513 15.513 0 0 0-1.7-.5A1.934 1.934 0 0 1 38.7 3h-1.2V0h1.2c2.005 0 2.807.6 3.008 2.3.6.2 1.3.4 2.106.7a.868.868 0 0 1 .6.3v-.1l1.8.9c.1.1.3.1.4.2a18.076 18.076 0 0 1 8.824 14.282 5.56 5.56 0 0 0 .8.6l.5.4a2.338 2.338 0 0 1 .6 3.1 5.454 5.454 0 0 1-2.206 2.3 16.416 16.416 0 0 1-5.816 2.3 49.853 49.853 0 0 1-9.024 1H37.5z" class="cls-2" data-name="패스 900" transform="translate(1106.1 3369)"/>
        <path id="패스_901" d="M39.5 77.062c3.209 0 6.417-.1 9.726-.3a102.076 102.076 0 0 0 14.138-1.6 39.342 39.342 0 0 0 8.623-2.5 24.605 24.605 0 0 0-2.507-10.181c-1.5-3.1-3.91-5.493-7.52-7.79a49.994 49.994 0 0 0-6.618-3.1l-1.2-.5c-.8-.3-1.5-.6-2.406-.9l-.9-.3h-2.011a10.968 10.968 0 0 0 2.507-3l.2.1c.4.1.8.3 1.1.4.8.3 1.7.6 2.507.9l1.2.5a49.653 49.653 0 0 1 7.019 3.3 21.6 21.6 0 0 1 8.723 9.089 27.234 27.234 0 0 1 2.807 11.386 2.63 2.63 0 0 1-1.8 2.8 47.887 47.887 0 0 1-9.325 2.7 130.924 130.924 0 0 1-14.539 1.7c-3.309.2-6.718.3-9.926.3v-3z" class="cls-2" data-name="패스 901" transform="translate(1106.105 3368.941)"/>
        <path id="사각형_539" d="M0 0h6.016v2.996H0z" class="cls-2" data-name="사각형 539" transform="translate(1140.793 3446.004)"/>
        <g id="그룹_121" data-name="그룹 121" transform="translate(1140.78 3422.733)">
            <path id="패스_902" d="M35.5 53.8a.552.552 0 0 0-.5.3 1.824 1.824 0 0 0 .3 2.4l.3.3a2.671 2.671 0 0 0 3.71 0l.3-.3a1.851 1.851 0 0 0 .3-2.4.552.552 0 0 0-.5-.3z" class="cls-1" data-name="패스 902" transform="translate(-34.687 -53.8)"/>
        </g>
        <g id="그룹_122" data-name="그룹 122" transform="translate(1140.492 3425.829)">
            <path id="패스_903" d="M37.007 72.78L34.5 67.587c0-.1-.1-.2-.1-.3l1-9.888a.561.561 0 0 1 .6-.5h2.707a.635.635 0 0 1 .6.5l1.2 9.888v.3L38.11 72.88a.624.624 0 0 1-1.103-.1z" class="cls-1" data-name="패스 903" transform="translate(-34.4 -56.9)"/>
        </g>
        <g id="그룹_123" data-name="그룹 123" transform="translate(1124.149 3394.968)">
            <path id="패스_904" d="M56.8 28.1a2.444 2.444 0 0 0-2.3-2.1 16.85 16.85 0 0 1-3.108 1.5v.4l-.4 3.5 2.808-2.2a.35.35 0 0 1 .2-.1 7.6 7.6 0 0 1-.3 3.1 9.34 9.34 0 0 1-3.91 5.693l-.5.3-.2.5c-2.514 7.282-6.324 10.977-11.538 10.977-5.114 0-9.024-3.7-11.531-10.986l-.2-.5-.5-.3a9.06 9.06 0 0 1-3.91-5.693 7.6 7.6 0 0 1-.3-3.1c.1 0 .1.1.2.1l2.807 2.2-.4-3.5v-.4A13.607 13.607 0 0 1 20.607 26a2.52 2.52 0 0 0-2.307 2.1c-.8 3 .8 9.189 5.013 12.085 2.707 7.491 7.019 11.785 12.634 12.385a14.808 14.808 0 0 0 3.108 0c5.615-.7 9.926-4.894 12.634-12.385C56 37.286 57.605 31.194 56.8 28.1z" class="cls-1" data-name="패스 904" transform="translate(-18.101 -26)"/>
        </g>
    </g>
</svg>
