<svg xmlns="http://www.w3.org/2000/svg" viewBox="0 0 94.324 100">
    <defs>
        <style>
            .cls-1,.cls-2{fill:#fff}.cls-2,.cls-4{opacity:.4}.cls-3{opacity:.5}.cls-4{fill:#010101}
        </style>
    </defs>
    <g id="footer_logo" transform="translate(-700 -7661)">
        <g id="그룹_176" data-name="그룹 176" transform="translate(714.887 7661)">
            <path id="패스_1051" d="M102.248 69.691c-2.739 0-9.051-5.2-3.771-13.736 4.764-7.7 2.58-13.418 2.1-14.49-.04-.04-.04-.079-.079-.159v-.04a30.593 30.593 0 0 1-2.342-7.543 21.67 21.67 0 0 1-.156-1.19 8.678 8.678 0 0 0-.357.873 11.628 11.628 0 0 0 0 7.146 5.663 5.663 0 0 1-2.5 6.391 6.154 6.154 0 0 1-4.565.437c-3.414-.992-4.168-4.764-4.168-4.8a5.834 5.834 0 0 1 2.1-5.32c.04-.04.119-.079.159-.119C94.546 32.533 93 21.815 93 21.815a.626.626 0 0 1-.04.159l.04-.159c-3.217 10.441-11.594 13.061-11.594 13.061 1.429-8.456-4.526-14.609-4.526-14.609a13.555 13.555 0 0 0-3.414-3.1C64.058 11.216 70.489.1 70.489.1s-16.951 11.036-7.781 21.993a6.517 6.517 0 0 1 1.946 4.607 6.913 6.913 0 0 1-13.815 0 6.426 6.426 0 0 1 1.861-4.528c.357-.318.754-.635 1.151-.953 0 0-11.592 5.6-5.4 19.889 4.248 9.805-2.342 19.651-6.828 24.811a19.708 19.708 0 0 1-4.123 3.772h64.748z" data-name="패스 1051" transform="translate(-37.5 -.1)"/>
            <path id="패스_1052" d="M132.582 16.483c-3.136-6.392 2.859-12.783 2.859-12.783-10.56 5.558-2.859 12.783-2.859 12.783z" data-name="패스 1052" transform="translate(-93.202 -2.271)"/>
            <path id="패스_1053" d="M39.1 89.4a46.181 46.181 0 0 1 6.749 19.452c0-.04 4.168-11.671-6.749-19.452z" data-name="패스 1053" transform="translate(-38.465 -53.949)"/>
            <path id="패스_1054" d="M151.264 38.123c.278-.238 2.938-2.62 2.541-4.684 0 0 1.429 2.7-2.7 6.868 0 0 7.582-3.771 3.573-10.441a13.18 13.18 0 0 0-3.613-3.573c-1.786-.913-2.5-3.295-2.144-6.193 0 0-2.422 4.684.953 10.6 3.177 5.518 1.626 7.185 1.39 7.423z" data-name="패스 1054" transform="translate(-104.182 -12.16)"/>
        </g>
        <path id="사각형_642" d="M0 0h39.42v1.548H0z" data-name="사각형 642" transform="translate(727.749 7735.752)"/>
        <path id="패스_1057" d="M58.54 161.932l-.04.04h49.742L103.081 153z" class="cls-1" data-name="패스 1057" transform="translate(664.724 7568.699)"/>
        <path id="패스_1058" d="M72.088 125.758l-6.788 11.75 39.738-8.019-5.359-9.289z" class="cls-1" data-name="패스 1058" transform="translate(660.623 7588.478)"/>
        <g id="그룹_177" data-name="그룹 177" transform="translate(735.411 7687.598)">
            <path id="패스_1059" d="M117.367 74.444L113.12 67.1l-5.32 9.21z" class="cls-1" data-name="패스 1059" transform="translate(-100.416 -67.1)"/>
            <path id="패스_1060" d="M94.162 96.558l-4.962 8.575 22.827-4.486-4.05-6.947z" class="cls-1" data-name="패스 1060" transform="translate(-89.2 -83.14)"/>
        </g>
        <path id="패스_1061" d="M65.3 153.066l6.233 2.858 35.649-7.146-6.828-2.778z" class="cls-2" data-name="패스 1061" transform="translate(660.623 7572.92)"/>
        <path id="패스_1062" d="M114.091 115.617l-4.843-3.017-20.048 3.93 4.526 3.176z" class="cls-2" data-name="패스 1062" transform="translate(646.211 7593.061)"/>
        <path id="패스_1063" d="M119.193 89.177l-3.056-2.977-8.337 1.628 2.739 3.136z" class="cls-2" data-name="패스 1063" transform="translate(634.995 7608.98)"/>
        <g id="그룹_178" class="cls-3" data-name="그룹 178" transform="translate(748.114 7687.598)">
            <path id="패스_1064" d="M146.524 155.6l-7.424 1.469 1.27 6.471h9.448z" class="cls-4" data-name="패스 1064" transform="translate(-131.994 -120.467)"/>
            <path id="패스_1065" d="M136.726 121.9l-4.526.913 1.945 9.964 6.55-1.31z" class="cls-4" data-name="패스 1065" transform="translate(-127.833 -100.145)"/>
            <path id="패스_1066" d="M121.2 67.1l1.469 7.9 1.548-.318z" class="cls-4" data-name="패스 1066" transform="translate(-121.2 -67.1)"/>
            <path id="패스_1067" d="M129.538 102.182l2.263-.437-2.978-7.145-2.223.437 1.469 7.424z" class="cls-4" data-name="패스 1067" transform="translate(-124.456 -83.683)"/>
        </g>
        <g id="그룹_179" data-name="그룹 179" transform="translate(700 7742.501)">
            <path id="패스_1068" d="M10.917 213.5a27.419 27.419 0 0 0-3.613-.992 11.36 11.36 0 0 1-2.858-.913 1.218 1.218 0 0 1-.556-1.072 1.557 1.557 0 0 1 .754-1.35 4.392 4.392 0 0 1 2.5-.6c2.938 0 3.414 1.429 3.533 2.5l.04.516h3.295l-.04-.635a5.092 5.092 0 0 0-2.064-4.129 7.961 7.961 0 0 0-4.921-1.425 7.324 7.324 0 0 0-4.687 1.429A4.641 4.641 0 0 0 .476 210.6a4.119 4.119 0 0 0 1.469 3.335 9.8 9.8 0 0 0 4.367 1.826 17.024 17.024 0 0 1 3.89 1.191 1.532 1.532 0 0 1 .873 1.469 1.792 1.792 0 0 1-.873 1.588 4.7 4.7 0 0 1-2.66.675 5.6 5.6 0 0 1-3.017-.794 2.781 2.781 0 0 1-1.27-2.3l-.04-.556H0l.04.635a6.177 6.177 0 0 0 2.025 4.486 8.232 8.232 0 0 0 5.676 1.745 7.309 7.309 0 0 0 4.843-1.548 5.055 5.055 0 0 0 1.906-4.009 4.452 4.452 0 0 0-1.072-3.1 5.346 5.346 0 0 0-2.501-1.743z" data-name="패스 1068" transform="translate(0 -205.4)"/>
            <path id="패스_1069" d="M47.576 208.457a4.57 4.57 0 0 1 2.739.794 2.822 2.822 0 0 1 1.151 2.1l.04.556H55l-.079-.635a5.976 5.976 0 0 0-2.382-4.287 7.933 7.933 0 0 0-5-1.588 7.845 7.845 0 0 0-6.074 2.5 10.96 10.96 0 0 0 0 13.339 7.845 7.845 0 0 0 6.074 2.5 7.743 7.743 0 0 0 5.042-1.588 6.163 6.163 0 0 0 2.3-4.526l.04-.635h-3.454l-.04.556a3.028 3.028 0 0 1-1.151 2.3 4.3 4.3 0 0 1-2.779.834 4.354 4.354 0 0 1-3.533-1.548 7 7 0 0 1-1.31-4.605 6.928 6.928 0 0 1 1.35-4.6 4.693 4.693 0 0 1 3.572-1.467z" data-name="패스 1069" transform="translate(-23.638 -205.4)"/>
            <path id="패스_1070" d="M91.839 206.1L87 219.24l-4.848-13.14H78.5l6.947 17.864h3.1l6.904-17.864z" data-name="패스 1070" transform="translate(-47.337 -205.822)"/>
        </g>
        <path id="패스_1071" d="M132.318 223.075a21.136 21.136 0 0 0-2.62-.715 7.682 7.682 0 0 1-1.985-.635.644.644 0 0 1-.318-.635.933.933 0 0 1 .476-.834 2.937 2.937 0 0 1 1.707-.4c1.985 0 2.3.873 2.382 1.667l.04.516h2.7l-.04-.635a3.968 3.968 0 0 0-1.548-3.136 5.869 5.869 0 0 0-3.652-1.072 5.473 5.473 0 0 0-3.493 1.072 3.571 3.571 0 0 0-1.389 2.858 3.174 3.174 0 0 0 1.112 2.541 7.174 7.174 0 0 0 3.216 1.35 10.815 10.815 0 0 1 2.739.834.936.936 0 0 1 .516.913 1.056 1.056 0 0 1-.556.992 3.116 3.116 0 0 1-1.826.437 3.953 3.953 0 0 1-2.1-.556 1.806 1.806 0 0 1-.834-1.548l-.04-.556h-2.7l.04.635a4.469 4.469 0 0 0 1.509 3.335 6.073 6.073 0 0 0 4.208 1.31 5.624 5.624 0 0 0 3.613-1.151 3.855 3.855 0 0 0 1.469-3.057 3.317 3.317 0 0 0-.834-2.342 4.057 4.057 0 0 0-1.792-1.188z" data-name="패스 1071" transform="translate(625.166 7529.985)"/>
        <path id="패스_1072" d="M159.091 217.2a6.048 6.048 0 0 0-4.6 1.905 7.675 7.675 0 0 0 0 9.845 6.048 6.048 0 0 0 4.6 1.906 5.962 5.962 0 0 0 4.565-1.906 7.675 7.675 0 0 0 0-9.845 5.9 5.9 0 0 0-4.565-1.905zm3.493 6.828a4.483 4.483 0 0 1-.992 3.176 3.244 3.244 0 0 1-2.5 1.072 3.186 3.186 0 0 1-2.5-1.072 4.616 4.616 0 0 1-.992-3.176 4.676 4.676 0 0 1 .992-3.176 3.328 3.328 0 0 1 2.541-1.072 3.244 3.244 0 0 1 2.5 1.072 4.671 4.671 0 0 1 .952 3.176z" data-name="패스 1072" transform="translate(607.919 7529.985)"/>
        <path id="패스_1073" d="M196.429 217.7H187.1v13.259h2.819v-5.478h5.637v-2.62h-5.637v-2.541h10.441v10.639h2.819V220.32h3.97v-2.62z" data-name="패스 1073" transform="translate(587.175 7529.684)"/>
    </g>
</svg>
