<svg xmlns="http://www.w3.org/2000/svg" xmlns:xlink="http://www.w3.org/1999/xlink" viewBox="0 0 217.68 60">
    <defs>
        <style>
            .cls-1{fill:url(#linear-gradient)}.cls-2{fill:url(#linear-gradient-2)}.cls-3{fill:url(#linear-gradient-3)}.cls-4{fill:url(#linear-gradient-4)}.cls-5{fill:#fff}.cls-6{fill:#010101;opacity:.4}.cls-7{opacity:.5}.cls-8{fill:url(#linear-gradient-5)}.cls-9{fill:url(#linear-gradient-6)}.cls-10{fill:url(#linear-gradient-7)}
        </style>
        <linearGradient id="linear-gradient" x1="-.023" x2="1.102" y1=".5" y2=".5" gradientUnits="objectBoundingBox">
            <stop offset="0" stop-color="#f6b74c"/>
            <stop offset="1" stop-color="#da2d43"/>
        </linearGradient>
        <linearGradient id="linear-gradient-2" x1="-6.84" x2="6.223" y1=".499" y2=".499" xlink:href="#linear-gradient"/>
        <linearGradient id="linear-gradient-3" x1="-.282" x2="9.385" y1=".499" y2=".499" xlink:href="#linear-gradient"/>
        <linearGradient id="linear-gradient-4" x1="-5.898" x2="3.55" y1=".499" y2=".499" xlink:href="#linear-gradient"/>
        <linearGradient id="linear-gradient-5" x1="-.139" x2="3.403" y1=".502" y2=".502" xlink:href="#linear-gradient"/>
        <linearGradient id="linear-gradient-6" x1="-1.117" x2="2.146" y1=".501" y2=".501" xlink:href="#linear-gradient"/>
        <linearGradient id="linear-gradient-7" x1="-1.955" x2="1.075" y1=".501" y2=".501" xlink:href="#linear-gradient"/>
    </defs>
    <g id="header_logo" transform="translate(-342.998 -19)">
        <g id="그룹_19" data-name="그룹 19" transform="translate(342.998 19)">
            <path id="패스_24" d="M55.716 60c-2.366 0-7.768-4.516-3.259-11.848 4.063-6.617 2.232-11.58 1.83-12.474 0-.045-.045-.089-.045-.134V35.5a26.087 26.087 0 0 1-2.009-6.528c-.089-.626-.134-1.028-.134-1.028a7.96 7.96 0 0 0-.313.76 10.177 10.177 0 0 0 0 6.17 4.835 4.835 0 0 1-2.143 5.5 5.327 5.327 0 0 1-3.929.358c-2.947-.849-3.572-4.069-3.616-4.158a5.047 5.047 0 0 1 1.83-4.605l.134-.134c5.045-3.979 3.706-13.189 3.706-13.189a.346.346 0 0 1-.045.134l.045-.134C45 27.72 37.814 30 37.814 30c1.25-7.288-3.884-12.608-3.884-12.608a12.218 12.218 0 0 0-2.947-2.683C22.858 9.568 28.394 0 28.394 0S13.8 9.523 21.7 18.957a5.616 5.616 0 0 1 1.7 3.979 5.837 5.837 0 0 1-5.938 5.723 5.837 5.837 0 0 1-5.938-5.723A5.7 5.7 0 0 1 13.126 19c.313-.268.625-.537.982-.8 0 0-9.956 4.829-4.643 17.124 3.616 8.495-2.009 16.99-5.893 21.416A17.855 17.855 0 0 1 0 60h55.716z" class="cls-1" data-name="패스 24"/>
            <path id="패스_25" d="M72.994 13.9c-2.679-5.5 2.455-11 2.455-11-9.108 4.739-2.455 11-2.455 11z" class="cls-2" data-name="패스 25" transform="translate(-39.108 -1.603)"/>
            <path id="패스_26" d="M1.2 68.4A40.125 40.125 0 0 1 7 85.166 14.847 14.847 0 0 0 1.2 68.4z" class="cls-3" data-name="패스 26" transform="translate(-.664 -37.819)"/>
            <path id="패스_27" d="M87.466 30.914c.223-.224 2.545-2.28 2.188-4.024 0 0 1.205 2.325-2.322 5.946 0 0 6.518-3.264 3.08-9.031a11.645 11.645 0 0 0-3.08-3.085c-1.518-.8-2.143-2.861-1.83-5.32 0 0-2.1 4.069.848 9.121 2.634 4.739 1.295 6.214 1.116 6.393z" class="cls-4" data-name="패스 27" transform="translate(-46.929 -8.515)"/>
        </g>
        <path id="패스_30" d="M16.1 124.779v.045h42.768l-4.42-7.723z" class="cls-5" data-name="패스 30" transform="translate(334.087 -45.823)"/>
        <path id="패스_31" d="M27.093 96.777L21.2 106.911l34.2-6.92L50.8 92z" class="cls-5" data-name="패스 31" transform="translate(331.264 -31.929)"/>
        <g id="그룹_20" data-name="그룹 20" transform="translate(360.634 41.902)">
            <path id="패스_32" d="M62.014 57.639l-3.66-6.339-4.554 7.946z" class="cls-5" data-name="패스 32" transform="translate(-47.416 -51.3)"/>
            <path id="패스_33" d="M43.786 74.155L39.5 81.566l19.643-3.884-3.438-5.982z" class="cls-5" data-name="패스 33" transform="translate(-39.5 -62.593)"/>
        </g>
        <path id="패스_34" d="M21.2 117.816l5.4 2.455 30.67-6.161-5.891-2.41z" class="cls-6" data-name="패스 34" transform="translate(331.264 -42.834)"/>
        <path id="패스_35" d="M60.929 88.734L56.777 86.1 39.5 89.538l3.929 2.723z" class="cls-6" data-name="패스 35" transform="translate(321.134 -28.663)"/>
        <path id="패스_36" d="M63.621 68.545L60.943 66 53.8 67.384l2.366 2.679z" class="cls-6" data-name="패스 36" transform="translate(313.218 -17.536)"/>
        <g id="그룹_21" class="cls-7" data-name="그룹 21" transform="translate(371.571 41.902)">
            <path id="패스_37" d="M84.084 119.1l-6.384 1.25 1.116 5.58h8.125z" class="cls-6" data-name="패스 37" transform="translate(-71.584 -88.832)"/>
            <path id="패스_38" d="M76.329 93.3l-3.929.759 1.7 8.616 5.625-1.161z" class="cls-6" data-name="패스 38" transform="translate(-68.65 -74.55)"/>
            <path id="패스_39" d="M64 51.3l1.25 6.83 1.339-.268z" class="cls-6" data-name="패스 39" transform="translate(-64 -51.3)"/>
            <path id="패스_40" d="M70.645 78.918l1.964-.4L70.02 72.4l-1.92.4 1.295 6.384z" class="cls-6" data-name="패스 40" transform="translate(-66.27 -62.98)"/>
        </g>
        <g id="그룹_22" data-name="그룹 22" transform="translate(407.866 49.089)">
            <path id="패스_41" d="M162.979 80.57a44.442 44.442 0 0 0-5.848-1.607 15.066 15.066 0 0 1-4.6-1.518 1.953 1.953 0 0 1-.893-1.741 2.536 2.536 0 0 1 1.205-2.187 7.29 7.29 0 0 1 4.062-.937c4.732 0 5.536 2.321 5.759 4.018l.089.848h5.357l-.045-1.027a8.431 8.431 0 0 0-3.348-6.7 12.919 12.919 0 0 0-7.946-2.321 11.669 11.669 0 0 0-7.589 2.321 7.629 7.629 0 0 0-2.991 6.116 6.874 6.874 0 0 0 2.366 5.4c1.473 1.295 3.795 2.232 7.1 2.946a25.556 25.556 0 0 1 6.25 1.92 2.46 2.46 0 0 1 1.384 2.411 2.841 2.841 0 0 1-1.384 2.545 7.616 7.616 0 0 1-4.286 1.071 8.777 8.777 0 0 1-4.866-1.295 4.522 4.522 0 0 1-2.054-3.75l-.089-.893H145.3l.045.982a9.7 9.7 0 0 0 3.3 7.232c2.054 1.875 5.134 2.813 9.2 2.813a11.954 11.954 0 0 0 7.857-2.545 8.2 8.2 0 0 0 3.125-6.518 7.118 7.118 0 0 0-1.786-5.045 12.285 12.285 0 0 0-4.062-2.539z" class="cls-8" data-name="패스 41" transform="translate(-145.3 -67.4)"/>
            <path id="패스_42" d="M215.427 72.5a7.446 7.446 0 0 1 4.464 1.295 4.559 4.559 0 0 1 1.83 3.393l.089.893h5.625l-.089-1.071a9.514 9.514 0 0 0-3.839-6.92 13.055 13.055 0 0 0-8.08-2.589 12.853 12.853 0 0 0-9.866 4.063c-2.411 2.677-3.661 6.336-3.661 10.847s1.25 8.17 3.661 10.848a12.635 12.635 0 0 0 9.866 4.063 12.843 12.843 0 0 0 8.17-2.545 10.071 10.071 0 0 0 3.75-7.321l.089-1.071h-5.625l-.089.893a5.067 5.067 0 0 1-1.83 3.75 7.044 7.044 0 0 1-4.509 1.339 6.96 6.96 0 0 1-5.714-2.5c-1.429-1.7-2.143-4.2-2.143-7.455s.714-5.759 2.143-7.455a7.15 7.15 0 0 1 5.758-2.457z" class="cls-9" data-name="패스 42" transform="translate(-176.632 -67.455)"/>
            <path id="패스_43" d="M280.007 68.5l-7.857 21.339-7.857-21.339H258.4l11.25 28.929h5L285.9 68.5z" class="cls-10" data-name="패스 43" transform="translate(-207.909 -68.009)"/>
        </g>
        <path id="패스_44" d="M337.614 94.009a36.044 36.044 0 0 0-4.241-1.161 10.471 10.471 0 0 1-3.259-1.071 1.066 1.066 0 0 1-.491-1.027 1.478 1.478 0 0 1 .759-1.339 4.867 4.867 0 0 1 2.812-.625c3.17 0 3.75 1.429 3.884 2.679l.089.848h4.375l-.045-1.027a6.318 6.318 0 0 0-2.545-5.045 9.433 9.433 0 0 0-5.893-1.741 8.643 8.643 0 0 0-5.625 1.741 5.687 5.687 0 0 0-2.277 4.643 5.127 5.127 0 0 0 1.786 4.107 11.2 11.2 0 0 0 5.223 2.187 18.766 18.766 0 0 1 4.464 1.339 1.5 1.5 0 0 1 .848 1.473 1.745 1.745 0 0 1-.893 1.607 5.142 5.142 0 0 1-2.946.714 6.292 6.292 0 0 1-3.393-.893 3.1 3.1 0 0 1-1.384-2.5l-.089-.893H324.4l.045.982a7.5 7.5 0 0 0 2.455 5.446c1.518 1.384 3.839 2.1 6.83 2.1a8.924 8.924 0 0 0 5.848-1.875 6.15 6.15 0 0 0 2.366-4.911 5.323 5.323 0 0 0-1.339-3.795 8.506 8.506 0 0 0-2.991-1.963z" class="cls-5" data-name="패스 44" transform="translate(163.421 -27.777)"/>
        <path id="패스_45" d="M375.657 84.6a9.9 9.9 0 0 0-7.455 3.08 11.123 11.123 0 0 0-2.9 7.991 11.271 11.271 0 0 0 2.9 7.991 10.508 10.508 0 0 0 14.866 0 11.1 11.1 0 0 0 2.857-7.991 11.443 11.443 0 0 0-2.857-7.991 9.734 9.734 0 0 0-7.411-3.08zm5.67 11.027a7.573 7.573 0 0 1-1.607 5.179 5.269 5.269 0 0 1-4.062 1.741 5.16 5.16 0 0 1-4.063-1.786 7.527 7.527 0 0 1-1.607-5.134 7.175 7.175 0 0 1 1.652-5.134 5.61 5.61 0 0 1 8.125 0 7.588 7.588 0 0 1 1.562 5.134z" class="cls-5" data-name="패스 45" transform="translate(140.78 -27.832)"/>
        <path id="패스_46" d="M429.989 85.3H414.9v21.429h4.509v-8.84h9.2v-4.241h-9.2v-4.107h16.964v17.187h4.509V89.541h6.473V85.3z" class="cls-5" data-name="패스 46" transform="translate(113.323 -28.22)"/>
    </g>
</svg>
