<?xml version="1.0" encoding="utf-8"?>
<!-- Generator: Adobe Illustrator 23.0.1, SVG Export Plug-In . SVG Version: 6.00 Build 0)  -->
<svg version="1.1" id="icon-blockchain" xmlns="http://www.w3.org/2000/svg" xmlns:xlink="http://www.w3.org/1999/xlink" x="0px"
	 y="0px" viewBox="0 0 76 76" style="enable-background:new 0 0 76 76;" xml:space="preserve">
<style type="text/css">
	.st0{fill:#F06447;}
</style>
<path id="패스_129" class="st0" d="M64.4,11.3H39.8c-0.6,0-1,0.5-0.9,1.1c0,0.5,0.4,0.9,0.9,0.9h24.6c0.6,0,1-0.5,0.9-1.1
	C65.3,11.7,64.9,11.3,64.4,11.3z"/>
<path id="패스_130" class="st0" d="M30.5,32.5c-2.6,0.1-4.6,2.4-4.5,5c0.1,2.4,2,4.3,4.5,4.5c2.6-0.1,4.6-2.4,4.5-5
	C34.9,34.6,32.9,32.7,30.5,32.5z M30.5,39.9c-1.5,0.1-2.8-1.1-2.9-2.6c-0.1-1.5,1.1-2.8,2.6-2.9c1.5-0.1,2.8,1.1,2.9,2.6
	c0,0.1,0,0.1,0,0.2C33.1,38.7,32,39.9,30.5,39.9C30.5,39.9,30.5,39.9,30.5,39.9z"/>
<path id="패스_131" class="st0" d="M64.4,36.2H39.8c-0.6,0-1,0.5-0.9,1.1c0,0.5,0.4,0.9,0.9,0.9h24.6c0.6,0,1-0.5,0.9-1.1
	C65.3,36.7,64.9,36.3,64.4,36.2z"/>
<path id="패스_132" class="st0" d="M64.8,61.6H40c-0.6,0-1,0.5-0.9,1.1c0,0.5,0.4,0.9,0.9,0.9h24.7c0.6,0,1-0.5,0.9-1.1
	C65.7,62,65.3,61.6,64.8,61.6z"/>
<path id="패스_133" class="st0" d="M0,53.3v18.8c-0.1,2.1,1.6,3.8,3.7,3.9h68.1c2.4-0.1,4.3-2.1,4.3-4.5c0,0,0,0,0,0V53.8
	c0-1.1-0.4-2.3-1.2-3.1l-0.3-0.4l0.3-0.4c0.8-0.8,1.2-2,1.2-3.1V29.2c0-1.2-0.4-2.3-1.2-3.1l-0.3-0.4l0.3-0.4c0.8-0.8,1.2-2,1.2-3.1
	V4.5c0.1-2.4-1.8-4.4-4.2-4.5c0,0,0,0,0,0H18.6c-2.4,0.1-4.3,2.1-4.3,4.5c0,0,0,0,0,0v17.7c0,1.2,0.4,2.3,1.2,3.1l0.3,0.4l-0.3,0.4
	c-0.8,0.8-1.2,2-1.2,3.1v3.3L14,32.6c-4.3,1-7.3,4.8-7.3,9.2l0,0.5v7.2h-3C1.6,49.5,0,51.3,0,53.3z M74.1,71.5c0,1.3-1,2.4-2.3,2.5
	H30.9l0.2-0.7c0.1-0.4,0.2-0.8,0.2-1.2v-4.8l0.4-0.1c2.5-0.8,4-3.4,3.2-5.9c-0.5-1.6-1.7-2.8-3.2-3.2l-0.4-0.1v-4.5
	c0-0.4-0.1-0.9-0.2-1.3l-0.2-0.7h40.9c1.3,0,2.4,1.1,2.3,2.5V71.5z M31.3,65.4v-5.6l0.8,0.6c1.2,0.9,1.5,2.6,0.6,3.8
	c-0.2,0.2-0.4,0.4-0.6,0.6L31.3,65.4z M74.1,46.9c0,1.3-1,2.4-2.3,2.5h0l-0.1,0l-43.8,0h-3.3l0-7.6c0-4.6-3.3-8.6-7.9-9.3l-0.5-0.1
	v-3.2c0-1.3,1-2.4,2.4-2.5h53.1c1.3,0,2.4,1.1,2.4,2.5L74.1,46.9L74.1,46.9z M16.3,4.5c0-1.3,1-2.4,2.4-2.5h53.1
	c1.3,0,2.4,1.2,2.3,2.5v17.7c0,1.3-1,2.4-2.3,2.5H18.7c-1.3,0-2.4-1.1-2.4-2.5V4.5z M8.6,41.8c0-4,3.1-7.2,7.1-7.4
	c4,0.1,7.1,3.4,7.1,7.4l0,0.9v6.8H8.6L8.6,41.8z M27.6,51.5c1,0,1.8,0.9,1.8,1.9v18.8c0,1-0.8,1.8-1.8,1.9h-24c-1,0-1.8-0.9-1.8-1.9
	V53.3c0-1,0.8-1.8,1.8-1.9L27.6,51.5z"/>
<path id="패스_134" class="st0" d="M19.3,60.5c0.1-2.3-1.7-4.1-4-4.2c-2.3,0.1-4,1.9-4,4.2c0,1.8,1,3.3,2.7,4l0.3,0.1v2.5
	c0,0.5,0.4,1,0.9,1s1-0.4,1-0.9c0,0,0-0.1,0-0.1v-2.5l0.3-0.1C18.3,63.9,19.3,62.3,19.3,60.5z M15.3,62.7c-1.2-0.1-2.1-1.2-2-2.4
	c0.1-1.1,0.9-1.9,2-2c1.2,0.1,2.1,1.2,2,2.4C17.3,61.8,16.4,62.6,15.3,62.7z"/>
<g id="그룹_48">
	<path id="패스_135" class="st0" d="M30.5,7.6C28,7.7,26,9.8,26,12.3C26,14.8,28,16.9,30.5,17c2.5-0.1,4.5-2.2,4.5-4.7
		C35,9.8,33,7.7,30.5,7.6C30.5,7.6,30.5,7.6,30.5,7.6z M30.5,15c-1.5,0-2.6-1.3-2.6-2.7c0,0,0,0,0,0c-0.1-1.4,1-2.6,2.4-2.7
		c1.4-0.1,2.6,1,2.7,2.4c0,0.1,0,0.2,0,0.3C33.1,13.8,32,15,30.5,15z"/>
	<path id="패스_136" class="st0" d="M30.5,32.5c-2.6,0.1-4.6,2.4-4.5,5c0.1,2.4,2,4.3,4.5,4.5c2.6-0.1,4.6-2.4,4.5-5
		C34.9,34.6,32.9,32.7,30.5,32.5z M30.5,39.9c-1.5,0.1-2.8-1.1-2.9-2.6c-0.1-1.5,1.1-2.8,2.6-2.9c1.5-0.1,2.8,1.1,2.9,2.6
		c0,0.1,0,0.1,0,0.2C33.1,38.7,32,39.9,30.5,39.9C30.5,39.9,30.5,39.9,30.5,39.9z"/>
	<path id="패스_137" class="st0" d="M64.4,36.2H39.8c-0.6,0-1,0.5-0.9,1.1c0,0.5,0.4,0.9,0.9,0.9h24.6c0.6,0,1-0.5,0.9-1.1
		C65.3,36.7,64.9,36.3,64.4,36.2z"/>
	<path id="패스_138" class="st0" d="M64.8,61.6H40c-0.6,0-1,0.5-0.9,1.1c0,0.5,0.4,0.9,0.9,0.9h24.7c0.6,0,1-0.5,0.9-1.1
		C65.7,62,65.3,61.6,64.8,61.6z"/>
	<path id="패스_139" class="st0" d="M0,53.3v18.8c-0.1,2.1,1.6,3.8,3.7,3.9h68.1c2.4-0.1,4.3-2.1,4.3-4.5c0,0,0,0,0,0V53.8
		c0-1.1-0.4-2.3-1.2-3.1l-0.3-0.4l0.3-0.4c0.8-0.8,1.2-2,1.2-3.1V29.2c0-1.2-0.4-2.3-1.2-3.1l-0.3-0.4l0.3-0.4
		c0.8-0.8,1.2-2,1.2-3.1V4.5c0.1-2.4-1.8-4.4-4.2-4.5c0,0,0,0,0,0H18.6c-2.4,0.1-4.3,2.1-4.3,4.5c0,0,0,0,0,0v17.7
		c0,1.2,0.4,2.3,1.2,3.1l0.3,0.4l-0.3,0.4c-0.8,0.8-1.2,2-1.2,3.1v3.3L14,32.6c-4.3,1-7.3,4.8-7.3,9.2l0,0.5v7.2h-3
		C1.6,49.5,0,51.3,0,53.3z M74.1,71.5c0,1.3-1,2.4-2.3,2.5H30.9l0.2-0.7c0.1-0.4,0.2-0.8,0.2-1.2v-4.8l0.4-0.1
		c2.5-0.8,4-3.4,3.2-5.9c-0.5-1.6-1.7-2.8-3.2-3.2l-0.4-0.1v-4.5c0-0.4-0.1-0.9-0.2-1.3l-0.2-0.7h40.9c1.3,0,2.4,1.1,2.3,2.5V71.5z
		 M31.3,65.4v-5.6l0.8,0.6c1.2,0.9,1.5,2.6,0.6,3.8c-0.2,0.2-0.4,0.4-0.6,0.6L31.3,65.4z M74.1,46.9c0,1.3-1,2.4-2.3,2.5h0l-0.1,0
		l-43.8,0h-3.3l0-7.6c0-4.6-3.3-8.6-7.9-9.3l-0.5-0.1v-3.2c0-1.3,1-2.4,2.4-2.5h53.1c1.3,0,2.4,1.1,2.4,2.5L74.1,46.9L74.1,46.9z
		 M16.3,4.5c0-1.3,1-2.4,2.4-2.5h53.1c1.3,0,2.4,1.2,2.3,2.5v17.7c0,1.3-1,2.4-2.3,2.5H18.7c-1.3,0-2.4-1.1-2.4-2.5V4.5z M8.6,41.8
		c0-4,3.1-7.2,7.1-7.4c4,0.1,7.1,3.4,7.1,7.4l0,0.9v6.8H8.6L8.6,41.8z M27.6,51.5c1,0,1.8,0.9,1.8,1.9v18.8c0,1-0.8,1.8-1.8,1.9h-24
		c-1,0-1.8-0.9-1.8-1.9V53.3c0-1,0.8-1.8,1.8-1.9L27.6,51.5z"/>
	<path id="패스_140" class="st0" d="M19.3,60.5c0.1-2.3-1.7-4.1-4-4.2c-2.3,0.1-4,1.9-4,4.2c0,1.8,1,3.3,2.7,4l0.3,0.1v2.5
		c0,0.5,0.4,1,0.9,1s1-0.4,1-0.9c0,0,0-0.1,0-0.1v-2.5l0.3-0.1C18.3,63.9,19.3,62.3,19.3,60.5z M15.3,62.7c-1.2-0.1-2.1-1.2-2-2.4
		c0.1-1.1,0.9-1.9,2-2c1.2,0.1,2.1,1.2,2,2.4C17.3,61.8,16.4,62.6,15.3,62.7z"/>
</g>
</svg>
