<svg xmlns="http://www.w3.org/2000/svg" viewBox="0 0 26 26">
  <defs>
    <style>
      .cls-1 {
        fill: #3b3b3b;
      }
    </style>
  </defs>
  <g id="icon-number-6" transform="translate(-83.691)">
    <path id="패스_180" data-name="패스 180" class="cls-1" d="M90.566,4.637l-.352.091,1.408,1.384.37,1.384-.982.965L89.6,8.1,88.2,6.714,88.1,7.06a3.3,3.3,0,0,0-.093.747,2.911,2.911,0,0,0,.87,2.076,3.017,3.017,0,0,0,2.982.729l.037-.018h0l7.168,7.048h0l.815.8-.019.036a2.979,2.979,0,0,0,.741,2.932,3.069,3.069,0,0,0,2.852.765l.352-.091L102.4,20.7l-.37-1.384.982-.965,1.408.364,1.408,1.384.093-.346a3.3,3.3,0,0,0,.093-.747,2.911,2.911,0,0,0-.87-2.076,3.017,3.017,0,0,0-2.982-.729l-.037.018-.13-.127h0L94.14,8.371h0l.019-.036A2.979,2.979,0,0,0,93.418,5.4,3.044,3.044,0,0,0,90.566,4.637Z" transform="translate(3.68 3.74)"/>
    <g id="그룹_66" data-name="그룹 66" transform="translate(83.692 0)">
      <path id="패스_182" data-name="패스 182" class="cls-1" d="M95.264,15.335a3.443,3.443,0,0,1-.611.036,3.977,3.977,0,0,1-2.76-1.111,3.768,3.768,0,0,1-1.13-2.714,4.133,4.133,0,0,1,.111-.947l.093-.346a.874.874,0,0,1,.648-.656,1.11,1.11,0,0,1,.259-.036.876.876,0,0,1,.648.273l1.222,1.2.648.164.241-.237-.167-.637-1.222-1.22A.9.9,0,0,1,93,8.214a.934.934,0,0,1,.667-.637l.352-.091a4.339,4.339,0,0,1,.963-.109,3.912,3.912,0,0,1,2.76,1.111A3.776,3.776,0,0,1,98.839,11.8l5.278,5.191.7-1.22.241-.419a1.247,1.247,0,0,0-.222-1.439c-.648-.656-1.611-1.566-1.611-1.566l-.148-.073a9.165,9.165,0,0,0,.056-1.02,8.325,8.325,0,0,0-.111-1.366l.2-.091s.945-.892,1.611-1.566a1.247,1.247,0,0,0,.222-1.439l-.241-.419-.741-1.293-.241-.419a1.278,1.278,0,0,0-1.371-.546c-.908.219-2.185.546-2.185.546l-.056.036a8.465,8.465,0,0,0-2.778-1.694c-.056-.219-.352-1.311-.574-2.094A1.28,1.28,0,0,0,95.709,0h-2.5a1.28,1.28,0,0,0-1.167.911c-.241.783-.519,1.876-.574,2.094a8.73,8.73,0,0,0-2.5,1.439l-.315-.2S87.374,3.9,86.467,3.7a1.277,1.277,0,0,0-1.371.546l-.241.419-.778,1.311-.241.419a1.247,1.247,0,0,0,.222,1.439C84.707,8.487,85.67,9.4,85.67,9.4l.259.127a9.035,9.035,0,0,0-.167,1.748,11.62,11.62,0,0,0,.111,1.4l-.2.091s-.945.892-1.611,1.566a1.211,1.211,0,0,0-.222,1.439l.241.419.759,1.311.241.419a1.277,1.277,0,0,0,1.371.546c.908-.219,2.185-.546,2.185-.546l.074-.036a8.721,8.721,0,0,0,2.741,1.657c.019.055.333,1.275.593,2.149a1.28,1.28,0,0,0,1.167.911h2.5a1.28,1.28,0,0,0,1.167-.911c.259-.874.574-2.094.593-2.149a7.409,7.409,0,0,0,1.371-.692Z" transform="translate(-83.692 0)"/>
    </g>
  </g>
</svg>
