<svg xmlns="http://www.w3.org/2000/svg" viewBox="0 0 26 26">
  <defs>
    <style>
      .cls-1 {
        fill: #3b3b3b;
      }

      .cls-2 {
        fill: #fff;
      }
    </style>
  </defs>
  <g id="icon-number-5" transform="translate(-963.99 -4126.43)">
    <g id="그룹_63" data-name="그룹 63" transform="translate(971.678 4131.55)">
      <ellipse id="타원_11" data-name="타원 11" class="cls-1" cx="5.312" cy="5.375" rx="5.312" ry="5.375" transform="translate(0)"/>
      <path id="패스_175" data-name="패스 175" class="cls-2" d="M69.175,11.25,66.258,8.3a.61.61,0,0,1,0-.856.593.593,0,0,1,.846,0l2.071,2.1L72.74,5.93a.593.593,0,0,1,.846,0,.61.61,0,0,1,0,.856Z" transform="translate(-64.602 -2.997)"/>
    </g>
    <g id="그룹_65" data-name="그룹 65" transform="translate(963.99 4126.43)">
      <path id="패스_179" data-name="패스 179" class="cls-1" d="M84.361,1.43H63.619A2.659,2.659,0,0,0,60.99,4.09V20.051a2.659,2.659,0,0,0,2.629,2.66h6.626v2.715H69.038a1,1,0,0,0,0,2H78.96a1,1,0,0,0,0-2H77.753V22.693h6.608a2.659,2.659,0,0,0,2.629-2.66V4.09A2.659,2.659,0,0,0,84.361,1.43Zm.81,18.621a.843.843,0,0,1-.828.838H63.619a.843.843,0,0,1-.828-.838V4.09a.843.843,0,0,1,.828-.838H84.361a.843.843,0,0,1,.828.838V20.051Z" transform="translate(-60.99 -1.43)"/>
    </g>
  </g>
</svg>
