<svg xmlns="http://www.w3.org/2000/svg" viewBox="0 0 31.643 34">
  <defs>
    <style>
      .cls-1 {
        fill: #fff;
      }
    </style>
  </defs>
  <g id="icon-sourcecode" transform="translate(0.004)">
    <path id="패스_68" data-name="패스 68" class="cls-1" d="M193.8,11.912,185.548,3.66h-.6V11.5a.828.828,0,0,0,.825.825H193.8Zm-7.885-6.519,5.969,5.969h-5.969Z" transform="translate(-166.153 -3.288)"/>
    <path id="패스_69" data-name="패스 69" class="cls-1" d="M112.57,296.051a1.331,1.331,0,0,1-.942-.389h0l-1.077-1.077a1.333,1.333,0,0,1,0-1.885l.6-.6a1.332,1.332,0,0,1,1.885,0l1.077,1.077a1.334,1.334,0,0,1,0,1.885l-.6.6A1.332,1.332,0,0,1,112.57,296.051Zm-.224-1.109a.317.317,0,0,0,.447,0l.6-.6a.317.317,0,0,0,0-.447l-1.077-1.077a.325.325,0,0,0-.447,0l-.6.6a.317.317,0,0,0,0,.447Z" transform="translate(-98.966 -262.059)"/>
    <path id="패스_70" data-name="패스 70" class="cls-1" d="M242.269,140.8l-2.979-2.979.367-.36c1.259-1.234,1.277-1.245,1.333-1.281l3.913-2.516a1.1,1.1,0,0,1,1.526,1.526l-2.516,3.913c-.037.056-.047.073-1.284,1.331Zm-1.534-2.971,1.528,1.528c.348-.355.719-.733.817-.839l2.492-3.877a.076.076,0,0,0-.011-.109.074.074,0,0,0-.109-.011l-3.878,2.492C241.47,137.117,241.09,137.486,240.735,137.834Zm2.323.725Zm.007-.012a.087.087,0,0,0-.007.012Zm-1.514-1.514-.013.008Z" transform="translate(-214.97 -119.919)"/>
    <path id="패스_71" data-name="패스 71" class="cls-1" d="M123.762,184.607l-2.962-2.962,12.785-12.785,2.962,2.962Zm-1.525-2.962,1.525,1.525,11.348-11.348-1.525-1.525Z" transform="translate(-108.524 -151.696)"/>
    <g id="그룹_35" data-name="그룹 35" transform="translate(-0.004)">
      <path id="패스_72" data-name="패스 72" class="cls-1" d="M11.943,32.166a.761.761,0,0,1-.1-.123l-4.086.932a.287.287,0,0,1-.34-.213l-.244-1.071h4.538a.818.818,0,0,1,.234-.69l.326-.326H4.12a.288.288,0,0,1-.284-.284V1.639a.288.288,0,0,1,.284-.284H18.978l7.677,7.677v7.429l1.3-.836-.284-1.241V8.611L25.966,6.9l-.155-.679L24.4,5.34l-5-5H16.443L15.9,0,14.423.338H4.12a1.3,1.3,0,0,0-1.3,1.3V2.986L1.008,3.4A1.3,1.3,0,0,0,.029,4.956L2.82,17.184V30.392a1.3,1.3,0,0,0,1.3,1.3h2.01l.3,1.3A1.3,1.3,0,0,0,7.691,34a1.348,1.348,0,0,0,.291-.033l4.691-1.07ZM2.82,12.615,1.02,4.73a.287.287,0,0,1,.213-.34L2.82,4.028Z" transform="translate(0.004)"/>
      <path id="패스_73" data-name="패스 73" class="cls-1" d="M160.959,183.92l-.141.22c-.01.016-.365.379-.689.711l1.839,8.061a.287.287,0,0,1-.213.34l-1.779.406v-8.65l-.376.383-.014-.015-.625.625v9.616a.288.288,0,0,1-.284.284H149.06l-1.518,1.518-.214-.214a.839.839,0,0,1-.058.4l2.989-.682h8.417a1.3,1.3,0,0,0,1.3-1.3V194.7l2-.457a1.3,1.3,0,0,0,.979-1.557Z" transform="translate(-132.3 -165.225)"/>
    </g>
    <path id="패스_74" data-name="패스 74" class="cls-1" d="M70.573,53.685H61.218a.479.479,0,0,1-.478-.478h0a.479.479,0,0,1,.478-.478h9.355a.479.479,0,0,1,.478.478h0A.478.478,0,0,1,70.573,53.685Z" transform="translate(-54.569 -47.37)"/>
    <path id="패스_75" data-name="패스 75" class="cls-1" d="M70.573,87.685H61.218a.479.479,0,0,1-.478-.478h0a.479.479,0,0,1,.478-.478h9.355a.479.479,0,0,1,.478.478h0A.478.478,0,0,1,70.573,87.685Z" transform="translate(-54.569 -77.914)"/>
    <path id="패스_76" data-name="패스 76" class="cls-1" d="M78.714,120.72H61.228a.478.478,0,1,0,0,.955H78.714a.478.478,0,1,0,0-.955Z" transform="translate(-54.578 -108.449)"/>
    <path id="패스_77" data-name="패스 77" class="cls-1" d="M78.714,154.72H61.228a.478.478,0,1,0,0,.955H78.714a.478.478,0,1,0,0-.955Z" transform="translate(-54.578 -138.993)"/>
    <g id="그룹_36" data-name="그룹 36" transform="translate(6.172 19.183)">
      <path id="패스_78" data-name="패스 78" class="cls-1" d="M234.96,188.721h0Z" transform="translate(-217.252 -188.72)"/>
      <path id="패스_79" data-name="패스 79" class="cls-1" d="M69.359,189.676h6.065l.957-.956H61.228a.478.478,0,1,0,0,.955h8.131Z" transform="translate(-60.75 -188.72)"/>
    </g>
    <path id="패스_80" data-name="패스 80" class="cls-1" d="M69.359,223.676h2.609l.957-.956h-11.7a.478.478,0,1,0,0,.955h8.131Z" transform="translate(-54.578 -200.081)"/>
    <path id="패스_81" data-name="패스 81" class="cls-1" d="M68.513,257.677l.956-.957H61.228a.478.478,0,1,0,0,.955h7.285Z" transform="translate(-54.578 -230.625)"/>
  </g>
</svg>
