<svg xmlns="http://www.w3.org/2000/svg" viewBox="0 0 14 14">
  <defs>
    <style>
      .cls-1 {
        fill: #3b3b3b;
      }
    </style>
  </defs>
  <g id="icon-2" transform="translate(-0.004)">
    <path id="패스_150" data-name="패스 150" class="cls-1" d="M13.307,9.77l-.059-.029a3.068,3.068,0,0,0,.029-.429,3.819,3.819,0,0,0-.049-.575l.088-.039s.39-.38.663-.654a.527.527,0,0,0,.1-.6l-.1-.176-.312-.546-.1-.176A.524.524,0,0,0,13,6.307c-.39.1-.917.244-.917.244l-.02.01a3.54,3.54,0,0,0-1.141-.7c-.02-.1-.146-.546-.234-.878a.529.529,0,0,0-.478-.38H9.171a.529.529,0,0,0-.478.38c-.1.332-.215.79-.234.878a3.35,3.35,0,0,0-1.034.6L7.3,6.375s-.527-.146-.9-.234a.524.524,0,0,0-.566.234l-.1.176L5.426,7.1l-.1.176a.526.526,0,0,0,.1.6c.263.273.654.654.654.654l.107.049a3.715,3.715,0,0,0-.068.732,3.948,3.948,0,0,0,.049.585l-.088.049s-.39.38-.663.654a.527.527,0,0,0-.1.6l.1.176.312.546.1.176a.524.524,0,0,0,.566.234c.371-.088.9-.234.9-.234l.029-.02a3.47,3.47,0,0,0,1.131.693c.01.02.146.527.244.9a.529.529,0,0,0,.478.38h1.044a.529.529,0,0,0,.478-.38c.107-.361.234-.878.244-.9a3.515,3.515,0,0,0,1.258-.819c.176.049.527.137.8.2a.535.535,0,0,0,.566-.234l.1-.176.312-.546.1-.176a.526.526,0,0,0-.1-.6C13.7,10.15,13.307,9.77,13.307,9.77ZM9.688,11.252A1.931,1.931,0,1,1,11.62,9.321,1.936,1.936,0,0,1,9.688,11.252Z" transform="translate(-0.129 -0.052)"/>
    <path id="패스_151" data-name="패스 151" class="cls-1" d="M3.716,8l-.029-.01a1.307,1.307,0,0,0,.01-.2,2.392,2.392,0,0,0-.02-.263l.039-.02s.185-.176.3-.3a.261.261,0,0,0,.039-.283l-.039-.078L3.872,6.6l-.039-.078A.249.249,0,0,0,3.57,6.41c-.176.039-.419.107-.419.107h-.01A1.533,1.533,0,0,0,2.614,6.2c-.01-.049-.068-.254-.107-.41a.257.257,0,0,0-.224-.176H1.795a.239.239,0,0,0-.224.176c-.049.156-.1.361-.107.41A1.668,1.668,0,0,0,1,6.478L.936,6.439S.693,6.371.517,6.332a.226.226,0,0,0-.254.107l-.049.078-.146.254-.039.078a.26.26,0,0,0,.039.283c.127.127.312.3.312.3l.049.02a1.309,1.309,0,0,0-.039.341,2.57,2.57,0,0,0,.02.273l-.029.02s-.185.176-.3.3a.242.242,0,0,0-.039.283l.049.078L.234,9l.049.078a.249.249,0,0,0,.263.107c.176-.039.419-.107.419-.107l.01-.01a1.372,1.372,0,0,0,.5.322c0,.01.059.244.107.41A.239.239,0,0,0,1.8,9.98h.488A.239.239,0,0,0,2.517,9.8c.039-.166.1-.4.1-.41a1.687,1.687,0,0,0,.585-.38c.078.02.244.068.371.1A.249.249,0,0,0,3.833,9l.039-.088.146-.254.049-.078A.26.26,0,0,0,4.029,8.3,3.426,3.426,0,0,0,3.716,8Zm-1.668.693A.888.888,0,1,1,2.936,7.8.885.885,0,0,1,2.048,8.692Z" transform="translate(0 -0.103)"/>
    <path id="패스_152" data-name="패스 152" class="cls-1" d="M7.159,3.082l-.039-.02a2.219,2.219,0,0,0,.02-.254,1.934,1.934,0,0,0-.029-.341l.049-.029s.234-.224.4-.39a.309.309,0,0,0,.059-.361L7.549,1.6l-.185-.332-.059-.107a.306.306,0,0,0-.332-.137c-.224.059-.536.137-.536.137l-.02.01A2.05,2.05,0,0,0,5.735.751C5.725.693,5.657.419,5.6.224A.3.3,0,0,0,5.316,0H4.7a.3.3,0,0,0-.283.224c-.059.2-.127.468-.146.527a2.041,2.041,0,0,0-.615.361l-.078-.049S3.267.975,3.043.927a.314.314,0,0,0-.341.137l-.059.1-.185.332L2.4,1.6a.309.309,0,0,0,.059.361c.166.166.4.39.4.39l.068.029a1.6,1.6,0,0,0-.049.439,2.132,2.132,0,0,0,.029.351l-.059.02s-.234.224-.4.39a.318.318,0,0,0-.049.361l.059.107.185.332.059.107a.306.306,0,0,0,.332.137c.224-.049.536-.137.536-.137l.02-.01a2.513,2.513,0,0,0,.683.4c0,.01.078.322.146.536a.307.307,0,0,0,.283.224h.615A.3.3,0,0,0,5.6,5.413c.068-.215.146-.527.146-.536A2.126,2.126,0,0,0,6.5,4.389c.107.029.312.078.478.117a.31.31,0,0,0,.332-.137l.059-.107.185-.332.059-.107a.309.309,0,0,0-.059-.361C7.393,3.307,7.159,3.082,7.159,3.082ZM5,3.97A1.151,1.151,0,1,1,6.154,2.819,1.153,1.153,0,0,1,5,3.97Z" transform="translate(-0.058)"/>
  </g>
</svg>
