<svg xmlns="http://www.w3.org/2000/svg" viewBox="0 0 23 26">
  <defs>
    <style>
      .cls-1 {
        fill: #3b3b3b;
      }

      .cls-2 {
        fill: #fff;
      }
    </style>
  </defs>
  <g id="icon-number-2" transform="translate(0 -1.311)">
    <path id="패스_171" data-name="패스 171" class="cls-1" d="M5.267,1.347,0,6.55H3.83A1.471,1.471,0,0,0,5.3,5.09V1.31Z" transform="translate(0 0)"/>
    <ellipse id="타원_10" data-name="타원 10" class="cls-1" cx="6.095" cy="6.044" rx="6.095" ry="6.044" transform="translate(10.809 15.223)"/>
    <g id="그룹_61" data-name="그룹 61" transform="translate(0.018 1.31)">
      <path id="패스_173" data-name="패스 173" class="cls-1" d="M9.88,21.267c0-.073.018-.128.018-.2H2.883a.639.639,0,1,1,0-1.278h7.163a6.745,6.745,0,0,1,.976-2.3H2.883a.639.639,0,1,1,0-1.278h9.189A7,7,0,0,1,16.9,14.274h0V2.771A1.471,1.471,0,0,0,15.423,1.31H6.234v2.9h0V5.838a1.616,1.616,0,0,1-1.62,1.607H.01V22.874a1.471,1.471,0,0,0,1.473,1.461h9.152A6.579,6.579,0,0,1,9.88,21.267ZM8.757,5.546h5.561a.639.639,0,1,1,0,1.278H8.757a.639.639,0,1,1,0-1.278ZM2.883,9.107H14.318a.639.639,0,1,1,0,1.278H2.883a.639.639,0,1,1,0-1.278Zm0,3.56H14.318a.65.65,0,0,1,.645.639.634.634,0,0,1-.645.621H2.883a.65.65,0,0,1-.645-.639A.634.634,0,0,1,2.883,12.667Z" transform="translate(-0.01 -1.31)"/>
    </g>
    <path id="패스_174" data-name="패스 174" class="cls-2" d="M10.336,16.812,6.985,13.489a.669.669,0,0,1,0-.968.682.682,0,0,1,.976,0l2.376,2.355,4.088-4.053a.682.682,0,0,1,.976,0,.669.669,0,0,1,0,.968Z" transform="translate(5.703 7.687)"/>
  </g>
</svg>
