<svg xmlns="http://www.w3.org/2000/svg" viewBox="0 0 13.998 14.002">
  <defs>
    <style>
      .cls-1 {
        fill: #3b3b3b;
      }
    </style>
  </defs>
  <g id="icon-1" transform="translate(0.008 0.008)">
    <path id="패스_92" data-name="패스 92" class="cls-1" d="M6.7,9.028a.97.97,0,0,1-.7-.284,1.184,1.184,0,0,1-.255-.461,1.978,1.978,0,0,1-.667-.441L.559,3.313a1.923,1.923,0,0,1,0-2.725L.588.559a1.923,1.923,0,0,1,2.725,0L7.842,5.087a1.921,1.921,0,0,1,.431.647A.965.965,0,0,1,8.763,6h0a.976.976,0,0,1,0,1.382L7.4,8.744A1.012,1.012,0,0,1,6.7,9.028Z"/>
    <g id="그룹_42" data-name="그룹 42" transform="translate(0 6.954)">
      <path id="패스_93" data-name="패스 93" class="cls-1" d="M5.846,8.423a.935.935,0,0,0,.255.461,1.05,1.05,0,0,0,.7.284A.989.989,0,0,0,7.4,8.943L7.091,8.57a.49.49,0,0,1-.627-.049.512.512,0,0,1-.137-.314l-.01-.167L6.14,7.992a1.448,1.448,0,0,1-.6-.363L5,7.1l-.353.353.529.529A1.978,1.978,0,0,0,5.846,8.423Z" transform="translate(-0.092 -7.1)"/>
      <path id="패스_94" data-name="패스 94" class="cls-1" d="M6.626,9.663a1.487,1.487,0,0,1-.961-.422,1.587,1.587,0,0,1-.3-.451,2.293,2.293,0,0,1-.618-.441L4.205,7.81l-.676.676a2.789,2.789,0,0,0-2.735.686,2.8,2.8,0,0,0-.716,2.637l.108.431,1.333-1.333,1.216-.323.833.833-.323,1.216L1.911,13.966l.431.108a2.784,2.784,0,0,0,.686.078,2.711,2.711,0,0,0,1.941-.794,2.789,2.789,0,0,0,.686-2.735Z" transform="translate(0 -7.114)"/>
    </g>
    <g id="그룹_43" data-name="그룹 43" transform="translate(6.969 0.025)">
      <path id="패스_95" data-name="패스 95" class="cls-1" d="M8.9,6.091a1,1,0,0,0-.49-.265,1.921,1.921,0,0,0-.431-.647l-.52-.52-.353.353.52.52a1.427,1.427,0,0,1,.353.6l.049.176h.176a.444.444,0,0,1,.323.137.479.479,0,0,1,0,.676l-.549.559.353.353.559-.559A.985.985,0,0,0,8.9,6.091Z" transform="translate(-7.11 -0.117)"/>
      <path id="패스_96" data-name="패스 96" class="cls-1" d="M14.064,2.373l-.108-.431L12.623,3.275,11.408,3.6l-.833-.833L10.9,1.549,12.231.216,11.8.108A2.786,2.786,0,0,0,9.163.824a2.789,2.789,0,0,0-.686,2.735l-.657.667.52.52a2.6,2.6,0,0,1,.431.588,1.433,1.433,0,0,1,.48.323,1.481,1.481,0,0,1,.422.98l.931-.931a2.758,2.758,0,0,0,3.46-3.333Z" transform="translate(-7.124 -0.026)"/>
    </g>
    <path id="패스_97" data-name="패스 97" class="cls-1" d="M13.281,14.134a.386.386,0,0,1-.206-.059l-1.647-1.059a.383.383,0,0,1-.167-.255l-.118-.647v-.02L7.38,8.34l.97-.97L12.1,11.124h.01l.647.118a.383.383,0,0,1,.255.167l1.059,1.647a.386.386,0,0,1-.049.48l-.48.48A.35.35,0,0,1,13.281,14.134Zm.382-.8Z" transform="translate(-0.146 -0.151)"/>
  </g>
</svg>
