<svg xmlns="http://www.w3.org/2000/svg" viewBox="0 0 34.064 34">
  <defs>
    <style>
      .cls-1 {
        fill: #fff;
      }
    </style>
  </defs>
  <g id="icon-wep-developer" transform="translate(-1399 -1850)">
    <g id="그룹_40" data-name="그룹 40" transform="translate(1399 1850)">
      <path id="패스_90" data-name="패스 90" class="cls-1" d="M43.676,27.49H39.43v8.824h4.246c1.65,0,2.237-.32,2.237-2.133V29.629C45.913,27.947,45.43,27.49,43.676,27.49Zm1.115,6.685c0,.691-.078.861-.117.9a2.609,2.609,0,0,1-1,.117H40.545V28.605h3.131c.717,0,.939.072,1,.137.117.111.117.691.117.88v4.552Z" transform="translate(-13.713 -9.561)"/>
      <path id="패스_91" data-name="패스 91" class="cls-1" d="M30.785,15.973H26.832v-.007h-3.1V9.718h-.026l.033-.013-2.1-4.924v-1.5a.561.561,0,1,0-1.122,0V4.892L18.432,9.718l.02.007v6.242H17.068V7.9h-.724V5.263a.83.83,0,0,0-.248-.587L14,2.641a.826.826,0,0,0-.887-.17.815.815,0,0,0-.5.75V7.9H11.89v8.068H10.4V0H2.315V15.973H.02v5.563c-.013.15-.02.293-.02.424v6.8A5.4,5.4,0,0,0,5.537,34H21.295a5.4,5.4,0,0,0,5.537-5.237V28.7h3.952a3.206,3.206,0,0,0,3.281-3.118v-6.5A3.2,3.2,0,0,0,30.785,15.973ZM19.58,10.833h1.037V15.96H19.58Zm2.152,0h.887V15.96h-.887ZM19.664,9.718l1.448-3.346,1.428,3.346ZM13.749,3.939l1.487,1.448V7.9H13.749ZM13.025,9.02h.241a.809.809,0,0,0,.176.02h2.094a.767.767,0,0,0,.176-.02h.241v6.946H13.018V9.02ZM3.431,15.5H5.055a.561.561,0,0,0,0-1.122H3.431v-.613H5.055a.561.561,0,0,0,0-1.122H3.431v-.613H5.055a.561.561,0,0,0,0-1.122H3.431v-.613H6.32a.561.561,0,0,0,0-1.122H3.431V8.557H5.055a.561.561,0,1,0,0-1.122H3.431V6.822H5.055a.561.561,0,0,0,.561-.561.529.529,0,0,0-.561-.522H3.431V5.133H5.055a.561.561,0,1,0,0-1.122H3.431V3.4H6.32a.561.561,0,1,0,0-1.122H3.431V1.115H9.3V15.966H3.431ZM32.95,25.586a2.087,2.087,0,0,1-2.165,2H25.717v1.181a4.286,4.286,0,0,1-4.422,4.122H5.537a4.282,4.282,0,0,1-4.422-4.122v-6.8a3.371,3.371,0,0,1,.02-.352v-4.52H11.9V17.1h5.172v-.02h2.061v.033H23.18v-.033H25.7v.007h5.074a2.087,2.087,0,0,1,2.165,2v6.5Z"/>
    </g>
  </g>
</svg>
