<?xml version="1.0" encoding="utf-8"?>
<!-- Generator: Adobe Illustrator 23.0.1, SVG Export Plug-In . SVG Version: 6.00 Build 0)  -->
<svg version="1.1" id="레이어_1" xmlns="http://www.w3.org/2000/svg" xmlns:xlink="http://www.w3.org/1999/xlink" x="0px"
	 y="0px" viewBox="0 0 76 76" style="enable-background:new 0 0 76 76;" xml:space="preserve">
<style type="text/css">
	.st0{fill:#F06447;}
</style>
<g id="icon-website-developer" transform="translate(-808 -3164)">
	<path id="패스_111" class="st0" d="M848,3211.3l1.3-1.3l19,19l0,0.1l0.7,3.6c0.1,0.5,0.4,0.9,0.8,1.1l9,5.8
		c0.7,0.4,1.6,0.3,2.2-0.2l2.6-2.6c0.6-0.6,0.7-1.5,0.2-2.2l-5.8-9c-0.3-0.4-0.7-0.7-1.2-0.8l-3.7-0.7l-0.1-0.1l-18.9-18.9
		l10.8-10.8l0.2,0.1c7.8,2.4,16-2,18.3-9.8c0.8-2.6,0.8-5.4,0.2-8l-0.4-1.8l-6.9,6.9l-6.9,1.8l-4.9-4.9l1.8-6.9l6.9-6.9l-1.8-0.4
		c-5-1.3-10.4,0.2-14.1,3.8c-3.8,3.8-5.2,9.5-3.7,14.6l0.1,0.2l-5.9,5.9l-22.2-22.2c-4-4-10.4-4-14.4,0l-0.2,0.2c-4,4-4,10.4,0,14.4
		l22.1,22.1l-6,6l-0.2-0.1c-5.2-1.5-10.8-0.1-14.6,3.7c-3.7,3.7-5.1,9.1-3.8,14.1l0.4,1.8l6.9-6.9l6.9-1.8l4.9,4.9l-1.8,6.9
		l-6.9,6.9l1.8,0.4c1.2,0.3,2.5,0.4,3.7,0.4c3.9,0,7.6-1.5,10.4-4.2c3.8-3.8,5.2-9.5,3.7-14.6l-0.1-0.2l9-9l0,0l0.4-0.4
		C847.8,3211.4,847.9,3211.4,848,3211.3z M872.4,3226.4l0.5-0.2l3.4,0.6l5.6,8.7l-2.3,2.3l-8.7-5.6l-0.6-3.3l0.2-0.5l-19.8-19.8
		l1.9-1.9l0,0l0,0l0.3,0.2L872.4,3226.4z M856,3183.8l-0.2-0.6c-1.7-4.7-0.5-9.8,2.9-13.4c2.5-2.5,6-3.8,9.5-3.7l0.8,0l-4.7,4.6
		l-2.3,8.6l6.5,6.5l8.6-2.3l4.7-4.7l0,0.8c0.2,3.5-1.1,7-3.7,9.5c-3.5,3.5-8.7,4.6-13.4,2.9l-0.6-0.2l-7.5,7.5l-0.2-0.6
		c0-0.2-0.1-0.4-0.2-0.5c-0.1-0.3-0.3-0.6-0.4-0.8c0-0.1-0.1-0.1-0.1-0.2c-0.2-0.2-0.4-0.5-0.6-0.7l0,0c-0.7-0.7-1.5-1.1-2.5-1.3
		l-0.2,0l-0.1-0.2c-0.5-1.3-1.3-2.4-2.2-3.4l-1.2-1.2L856,3183.8z M843.2,3213.1l-7.2,7.2l0.2,0.6c1.7,4.7,0.5,9.8-2.9,13.4
		c-2.4,2.4-5.6,3.7-9,3.7c-0.2,0-0.4,0-0.6,0l-0.8,0l4.7-4.7l2.3-8.6l-6.5-6.5l-8.6,2.3l-4.7,4.6l0-0.8c-0.2-3.5,1.1-7,3.7-9.5
		c3.5-3.5,8.7-4.6,13.4-2.9l0.6,0.2l6.9-6.9l1.3,1.3c0.8,0.8,1.6,1.4,2.6,1.9c0.3,0.2,0.6,0.3,1,0.4l0.2,0.1l0,0.2
		c0.1,0.4,0.3,0.9,0.5,1.3c0.2,0.4,0.5,0.8,0.8,1.1c0.3,0.3,0.6,0.5,0.9,0.7l0.2,0.1l0.1,0c0.3,0.1,0.5,0.3,0.8,0.3l0.7,0.2
		L843.2,3213.1z M846.5,3209.8c-0.1,0.1-0.2,0.2-0.4,0.3c-0.1,0.1-0.2,0.1-0.3,0.2c-0.1,0-0.1,0.1-0.2,0.1c-0.1,0-0.2,0.1-0.3,0.1
		c-0.1,0-0.1,0-0.2,0.1c-0.1,0-0.2,0-0.3,0.1c-0.1,0-0.2,0-0.3,0h-0.3c-0.1,0-0.2,0-0.3,0c-0.1,0-0.2,0-0.3,0c-0.1,0-0.2,0-0.2-0.1
		c-0.1,0-0.2-0.1-0.3-0.1c-0.1,0-0.2-0.1-0.2-0.1l-0.1-0.1c-0.1,0-0.1-0.1-0.2-0.1c-0.2-0.1-0.3-0.2-0.4-0.4
		c-0.5-0.5-0.8-1.2-0.9-1.9l0-0.7l-0.7-0.2c-1.3-0.4-2.5-1.1-3.5-2.1l-24.8-24.8c-3.2-3.2-3.2-8.4,0-11.5l0.2-0.2
		c3.2-3.2,8.3-3.2,11.5,0l24.8,24.8c0.9,0.9,1.6,2.1,2,3.4l0.2,0.7l0.7,0c0.4,0,0.8,0.1,1.1,0.2c0.3,0.1,0.7,0.4,0.9,0.6
		c1.2,1.2,1.2,3,0,4.2c0,0,0,0,0,0L846.5,3209.8z"/>
</g>
</svg>
