<svg id="icon-4" xmlns="http://www.w3.org/2000/svg" viewBox="0 0 9 14">
  <defs>
    <style>
      .cls-1 {
        fill: #3b3b3b;
      }
    </style>
  </defs>
  <path id="패스_157" data-name="패스 157" class="cls-1" d="M.03,6.26H0v.01H0V8.177a.9.9,0,0,0,.9.895H2.537a.864.864,0,0,1,.813.895v3a1.15,1.15,0,0,0,2.3,0v-3.1a.834.834,0,0,1,.8-.787H8.088a.9.9,0,0,0,.9-.895V7.666h0V6.26Zm4.47,6.9a.433.433,0,1,1,.436-.433A.438.438,0,0,1,4.5,13.162ZM8.485,7.8H.545V7.341H8.485Z" transform="translate(0 -0.106)"/>
  <path id="패스_158" data-name="패스 158" class="cls-1" d="M7.979,0C6.819.02,6.155,1.317,6.126,1.386c0,.01,0,.01-.01.01h0V0H4.857V3.087H4.4V0H3.211V3.087H2.756V0H1.685V3.087H1.229V0H0V5.7H9V0Z"/>
</svg>
