<svg xmlns="http://www.w3.org/2000/svg" viewBox="0 0 70 74.668">
    <defs>
        <style>
            .cls-1{fill:#d82121}
        </style>
    </defs>
    <g id="icon4" transform="translate(-1350 -1729)">
        <path id="패스_898" d="M36.208 23.677h-2.527a40.876 40.876 0 0 1-7.861-.932 15.019 15.019 0 0 1-4.492-1.771 2.8 2.8 0 0 1-.936-.839l.187-.093a8.427 8.427 0 0 0 .936-.839 2.837 2.837 0 0 0 .749-1.491 13.829 13.829 0 0 1 5.615-10.44l1.5 6.339a1.724 1.724 0 0 0 .374.932 2.218 2.218 0 0 0 1.591.932 1.851 1.851 0 0 0 1.31-.559 1.905 1.905 0 0 0 .468-1.585c-.094-1.025-.281-2.051-.374-3.076l-.284-2.145c-.094-1.025-.281-2.051-.374-3.076a14.479 14.479 0 0 1 1.591-.466 1.8 1.8 0 0 0 1.4-1.771h1.123V0h-1.119c-1.872 0-2.62.559-2.807 2.144-.561.186-1.217.373-1.965.653a.81.81 0 0 0-.561.28v-.094l-1.684.839c-.094.093-.281.093-.374.186a16.871 16.871 0 0 0-8.235 13.33 5.189 5.189 0 0 1-.749.559l-.468.373a2.182 2.182 0 0 0-.561 2.89 5.09 5.09 0 0 0 2.056 2.14 15.321 15.321 0 0 0 5.428 2.144 46.53 46.53 0 0 0 8.422.932h2.62v-2.7z" class="cls-1" data-name="패스 898" transform="translate(1348.886 1729)"/>
        <path id="패스_899" d="M33.222 75.051c-2.995 0-5.989-.093-9.078-.28a95.271 95.271 0 0 1-13.2-1.491 49.216 49.216 0 0 1-8.142-2.33 22.965 22.965 0 0 1 2.34-9.508c1.4-2.89 3.65-5.127 7.019-7.271a46.661 46.661 0 0 1 6.176-2.89l1.123-.466c.749-.28 1.4-.559 2.246-.839l.842-.28h1.872a10.237 10.237 0 0 1-2.34-2.8l-.281.093c-.374.093-.749.28-1.029.373-.749.28-1.591.559-2.34.839l-1.123.466a46.343 46.343 0 0 0-6.551 3.076A20.16 20.16 0 0 0 2.62 60.23 26.542 26.542 0 0 0 0 70.857a2.454 2.454 0 0 0 1.684 2.61 44.694 44.694 0 0 0 8.7 2.517 122.2 122.2 0 0 0 13.57 1.585c3.088.186 6.27.28 9.265.28z" class="cls-1" data-name="패스 899" transform="translate(1350 1725.819)"/>
        <path id="패스_900" d="M37.5 23.677h2.527a40.876 40.876 0 0 0 7.861-.932 15.019 15.019 0 0 0 4.492-1.771 2.8 2.8 0 0 0 .936-.839l-.187-.093a8.426 8.426 0 0 1-.936-.839 2.837 2.837 0 0 1-.749-1.491 13.829 13.829 0 0 0-5.615-10.44l-1.5 6.339a1.724 1.724 0 0 1-.374.932 2.218 2.218 0 0 1-1.591.932 1.851 1.851 0 0 1-1.31-.559 1.905 1.905 0 0 1-.468-1.585c.094-1.025.281-2.051.374-3.076l.281-2.144c.094-1.025.281-2.051.374-3.076a14.479 14.479 0 0 0-1.591-.466 1.8 1.8 0 0 1-1.4-1.771H37.5V0h1.123c1.872 0 2.62.559 2.807 2.144.561.186 1.217.373 1.965.653a.81.81 0 0 1 .562.28v-.094l1.684.839c.094.093.281.093.374.186a16.871 16.871 0 0 1 8.235 13.33 5.19 5.19 0 0 0 .75.562l.468.373a2.182 2.182 0 0 1 .561 2.89 5.09 5.09 0 0 1-2.058 2.137 15.321 15.321 0 0 1-5.428 2.144 46.53 46.53 0 0 1-8.422.932H37.5z" class="cls-1" data-name="패스 900" transform="translate(1347.594 1729)"/>
        <path id="패스_901" d="M39.487 75.051c2.995 0 5.989-.093 9.078-.28a95.271 95.271 0 0 0 13.2-1.491 36.719 36.719 0 0 0 8.048-2.33 22.965 22.965 0 0 0-2.34-9.508c-1.4-2.89-3.65-5.127-7.019-7.271a46.661 46.661 0 0 0-6.176-2.89l-1.123-.466c-.749-.28-1.4-.559-2.246-.839l-.842-.28H48.19a10.237 10.237 0 0 0 2.34-2.8l.187.093c.374.093.749.28 1.029.373.749.28 1.591.559 2.34.839l1.123.466a46.343 46.343 0 0 1 6.551 3.076 20.16 20.16 0 0 1 8.14 8.487 25.419 25.419 0 0 1 2.62 10.627 2.454 2.454 0 0 1-1.684 2.61 44.694 44.694 0 0 1-8.7 2.517 122.2 122.2 0 0 1-13.57 1.585c-3.088.186-6.27.28-9.265.28v-2.8z" class="cls-1" data-name="패스 901" transform="translate(1347.478 1725.819)"/>
        <path id="사각형_539" d="M0 0h5.615v2.797H0z" class="cls-1" data-name="사각형 539" transform="translate(1382.473 1800.87)"/>
        <g id="그룹_121" data-name="그룹 121" transform="translate(1382.462 1779.151)">
            <path id="패스_902" d="M35.448 53.8a.515.515 0 0 0-.468.28 1.7 1.7 0 0 0 .281 2.237l.281.28A2.493 2.493 0 0 0 39 56.6l.281-.28a1.727 1.727 0 0 0 .281-2.237.515.515 0 0 0-.468-.28z" class="cls-1" data-name="패스 902" transform="translate(-34.687 -53.8)"/>
        </g>
        <g id="그룹_122" data-name="그룹 122" transform="translate(1382.193 1782.04)">
            <path id="패스_903" d="M36.833 71.721l-2.34-4.847c0-.093-.094-.186-.094-.28l.936-9.228a.523.523 0 0 1 .565-.466h2.527a.593.593 0 0 1 .561.466l1.123 9.228v.28l-2.246 4.94a.582.582 0 0 1-1.032-.093z" class="cls-1" data-name="패스 903" transform="translate(-34.4 -56.9)"/>
        </g>
        <g id="그룹_123" data-name="그룹 123" transform="translate(1366.939 1753.236)">
            <path id="패스_904" d="M54.223 27.958A2.281 2.281 0 0 0 52.071 26a15.726 15.726 0 0 1-2.9 1.4v.373l-.371 3.261 2.62-2.051a.327.327 0 0 1 .187-.093 7.088 7.088 0 0 1-.281 2.89 8.718 8.718 0 0 1-3.65 5.313l-.468.28-.187.466c-2.34 6.8-5.9 10.254-10.762 10.254-4.773 0-8.422-3.449-10.762-10.254l-.187-.466-.468-.28a8.456 8.456 0 0 1-3.65-5.313 7.088 7.088 0 0 1-.281-2.89c.094 0 .094.093.187.093l2.62 2.051-.374-3.263V27.4a12.7 12.7 0 0 1-2.9-1.4 2.352 2.352 0 0 0-2.152 1.958c-.749 2.8.749 8.576 4.679 11.279 2.527 6.991 6.551 11 11.791 11.559a13.821 13.821 0 0 0 2.9 0c5.241-.653 9.265-4.568 11.791-11.559 4.021-2.703 5.519-8.39 4.77-11.279z" class="cls-1" data-name="패스 904" transform="translate(-18.101 -26)"/>
        </g>
    </g>
</svg>
