<?xml version="1.0" encoding="utf-8"?>
<!-- Generator: Adobe Illustrator 23.0.1, SVG Export Plug-In . SVG Version: 6.00 Build 0)  -->
<svg version="1.1" id="icon-funding" xmlns="http://www.w3.org/2000/svg" xmlns:xlink="http://www.w3.org/1999/xlink" x="0px"
	 y="0px" viewBox="0 0 58 76.3" style="enable-background:new 0 0 58 76.3;" xml:space="preserve">
<style type="text/css">
	.st0{fill:#F06447;}
</style>
<path id="패스_141" class="st0" d="M52.1,2.3c2,0,3.7,1.6,3.7,3.7v64.4c0,2-1.6,3.7-3.7,3.7H6c-2,0-3.7-1.6-3.7-3.7V14.2L14.2,2.3
	H52.1 M52.1,0H13.3L0,13.2v57.1c0,3.3,2.7,6,6,6H52c3.3,0,6-2.7,6-6V6C58,2.7,55.4,0,52.1,0C52.1,0,52.1,0,52.1,0z"/>
<path id="패스_142" class="st0" d="M36.5,2.4v3.5h-15V2.4H36.5 M36.9,0.1H21.1c-1,0-1.9,0.9-1.9,1.9v4.3c0,1,0.9,1.9,1.9,1.9h15.8
	c1,0,1.9-0.9,1.9-1.9V2C38.8,1,38,0.1,36.9,0.1C36.9,0.1,36.9,0.1,36.9,0.1z"/>
<g id="그룹_51" transform="translate(9.55 17.335)">
	<path id="패스_143" class="st0" d="M14.6,2.3c0.2,0,0.4,0.2,0.4,0.4c0,0,0,0,0,0v11.9c0,0.2-0.2,0.4-0.4,0.4c0,0,0,0,0,0H2.7
		c-0.2,0-0.4-0.2-0.4-0.4c0,0,0,0,0,0V2.7c0-0.2,0.2-0.4,0.4-0.4c0,0,0,0,0,0L14.6,2.3 M14.6,0H2.7C1.2,0,0,1.2,0,2.7c0,0,0,0,0,0
		v11.9c0,1.5,1.2,2.7,2.7,2.7c0,0,0,0,0,0h11.9c1.5,0,2.7-1.2,2.7-2.7c0,0,0,0,0,0V2.7C17.3,1.2,16.1,0,14.6,0C14.6,0,14.6,0,14.6,0
		z"/>
	<g id="그룹_50" transform="translate(20.736 1.259)">
		<path id="패스_144" class="st0" d="M18,2.3H1.2C0.5,2.3,0,1.8,0,1.1C0.1,0.5,0.5,0,1.2,0H18c0.6,0,1.1,0.6,1.1,1.2
			C19.1,1.8,18.6,2.3,18,2.3z"/>
		<path id="패스_145" class="st0" d="M18,8.5H1.2C0.5,8.5,0,8,0,7.3c0-0.6,0.5-1.1,1.1-1.1H18c0.6,0,1.1,0.6,1.1,1.2
			C19.1,8,18.6,8.5,18,8.5z"/>
		<path id="패스_146" class="st0" d="M10.2,14.7H1.2c-0.6,0-1.1-0.6-1.1-1.2c0-0.6,0.5-1.1,1.1-1.1h9.1c0.6,0,1.2,0.5,1.2,1.1
			C11.5,14.2,11,14.7,10.2,14.7C10.3,14.7,10.3,14.7,10.2,14.7z"/>
	</g>
</g>
<path id="패스_147" class="st0" d="M10.8,65.7c-0.6,0-1.2-0.5-1.2-1.2V41.8c0-0.6,0.6-1.1,1.2-1.1c0.6,0,1.1,0.5,1.1,1.1v22.8
	C12,65.2,11.5,65.7,10.8,65.7C10.8,65.7,10.8,65.7,10.8,65.7z"/>
<path id="패스_148" class="st0" d="M48.2,65.7H10.8c-0.6,0-1.2-0.5-1.2-1.1c0-0.6,0.5-1.2,1.1-1.2c0,0,0,0,0.1,0h37.4
	c0.6,0,1.2,0.5,1.2,1.1C49.4,65.2,48.9,65.7,48.2,65.7C48.3,65.7,48.3,65.7,48.2,65.7z"/>
<path id="패스_149" class="st0" d="M15.1,61.2c-0.4,0-0.7-0.2-0.9-0.4c-0.4-0.5-0.3-1.2,0.2-1.6c0,0,0,0,0,0l9.2-7.5
	c0.4-0.3,1-0.3,1.5,0l4.6,3.7l17.9-14.5c0.5-0.4,1.2-0.3,1.6,0.2c0.4,0.5,0.3,1.2-0.2,1.6L30.3,57.8c-0.4,0.3-1,0.3-1.5,0l-4.6-3.7
	L15.8,61C15.6,61.1,15.4,61.2,15.1,61.2z"/>
</svg>
