<svg xmlns="http://www.w3.org/2000/svg" viewBox="0 0 70 70">
    <defs>
        <style>
            .cls-1{fill:#d82121}
        </style>
    </defs>
    <g id="icon5" transform="translate(-1571 -1731)">
        <path id="패스_1025" d="M58.56 12.371V6.839C58.56.2 32.278 0 29.28 0S0 .2 0 6.839l.1 55.718a1.283 1.283 0 0 0-.1.6C0 69.9 26.282 70 29.28 70a114.028 114.028 0 0 0 19.987-1.609c6.4-1.207 9.394-2.917 9.394-5.33V43.147a14.377 14.377 0 0 0 4.9-1.106q5.4-2.414 6.3-7.241c1.491-8.55-8.902-20.016-11.301-22.429zM29.28 3.017c15.49 0 24.883 2.414 26.182 3.822-1.3 1.509-10.693 3.822-26.182 3.822S4.4 8.247 3.1 6.839c1.3-1.408 10.691-3.822 26.18-3.822zm0 64.066c-15.489 0-24.88-2.413-26.18-3.822v-3.42L3 10.259a22.278 22.278 0 0 0 6 1.81v31.983a1.5 1.5 0 1 0 3 0v-31.38c.6.1 1.3.2 1.9.3V24.54a1.5 1.5 0 1 0 3 0V13.175c5.8.5 11.093.6 12.292.6 2.4 0 19.287-.1 26.282-3.52v29.77c-9.294-1.71-18.687-13.075-22.885-18.707a4.144 4.144 0 0 0 .7-2.213 4.1 4.1 0 1 0-4.1 4.124 3.726 3.726 0 0 0 1-.1c4.4 5.934 14.69 18.3 25.283 19.914v20.118c-1.209 1.509-10.602 3.922-26.192 3.922zM66.855 34.3c-.4 2.213-1.9 3.822-4.5 5.029a11.731 11.731 0 0 1-3.7.905V16.8c3.803 4.622 9.099 12.266 8.2 17.5z" class="cls-1" data-name="패스 1025" transform="translate(1571 1731)"/>
    </g>
</svg>
