<svg xmlns="http://www.w3.org/2000/svg" viewBox="0 0 34 34.625">
  <defs>
    <style>
      .cls-1 {
        fill: #fff;
      }
    </style>
  </defs>
  <g id="icon-security" transform="translate(0.029)">
    <path id="패스_82" data-name="패스 82" class="cls-1" d="M20.74,7.988a.521.521,0,0,1-.494-.362L18.9,3.349a.518.518,0,0,1,.987-.316l1.349,4.284a.522.522,0,0,1-.336.651A.649.649,0,0,1,20.74,7.988Z" transform="translate(-6.465 -0.914)"/>
    <path id="패스_83" data-name="패스 83" class="cls-1" d="M29.63,7.983a.442.442,0,0,1-.158-.026.514.514,0,0,1-.336-.651l1.349-4.284a.518.518,0,1,1,.987.316L30.123,7.621A.513.513,0,0,1,29.63,7.983Z" transform="translate(-9.965 -0.91)"/>
    <path id="패스_84" data-name="패스 84" class="cls-1" d="M25.708,1.474H24.5A.736.736,0,0,1,23.76.737h0A.736.736,0,0,1,24.5,0h1.211a.736.736,0,0,1,.737.737h0A.74.74,0,0,1,25.708,1.474Z" transform="translate(-8.136)"/>
    <path id="패스_85" data-name="패스 85" class="cls-1" d="M33.931,39.12a12.943,12.943,0,0,0-2.849-7.534,4.958,4.958,0,0,0-1.915-1.467c-.645-.283-1.3-.566-1.941-.842q-1.777-.77-3.553-1.546c-.461-.2-.908-.428-1.382-.665-.165-.079-.329-.165-.5-.25a8.929,8.929,0,0,0,1.724-3.172.787.787,0,0,1,.171-.243l.053-.066a7.19,7.19,0,0,0,1.948-4.527,2.565,2.565,0,0,0-.744-2.27.7.7,0,0,1-.013-.191c-.007-.283-.013-.566-.013-.855V15.3l-.191.033c-.342.066-.724.125-1.138.178l-.145.02.026,1.25c.013.711.086.829.711,1.04a.05.05,0,0,0,.007.026,5.422,5.422,0,0,1-1.5,4.442,2.932,2.932,0,0,0-.691,1.191A6.392,6.392,0,0,1,20.408,26.2a4.765,4.765,0,0,1-6.929,0,6.353,6.353,0,0,1-1.586-2.724,2.932,2.932,0,0,0-.691-1.191,5.429,5.429,0,0,1-1.5-4.442.04.04,0,0,1,.007-.026c.632-.211.7-.329.711-1.04l.026-1.244-.145-.02c-.408-.053-.79-.112-1.138-.178l-.191-.033V15.5c0,.283-.007.566-.013.882a.646.646,0,0,0,.007.132,2.581,2.581,0,0,0-.757,2.283,7.16,7.16,0,0,0,1.948,4.521l.059.066a.787.787,0,0,1,.171.243A8.929,8.929,0,0,0,12.111,26.8c-.165.086-.329.165-.494.243-.474.237-.921.461-1.382.665-1.191.526-2.382,1.04-3.573,1.56-.645.276-1.283.553-1.928.836a5.007,5.007,0,0,0-1.915,1.467A12.988,12.988,0,0,0-.03,39.1l.02.191H.016a.72.72,0,0,0,1.421-.118l.007-.039a12.482,12.482,0,0,1,1.685-5.508,5.427,5.427,0,0,1,2.645-2.369c1.869-.77,3.692-1.573,5.383-2.323.507-.224.994-.474,1.507-.744l.612-.316a6.454,6.454,0,0,0,2.7,1.211,5.055,5.055,0,0,0,1.013.086,5.113,5.113,0,0,0,.994-.086,6.444,6.444,0,0,0,2.7-1.211l.612.316c.513.263.994.513,1.507.744,1.691.75,3.514,1.553,5.376,2.323a5.487,5.487,0,0,1,2.645,2.369,12.535,12.535,0,0,1,1.685,5.508v.039a.72.72,0,0,0,1.421.125h.033Z" transform="translate(0 -5.232)"/>
    <path id="패스_86" data-name="패스 86" class="cls-1" d="M29.591,8.144a8.724,8.724,0,0,0-17.207-.007,1.074,1.074,0,0,0,.375,1.974l.046.007c.013,0,.02.007.033.007l.171.026c.151.02.368.053.632.086.494.066,1.263.165,2.119.263a49.414,49.414,0,0,0,5.225.388,49.413,49.413,0,0,0,5.225-.388c.928-.105,1.731-.211,2.119-.263.27-.033.487-.066.632-.086.053-.007.112-.013.178-.026v.007l.079-.013a1.078,1.078,0,0,0,.869-1.053A1.065,1.065,0,0,0,29.591,8.144Zm-1.1.862a68.793,68.793,0,0,1-7.508.691,68,68,0,0,1-7.508-.691l.046-.349a7.519,7.519,0,0,1,14.924.007Z" transform="translate(-4.07 -0.294)"/>
  </g>
</svg>
