<svg xmlns="http://www.w3.org/2000/svg" viewBox="0 0 70 69.9">
    <defs>
        <style>
            .cls-1{fill:#d82121}
        </style>
    </defs>
    <g id="icon2" transform="translate(-919 -1732)">
        <path id="패스_741" d="M44.6 33.3a18.08 18.08 0 1 0-19.2-.1A35.126 35.126 0 0 0 0 66.9c0 1 .1 2 .1 3h4c-.1-1-.1-2-.1-3a31.046 31.046 0 0 1 22.5-29.8 8.9 8.9 0 0 0 3.2 5l-.1.2-.1.2-.1.2-2.3 10.4-.4 2 1.3 1.5 4 4.4 3 3.4 3-3.4 3.8-4.4 1.3-1.5-.4-2-2.3-10.4-.1-.2-.1-.2-.1-.2a8.417 8.417 0 0 0 3.2-5A30.989 30.989 0 0 1 66 66.9c0 1-.1 2-.1 3h4c.1-1 .1-2 .1-3a34.916 34.916 0 0 0-25.4-33.6zM21 18a14 14 0 1 1 15.7 13.9h-3.6A13.88 13.88 0 0 1 21 18zm17.8 36L35 58.4 31.2 54l2.2-10.3a8.753 8.753 0 0 0 1.6.2 8.752 8.752 0 0 0 1.6-.2zM35 39.9a4.828 4.828 0 0 1-4.6-3.6l2.7-.3a12.1 12.1 0 0 0 1.9.1 12.1 12.1 0 0 0 1.9-.1 24.769 24.769 0 0 1 2.7.3 4.828 4.828 0 0 1-4.6 3.6z" class="cls-1" data-name="패스 741" transform="translate(919 1732)"/>
    </g>
</svg>
