<svg xmlns="http://www.w3.org/2000/svg" viewBox="0 0 26 26.01">
  <defs>
    <style>
      .cls-1 {
        fill: #3b3b3b;
      }
    </style>
  </defs>
  <g id="icon-number-3" transform="translate(-933.252 -4042.193)">
    <path id="패스_165" data-name="패스 165" class="cls-1" d="M31.719,17.956a1.8,1.8,0,0,1-1.293-.528,1.736,1.736,0,0,1-.473-.856,3.718,3.718,0,0,1-1.238-.8L20.3,7.36a3.571,3.571,0,0,1,0-5.061l.055-.055a3.571,3.571,0,0,1,5.061,0l8.411,8.411a3.626,3.626,0,0,1,.783,1.183,1.792,1.792,0,0,1,.91.492h0a1.813,1.813,0,0,1,0,2.567L33.012,17.41A1.807,1.807,0,0,1,31.719,17.956Z" transform="translate(914 4041)"/>
    <g id="그룹_59" data-name="그룹 59" transform="translate(933.266 4055.096)">
      <path id="패스_166" data-name="패스 166" class="cls-1" d="M26.139,10.756a1.736,1.736,0,0,0,.473.856,1.8,1.8,0,0,0,1.293.528,1.836,1.836,0,0,0,1.129-.419l-.6-.692a.888.888,0,0,1-1.165-.073.951.951,0,0,1-.255-.583L27,10.046l-.31-.091a2.569,2.569,0,0,1-1.129-.674l-1-1-.655.674,1,1A3.543,3.543,0,0,0,26.139,10.756Z" transform="translate(-15.452 -8.28)"/>
      <path id="패스_167" data-name="패스 167" class="cls-1" d="M31.55,12.441a2.678,2.678,0,0,1-1.766-.783,2.75,2.75,0,0,1-.564-.819A4.322,4.322,0,0,1,28.072,10l-1-1-1.256,1.274a5.1,5.1,0,0,0-6.409,6.172l.2.8,2.476-2.476,2.258-.6,1.548,1.548-.6,2.258-2.476,2.476.8.2a5.17,5.17,0,0,0,1.274.146,5.036,5.036,0,0,0,3.6-1.475,5.181,5.181,0,0,0,1.274-5.08Z" transform="translate(-19.26 -7.689)"/>
    </g>
    <g id="그룹_60" data-name="그룹 60" transform="translate(946.211 4042.253)">
      <path id="패스_168" data-name="패스 168" class="cls-1" d="M29.684,8.5a1.792,1.792,0,0,0-.91-.492,3.727,3.727,0,0,0-.783-1.183l-.965-.965-.655.655.965.965a2.588,2.588,0,0,1,.655,1.092l.091.328h.328a.826.826,0,0,1,.6.255.89.89,0,0,1,0,1.256l-1.038,1.038.655.655,1.038-1.038A1.8,1.8,0,0,0,29.684,8.5Z" transform="translate(-26.37 2.578)"/>
      <path id="패스_169" data-name="패스 169" class="cls-1" d="M38.667,5.585l-.2-.8L35.991,7.26l-2.258.6L32.186,6.313l.6-2.258L35.263,1.58l-.8-.2A5.1,5.1,0,0,0,28.29,7.788l-1.22,1.22.965.965a4.831,4.831,0,0,1,.8,1.092,2.661,2.661,0,0,1,.892.6,2.75,2.75,0,0,1,.783,1.821l1.73-1.73a5.181,5.181,0,0,0,5.08-1.274A5.1,5.1,0,0,0,38.667,5.585Z" transform="translate(-25.796 -1.226)"/>
    </g>
    <path id="패스_170" data-name="패스 170" class="cls-1" d="M37.582,21.132a.717.717,0,0,1-.382-.109l-3.059-1.966a.711.711,0,0,1-.31-.473l-.218-1.2v-.036L26.64,10.372l1.8-1.8,6.973,6.973h.018l1.2.218a.711.711,0,0,1,.473.31l1.966,3.059a.717.717,0,0,1-.091.892l-.892.892A.719.719,0,0,1,37.582,21.132Zm.71-1.493Z" transform="translate(920.062 4047.054)"/>
  </g>
</svg>
