<svg xmlns="http://www.w3.org/2000/svg" viewBox="0 0 69.482 69.857">
    <defs>
        <style>
            .cls-1{fill:#d82121}
        </style>
    </defs>
    <g id="icon3" transform="translate(-1135 -1732)">
        <path id="패스_748" d="M17.9 28.3c-.6 0-.9.3-.9 1v.7a4.331 4.331 0 0 1-.1.5 2.189 2.189 0 0 1-.9 1 2.41 2.41 0 0 1-1.5.4 2.851 2.851 0 0 1-2.4-1.2 5.389 5.389 0 0 1-.9-3.3 5.809 5.809 0 0 1 .8-3.2 2.561 2.561 0 0 1 2.3-1.2 2.41 2.41 0 0 1 1.8.7 1.751 1.751 0 0 1 .6 1.7v.6a.8.8 0 0 0 .9.9c.6 0 .8-.3.8-.9v-.2l-.1-.6v-1.3a1.952 1.952 0 0 1 .1-.7 5.384 5.384 0 0 1 .1-.8c0-.6-.3-.9-.8-.9a.845.845 0 0 0-.6.2 1.072 1.072 0 0 0-.2.6q0-.15-.3-.3l-.6-.3a1.884 1.884 0 0 0-.8-.2 2.2 2.2 0 0 0-.8-.1 4.655 4.655 0 0 0-3.7 1.7 4.981 4.981 0 0 0-1 1.9 8.751 8.751 0 0 0-.3 2.4 8.017 8.017 0 0 0 .3 2.3 5.244 5.244 0 0 0 1 1.8 4.573 4.573 0 0 0 3.7 1.6 4.378 4.378 0 0 0 3.2-1.2 3.8 3.8 0 0 0 1.3-3 .956.956 0 0 0-1-.6z" class="cls-1" data-name="패스 748" transform="translate(1135 1732)"/>
        <path id="패스_749" d="M23.9 24.4a3.7 3.7 0 0 0-2.9 1.2 4.771 4.771 0 0 0-1.1 3.2A4.771 4.771 0 0 0 21 32a3.7 3.7 0 0 0 2.9 1.2 3.473 3.473 0 0 0 2.9-1.3 4.771 4.771 0 0 0 1.1-3.2 4.316 4.316 0 0 0-1.1-3.2 4 4 0 0 0-2.9-1.1zm1.5 6.6a2 2 0 0 1-3.2 0 3.4 3.4 0 0 1-.6-2.2v-.2a3.281 3.281 0 0 1 .6-2.1 1.865 1.865 0 0 1 1.6-.7c1.4 0 2.1 1 2.1 2.9a3.048 3.048 0 0 1-.5 2.3z" class="cls-1" data-name="패스 749" transform="translate(1135 1732)"/>
        <path id="패스_750" d="M37.5 31.6h-.6c-.1 0-.1 0-.1-.1a.756.756 0 0 0-.1-.4c-.1-.2 0-.5 0-.8v-7.6c0-.6-.2-.9-.7-.9h-1.7c-.7 0-1.1.3-1.1.8s.3.7.9.7h.8c.1 0 .1.1.1.3v1.7a4.053 4.053 0 0 0-.9-.5 4.3 4.3 0 0 0-1.2-.2 3.489 3.489 0 0 0-2.8 1.2 6.376 6.376 0 0 0-.8 1.4A4.844 4.844 0 0 0 29 29a4.771 4.771 0 0 0 1.1 3.2 3.566 3.566 0 0 0 2.8 1.3 3.232 3.232 0 0 0 2.2-.7.666.666 0 0 0 .7.5h1.7c.7 0 1-.3 1-.8-.1-.7-.4-.9-1-.9zm-2.6-2v.6a1.743 1.743 0 0 1-.6 1.2 1.594 1.594 0 0 1-1.2.4 1.943 1.943 0 0 1-1.6-.8 3.593 3.593 0 0 1-.6-2.2 3.281 3.281 0 0 1 .6-2.1 1.9 1.9 0 0 1 1.5-.8 2.106 2.106 0 0 1 1.3.5 1.684 1.684 0 0 1 .6 1.1 1.087 1.087 0 0 0 .1.5v.9a1.7 1.7 0 0 0-.1.7z" class="cls-1" data-name="패스 750" transform="translate(1135 1732)"/>
        <path id="패스_751" d="M49.3 24.6a24.65 24.65 0 1 0-24.7 24.6 24.6 24.6 0 0 0 24.7-24.6zM24.6 45.3a20.65 20.65 0 1 1 20.7-20.7 20.721 20.721 0 0 1-20.7 20.7z" class="cls-1" data-name="패스 751" transform="translate(1135 1732)"/>
        <path id="사각형_395" d="M0 0h6.2v3.9H0z" class="cls-1" data-name="사각형 395" transform="rotate(-45 2733.494 -530.517)"/>
        <path id="패스_752" d="M43.1 25.9h.3c0-.5.1-1 .1-1.5h-.4a3.473 3.473 0 0 0-2.9 1.3 5.244 5.244 0 0 0-1.1 3.3 4.454 4.454 0 0 0 1 3.1 3.39 3.39 0 0 0 1.4.9c.2-.5.5-1 .7-1.5a2.651 2.651 0 0 1-.6-.5 2.875 2.875 0 0 1-.7-1.8h2l.3-1.5H41a1.936 1.936 0 0 1 .6-1.3 2.976 2.976 0 0 1 1.5-.5z" class="cls-1" data-name="패스 752" transform="translate(1135 1732)"/>
        <path id="사각형_396" d="M0 0h8v27.9H0z" class="cls-1" data-name="사각형 396" transform="rotate(-45 2740.769 -532.233)"/>
    </g>
</svg>
