<svg xmlns="http://www.w3.org/2000/svg" viewBox="0 0 83.334 70">
    <defs>
        <style>
            .cls-1{fill:#d82121}
        </style>
    </defs>
    <g id="icon6" transform="translate(-1777 -1732)">
        <g id="심볼_17_1" data-name="심볼 17 – 1">
            <path id="패스_759" d="M76.19 49.048V0H6.786v49.048L0 65.476h83.333zM10.357 3.571h62.262v44.643H10.357zm-1.19 49.048H73.81l4.047 9.281H5.238z" class="cls-1" data-name="패스 759" transform="translate(1777 1732)"/>
            <path id="패스_760" d="M39.781 45.3H11.448L9.9 48.633h59.762L68.114 45.3z" class="cls-1" data-name="패스 760" transform="translate(1778.886 1740.629)"/>
            <path id="패스_761" d="M36.314 49.5h-7.857l-.357 2.262h16.429l-.358-2.262z" class="cls-1" data-name="패스 761" transform="translate(1782.352 1741.429)"/>
            <path id="패스_762" d="M27.1 11.4L14.6 23.662l12.5 12.381 2.619-2.619-9.643-9.762 9.643-9.643z" class="cls-1" data-name="패스 762" transform="translate(1779.781 1734.171)"/>
            <path id="패스_763" d="M30 35.071h3.69L41.667 11.5H38.1z" class="cls-1" data-name="패스 763" transform="translate(1782.714 1734.19)"/>
            <path id="패스_764" d="M42.7 14.019l9.643 9.643-9.643 9.762 2.619 2.619 12.5-12.381-12.5-12.262z" class="cls-1" data-name="패스 764" transform="translate(1785.133 1734.171)"/>
            <path id="사각형_398" d="M0 0h83.333v3.452H0z" class="cls-1" data-name="사각형 398" transform="translate(1777 1798.548)"/>
        </g>
    </g>
</svg>
