<svg xmlns="http://www.w3.org/2000/svg" viewBox="0 0 69.803 70">
    <defs>
        <style>
            .cls-1{fill:#d82121}
        </style>
    </defs>
    <g id="icon1" transform="translate(-704 -1732)">
        <path id="패스_737" d="M64.1 27.4H47.4v-4.1a4.166 4.166 0 0 0-1.2-2.8L27.1 1.3A5.888 5.888 0 0 0 23.7 0H4.3A4.268 4.268 0 0 0 0 4.3v61.3A4.291 4.291 0 0 0 4.3 70H43a4.268 4.268 0 0 0 4.3-4.3V57H64a5.8 5.8 0 0 0 5.8-5.8v-18a5.657 5.657 0 0 0-5.7-5.8zm-39.3-5.5a6.025 6.025 0 0 0 4.6 1.8H43c.1 0 .7.1.7.6v3.1H25.8a5.8 5.8 0 0 0-5.8 5.8v17.9a5.8 5.8 0 0 0 5.8 5.8h17.9v8.7a.645.645 0 0 1-.6.6H4.3a.645.645 0 0 1-.6-.6V4.3a.645.645 0 0 1 .6-.6h18.5a.618.618 0 0 1 .6.7v13.1a5.848 5.848 0 0 0 1.4 4.4zm-1.1 11.3a2.051 2.051 0 0 1 2.1-2.1h38.3a2.051 2.051 0 0 1 2.1 2.1v17.9a2.051 2.051 0 0 1-2.1 2.1H25.8a2.051 2.051 0 0 1-2.1-2.1V33.2zM27 17.6v-11L40.4 20h-11a2.546 2.546 0 0 1-1.9-.6 2.881 2.881 0 0 1-.5-1.6v-.2z" class="cls-1" data-name="패스 737" transform="translate(704 1732)"/>
        <path id="패스_738" d="M30.1 46.1h4.6c.2.5.4 1.1.6 1.6a7.838 7.838 0 0 1 .5 1.4l.1.2h3.8l-.2-.5c-.8-2.1-1.5-4.2-2.3-6.3-1-2.6-1.9-5.2-2.9-7.9l-.1-.2h-3.5l-5.5 14.9h3.6zm1-3l1.3-3.7a9.829 9.829 0 0 1 .5 1.6c.2.7.5 1.4.7 2.1h-2.5z" class="cls-1" data-name="패스 738" transform="translate(704 1732)"/>
        <path id="패스_739" d="M44.2 44.3h2.1c3.4 0 5.4-1.9 5.4-5s-2-4.8-5.6-4.8h-5.6v15h3.6v-5.2zm0-6.8h1.7c1.6 0 2.2.5 2.2 2 0 .8-.2 1.9-2.3 1.9h-1.6v-3.9z" class="cls-1" data-name="패스 739" transform="translate(704 1732)"/>
        <path id="패스_740" d="M56.7 44.3h2.1c3.4 0 5.4-1.9 5.4-5s-2-4.8-5.6-4.8H53v15h3.6v-5.2zm0-6.8h1.7c1.6 0 2.2.5 2.2 2 0 .8-.2 1.9-2.3 1.9h-1.6v-3.9z" class="cls-1" data-name="패스 740" transform="translate(704 1732)"/>
    </g>
</svg>
