<svg xmlns="http://www.w3.org/2000/svg" viewBox="0 0 20 26">
  <defs>
    <style>
      .cls-1 {
        fill: #3b3b3b;
      }
    </style>
  </defs>
  <g id="icon-number-1" transform="translate(-994 -3981)">
    <g id="그룹_57" data-name="그룹 57" transform="translate(994 3981)">
      <path id="패스_162" data-name="패스 162" class="cls-1" d="M15.214.02H6.15V2.887h0V4.512a1.6,1.6,0,0,1-1.6,1.607H.01V21.547a1.461,1.461,0,0,0,1.453,1.461H15.214a1.461,1.461,0,0,0,1.453-1.461V1.462A1.457,1.457,0,0,0,15.214.02Zm-1.09,19.719H2.844a.639.639,0,0,1,0-1.278h11.28a.645.645,0,0,1,.636.639A.658.658,0,0,1,14.124,19.739Zm0-3.56H2.844a.639.639,0,0,1,0-1.278h11.28a.645.645,0,0,1,.636.639A.658.658,0,0,1,14.124,16.179Zm0-3.579H2.844a.639.639,0,0,1,0-1.278h11.28a.639.639,0,0,1,0,1.278Zm0-3.56H2.844a.639.639,0,0,1,0-1.278h11.28a.639.639,0,0,1,0,1.278Zm0-3.56H8.638a.639.639,0,0,1,0-1.278h5.486a.639.639,0,0,1,0,1.278Z" transform="translate(0.008 0.017)"/>
      <path id="패스_163" data-name="패스 163" class="cls-1" d="M17.062,1.65h-.727V21.424A1.235,1.235,0,0,1,15.064,22.7H1.84v.475a1.461,1.461,0,0,0,1.453,1.461H17.044A1.461,1.461,0,0,0,18.5,23.177V3.092A1.43,1.43,0,0,0,17.062,1.65Z" transform="translate(1.502 1.363)"/>
      <path id="패스_164" data-name="패스 164" class="cls-1" d="M5.2.037,0,5.24H3.778A1.461,1.461,0,0,0,5.232,3.779V0Z"/>
    </g>
  </g>
</svg>
