<svg id="icon-3" xmlns="http://www.w3.org/2000/svg" viewBox="0 0 14 14">
  <defs>
    <style>
      .cls-1 {
        fill: #3b3b3b;
      }
    </style>
  </defs>
  <path id="패스_153" data-name="패스 153" class="cls-1" d="M7.72,4.791A.218.218,0,0,1,7.5,4.575a2.594,2.594,0,0,0-.689-1.768l-.01-.02a2.794,2.794,0,0,0-1.958-.874.216.216,0,1,1,0-.432A3.194,3.194,0,0,1,7.129,2.5a3.031,3.031,0,0,1,.817,2.073A.227.227,0,0,1,7.72,4.791Z" transform="translate(-0.074 -0.026)"/>
  <path id="패스_154" data-name="패스 154" class="cls-1" d="M13.922,12.294l-3.5-3.5a.737.737,0,0,0-1.053,0l-.59.589a.735.735,0,0,0,0,1.051l3.5,3.5a.744.744,0,0,0,.531.216.779.779,0,0,0,.531-.216l.59-.589h0A.762.762,0,0,0,13.922,12.294Z" transform="translate(-0.138 -0.15)"/>
  <path id="패스_155" data-name="패스 155" class="cls-1" d="M9.4,8.466a.466.466,0,1,0-.659-.658l-.974.973a.456.456,0,0,0,0,.658.436.436,0,0,0,.325.147.5.5,0,0,0,.335-.138L9.4,8.466Z" transform="translate(-0.123 -0.135)"/>
  <path id="패스_156" data-name="패스 156" class="cls-1" d="M4.723,0A4.716,4.716,0,1,0,9.446,4.716,4.733,4.733,0,0,0,4.723,0Zm0,8.646a3.925,3.925,0,1,1,3.936-3.93A3.93,3.93,0,0,1,4.723,8.646Z"/>
</svg>
