<svg xmlns="http://www.w3.org/2000/svg" viewBox="0 0 34 34.002">
  <defs>
    <style>
      .cls-1 {
        fill: #fff;
      }
    </style>
  </defs>
  <g id="icon-dapp" transform="translate(-0.002 -0.002)">
    <path id="패스_54" data-name="패스 54" class="cls-1" d="M171.221,19.955l-.87-.87,1.365-1.365a1.164,1.164,0,0,0-.8-1.989l-.436-.011-.127-.418a3.456,3.456,0,0,0-.859-1.434l-1.27-1.27,3.3-3.3A6.661,6.661,0,0,1,179.588.917l1.049.252L177.409,4.4l-.786,2.948,2.031,2.031,2.95-.785,3.228-3.228.252,1.049a6.735,6.735,0,0,1-1.732,6.392A6.756,6.756,0,0,1,176.7,14.47Zm.159-5.381a2.367,2.367,0,0,1,1.8,1.709L176.37,13.1l.354.119a5.583,5.583,0,0,0,5.773-1.263,5.451,5.451,0,0,0,1.571-4.117l-1.84,1.841-3.937,1.048-3.016-3.017,1.05-3.935,1.841-1.841a5.449,5.449,0,0,0-4.117,1.572,5.582,5.582,0,0,0-1.263,5.772l.119.354L169.937,12.6l.416.416A4.653,4.653,0,0,1,171.381,14.574Z" transform="translate(-151.294 -0.643)"/>
    <path id="패스_55" data-name="패스 55" class="cls-1" d="M7.387,185.037a7.188,7.188,0,0,1-1.674-.2l-1.049-.252,3.228-3.228.785-2.95-2.031-2.031-2.948.786-3.23,3.228-.251-1.05a6.66,6.66,0,0,1,8.38-8.058l3.344-3.344,1.3,1.3a3.448,3.448,0,0,0,1.477.872l.41.119.025.426a1.162,1.162,0,0,0,1.864.86l.791.909-4.035,4.035a6.756,6.756,0,0,1-1.666,6.648A6.643,6.643,0,0,1,7.387,185.037Zm-.253-1.214a5.445,5.445,0,0,0,4.117-1.572,5.582,5.582,0,0,0,1.263-5.772l-.119-.354,3.262-3.262a2.352,2.352,0,0,1-1.649-1.717,4.638,4.638,0,0,1-1.622-1.053l-.445-.445L8.931,172.66l-.354-.119A5.581,5.581,0,0,0,2.805,173.8a5.448,5.448,0,0,0-1.572,4.117l1.841-1.841,3.935-1.05,3.017,3.016-1.048,3.937Z" transform="translate(-0.014 -151.034)"/>
    <path id="패스_56" data-name="패스 56" class="cls-1" d="M16.3,21.923a2.365,2.365,0,0,1-2.305-1.812,4.637,4.637,0,0,1-1.622-1.053l-11-11a4.675,4.675,0,0,1,0-6.6l.083-.083a4.675,4.675,0,0,1,6.6,0l11,11a4.664,4.664,0,0,1,1.028,1.558,2.352,2.352,0,0,1,1.189.642h0a2.378,2.378,0,0,1,0,3.359l-3.3,3.3A2.37,2.37,0,0,1,16.3,21.923ZM4.752,1.213A3.434,3.434,0,0,0,2.3,2.223l-.083.083a3.474,3.474,0,0,0,0,4.9l11,11a3.448,3.448,0,0,0,1.477.872l.41.119.025.426a1.163,1.163,0,0,0,1.987.755l3.3-3.3a1.164,1.164,0,0,0-.8-1.989l-.436-.011-.127-.418a3.456,3.456,0,0,0-.859-1.434L7.2,2.222A3.441,3.441,0,0,0,4.752,1.213Z"/>
    <path id="패스_57" data-name="패스 57" class="cls-1" d="M189.041,190.886a.92.92,0,0,1-.5-.147l-4-2.582a.933.933,0,0,1-.408-.607l-.294-1.571c0-.015-.005-.031-.007-.046l-9.115-9.115,2.347-2.347,9.13,9.13.015,0,1.579.283a.928.928,0,0,1,.614.409l2.582,4a.931.931,0,0,1-.123,1.157l-1.168,1.168A.923.923,0,0,1,189.041,190.886Zm-3.74-3.677L189,189.6l.846-.846-2.392-3.7-1.389-.249-.285.092-8.717-8.717-.639.639,8.727,8.727-.11.293Z" transform="translate(-157.131 -156.906)"/>
  </g>
</svg>
