<svg id="icon-binary" xmlns="http://www.w3.org/2000/svg" viewBox="0 0 34.109 34">
  <defs>
    <style>
      .cls-1 {
        fill: #fff;
      }
    </style>
  </defs>
  <path id="패스_58" data-name="패스 58" class="cls-1" d="M37.76,40.844a1.8,1.8,0,0,1-1.275-.525l-8.472-8.472a1.81,1.81,0,0,1,0-2.557l1.417-1.417a1.81,1.81,0,0,1,2.557,0l8.472,8.472a1.81,1.81,0,0,1,0,2.557h0l-1.417,1.417A1.815,1.815,0,0,1,37.76,40.844Zm-7.055-12.28a.585.585,0,0,0-.412.172l-1.417,1.417a.579.579,0,0,0,0,.825l8.472,8.472a.579.579,0,0,0,.825,0l1.417-1.417a.588.588,0,0,0,0-.825l-8.472-8.472A.585.585,0,0,0,30.705,28.563Z" transform="translate(-6.879 -6.844)"/>
  <g id="그룹_32" data-name="그룹 32" transform="translate(18.381 18.314)">
    <path id="패스_59" data-name="패스 59" class="cls-1" d="M28.593,26.144l-2.369,2.369a.52.52,0,0,1-.735,0h0a.52.52,0,0,1,0-.735l2.369-2.369a.52.52,0,0,1,.735,0h0A.52.52,0,0,1,28.593,26.144Z" transform="translate(-24.723 -24.635)"/>
    <path id="패스_60" data-name="패스 60" class="cls-1" d="M25.651,29.063a1.148,1.148,0,0,1-.8-.33,1.136,1.136,0,0,1,0-1.6l2.369-2.369a1.134,1.134,0,1,1,1.6,1.6h0l-2.369,2.369A1.117,1.117,0,0,1,25.651,29.063Z" transform="translate(-24.518 -24.428)"/>
  </g>
  <path id="패스_61" data-name="패스 61" class="cls-1" d="M11.448,22.9A11.448,11.448,0,1,1,22.9,11.448,11.461,11.461,0,0,1,11.448,22.9Zm0-21.675A10.226,10.226,0,1,0,21.675,11.448,10.239,10.239,0,0,0,11.448,1.222Z"/>
  <path id="패스_62" data-name="패스 62" class="cls-1" d="M23.134,12.944a.6.6,0,0,1-.607-.607A7.347,7.347,0,0,0,20.6,7.366l-.045-.037a7.829,7.829,0,0,0-5.5-2.467A.611.611,0,1,1,15.03,3.64,9,9,0,0,1,21.455,6.5a8.524,8.524,0,0,1,2.287,5.833A.6.6,0,0,1,23.134,12.944Z" transform="translate(-3.611 -0.911)"/>
</svg>
