<svg xmlns="http://www.w3.org/2000/svg" viewBox="0 0 183.711 55">
  <defs>
    <style>
      .cls-1 {
        fill: #a3a3a3;
      }
    </style>
  </defs>
  <g id="그룹_293" data-name="그룹 293" transform="translate(24687 19870)">
    <g id="그룹_288" data-name="그룹 288" transform="translate(-24687 -19870)">
      <g id="그룹_282" data-name="그룹 282">
        <path id="패스_1099" data-name="패스 1099" class="cls-1" d="M23.263,13.915,14.9,31.067,48.779,49.495V3Z" transform="translate(6.221 1.253)"/>
        <path id="패스_1100" data-name="패스 1100" class="cls-1" d="M5.2,19.462l9.5,5.1L20.368,12.8Z" transform="translate(2.171 5.344)"/>
        <path id="패스_1101" data-name="패스 1101" class="cls-1" d="M49.484,44.186,16.03,25.9,7.1,44.186Z" transform="translate(2.964 10.814)"/>
        <path id="패스_1102" data-name="패스 1102" class="cls-1" d="M0,22.539l25.941-11.2L31.469,0H0V22.539Z"/>
        <path id="패스_1103" data-name="패스 1103" class="cls-1" d="M27.311,0,23.2,8.363,42.62,0Z" transform="translate(9.687)"/>
        <path id="패스_1104" data-name="패스 1104" class="cls-1" d="M14.6,26.538,0,18.6V47.234H4.536Z" transform="translate(0 7.766)"/>
      </g>
      <path id="패스_1105" data-name="패스 1105" class="cls-1" d="M70.154,40.954h7.938L63.775,21.25,77.383,7.642h-7.8L55.554,21.675V7.5H49.6V41.1h5.954V29.472l3.827-3.827Z" transform="translate(20.709 3.131)"/>
      <path id="패스_1106" data-name="패스 1106" class="cls-1" d="M82.874,7.6H70.4V40.487H83.158s14.317-.709,14.317-14.6V22.059C97.333,22.059,97.758,7.6,82.874,7.6Zm8.647,13.892v4.82c0,8.505-8.222,8.647-8.222,8.647H76.07V13.128H83.3C91.521,13.128,91.521,21.492,91.521,21.492Z" transform="translate(29.394 3.173)"/>
      <path id="패스_1107" data-name="패스 1107" class="cls-1" d="M113.5,34.775H96.488l2.126-8.505h12.758V20.741H98.614V20.6l-2.268-7.513h16.443V7.7H89.542L94.078,24,89.4,40.445h24.24v-5.67Z" transform="translate(37.327 3.215)"/>
      <path id="패스_1108" data-name="패스 1108" class="cls-1" d="M139.036,40.487,126.7,23.335,137.9,7.742c.284,0-7.088-.142-7.088-.142L123.16,18.231,115.505,7.6s-7.371.142-7.088.142l11.2,15.593L107,40.487h7.229L122.876,28.3l8.647,12.191Z" transform="translate(44.675 3.173)"/>
    </g>
  </g>
</svg>
