<svg xmlns="http://www.w3.org/2000/svg" viewBox="0 0 164.342 48.596">
    <defs>
        <style>
            .cls-1{fill:#7f7f7f}
        </style>
    </defs>
    <g id="logo_clust" transform="translate(-1687 -4424)">
        <path id="패스_1075" d="M22.677 67.6H0v32.938h32.961V89.767H10.748V77.884h22.213V67.6H22.677z" class="cls-1" data-name="패스 1075" transform="translate(1687 4372.058)"/>
        <path id="패스_1076" d="M48.6 0H0v10.748h37.849V48.6H48.6V0z" class="cls-1" data-name="패스 1076" transform="translate(1687 4424)"/>
        <path id="패스_1077" d="M276.467 112h-11.42a4.347 4.347 0 0 0-4.447 4.424v13.759a4.367 4.367 0 0 0 4.47 4.424h11.42a1.147 1.147 0 0 0 1.158-1.158v-3.961h-11.906v-12.369h11.906v-3.961a1.182 1.182 0 0 0-1.181-1.158zm-11.327 5.119zm-.069 12.346z" class="cls-1" data-name="패스 1077" transform="translate(1486.763 4337.943)"/>
        <path id="패스_1078" d="M359.519 112h-3.961a1.147 1.147 0 0 0-1.158 1.158v17.025a4.367 4.367 0 0 0 4.47 4.424h11.42a1.147 1.147 0 0 0 1.158-1.158v-3.961h-11.906V112z" class="cls-1" data-name="패스 1078" transform="translate(1414.69 4337.943)"/>
        <path id="패스_1079" d="M462.243 112h-4.077v17.488h-8.547V112h-4.077a1.159 1.159 0 0 0-1.042 1.158v17.048a4.335 4.335 0 0 0 4.239 4.4h10.308a4.335 4.335 0 0 0 4.239-4.4v-17.048a1.143 1.143 0 0 0-1.043-1.158z" class="cls-1" data-name="패스 1079" transform="translate(1345.46 4337.943)"/>
        <path id="패스_1080" d="M561.867 112.2h-11.443a4.367 4.367 0 0 0-4.424 4.47v4.864a4.347 4.347 0 0 0 4.424 4.447h7.5v3.683H546v4.1a1.176 1.176 0 0 0 1.158 1.042H558.6a4.367 4.367 0 0 0 4.424-4.47v-4.864a4.5 4.5 0 0 0-4.424-4.609h-7.459v-3.544h11.883v-4.1a1.156 1.156 0 0 0-1.157-1.019z" class="cls-1" data-name="패스 1080" transform="translate(1267.471 4337.789)"/>
        <path id="패스_1081" d="M651.867 112.4h-14.709a1.161 1.161 0 0 0-1.158 1.158v3.915h5.953v17.419h5.119v-17.419h5.953v-3.915a1.177 1.177 0 0 0-1.158-1.158z" class="cls-1" data-name="패스 1081" transform="translate(1198.317 4337.635)"/>
    </g>
</svg>
