<?xml version="1.0" encoding="utf-8"?>
<!-- Generator: Adobe Illustrator 23.0.1, SVG Export Plug-In . SVG Version: 6.00 Build 0)  -->
<svg version="1.1" id="레이어_1" xmlns="http://www.w3.org/2000/svg" xmlns:xlink="http://www.w3.org/1999/xlink" x="0px"
	 y="0px" viewBox="0 0 217 80" style="enable-background:new 0 0 217 80;" xml:space="preserve">
<style type="text/css">
	.st0{fill:url(#SVGID_1_);}
	.st1{fill:url(#SVGID_2_);}
	.st2{fill:url(#SVGID_3_);}
	.st3{fill:url(#SVGID_4_);}
	.st4{fill:#FFFFFF;}
	.st5{opacity:0.4;enable-background:new    ;}
	.st6{opacity:0.5;}
	.st7{fill:url(#SVGID_5_);}
	.st8{fill:url(#SVGID_6_);}
	.st9{fill:url(#SVGID_7_);}
</style>
<g>
	
		<linearGradient id="SVGID_1_" gradientUnits="userSpaceOnUse" x1="27.5918" y1="42.515" x2="73.9067" y2="42.515" gradientTransform="matrix(1 0 0 -1 0 82)">
		<stop  offset="0" style="stop-color:#F8C25E"/>
		<stop  offset="1" style="stop-color:#E34554"/>
	</linearGradient>
	<path class="st0" d="M69.7,61.61c-1.74,0-5.75-3.32-2.41-8.74c3.02-4.89,1.64-8.54,1.35-9.21c-0.01-0.03-0.03-0.06-0.04-0.09
		c-0.01-0.01-0.01-0.02-0.01-0.02l0,0c-0.9-1.93-1.32-3.8-1.49-4.8c-0.07-0.48-0.1-0.77-0.1-0.77c0,0.01,0,0.02,0,0.03
		c0-0.02,0-0.03,0-0.03s-0.11,0.19-0.22,0.56c-0.63,1.85-0.31,3.59,0,4.56c0.02,0.07,0.78,2.53-1.6,4.07
		c-0.83,0.43-1.85,0.57-2.9,0.28c-2.16-0.64-2.65-3.02-2.66-3.06C59.43,43.03,60,41.78,60.97,41l0,0c0.04-0.03,0.07-0.06,0.11-0.09
		c3.74-2.94,2.75-9.73,2.75-9.73s-0.01,0.03-0.02,0.09l0.02-0.09c-2.05,6.63-7.37,8.3-7.37,8.3c0.91-5.38-2.88-9.3-2.88-9.3
		c-0.58-0.74-1.3-1.41-2.18-1.97c-5.98-3.79-1.89-10.85-1.89-10.85s-10.8,7.03-4.95,14l0,0c0.77,0.76,1.24,1.79,1.24,2.93
		c0,2.33-1.97,4.21-4.39,4.21c-2.43,0-4.39-1.89-4.39-4.21c0-1.12,0.46-2.13,1.2-2.89c0.23-0.2,0.47-0.41,0.74-0.61
		c0,0-7.36,3.57-3.45,12.64c2.69,6.24-1.48,12.49-4.35,15.78c-0.66,0.75-1.71,1.86-2.62,2.4h3.27l0.01-0.01c4.91,0,10.47,0,13.03,0
		h1.41h2.96v0.01h3.81V61.6h13.15v0.01C66.18,61.61,69.7,61.61,69.7,61.61z"/>
	
		<linearGradient id="SVGID_2_" gradientUnits="userSpaceOnUse" x1="27.5918" y1="59.65" x2="73.9067" y2="59.65" gradientTransform="matrix(1 0 0 -1 0 82)">
		<stop  offset="0" style="stop-color:#F8C25E"/>
		<stop  offset="1" style="stop-color:#E34554"/>
	</linearGradient>
	<path class="st1" d="M53.57,26.41c-1.98-4.07,1.81-8.12,1.81-8.12C48.67,21.81,53.57,26.41,53.57,26.41z"/>
	
		<linearGradient id="SVGID_3_" gradientUnits="userSpaceOnUse" x1="27.5918" y1="35.92" x2="73.9067" y2="35.92" gradientTransform="matrix(1 0 0 -1 0 82)">
		<stop  offset="0" style="stop-color:#F8C25E"/>
		<stop  offset="1" style="stop-color:#E34554"/>
	</linearGradient>
	<path class="st2" d="M28.93,39.9c0,0,3.4,4.88,4.3,12.36C33.22,52.26,35.89,44.85,28.93,39.9z"/>
	
		<linearGradient id="SVGID_4_" gradientUnits="userSpaceOnUse" x1="27.5918" y1="53.16" x2="73.9067" y2="53.16" gradientTransform="matrix(1 0 0 -1 0 82)">
		<stop  offset="0" style="stop-color:#F8C25E"/>
		<stop  offset="1" style="stop-color:#E34554"/>
	</linearGradient>
	<path class="st3" d="M58.48,33.86c0.18-0.16,1.87-1.67,1.61-2.97c0,0,0.9,1.7-1.73,4.37c0,0,4.83-2.4,2.27-6.65
		c0,0-1.16-1.69-2.29-2.27s-1.59-2.1-1.36-3.92c0,0-1.54,2.99,0.61,6.74C59.6,32.65,58.62,33.73,58.48,33.86z"/>
</g>
<path class="st4" d="M49.26,37.96"/>
<path class="st4" d="M49.26,37.96"/>
<polygon class="st4" points="33.85,61.64 33.85,61.65 65.46,61.65 62.17,55.95 "/>
<polygon class="st4" points="39.87,51.21 35.55,58.69 60.81,53.59 57.4,47.68 "/>
<g>
	<polygon class="st4" points="52.36,38.96 49.65,34.27 46.27,40.13 	"/>
	<polygon class="st4" points="44.73,42.8 41.57,48.27 56.08,45.4 53.53,40.98 	"/>
</g>
<polygon class="st5" points="35.55,58.69 39.52,60.5 62.17,55.95 57.83,54.19 "/>
<polygon class="st5" points="57.4,47.68 54.34,45.75 41.57,48.27 44.47,50.28 "/>
<polygon class="st5" points="53.53,40.98 51.57,39.11 46.27,40.13 48.02,42.12 "/>
<g class="st6">
	<polygon class="st5" points="58.88,56.61 54.18,57.56 54.98,61.65 61,61.65 	"/>
	<polygon class="st5" points="55.32,48.1 52.43,48.68 53.68,55.03 57.83,54.19 	"/>
	<polygon class="st5" points="49.65,34.27 50.59,39.3 51.57,39.11 	"/>
	<polygon class="st5" points="52.9,46.03 54.34,45.75 52.44,41.21 51.02,41.5 51.95,46.22 	"/>
</g>
<g>
	
		<linearGradient id="SVGID_5_" gradientUnits="userSpaceOnUse" x1="74.049" y1="31.365" x2="135.6035" y2="31.365" gradientTransform="matrix(1 0 0 -1 0 82)">
		<stop  offset="0" style="stop-color:#F8C25E"/>
		<stop  offset="1" style="stop-color:#E34554"/>
	</linearGradient>
	<path class="st7" d="M89.53,49.29c-1.07-0.39-2.52-0.79-4.31-1.18c-2.09-0.46-3-0.86-3.4-1.11c-0.44-0.28-0.65-0.69-0.65-1.28
		c0-0.68,0.29-1.19,0.9-1.62c0.68-0.47,1.7-0.7,3.01-0.7c3.51,0,4.1,1.7,4.24,2.98l0.07,0.64h3.95l-0.03-0.74
		c-0.09-2.12-0.92-3.79-2.47-4.96c-1.5-1.13-3.47-1.71-5.87-1.71c-2.3,0-4.18,0.57-5.59,1.71c-1.46,1.17-2.21,2.69-2.21,4.53
		c0,1.64,0.58,2.98,1.73,3.98c1.1,0.95,2.81,1.66,5.23,2.18c2.2,0.47,3.76,0.94,4.63,1.41c0.7,0.37,1.02,0.93,1.02,1.76
		c0,0.81-0.33,1.41-1.04,1.88c-0.78,0.52-1.85,0.79-3.17,0.79c-1.41,0-2.63-0.32-3.6-0.95c-0.92-0.59-1.42-1.5-1.53-2.76l-0.06-0.65
		h-3.93l0.03,0.74c0.08,2.17,0.9,3.97,2.43,5.36c1.52,1.38,3.8,2.07,6.78,2.07c2.35,0,4.3-0.63,5.79-1.86
		c1.53-1.27,2.3-2.89,2.3-4.82c0-1.53-0.44-2.78-1.3-3.71C91.67,50.37,90.68,49.71,89.53,49.29z"/>
	
		<linearGradient id="SVGID_6_" gradientUnits="userSpaceOnUse" x1="74.049" y1="31.37" x2="135.6035" y2="31.37" gradientTransform="matrix(1 0 0 -1 0 82)">
		<stop  offset="0" style="stop-color:#F8C25E"/>
		<stop  offset="1" style="stop-color:#E34554"/>
	</linearGradient>
	<path class="st8" d="M105.13,43.29c1.33,0,2.44,0.33,3.29,0.97c0.82,0.62,1.27,1.44,1.36,2.5l0.06,0.65H114l-0.08-0.78
		c-0.21-2.11-1.17-3.83-2.85-5.12c-1.64-1.26-3.65-1.9-5.97-1.9c-3.02,0-5.46,1.01-7.28,3.01c-1.8,1.98-2.71,4.67-2.71,8.01
		c0,3.33,0.91,6.03,2.71,8.01c1.81,2,4.26,3.01,7.28,3.01c2.41,0,4.44-0.64,6.04-1.89c1.63-1.28,2.56-3.1,2.77-5.42l0.07-0.78h-4.15
		l-0.06,0.65c-0.11,1.22-0.56,2.13-1.36,2.77c-0.83,0.66-1.95,0.99-3.34,0.99c-1.8,0-3.18-0.6-4.21-1.84
		c-1.05-1.26-1.59-3.11-1.59-5.5c0-2.4,0.54-4.25,1.6-5.5C101.92,43.89,103.31,43.29,105.13,43.29z"/>
	
		<linearGradient id="SVGID_7_" gradientUnits="userSpaceOnUse" x1="74.049" y1="31.37" x2="135.6035" y2="31.37" gradientTransform="matrix(1 0 0 -1 0 82)">
		<stop  offset="0" style="stop-color:#F8C25E"/>
		<stop  offset="1" style="stop-color:#E34554"/>
	</linearGradient>
	<polygon class="st9" points="129.71,39.95 123.91,55.69 118.11,39.95 113.76,39.95 122.06,61.31 125.76,61.31 134.06,39.95 	"/>
</g>
<path class="st4" d="M145.28,52.24c-0.78-0.29-1.84-0.58-3.14-0.86c-1.49-0.33-2.12-0.6-2.39-0.78c-0.26-0.17-0.38-0.4-0.38-0.76
	c0-0.43,0.17-0.74,0.57-1c0.46-0.32,1.15-0.47,2.06-0.47c2.35,0,2.77,1.06,2.87,1.98l0.07,0.64h3.24l-0.03-0.74
	c-0.07-1.59-0.7-2.85-1.87-3.73c-1.12-0.85-2.59-1.27-4.36-1.27c-1.71,0-3.11,0.43-4.17,1.28c-1.11,0.89-1.67,2.04-1.67,3.43
	c0,1.25,0.44,2.26,1.32,3.03c0.82,0.71,2.08,1.24,3.87,1.62c1.58,0.34,2.69,0.67,3.3,1c0.44,0.23,0.64,0.57,0.64,1.1
	c0,0.51-0.21,0.89-0.66,1.2c-0.53,0.36-1.26,0.54-2.18,0.54c-0.98,0-1.82-0.22-2.5-0.66c-0.61-0.39-0.94-1-1.02-1.85l-0.06-0.65
	h-3.23l0.03,0.74c0.06,1.62,0.67,2.97,1.82,4.01c1.14,1.03,2.83,1.55,5.04,1.55c1.75,0,3.2-0.47,4.31-1.39
	c1.15-0.96,1.74-2.18,1.74-3.64c0-1.16-0.34-2.11-1-2.82C146.88,53.05,146.13,52.55,145.28,52.24z"/>
<path class="st4" d="M156.67,45.23c-2.22,0-4.07,0.76-5.49,2.27c-1.41,1.49-2.13,3.48-2.13,5.9c0,2.41,0.72,4.39,2.13,5.89
	c1.43,1.51,3.27,2.27,5.49,2.27c2.21,0,4.05-0.76,5.47-2.27c1.41-1.49,2.12-3.48,2.12-5.9c0-2.42-0.71-4.4-2.12-5.9
	C160.73,45.99,158.89,45.23,156.67,45.23z M160.87,53.39c0,1.65-0.4,2.93-1.2,3.81c-0.79,0.87-1.77,1.3-3.01,1.3
	c-1.23,0-2.21-0.43-3-1.3c-0.8-0.89-1.2-2.17-1.2-3.8c0-1.64,0.41-2.93,1.21-3.81c0.79-0.87,1.79-1.3,3.04-1.3
	c1.22,0,2.2,0.42,2.98,1.3C160.46,50.46,160.87,51.75,160.87,53.39z"/>
<polygon class="st4" points="176.53,45.47 176.51,45.47 165.38,45.47 165.38,61.31 168.71,61.31 168.71,54.78 175.49,54.78 
	175.49,51.65 168.71,51.65 168.71,48.61 176.51,48.61 176.53,48.61 181.24,48.61 181.24,61.31 184.58,61.31 184.58,48.61 
	189.35,48.61 189.35,45.47 "/>
</svg>
