<svg xmlns="http://www.w3.org/2000/svg" xmlns:xlink="http://www.w3.org/1999/xlink" viewBox="0 0 146.072 73.443">
  <defs>
    <style>
      .cls-1 {
        fill: url(#linear-gradient);
      }

      .cls-2 {
        fill: url(#linear-gradient-2);
      }

      .cls-3 {
        fill: url(#linear-gradient-3);
      }

      .cls-4 {
        fill: url(#linear-gradient-4);
      }

      .cls-5 {
        fill: url(#linear-gradient-5);
      }

      .cls-6 {
        fill: url(#linear-gradient-6);
      }

      .cls-7 {
        fill: url(#linear-gradient-7);
      }

      .cls-8 {
        fill: url(#linear-gradient-8);
      }

      .cls-9 {
        fill: url(#linear-gradient-9);
      }

      .cls-10 {
        fill: url(#linear-gradient-10);
      }

      .cls-11 {
        fill: url(#linear-gradient-11);
      }
    </style>
    <linearGradient id="linear-gradient" x1="1.394" y1="0.499" x2="-0.49" y2="0.499" gradientUnits="objectBoundingBox">
      <stop offset="0" stop-color="#a77518"/>
      <stop offset="1" stop-color="#edde48"/>
    </linearGradient>
    <linearGradient id="linear-gradient-2" x1="10.967" y1="0.5" x2="-0.29" y2="0.5" xlink:href="#linear-gradient"/>
    <linearGradient id="linear-gradient-3" x1="11.921" y1="0.5" x2="-1.772" y2="0.5" xlink:href="#linear-gradient"/>
    <linearGradient id="linear-gradient-4" x1="8.504" y1="0.501" x2="-2.196" y2="0.501" xlink:href="#linear-gradient"/>
    <linearGradient id="linear-gradient-5" x1="7.777" y1="0.498" x2="-3.462" y2="0.498" xlink:href="#linear-gradient"/>
    <linearGradient id="linear-gradient-6" x1="6.411" y1="0.5" x2="-4.469" y2="0.5" xlink:href="#linear-gradient"/>
    <linearGradient id="linear-gradient-7" x1="5.051" y1="0.5" x2="-6.367" y2="0.5" xlink:href="#linear-gradient"/>
    <linearGradient id="linear-gradient-8" x1="3.719" y1="0.499" x2="-6.522" y2="0.499" xlink:href="#linear-gradient"/>
    <linearGradient id="linear-gradient-9" x1="3.193" y1="0.5" x2="-8.583" y2="0.5" xlink:href="#linear-gradient"/>
    <linearGradient id="linear-gradient-10" x1="2.074" y1="0.498" x2="-9.165" y2="0.498" xlink:href="#linear-gradient"/>
    <linearGradient id="linear-gradient-11" x1="0.95" y1="0.5" x2="-10.635" y2="0.5" xlink:href="#linear-gradient"/>
  </defs>
  <g id="그룹_281" data-name="그룹 281" transform="translate(0 -0.1)">
    <path id="패스_1088" data-name="패스 1088" class="cls-1" d="M253.143,46.167a1.222,1.222,0,0,1-.94-.439,1.239,1.239,0,0,1-.271-1l3.634-20.59a1.243,1.243,0,0,1,1.42-1,1.228,1.228,0,0,1,1,1.42L254.605,43.7h20.444c.459-.021,11.966-.752,13.782-11.026.209-.814,1.754-7.559-4.8-10.149a1.228,1.228,0,0,1-.773-1.065,1.242,1.242,0,0,1,.647-1.149c.063-.042,5.931-3.32,6.87-8.645a7.78,7.78,0,0,0-.856-5.722c-1.211-1.817-3.487-2.965-6.7-3.383H261.872l-2.527,14.388h6.661l1.42-8.019a1.232,1.232,0,0,1,1.211-1.023H279.81a1.839,1.839,0,0,1,.355.042,5.4,5.4,0,0,1,3.4,2.589,5.042,5.042,0,0,1,.292,3.634c-.773,4.469-5.492,5.2-5.534,5.221H268.1L264.67,38.8a1.243,1.243,0,0,1-1.42,1,1.228,1.228,0,0,1-1-1.42l3.341-18.961h-7.706a1.222,1.222,0,0,1-.94-.439,1.239,1.239,0,0,1-.271-1l2.965-16.852A1.233,1.233,0,0,1,260.849.1h22.532q6.171.783,8.6,4.49a10.073,10.073,0,0,1,1.19,7.622c-.773,4.385-4.156,7.518-6.244,9.063,6.327,3.989,4.344,11.882,4.3,11.966-2.109,12.028-15.557,12.926-16.121,12.968ZM284.53,21.4l-.021.021c.1.042.209.084.292.125Zm-16.038-4.469h9.564a4.234,4.234,0,0,0,3.383-3.362,2.711,2.711,0,0,0-.1-1.921,2.878,2.878,0,0,0-1.754-1.295h-9.94Z" transform="translate(-199.309)"/>
    <g id="그룹_280" data-name="그룹 280" transform="translate(0 57.464)">
      <path id="패스_1089" data-name="패스 1089" class="cls-2" d="M0,291.537V276H7.726a6.436,6.436,0,0,1,3.111.647,4.141,4.141,0,0,1,1.545,1.378,3.411,3.411,0,0,1,.543,1.9c0,1.65-1,2.84-3.028,3.592a8.308,8.308,0,0,1,1.691.731,3.687,3.687,0,0,1,.919.773,3.378,3.378,0,0,1,.564,1.044,4.1,4.1,0,0,1,.188,1.232,4,4,0,0,1-.814,2.548,3.889,3.889,0,0,1-2.214,1.378,12.9,12.9,0,0,1-3.028.271H0Zm4.26-9.418H6.515a2.753,2.753,0,0,0,1.629-.376,1.466,1.466,0,0,0,.5-1.253c0-1.023-.71-1.524-2.13-1.524H4.26Zm0,6.453H5.931a6.22,6.22,0,0,0,2.026-.209,1.371,1.371,0,0,0,.856-1.42,1.482,1.482,0,0,0-.856-1.462,4.358,4.358,0,0,0-1.9-.334H4.26v3.425Z" transform="translate(0 -275.749)"/>
      <path id="패스_1090" data-name="패스 1090" class="cls-3" d="M74.1,291.537V276h4.26v12.279H85v3.258Z" transform="translate(-58.626 -275.749)"/>
      <path id="패스_1091" data-name="패스 1091" class="cls-4" d="M128.3,282.84a9.858,9.858,0,0,1,.877-4.281,6.456,6.456,0,0,1,2.464-2.8,6.871,6.871,0,0,1,3.654-.961,7.224,7.224,0,0,1,3.007.606A6.071,6.071,0,0,1,140.5,277.1a7.467,7.467,0,0,1,1.316,2.485,9.793,9.793,0,0,1,.439,2.965,12.173,12.173,0,0,1-.418,3.2,7.977,7.977,0,0,1-1.253,2.652,6.084,6.084,0,0,1-2.172,1.8,6.963,6.963,0,0,1-3.111.647,7.4,7.4,0,0,1-2.736-.5,6.012,6.012,0,0,1-2.234-1.524,6.7,6.7,0,0,1-1.483-2.527A10.113,10.113,0,0,1,128.3,282.84Zm4.469,0c0,3.279.835,4.928,2.527,4.928a1.941,1.941,0,0,0,1.942-1.378,10.913,10.913,0,0,0,.543-3.821c0-3.111-.835-4.678-2.485-4.678a1.934,1.934,0,0,0-1.483.606,3.553,3.553,0,0,0-.794,1.691A12.035,12.035,0,0,0,132.769,282.84Z" transform="translate(-101.508 -274.8)"/>
      <path id="패스_1092" data-name="패스 1092" class="cls-5" d="M211.928,285.211l3.153.731a7.43,7.43,0,0,1-.919,2.151,6.191,6.191,0,0,1-1.42,1.608,5.917,5.917,0,0,1-1.859,1,6.924,6.924,0,0,1-2.214.334,7.629,7.629,0,0,1-3.028-.689,6.266,6.266,0,0,1-2.715-2.443,8.389,8.389,0,0,1-1.128-4.615,11.316,11.316,0,0,1,.439-3.174,7.892,7.892,0,0,1,1.316-2.652,6.243,6.243,0,0,1,2.214-1.817,6.842,6.842,0,0,1,3.07-.647,6.611,6.611,0,0,1,3.216.794,5.992,5.992,0,0,1,2.214,2.047,4.872,4.872,0,0,1,.794,2.589l-3.989.209c-.209-1.691-.94-2.527-2.214-2.527a2.106,2.106,0,0,0-1.984,1.253,9.262,9.262,0,0,0-.626,3.926,9.72,9.72,0,0,0,.292,2.589,2.812,2.812,0,0,0,.9,1.483,2.845,2.845,0,0,0,3.132.021,2.993,2.993,0,0,0,.856-.961C211.594,286.068,211.761,285.671,211.928,285.211Z" transform="translate(-159.659 -274.958)"/>
      <path id="패스_1093" data-name="패스 1093" class="cls-6" d="M275.2,291.537V276h4.26v6.515L283.992,276h4.051l-3.717,5.012,4.594,10.525h-4.531l-2.861-6.766-2.046,2.694v4.072Z" transform="translate(-217.732 -275.749)"/>
      <path id="패스_1094" data-name="패스 1094" class="cls-7" d="M380.2,291.537V276h7.121a8.317,8.317,0,0,1,3.237.564,4.3,4.3,0,0,1,2.026,1.629,4.7,4.7,0,0,1,.689,2.589,4.845,4.845,0,0,1-.585,2.381,4.032,4.032,0,0,1-1.587,1.65,5.716,5.716,0,0,1-1.754.647,12.385,12.385,0,0,1-2.36.188H384.46v5.889Zm4.26-12.571v3.613h2.088a2.9,2.9,0,0,0,1.733-.418,1.608,1.608,0,0,0,.522-1.357,1.753,1.753,0,0,0-.522-1.4,2.692,2.692,0,0,0-1.733-.459H384.46Z" transform="translate(-300.805 -275.749)"/>
      <path id="패스_1095" data-name="패스 1095" class="cls-8" d="M436.8,291.616l4.886-15.516h4.866l4.824,15.516h-4.427l-.877-3.07h-4.886l-.856,3.07Zm5.346-6.327h3.028l-1.5-5.221Z" transform="translate(-345.586 -275.829)"/>
      <path id="패스_1096" data-name="패스 1096" class="cls-9" d="M506.818,291.537V279.258H502.6V276h12.676v3.258h-4.218v12.279Z" transform="translate(-397.645 -275.749)"/>
      <path id="패스_1097" data-name="패스 1097" class="cls-10" d="M574.628,285.211l3.153.731a7.434,7.434,0,0,1-.919,2.151,6.192,6.192,0,0,1-1.42,1.608,5.917,5.917,0,0,1-1.859,1,6.925,6.925,0,0,1-2.214.334,7.629,7.629,0,0,1-3.028-.689,6.266,6.266,0,0,1-2.715-2.443,8.389,8.389,0,0,1-1.128-4.615,11.316,11.316,0,0,1,.438-3.174,7.892,7.892,0,0,1,1.316-2.652,6.243,6.243,0,0,1,2.214-1.817,6.9,6.9,0,0,1,3.07-.647,6.612,6.612,0,0,1,3.216.794,5.992,5.992,0,0,1,2.214,2.047,4.872,4.872,0,0,1,.793,2.589l-3.989.209c-.209-1.691-.94-2.527-2.214-2.527a2.106,2.106,0,0,0-1.984,1.253,9.261,9.261,0,0,0-.626,3.926,9.722,9.722,0,0,0,.292,2.589,2.812,2.812,0,0,0,.9,1.483,2.845,2.845,0,0,0,3.132.021,2.994,2.994,0,0,0,.856-.961A9.646,9.646,0,0,0,574.628,285.211Z" transform="translate(-446.619 -274.958)"/>
      <path id="패스_1098" data-name="패스 1098" class="cls-11" d="M637.8,291.537V276h4.26v5.993H646.4V276h4.281v15.516H646.4V285.23h-4.323v6.286H637.8Z" transform="translate(-504.612 -275.749)"/>
    </g>
  </g>
</svg>
