<svg xmlns="http://www.w3.org/2000/svg" viewBox="0 0 126.535 76">
  <defs>
    <style>
      .cls-1 {
        fill: #415e8c;
      }

      .cls-2 {
        fill: #e04d4c;
      }
    </style>
  </defs>
  <g id="그룹_284" data-name="그룹 284" transform="translate(0 0.1)">
    <path id="패스_1109" data-name="패스 1109" class="cls-1" d="M1.633,9.985H29.751L23.65.7H5.214S1.5.7,1.5,4.414,1.633,9.852,1.633,9.985Z" transform="translate(0.49 0.261)"/>
    <path id="패스_1110" data-name="패스 1110" class="cls-1" d="M30.374,31.287c0-1.857-1.592-4.377-1.724-4.642L15.253,9.8H3.316L18.7,28.634H0l6.1,9.285H26.66s3.714,0,3.714-3.714V31.287Z" transform="translate(0 3.231)"/>
    <path id="패스_1111" data-name="패스 1111" class="cls-1" d="M55.9,9.985H84.019L77.918.7h-18.3S55.9.7,55.9,4.414,56.033,9.852,55.9,9.985Z" transform="translate(18.243 0.261)"/>
    <path id="패스_1112" data-name="패스 1112" class="cls-1" d="M84.674,31.287c0-1.857-1.592-4.377-1.724-4.642L69.553,9.8H57.616L73,28.634H54.3l6.1,9.285H80.96s3.714,0,3.714-3.714v-2.52C84.674,31.42,84.674,31.42,84.674,31.287Z" transform="translate(17.721 3.231)"/>
    <path id="패스_1113" data-name="패스 1113" class="cls-1" d="M60.083,35.712h0V.828H51.329v26L37.933,4.94h0l-1.194-1.99h0A6.075,6.075,0,0,0,31.434-.1,6.372,6.372,0,0,0,25.2,6.4v.133h0V41.415h8.754v-26L47.35,37.3h0l1.194,1.99h0a6.075,6.075,0,0,0,5.305,3.051,6.406,6.406,0,0,0,6.234-6.632Z" transform="translate(8.224)"/>
    <path id="패스_1114" data-name="패스 1114" class="cls-2" d="M43.559,43.955A2.105,2.105,0,0,0,41.3,41.7H23v4.642H38.386a.52.52,0,0,1,.531.531V62.259h4.642V48.2h0Z" transform="translate(7.506 13.641)"/>
    <rect id="사각형_840" data-name="사각형 840" class="cls-2" width="4.908" height="13.662" transform="translate(38.332 62.106)"/>
    <rect id="사각형_841" data-name="사각형 841" class="cls-2" width="4.908" height="13.662" transform="translate(30.639 62.106)"/>
    <path id="패스_1115" data-name="패스 1115" class="cls-2" d="M57.277,44.087A2.378,2.378,0,0,0,54.89,41.7h-12.2A2.378,2.378,0,0,0,40.3,44.087h0v2.387H57.277V44.087Z" transform="translate(13.152 13.642)"/>
    <path id="패스_1116" data-name="패스 1116" class="cls-2" d="M57.245,57.044h0V46.3H51.939v6.9h0a1.462,1.462,0,0,1-1.326,1.459H47.164A1.429,1.429,0,0,1,45.705,53.2h0V46.3H40.4V57.839h0a2.378,2.378,0,0,0,2.387,2.387h12.2a2.378,2.378,0,0,0,2.387-2.387h0v-.8Z" transform="translate(13.185 15.143)"/>
    <path id="패스_1117" data-name="패스 1117" class="cls-2" d="M71.577,46.176a2.378,2.378,0,0,0-2.387-2.387H59.905V35.3H54.6V47.768h0v.8H71.577V46.176Z" transform="translate(17.819 11.553)"/>
    <rect id="사각형_842" data-name="사각형 842" class="cls-2" width="5.305" height="20.161" transform="translate(97.733 75.449) rotate(180)"/>
    <rect id="사각형_843" data-name="사각형 843" class="cls-2" width="5.305" height="5.438" transform="translate(97.733 52.287) rotate(180)"/>
    <rect id="사각형_844" data-name="사각형 844" class="cls-2" width="5.305" height="28.649" transform="translate(106.175 75.507) rotate(180)"/>
    <path id="패스_1118" data-name="패스 1118" class="cls-2" d="M71.545,57.011V46.4H66.239v6.9h0a1.462,1.462,0,0,1-1.326,1.459H60.005V46.4H54.7V60.327H69.157a2.378,2.378,0,0,0,2.387-2.387v-.928Z" transform="translate(17.852 15.176)"/>
    <path id="패스_1119" data-name="패스 1119" class="cls-2" d="M87.905,56.29V46.475H99.577V44.087h0A2.378,2.378,0,0,0,97.19,41.7h-12.2A2.378,2.378,0,0,0,82.6,44.087h0v2.387h0v13a2.378,2.378,0,0,0,2.387,2.387H95.731l3.846-5.438H87.905Z" transform="translate(26.957 13.642)"/>
    <path id="패스_1120" data-name="패스 1120" class="cls-2" d="M88,46.8h9.682v3.449A2.208,2.208,0,0,1,95.428,52.5H91.714Z" transform="translate(28.72 15.306)"/>
  </g>
</svg>
