<?xml version="1.0" encoding="utf-8"?>
<!-- Generator: Adobe Illustrator 23.0.1, SVG Export Plug-In . SVG Version: 6.00 Build 0)  -->
<svg version="1.1" id="레이어_1" xmlns="http://www.w3.org/2000/svg" xmlns:xlink="http://www.w3.org/1999/xlink" x="0px"
	 y="0px" viewBox="0 0 217 80" style="enable-background:new 0 0 217 80;" xml:space="preserve">
<style type="text/css">
	.st0{fill:url(#SVGID_1_);}
	.st1{fill:url(#SVGID_2_);}
	.st2{fill:url(#SVGID_3_);}
	.st3{fill:url(#SVGID_4_);}
	.st4{fill:#FFFFFF;}
	.st5{opacity:0.4;enable-background:new    ;}
	.st6{opacity:0.5;}
	.st7{fill:url(#SVGID_5_);}
	.st8{fill:url(#SVGID_6_);}
	.st9{fill:url(#SVGID_7_);}
	.st10{fill:#909090;}
</style>
<g>
	
		<linearGradient id="SVGID_1_" gradientUnits="userSpaceOnUse" x1="-0.513" y1="43.0697" x2="50.9207" y2="43.0697" gradientTransform="matrix(1 0 0 -1 0 82)">
		<stop  offset="0" style="stop-color:#F8C25E"/>
		<stop  offset="1" style="stop-color:#E34554"/>
	</linearGradient>
	<path class="st0" d="M46.2,63.5c-1.9,0-6.4-3.7-2.7-9.7c3.4-5.4,1.8-9.5,1.5-10.2c0,0,0-0.1,0-0.1c0,0,0,0,0,0l0,0
		c-1-2.1-1.5-4.2-1.7-5.3c-0.1-0.5-0.1-0.9-0.1-0.9c0,0,0,0,0,0c0,0,0,0,0,0s-0.1,0.2-0.2,0.6c-0.7,2.1-0.3,4,0,5.1
		c0,0.1,0.9,2.8-1.8,4.5c-0.9,0.5-2.1,0.6-3.2,0.3c-2.4-0.7-2.9-3.4-3-3.4c-0.2-1.5,0.4-2.9,1.5-3.8l0,0c0,0,0.1-0.1,0.1-0.1
		c4.2-3.3,3.1-10.8,3.1-10.8s0,0,0,0.1l0-0.1c-2.3,7.4-8.2,9.2-8.2,9.2c1-6-3.2-10.3-3.2-10.3c-0.6-0.8-1.4-1.6-2.4-2.2
		c-6.6-4.2-2.1-12-2.1-12s-12,7.8-5.5,15.5l0,0c0.9,0.8,1.4,2,1.4,3.3c0,2.6-2.2,4.7-4.9,4.7c-2.7,0-4.9-2.1-4.9-4.7
		c0-1.2,0.5-2.4,1.3-3.2c0.3-0.2,0.5-0.5,0.8-0.7c0,0-8.2,4-3.8,14c3,6.9-1.6,13.9-4.8,17.5c-0.7,0.8-1.9,2.1-2.9,2.7h3.6l0,0
		c5.5,0,11.6,0,14.5,0h1.6h3.3v0h4.2v0h14.6v0C42.3,63.5,46.2,63.5,46.2,63.5z"/>
	
		<linearGradient id="SVGID_2_" gradientUnits="userSpaceOnUse" x1="-0.513" y1="62.0985" x2="50.9207" y2="62.0985" gradientTransform="matrix(1 0 0 -1 0 82)">
		<stop  offset="0" style="stop-color:#F8C25E"/>
		<stop  offset="1" style="stop-color:#E34554"/>
	</linearGradient>
	<path class="st1" d="M28.3,24.4c-2.2-4.5,2-9,2-9C22.9,19.3,28.3,24.4,28.3,24.4z"/>
	
		<linearGradient id="SVGID_3_" gradientUnits="userSpaceOnUse" x1="-0.513" y1="35.7458" x2="50.9207" y2="35.7458" gradientTransform="matrix(1 0 0 -1 0 82)">
		<stop  offset="0" style="stop-color:#F8C25E"/>
		<stop  offset="1" style="stop-color:#E34554"/>
	</linearGradient>
	<path class="st2" d="M1,39.4c0,0,3.8,5.4,4.8,13.7C5.7,53.1,8.7,44.9,1,39.4z"/>
	
		<linearGradient id="SVGID_4_" gradientUnits="userSpaceOnUse" x1="-0.513" y1="54.8912" x2="50.9207" y2="54.8912" gradientTransform="matrix(1 0 0 -1 0 82)">
		<stop  offset="0" style="stop-color:#F8C25E"/>
		<stop  offset="1" style="stop-color:#E34554"/>
	</linearGradient>
	<path class="st3" d="M33.8,32.7c0.2-0.2,2.1-1.9,1.8-3.3c0,0,1,1.9-1.9,4.9c0,0,5.4-2.7,2.5-7.4c0,0-1.3-1.9-2.5-2.5
		S31.9,22,32.1,20c0,0-1.7,3.3,0.7,7.5C35,31.3,33.9,32.5,33.8,32.7z"/>
</g>
<path class="st4" d="M23.5,37.2"/>
<path class="st4" d="M23.5,37.2"/>
<polygon class="st4" points="6.4,63.5 6.4,63.5 41.5,63.5 37.9,57.2 "/>
<polygon class="st4" points="13.1,52 8.3,60.3 36.4,54.6 32.6,48 "/>
<g>
	<polygon class="st4" points="27,38.3 24,33.1 20.2,39.6 	"/>
	<polygon class="st4" points="18.5,42.6 15,48.7 31.1,45.5 28.3,40.6 	"/>
</g>
<polygon class="st5" points="8.3,60.3 12.7,62.3 37.9,57.2 33.1,55.3 "/>
<polygon class="st5" points="32.6,48 29.2,45.9 15,48.7 18.2,50.9 "/>
<polygon class="st5" points="28.3,40.6 26.1,38.5 20.2,39.6 22.2,41.9 "/>
<g class="st6">
	<polygon class="st5" points="34.2,57.9 29,59 29.9,63.5 36.6,63.5 	"/>
	<polygon class="st5" points="30.3,48.5 27.1,49.1 28.5,56.2 33.1,55.3 	"/>
	<polygon class="st5" points="24,33.1 25,38.7 26.1,38.5 	"/>
	<polygon class="st5" points="27.6,46.2 29.2,45.9 27.1,40.8 25.5,41.2 26.5,46.4 	"/>
</g>
<g>
	
		<linearGradient id="SVGID_5_" gradientUnits="userSpaceOnUse" x1="51.0787" y1="30.6874" x2="119.4363" y2="30.6874" gradientTransform="matrix(1 0 0 -1 0 82)">
		<stop  offset="0" style="stop-color:#F8C25E"/>
		<stop  offset="1" style="stop-color:#E34554"/>
	</linearGradient>
	<path class="st7" d="M68.3,49.8c-1.2-0.4-2.8-0.9-4.8-1.3c-2.3-0.5-3.3-1-3.8-1.2C59.2,47,59,46.5,59,45.9c0-0.8,0.3-1.3,1-1.8
		c0.8-0.5,1.9-0.8,3.3-0.8c3.9,0,4.6,1.9,4.7,3.3l0.1,0.7h4.4l0-0.8c-0.1-2.4-1-4.2-2.7-5.5c-1.7-1.3-3.9-1.9-6.5-1.9
		c-2.6,0-4.6,0.6-6.2,1.9c-1.6,1.3-2.5,3-2.5,5c0,1.8,0.6,3.3,1.9,4.4c1.2,1.1,3.1,1.8,5.8,2.4c2.4,0.5,4.2,1,5.1,1.6
		c0.8,0.4,1.1,1,1.1,2c0,0.9-0.4,1.6-1.2,2.1c-0.9,0.6-2.1,0.9-3.5,0.9c-1.6,0-2.9-0.4-4-1.1c-1-0.7-1.6-1.7-1.7-3.1l-0.1-0.7h-4.4
		l0,0.8c0.1,2.4,1,4.4,2.7,6c1.7,1.5,4.2,2.3,7.5,2.3c2.6,0,4.8-0.7,6.4-2.1c1.7-1.4,2.6-3.2,2.6-5.4c0-1.7-0.5-3.1-1.4-4.1
		C70.6,51,69.5,50.3,68.3,49.8z"/>
	
		<linearGradient id="SVGID_6_" gradientUnits="userSpaceOnUse" x1="51.0787" y1="30.693" x2="119.4363" y2="30.693" gradientTransform="matrix(1 0 0 -1 0 82)">
		<stop  offset="0" style="stop-color:#F8C25E"/>
		<stop  offset="1" style="stop-color:#E34554"/>
	</linearGradient>
	<path class="st8" d="M85.6,43.2c1.5,0,2.7,0.4,3.7,1.1c0.9,0.7,1.4,1.6,1.5,2.8l0.1,0.7h4.6l-0.1-0.9c-0.2-2.3-1.3-4.3-3.2-5.7
		c-1.8-1.4-4.1-2.1-6.6-2.1c-3.4,0-6.1,1.1-8.1,3.3c-2,2.2-3,5.2-3,8.9c0,3.7,1,6.7,3,8.9c2,2.2,4.7,3.3,8.1,3.3
		c2.7,0,4.9-0.7,6.7-2.1c1.8-1.4,2.8-3.4,3.1-6l0.1-0.9h-4.6l-0.1,0.7c-0.1,1.4-0.6,2.4-1.5,3.1c-0.9,0.7-2.2,1.1-3.7,1.1
		c-2,0-3.5-0.7-4.7-2c-1.2-1.4-1.8-3.5-1.8-6.1c0-2.7,0.6-4.7,1.8-6.1C82,43.8,83.6,43.2,85.6,43.2z"/>
	
		<linearGradient id="SVGID_7_" gradientUnits="userSpaceOnUse" x1="51.0787" y1="30.693" x2="119.4363" y2="30.693" gradientTransform="matrix(1 0 0 -1 0 82)">
		<stop  offset="0" style="stop-color:#F8C25E"/>
		<stop  offset="1" style="stop-color:#E34554"/>
	</linearGradient>
	<polygon class="st9" points="112.9,39.4 106.5,56.9 100,39.4 95.2,39.4 104.4,63.2 108.5,63.2 117.7,39.4 	"/>
</g>
<path class="st10" d="M130.2,53.1c-0.9-0.3-2-0.6-3.5-1c-1.7-0.4-2.4-0.7-2.7-0.9c-0.3-0.2-0.4-0.4-0.4-0.8c0-0.5,0.2-0.8,0.6-1.1
	c0.5-0.4,1.3-0.5,2.3-0.5c2.6,0,3.1,1.2,3.2,2.2l0.1,0.7h3.6l0-0.8c-0.1-1.8-0.8-3.2-2.1-4.1c-1.2-0.9-2.9-1.4-4.8-1.4
	c-1.9,0-3.5,0.5-4.6,1.4c-1.2,1-1.9,2.3-1.9,3.8c0,1.4,0.5,2.5,1.5,3.4c0.9,0.8,2.3,1.4,4.3,1.8c1.8,0.4,3,0.7,3.7,1.1
	c0.5,0.3,0.7,0.6,0.7,1.2c0,0.6-0.2,1-0.7,1.3c-0.6,0.4-1.4,0.6-2.4,0.6c-1.1,0-2-0.2-2.8-0.7c-0.7-0.4-1-1.1-1.1-2.1l-0.1-0.7h-3.6
	l0,0.8c0.1,1.8,0.7,3.3,2,4.5c1.3,1.1,3.1,1.7,5.6,1.7c1.9,0,3.6-0.5,4.8-1.5c1.3-1.1,1.9-2.4,1.9-4c0-1.3-0.4-2.3-1.1-3.1
	C132,54,131.1,53.4,130.2,53.1z"/>
<path class="st10" d="M142.8,45.3c-2.5,0-4.5,0.8-6.1,2.5c-1.6,1.7-2.4,3.9-2.4,6.6c0,2.7,0.8,4.9,2.4,6.5c1.6,1.7,3.6,2.5,6.1,2.5
	c2.5,0,4.5-0.8,6.1-2.5c1.6-1.7,2.4-3.9,2.4-6.6s-0.8-4.9-2.4-6.6C147.3,46.2,145.3,45.3,142.8,45.3z M147.5,54.4
	c0,1.8-0.4,3.3-1.3,4.2c-0.9,1-2,1.4-3.3,1.4c-1.4,0-2.5-0.5-3.3-1.4c-0.9-1-1.3-2.4-1.3-4.2c0-1.8,0.5-3.3,1.3-4.2
	c0.9-1,2-1.4,3.4-1.4c1.4,0,2.4,0.5,3.3,1.4C147,51.1,147.5,52.6,147.5,54.4z"/>
<polygon class="st10" points="164.9,45.6 164.9,45.6 152.5,45.6 152.5,63.2 156.2,63.2 156.2,55.9 163.7,55.9 163.7,52.4 
	156.2,52.4 156.2,49.1 164.9,49.1 164.9,49.1 170.1,49.1 170.1,63.2 173.8,63.2 173.8,49.1 179.1,49.1 179.1,45.6 "/>
</svg>
