<svg xmlns="http://www.w3.org/2000/svg" viewBox="0 0 808 435.324">
    <defs>
        <style>
            .cls-1{fill:#e36246}.cls-2,.cls-3,.cls-6{fill:#fff}.cls-3{opacity:.2}.cls-4{opacity:.5}.cls-5{fill:#060000;opacity:.4}.cls-6{stroke:#000}.cls-6,.cls-7,.cls-8{stroke-miterlimit:10}.cls-6,.cls-8{stroke-width:3px}.cls-7,.cls-8{fill:none;stroke:#fff}.cls-7{stroke-width:2px}
        </style>
    </defs>
    <g id="main_icon" transform="translate(-876 -183)">
        <path id="패스_645" d="M296.471 335.408h-.111a118.842 118.842 0 0 0 3.867-4.088c11.6-13.369 29.5-39.886 17.9-66.624-6.74-15.579-4.53-26.738-.331-34.141.663 10.607 9.723 19 20.882 19 11.491 0 20.882-9.06 20.882-20.109a20.03 20.03 0 0 0-5.745-13.922c-4.972-5.856-6.85-12.043-5.856-18.673 1.436-9.944 9.171-19 15.689-24.97a39.289 39.289 0 0 0-.994 5.414c-1.657 13.038 3.315 23.644 14.253 30.605a30.261 30.261 0 0 1 7.845 7.182l.11.111.111.11c.111.111 13.922 14.805 10.607 34.362l-.884 5.3 5.193-1.657c.773-.221 15.137-4.972 25.3-21.214-.884 7.513-3.315 16.021-9.833 21.214a1.94 1.94 0 0 0-.552.442 18.409 18.409 0 0 0-6.629 16.573v.221c.111.442 2.431 11.6 13.038 14.805a21.974 21.974 0 0 0 5.3.773 19.447 19.447 0 0 0 8.618-2.1l.111-.111.111-.11c7.955-5.193 8.729-12.6 8.287-16.794l.552.994v.111l.11.221a28.263 28.263 0 0 1 1.989 10.717c0 7.513-2.431 15.247-7.182 22.982-8.729 14.142-5.414 24.418-2.652 29.279a18.385 18.385 0 0 0 2.873 3.978 11.584 11.584 0 0 0 3.646 3.315h8.729c-6.961 0-22.982-13.259-9.612-34.914 12.043-19.556 6.629-34.141 5.414-36.793a.406.406 0 0 1-.111-.331v-.111a76 76 0 0 1-5.966-19.225c-.331-1.878-.442-3.094-.442-3.094a11.957 11.957 0 0 0-.884 2.21 29.6 29.6 0 0 0 0 18.231 14.435 14.435 0 0 1-6.408 16.242 15.317 15.317 0 0 1-11.6 1.1c-8.618-2.541-10.607-12.043-10.607-12.264a14.867 14.867 0 0 1 5.414-13.59c.111-.11.331-.221.442-.331 14.916-11.712 11.049-38.892 11.049-38.892a.855.855 0 0 1-.111.331l.111-.331c-8.176 26.517-29.5 33.146-29.5 33.146 3.646-21.545-11.491-37.235-11.491-37.235a33.325 33.325 0 0 0-8.729-7.845c-23.865-15.137-7.513-43.422-7.513-43.422s-43.2 28.174-19.777 56.018a16.276 16.276 0 0 1 4.972 11.712c0 9.281-7.845 16.794-17.568 16.794s-17.568-7.513-17.568-16.794a16.666 16.666 0 0 1 4.751-11.6 35.343 35.343 0 0 1 2.983-2.431s-29.39 14.253-13.811 50.493c10.717 24.97-5.966 49.941-17.347 63.089-2.652 2.983-6.85 7.4-10.5 9.612h5.524a18.019 18.019 0 0 0 3.651-2.971z" class="cls-1" data-name="패스 645" transform="translate(906.133 199.938)"/>
        <path id="패스_646" d="M385.645 165.2c-26.849 14.032-7.292 32.484-7.292 32.484-7.955-16.352 7.292-32.484 7.292-32.484z" class="cls-1" data-name="패스 646" transform="translate(914.961 200.326)"/>
        <path id="패스_647" d="M288.5 243.4s13.59 19.556 17.126 49.388c0 0 10.717-29.611-17.126-49.388z" class="cls-1" data-name="패스 647" transform="translate(906.258 208.528)"/>
        <path id="패스_648" d="M390.2 180.1s-6.187 11.933 2.431 26.959c8.066 14.032 4.088 18.341 3.536 18.783.773-.663 7.513-6.74 6.408-11.933 0 0 3.536 6.85-6.961 17.457 0 0 19.335-9.612 9.06-26.628 0 0-4.641-6.74-9.171-9.06-4.42-2.21-6.187-8.287-5.3-15.579z" class="cls-1" data-name="패스 648" transform="translate(916.7 201.889)"/>
        <path id="패스_651" d="M306.3 324.271h126.4L419.55 301.4z" class="cls-2" data-name="패스 651" transform="translate(908.125 214.611)"/>
        <path id="패스_652" d="M329.736 285.642L312.5 315.585l100.986-20.44-13.7-23.644z" class="cls-2" data-name="패스 652" transform="translate(908.776 211.475)"/>
        <g id="그룹_69" data-name="그룹 69" transform="translate(1245.362 429.389)">
            <path id="패스_653" d="M375.607 241.783L364.78 223l-13.48 23.424z" class="cls-2" data-name="패스 653" transform="translate(-332.517 -223)"/>
            <path id="패스_654" d="M346.9 254.592l-12.6 21.877 58.006-11.491-10.275-17.678z" class="cls-2" data-name="패스 654" transform="translate(-334.3 -220.451)"/>
        </g>
        <path id="패스_655" d="M312.5 313.11l15.8 7.182 90.6-18.231-17.347-6.961z" class="cls-3" data-name="패스 655" transform="translate(908.776 213.951)"/>
        <path id="패스_656" d="M397.5 272.234l-12.154-7.734-51.046 10.165 11.491 7.955z" class="cls-3" data-name="패스 656" transform="translate(911.062 210.741)"/>
        <path id="패스_657" d="M380.248 248.013L372.4 240.5l-21.1 4.088 6.961 7.955z" class="cls-3" data-name="패스 657" transform="translate(912.845 208.224)"/>
        <g id="그룹_70" class="cls-4" data-name="그룹 70" transform="translate(1277.625 429.389)">
            <path id="패스_658" d="M398.683 303.8l-18.783 3.867 3.2 16.352h24.086z" class="cls-5" data-name="패스 658" transform="translate(-361.78 -214.526)"/>
            <path id="패스_659" d="M385.091 273l-11.491 2.431 4.972 25.3 16.573-3.315z" class="cls-5" data-name="패스 659" transform="translate(-362.441 -217.756)"/>
            <path id="패스_660" d="M363.5 223l3.757 20.109 3.867-.773z" class="cls-5" data-name="패스 660" transform="translate(-363.5 -223)"/>
            <path id="패스_661" d="M375.9 267.435l5.856-1.215-7.624-18.12-5.635 1.215 3.646 18.783z" class="cls-5" data-name="패스 661" transform="translate(-362.976 -220.367)"/>
        </g>
        <g id="그룹_71" data-name="그룹 71" transform="translate(1471.31 376.09)">
            <path id="사각형_329" d="M0 0h61.652v3.315H0z" class="cls-2" data-name="사각형 329" transform="rotate(-35.64 92.413 -95.812)"/>
            <path id="패스_662" d="M569.074 235.1L538.8 256.866l1.878 2.652 30.274-21.656z" class="cls-2" data-name="패스 662" transform="translate(-538.8 -168.432)"/>
        </g>
        <path id="패스_663" d="M61.321 405.642a61.321 61.321 0 1 1 61.321-61.321 61.394 61.394 0 0 1-61.321 61.321zm0-119.327a58.006 58.006 0 1 0 58.006 58.006 58.141 58.141 0 0 0-58.006-58.006z" class="cls-2" data-name="패스 663" transform="translate(876 212.682)"/>
        <path id="패스_664" d="M146.939 360.078a24.639 24.639 0 1 1 24.639-24.639 24.661 24.661 0 0 1-24.639 24.639zm0-45.963a21.324 21.324 0 1 0 21.324 21.324 21.408 21.408 0 0 0-21.324-21.324z" class="cls-2" data-name="패스 664" transform="translate(888.827 215.597)"/>
        <path id="패스_665" d="M434.542 396.154h-131.26a7.167 7.167 0 0 1-7.182-7.182v-13.59a7.167 7.167 0 0 1 7.182-7.182h131.26a7.167 7.167 0 0 1 7.182 7.182v13.59a7.239 7.239 0 0 1-7.182 7.182zm-131.26-24.528a3.915 3.915 0 0 0-3.867 3.867v13.48a3.915 3.915 0 0 0 3.867 3.867h131.26a3.915 3.915 0 0 0 3.867-3.867v-13.59a3.915 3.915 0 0 0-3.867-3.867h-131.26z" class="cls-2" data-name="패스 665" transform="translate(907.055 221.617)"/>
        <path id="패스_666" d="M80.514 372H35.877a6.131 6.131 0 0 1-6.077-6.077v-37.346a6.131 6.131 0 0 1 6.077-6.077h44.637a6.131 6.131 0 0 1 6.077 6.077v37.345A6.059 6.059 0 0 1 80.514 372zm-44.637-46.075a2.735 2.735 0 0 0-2.762 2.762v37.345a2.735 2.735 0 0 0 2.762 2.762h44.637a2.735 2.735 0 0 0 2.762-2.762v-37.345a2.735 2.735 0 0 0-2.762-2.762z" class="cls-2" data-name="패스 666" transform="translate(879.125 216.824)"/>
        <path id="패스_667" d="M56.3 361.1a4.433 4.433 0 0 1-4.42-4.419v-8.508a8.373 8.373 0 1 1 12.814-7.073 8.3 8.3 0 0 1-3.978 7.071v8.508A4.432 4.432 0 0 1 56.3 361.1zm0-25.191a5.141 5.141 0 0 0-5.082 5.082 5.257 5.257 0 0 0 2.983 4.641l.994.442v10.607a1.107 1.107 0 0 0 1.1 1.1 1.188 1.188 0 0 0 1.1-1.1v-10.612l.994-.442a5.09 5.09 0 0 0-2.1-9.723z" class="cls-1" data-name="패스 667" transform="translate(881.024 217.894)"/>
        <path id="패스_668" d="M536.246 230.792a19.446 19.446 0 1 1 19.446-19.446 19.475 19.475 0 0 1-19.446 19.446zm0-35.688a16.131 16.131 0 1 0 16.131 16.131 16.15 16.15 0 0 0-16.131-16.135z" class="cls-2" data-name="패스 668" transform="translate(930.203 203.127)"/>
        <path id="패스_669" d="M535.26 219.32a9.06 9.06 0 1 1 9.06-9.06 9.1 9.1 0 0 1-9.06 9.06zm0-14.805a5.745 5.745 0 1 0 5.745 5.745 5.776 5.776 0 0 0-5.745-5.745z" class="cls-1" data-name="패스 669" transform="translate(931.189 204.102)"/>
        <path id="사각형_330" d="M0 0h170.704v3.315H0z" class="cls-2" data-name="사각형 330" transform="rotate(-39.384 1190.844 -1100.604)"/>
        <path id="패스_670" d="M393.678 143.517l-1.878-2.652 55.244-39.665 1.989 2.652z" class="cls-2" data-name="패스 670" transform="translate(917.093 193.614)"/>
        <path id="패스_671" d="M528.167 259.378l-19.446-13.59-.221-4.088 21.545 14.916z" class="cls-2" data-name="패스 671" transform="translate(929.332 208.35)"/>
        <path id="패스_673" d="M654.39 188.526l-3.2-.442 1.657-11.712-12.047-1.657.552-3.315 15.247 2.21z" class="cls-2" data-name="패스 673" transform="translate(943.208 200.977)"/>
        <path id="패스_674" d="M598.812 149.373l-.442 3.646 6.629.442.221-2.21.11-1.436 1.547-15.247h-.11v-.221l-15.358-1.215-1.436-.11-2.21-.221-.663 6.519 3.646.331 8.839.884z" class="cls-1" data-name="패스 674" transform="translate(937.576 196.928)"/>
        <path id="패스_675" d="M533.492 323.483a9.391 9.391 0 1 1 9.391-9.392 9.384 9.384 0 0 1-9.391 9.392zm0-15.579a6.077 6.077 0 1 0 6.077 6.077 6.059 6.059 0 0 0-6.077-6.081z" class="cls-2" data-name="패스 675" transform="translate(930.969 214.957)"/>
        <path id="패스_676" d="M540.689 313.674l-1.989-2.762 16.463-11.712v4.088z" class="cls-2" data-name="패스 676" transform="translate(932.5 214.381)"/>
        <path id="패스_677" d="M527.3 313.863l-20-14.142 1.547-2.32 20 14.143z" class="cls-2" data-name="패스 677" transform="translate(929.206 214.192)"/>
        <path id="패스_679" d="M555.7 131.346H454.491a25.2 25.2 0 0 1-.773-50.383 35.24 35.24 0 0 1-.884-8.287 37.678 37.678 0 0 1 70.712-18.12 27.5 27.5 0 0 1 6.74-.884 27.114 27.114 0 0 1 27.07 27.07 25.423 25.423 0 0 1-.994 7.071 21.747 21.747 0 0 1 .994 43.422h-1.436zM454.491 84.388a21.877 21.877 0 0 0 0 43.753h101.1a18.452 18.452 0 1 0 0-36.9 7.3 7.3 0 0 0-1.547.11l-2.541.221.884-2.431a23.361 23.361 0 0 0 1.436-8.287A23.789 23.789 0 0 0 530.065 57.1a22 22 0 0 0-7.071 1.1l-1.326.442-.663-1.215A34.382 34.382 0 0 0 455.928 72.9a34.614 34.614 0 0 0 1.326 9.5l.663 2.21-2.32-.11a3.078 3.078 0 0 0-1.106-.112z" class="cls-2" data-name="패스 679" transform="translate(921.026 186.671)"/>
        <path id="패스_680" d="M280.55 126.435h-44.968a7.167 7.167 0 0 1-7.182-7.182v-7.071a7.167 7.167 0 0 1 7.182-7.182h44.968a7.167 7.167 0 0 1 7.182 7.182v7.071a7.239 7.239 0 0 1-7.182 7.182zm-44.969-18.01a3.915 3.915 0 0 0-3.867 3.867v7.071a3.915 3.915 0 0 0 3.867 3.867h44.969a3.915 3.915 0 0 0 3.867-3.867v-7.071a3.915 3.915 0 0 0-3.867-3.867z" class="cls-2" data-name="패스 680" transform="translate(899.955 194.013)"/>
        <path id="패스_681" d="M282.178 142.172H232.9V121.4h49.278zm-45.963-3.315h42.648v-14.142h-42.648z" class="cls-2" data-name="패스 681" transform="translate(900.427 195.733)"/>
        <path id="패스_682" d="M136.748 235.41a1.575 1.575 0 0 1-1.326-.663l-21.545-30.053h-36.02a1.7 1.7 0 0 1-1.657-1.657v-74.58a1.7 1.7 0 0 1 1.657-1.657H168.9a1.7 1.7 0 0 1 1.657 1.657v74.58a1.7 1.7 0 0 1-1.657 1.657h-32.152l1.657 28.948a1.7 1.7 0 0 1-1.1 1.657 1.2 1.2 0 0 1-.557.111zm-57.233-34.03h35.135a1.575 1.575 0 0 1 1.326.663l18.783 26.075-1.436-24.97a1.662 1.662 0 0 1 .442-1.215 1.774 1.774 0 0 1 1.215-.552h32.263v-71.266H79.515z" class="cls-2" data-name="패스 682" transform="translate(883.992 196.299)"/>
        <path id="패스_683" d="M628.966 385.5h-67.509a1.7 1.7 0 0 1-1.657-1.657V277.557a1.7 1.7 0 0 1 1.657-1.657h67.508a1.7 1.7 0 0 1 1.657 1.657v106.29a1.7 1.7 0 0 1-1.656 1.653zM563 382.19h64.2V279.215H563z" class="cls-2" data-name="패스 683" transform="translate(934.713 211.937)"/>
        <path id="패스_684" d="M627.248 407.643H564.6a11.6 11.6 0 0 1-11.6-11.6V269.2a11.6 11.6 0 0 1 11.6-11.6h62.647a11.6 11.6 0 0 1 11.6 11.6v126.84a11.6 11.6 0 0 1-11.599 11.603zM564.6 260.915a8.347 8.347 0 0 0-8.287 8.287v126.84a8.347 8.347 0 0 0 8.287 8.287h62.647a8.347 8.347 0 0 0 8.287-8.287V269.2a8.347 8.347 0 0 0-8.287-8.287z" class="cls-2" data-name="패스 684" transform="translate(934 210.018)"/>
        <path id="패스_685" d="M592.324 388.849a5.524 5.524 0 1 1 5.524-5.524 5.471 5.471 0 0 1-5.524 5.524zm0-7.734a2.21 2.21 0 1 0 2.21 2.21 2.216 2.216 0 0 0-2.21-2.21z" class="cls-1" data-name="패스 685" transform="translate(937.545 222.624)"/>
        <path id="패스_686" d="M695.667 293.526H614.9v-4.42h71.707l-6.3-7.955 3.425-2.652z" class="cls-1" data-name="패스 686" transform="translate(940.492 212.21)"/>
        <g id="그룹_72" data-name="그룹 72" transform="translate(1274.42 279.788)">
            <path id="패스_687" d="M386.344 90.473l5.856 2.32-2.652 6.74a11.013 11.013 0 0 1 2.32 2.21l6.632-2.873 2.541 5.856-6.519 2.762a10.378 10.378 0 0 1 0 3.2l6.629 2.652-2.32 5.856-6.519-2.652a11.543 11.543 0 0 1-2.32 2.32l2.762 6.519-5.856 2.541-2.762-6.519a8.931 8.931 0 0 1-1.768.11 7.3 7.3 0 0 1-1.547-.11l-2.652 6.519-5.856-2.32 2.652-6.629a11.544 11.544 0 0 1-2.32-2.32l-6.519 2.762-2.541-5.856 6.629-2.873a15.526 15.526 0 0 1 0-3.2l-6.74-2.652 2.32-5.856 6.74 2.762a13.929 13.929 0 0 1 2.21-2.21l-2.873-6.74 5.856-2.541 2.873 6.74a8.363 8.363 0 0 1 1.657-.11 6.3 6.3 0 0 1 1.436.11l2.652-6.519m-1.327-2.872l-.773 2.1-2.1 5.3h-.221l-2.21-5.193-.884-1.989-1.989.884-5.856 2.541-1.985.887.884 1.989 2.21 5.193-.221.221-5.3-2.1-2.1-.773-.773 2.1-2.32 5.856-.773 2.1 2.1.773 5.193 2.1v.331l-5.193 2.21-1.989.884.884 1.989 2.541 5.856.884 1.989 1.989-.884 5.082-2.21.221.221-2.1 5.193-.773 2.1 2.1.773 5.856 2.32 2.1.773.773-2.1 2.1-5.082h.442l2.1 5.082.884 1.989 1.989-.884 5.856-2.541 1.989-.884-.884-1.989-2.1-5.082.331-.331 5.082 2.1 2.1.773.773-2.1 2.32-5.856.773-2.1-2.1-.773-5.193-2.1v-.331l5.082-2.21 1.989-.884-.884-1.989-2.541-5.856-.891-1.986-1.989.884-5.193 2.21-.221-.221 2.1-5.193.773-2.1-2.1-.773-5.856-2.32-1.989-.884z" class="cls-2" data-name="패스 687" transform="translate(-360.6 -87.6)"/>
            <path id="패스_688" d="M380.855 102.31a5.745 5.745 0 1 1-5.745 5.745 5.706 5.706 0 0 1 5.745-5.745m0-2.21a7.955 7.955 0 1 0 7.955 7.955 7.922 7.922 0 0 0-7.955-7.955z" class="cls-2" data-name="패스 688" transform="translate(-359.31 -86.289)"/>
        </g>
        <g id="그룹_73" data-name="그룹 73" transform="translate(1298.175 215.704)">
            <path id="패스_689" d="M415.909 33.909l7.513 2.983L420 45.51a13.678 13.678 0 0 1 2.873 2.762l8.508-3.646 3.2 7.513-8.4 3.536a17.032 17.032 0 0 1 .111 4.088l8.4 3.425-2.983 7.512-8.4-3.425a14.654 14.654 0 0 1-2.873 2.983l3.536 8.287-7.513 3.2-3.536-8.287a14.808 14.808 0 0 1-2.21.11 12.008 12.008 0 0 1-1.989-.11l-3.425 8.4-7.513-2.983 3.425-8.4a14.655 14.655 0 0 1-2.983-2.873l-8.4 3.536-3.2-7.513 8.508-3.646a12.688 12.688 0 0 1 0-4.088l-8.618-3.425 2.983-7.513 8.618 3.425a17 17 0 0 1 2.762-2.873L397.237 37l7.513-3.2 3.646 8.508a14.808 14.808 0 0 1 2.21-.11 9.5 9.5 0 0 1 1.768.11l3.536-8.4m-1.879-4.308l-1.215 3.094-2.431 6.077-2.541-5.971-1.326-3.094-3.094 1.326-7.513 3.2-3.094 1.326 1.326 3.094 2.541 5.966-6.076-2.418-3.094-1.215-1.214 3.089-2.983 7.513-1.217 3.094 3.094 1.215 6.077 2.431-5.971 2.541-3.094 1.326 1.326 3.094 3.2 7.513 1.326 3.094 3.094-1.326 5.966-2.541L394.7 78.1l-1.22 3.1 3.094 1.215 7.513 2.983 3.094 1.215 1.215-3.094 2.431-6.077 2.541 5.966 1.326 3.094 3.094-1.326 7.513-3.2 3.094-1.326-1.326-3.094-2.541-5.966 6.077 2.431 3.094 1.215 1.215-3.094 2.983-7.513 1.215-3.094-3.094-1.215-6.077-2.431 5.966-2.541 3.093-1.33-1.326-3.094-3.2-7.513-1.326-3.094-3.094 1.326-5.966 2.541 2.431-6.077 1.215-3.094-3.096-1.213-7.513-2.983-3.094-1.217z" class="cls-2" data-name="패스 689" transform="translate(-382.1 -29.6)"/>
            <path id="패스_690" d="M408.907 49.015a7.292 7.292 0 1 1-7.292 7.292 7.285 7.285 0 0 1 7.292-7.292m0-3.315a10.607 10.607 0 1 0 10.607 10.607A10.61 10.61 0 0 0 408.907 45.7z" class="cls-2" data-name="패스 690" transform="translate(-380.401 -27.911)"/>
        </g>
        <path id="패스_691" d="M336.5 59.774a1.575 1.575 0 0 1-1.326-.663l-15.355-19.888A22.94 22.94 0 0 1 313.3 23.2a23.2 23.2 0 1 1 46.405 0 22.745 22.745 0 0 1-6.519 16.021l-15.358 19.89a1.727 1.727 0 0 1-1.328.663zm-13.919-22.429l13.919 18.12 13.922-18.12c.111-.11.111-.221.221-.331a19.728 19.728 0 0 0 5.635-13.922 19.888 19.888 0 1 0-34.141 13.922 1.526 1.526 0 0 1 .444.331z" class="cls-2" data-name="패스 691" transform="translate(908.859 183)"/>
        <path id="패스_692" d="M335.191 31.483a9.391 9.391 0 1 1 9.391-9.391 9.384 9.384 0 0 1-9.391 9.391zm0-15.468a6.077 6.077 0 1 0 6.077 6.077 6.131 6.131 0 0 0-6.077-6.077z" class="cls-1" data-name="패스 692" transform="translate(910.17 184.332)"/>
        <path id="패스_693" d="M481.363 111.439H467V73.1h14.363zm-11.049-3.315h7.845V76.415h-7.845z" class="cls-2" data-name="패스 693" transform="translate(924.98 190.667)"/>
        <path id="패스_694" d="M497.974 112.362H483.5V64.3h14.474zm-11.159-3.315h7.845V67.615h-7.845z" class="cls-2" data-name="패스 694" transform="translate(926.71 189.744)"/>
        <path id="패스_695" d="M514.474 112.09H500V66.9h14.474zm-11.049-3.315h7.845v-38.56h-7.845z" class="cls-2" data-name="패스 695" transform="translate(928.441 190.017)"/>
        <path id="패스_696" d="M530.974 110.244H516.5V84.5h14.474zm-11.049-3.315h7.845V87.815h-7.845z" class="cls-2" data-name="패스 696" transform="translate(930.171 191.863)"/>
        <path id="사각형_331" d="M0 0h86.181v3.315H0z" class="cls-2" data-name="사각형 331" transform="translate(1383.472 298.792)"/>
        <path id="사각형_332" d="M0 0h54.139v3.315H0z" class="cls-1" data-name="사각형 332" transform="translate(1607.542 569.93)"/>
        <path id="사각형_333" d="M0 0h38.118v3.315H0z" class="cls-1" data-name="사각형 333" transform="translate(1607.542 581.42)"/>
        <path id="패스_697" d="M259.638 363.672h-54.8c-19 0-19.335-19.114-19.335-19.225V313.4h3.315v31.047c0 .663.331 16.021 16.021 16.021h54.8z" class="cls-2" data-name="패스 697" transform="translate(895.456 215.87)"/>
        <path id="패스_698" d="M306 42.85c-16.684-21.656 0-38.229.11-38.45l2.32 2.431-1.1-1.215 1.1 1.215c-.663.552-14.695 14.695.111 34.03z" class="cls-2" data-name="패스 698" transform="translate(907.317 183.461)"/>
        <path id="패스_699" d="M363.452 42.85l-2.652-1.989c14.916-19.335.773-33.367.111-34.03l2.32-2.431c.221.221 17.015 16.794.221 38.45z" class="cls-2" data-name="패스 699" transform="translate(913.841 183.461)"/>
        <path id="패스_700" d="M357.55 80a8.95 8.95 0 1 1 8.95-8.95 8.912 8.912 0 0 1-8.95 8.95zm0-14.584a5.635 5.635 0 1 0 5.635 5.635 5.659 5.659 0 0 0-5.635-5.636z" class="cls-2" data-name="패스 700" transform="translate(912.562 189.513)"/>
        <path id="사각형_334" d="M0 0h47.178v3.315H0z" class="cls-1" data-name="사각형 334" transform="translate(1204.923 313.266)"/>
        <path id="사각형_335" d="M0 0h3.315v3.315H0z" class="cls-1" data-name="사각형 335" transform="translate(1255.306 313.266)"/>
        <circle id="타원_61" cx="1.657" cy="1.657" r="1.657" class="cls-2" data-name="타원 61" transform="translate(1081.066 522.199)"/>
        <path id="패스_701" d="M198.1 308.767c-3.315-3.315-6.74-4.972-10.275-4.861-5.414.221-9.171 4.641-9.281 4.751l-2.541-2.1c.221-.221 4.751-5.635 11.6-5.856 4.42-.221 8.729 1.768 12.817 5.745z" class="cls-2" data-name="패스 701" transform="translate(894.459 214.536)"/>
        <path id="패스_702" d="M207.534 305.266c-6.3-6.3-12.817-9.281-19.335-8.95-10.275.442-17.347 8.839-17.457 8.839l-2.541-2.1c.331-.442 8.066-9.5 19.777-10.054 7.513-.331 14.916 2.983 21.877 9.944z" class="cls-2" data-name="패스 702" transform="translate(893.641 213.728)"/>
        <path id="패스_703" d="M699.793 399.194a1.774 1.774 0 0 1-1.215-.552l-14.253-15.579h-33.368a1.7 1.7 0 0 1-1.657-1.657v-42.649a1.7 1.7 0 0 1 1.657-1.657h79a1.7 1.7 0 0 1 1.657 1.657v42.648a1.7 1.7 0 0 1-1.657 1.657h-30.606l1.989 14.363a1.707 1.707 0 0 1-.994 1.768zm-47.178-19.446H685.1a1.774 1.774 0 0 1 1.215.552l11.049 12.264-1.547-10.828a1.518 1.518 0 0 1 .442-1.326 1.774 1.774 0 0 1 1.215-.552H728.3V340.3h-75.685z" class="cls-2" data-name="패스 703" transform="translate(944.1 218.356)"/>
        <path id="패스_704" d="M170.744 285.888a9.944 9.944 0 1 1 9.944-9.944 9.973 9.973 0 0 1-9.944 9.944zm0-16.463a6.629 6.629 0 1 0 6.629 6.629 6.649 6.649 0 0 0-6.629-6.629z" class="cls-2" data-name="패스 704" transform="translate(892.865 210.899)"/>
        <path id="패스_705" d="M179.944 154.988a9.944 9.944 0 1 1 9.944-9.944 9.973 9.973 0 0 1-9.944 9.944zm0-16.463a6.629 6.629 0 1 0 6.629 6.629 6.649 6.649 0 0 0-6.629-6.629z" class="cls-2" data-name="패스 705" transform="translate(893.83 197.17)"/>
        <path id="패스_706" d="M183.592 256.184a7.292 7.292 0 1 1 7.292-7.292 7.285 7.285 0 0 1-7.292 7.292zm0-11.38a3.978 3.978 0 1 0 3.978 3.978 3.961 3.961 0 0 0-3.978-3.982z" class="cls-2" data-name="패스 706" transform="translate(894.491 208.339)"/>
        <path id="패스_707" d="M139 344.745V323.2l15.8 11.491z" class="cls-1" data-name="패스 707" transform="translate(890.579 216.898)"/>
        <path id="패스_708" d="M319.311 382.715H316V379.4h3.315zm-6.629 0h-3.315V379.4h3.315zm-6.629 0h-3.315V379.4h3.315zm-6.629 0h-3.315V379.4h3.315zm-6.629 0h-3.315V379.4h3.315zm-6.629 0h-3.315V379.4h3.315zm-6.629 0h-3.317V379.4h3.315zm-6.629 0h-3.315V379.4h3.315zm-6.629 0h-3.315V379.4h3.315zm-6.629 0h-3.315V379.4h3.315zm-6.629 0H249.7V379.4h3.315zm-6.629 0h-3.315V379.4h3.315zm-6.629 0h-3.315V379.4h3.315zm-6.629 0h-3.315V379.4h3.315zm-6.629 0h-3.315V379.4h3.31zm-6.629 0h-3.315V379.4h3.315zm-6.629 0h-3.315V379.4h3.315zm-6.629 0H203.3V379.4h3.315zm-6.629 0h-3.315V379.4h3.315zm-6.629 0h-3.315V379.4h3.315zm-6.629 0h-3.321V379.4h3.315zm-6.629 0h-3.315V379.4h3.313zm-6.629 0h-3.315V379.4h3.315zm-6.629 0h-3.315V379.4h3.315zm-6.629 0H156.9V379.4h3.315zm-6.629 0h-3.315V379.4h3.315zm-6.629 0h-3.315V379.4h3.315zm-6.629 0h-3.315V379.4h3.315zm-6.629 0h-3.315V379.4h3.315zm-6.629 0h-3.315V379.4h3.315zm-6.629 0h-3.315V379.4h3.315zm-6.629 0h-3.315V379.4h3.303zm-6.629 0h-3.315V379.4h3.315zm-6.629 0h-3.325V379.4h3.315zm-6.629 0H90.6V379.4h3.315z" class="cls-2" data-name="패스 708" transform="translate(885.502 222.792)"/>
        <path id="패스_709" d="M566.383 376.615h-1.768V373.3h1.768zm-5.082 0h-3.315V373.3h3.314zm-6.629 0h-3.315V373.3h3.315zm-6.629 0h-3.315V373.3h3.315zm-6.629 0H538.1V373.3h3.315zm-6.629 0h-3.315V373.3h3.315zm-6.629 0h-3.315V373.3h3.315zm-6.629 0h-3.317V373.3h3.315zm-6.629 0h-3.315V373.3h3.317zm-6.629 0h-3.315V373.3h3.315zm-6.629 0h-3.315V373.3h3.315zm-6.629 0h-3.315V373.3h3.315zm-6.629 0h-3.315V373.3h3.315zm-6.629 0h-3.315V373.3h3.315zm-6.629 0h-3.315V373.3h3.315zm-6.629 0h-3.315V373.3h3.315zm-6.629 0h-3.315V373.3h3.315zm-6.629 0h-3.315V373.3h3.315zm-6.629 0h-3.315V373.3h3.307zm-6.629 0h-3.315V373.3h3.315zm-6.629 0h-3.315V373.3h3.315zm-6.629 0H425.4V373.3h3.315z" class="cls-2" data-name="패스 709" transform="translate(920.617 222.152)"/>
        <path id="사각형_336" d="M0 0h3.315v3.315H0z" class="cls-1" data-name="사각형 336" transform="translate(1423.358 607.606)"/>
        <path id="사각형_337" d="M0 0h3.315v3.315H0z" class="cls-1" data-name="사각형 337" transform="translate(1416.729 607.606)"/>
        <path id="사각형_338" d="M0 0h3.315v3.315H0z" class="cls-1" data-name="사각형 338" transform="translate(1410.1 607.606)"/>
        <path id="사각형_339" d="M0 0h3.315v3.315H0z" class="cls-1" data-name="사각형 339" transform="translate(1403.47 607.606)"/>
        <path id="사각형_340" d="M0 0h3.315v3.315H0z" class="cls-1" data-name="사각형 340" transform="translate(1396.841 607.606)"/>
        <path id="사각형_341" d="M0 0h3.315v3.315H0z" class="cls-1" data-name="사각형 341" transform="translate(1390.212 607.606)"/>
        <path id="사각형_342" d="M0 0h3.315v3.315H0z" class="cls-1" data-name="사각형 342" transform="translate(1383.583 607.606)"/>
        <path id="사각형_343" d="M0 0h3.315v3.315H0z" class="cls-1" data-name="사각형 343" transform="translate(1376.953 607.606)"/>
        <path id="사각형_344" d="M0 0h3.315v3.315H0z" class="cls-1" data-name="사각형 344" transform="translate(1370.324 607.606)"/>
        <path id="사각형_345" d="M0 0h3.315v3.315H0z" class="cls-1" data-name="사각형 345" transform="translate(1363.695 607.606)"/>
        <path id="사각형_346" d="M0 0h3.315v3.315H0z" class="cls-1" data-name="사각형 346" transform="translate(1357.065 607.606)"/>
        <path id="사각형_347" d="M0 0h3.315v3.315H0z" class="cls-1" data-name="사각형 347" transform="translate(1350.436 607.606)"/>
        <path id="사각형_348" d="M0 0h3.315v3.315H0z" class="cls-2" data-name="사각형 348" transform="translate(1509.871 464.082)"/>
        <path id="사각형_349" d="M0 0h3.315v3.315H0z" class="cls-2" data-name="사각형 349" transform="translate(1509.871 457.453)"/>
        <path id="사각형_350" d="M0 0h3.315v3.315H0z" class="cls-2" data-name="사각형 350" transform="translate(1509.871 450.823)"/>
        <path id="사각형_351" d="M0 0h3.315v3.315H0z" class="cls-2" data-name="사각형 351" transform="translate(1509.871 444.194)"/>
        <path id="사각형_352" d="M0 0h3.315v3.315H0z" class="cls-2" data-name="사각형 352" transform="translate(1509.871 437.565)"/>
        <path id="사각형_353" d="M0 0h3.315v3.315H0z" class="cls-2" data-name="사각형 353" transform="translate(1509.871 430.935)"/>
        <path id="사각형_354" d="M0 0h3.315v3.315H0z" class="cls-2" data-name="사각형 354" transform="translate(1509.871 424.306)"/>
        <path id="사각형_355" d="M0 0h3.315v3.315H0z" class="cls-2" data-name="사각형 355" transform="translate(1509.871 417.677)"/>
        <path id="사각형_356" d="M0 0h3.315v3.315H0z" class="cls-2" data-name="사각형 356" transform="translate(1509.871 411.048)"/>
        <path id="사각형_357" d="M0 0h3.315v3.315H0z" class="cls-2" data-name="사각형 357" transform="translate(1509.871 404.418)"/>
        <path id="사각형_358" d="M0 0h3.315v3.315H0z" class="cls-2" data-name="사각형 358" transform="translate(1509.871 397.789)"/>
        <path id="사각형_359" d="M0 0h3.315v3.315H0z" class="cls-2" data-name="사각형 359" transform="translate(1509.871 391.16)"/>
        <path id="사각형_360" d="M0 0h3.315v3.315H0z" class="cls-2" data-name="사각형 360" transform="translate(1509.871 384.53)"/>
        <path id="사각형_361" d="M0 0h3.315v3.315H0z" class="cls-2" data-name="사각형 361" transform="translate(1509.871 377.901)"/>
        <path id="사각형_362" d="M0 0h3.315v3.315H0z" class="cls-2" data-name="사각형 362" transform="translate(1509.871 371.272)"/>
        <path id="사각형_363" d="M0 0h3.315v3.315H0z" class="cls-2" data-name="사각형 363" transform="translate(1509.871 344.755)"/>
        <path id="사각형_364" d="M0 0h3.315v3.315H0z" class="cls-2" data-name="사각형 364" transform="translate(1509.871 338.125)"/>
        <path id="사각형_365" d="M0 0h3.315v3.315H0z" class="cls-2" data-name="사각형 365" transform="translate(1509.871 331.496)"/>
        <path id="사각형_366" d="M0 0h3.315v3.315H0z" class="cls-2" data-name="사각형 366" transform="translate(1509.871 324.867)"/>
        <path id="사각형_367" d="M0 0h3.315v3.315H0z" class="cls-1" data-name="사각형 367" transform="translate(1528.543 464.082)"/>
        <path id="사각형_368" d="M0 0h3.315v3.315H0z" class="cls-1" data-name="사각형 368" transform="translate(1528.543 457.453)"/>
        <path id="사각형_369" d="M0 0h3.315v3.315H0z" class="cls-1" data-name="사각형 369" transform="translate(1528.543 450.823)"/>
        <path id="사각형_370" d="M0 0h3.315v3.315H0z" class="cls-1" data-name="사각형 370" transform="translate(1528.543 444.194)"/>
        <path id="사각형_371" d="M0 0h3.315v3.315H0z" class="cls-1" data-name="사각형 371" transform="translate(1528.543 437.565)"/>
        <path id="사각형_372" d="M0 0h3.315v3.315H0z" class="cls-1" data-name="사각형 372" transform="translate(1528.543 430.935)"/>
        <path id="사각형_373" d="M0 0h3.315v3.315H0z" class="cls-1" data-name="사각형 373" transform="translate(1528.543 424.306)"/>
        <path id="사각형_374" d="M0 0h3.315v3.315H0z" class="cls-1" data-name="사각형 374" transform="translate(1528.543 417.677)"/>
        <path id="사각형_375" d="M0 0h3.315v3.315H0z" class="cls-1" data-name="사각형 375" transform="translate(1528.543 411.048)"/>
        <path id="사각형_376" d="M0 0h3.315v3.315H0z" class="cls-1" data-name="사각형 376" transform="translate(1528.543 404.418)"/>
        <path id="사각형_377" d="M0 0h3.315v3.315H0z" class="cls-2" data-name="사각형 377" transform="translate(1546 464.192)"/>
        <path id="사각형_378" d="M0 0h3.315v3.315H0z" class="cls-2" data-name="사각형 378" transform="translate(1546 457.563)"/>
        <path id="사각형_379" d="M0 0h3.315v3.315H0z" class="cls-2" data-name="사각형 379" transform="translate(1546 450.934)"/>
        <path id="사각형_380" d="M0 0h3.315v3.315H0z" class="cls-2" data-name="사각형 380" transform="translate(1546 444.305)"/>
        <path id="패스_710" d="M741.484 321.615h-1.215V318.3h1.215zm-4.53 0h-3.315V318.3h3.315zm-6.629 0h-3.315V318.3h3.315zm-6.629 0h-3.315V318.3h3.319zm-6.629 0h-3.315V318.3h3.315zm-6.629 0h-3.315V318.3h3.315zm-6.629 0h-3.315V318.3h3.315zm-6.629 0h-3.315V318.3h3.315zm-6.629 0h-3.315V318.3h3.315zm-6.629 0h-3.315V318.3h3.315zm-6.629 0h-3.315V318.3h3.315zm-6.629 0h-3.315V318.3h3.315zm-6.629 0h-3.315V318.3h3.315zm-6.629 0h-3.315V318.3h3.309zm-6.629 0h-3.315V318.3h3.315zm-6.629 0h-3.315V318.3h3.315zm-6.629 0H634.2V318.3h3.315z" class="cls-2" data-name="패스 710" transform="translate(942.516 216.384)"/>
        <path id="패스_711" d="M717.066 307.515h-3.315V304.2h3.315zm-6.629 0h-3.315V304.2h3.315zm-6.629 0h-3.315V304.2h3.315zm-6.629 0h-3.315V304.2h3.315zm-6.629 0h-3.315V304.2h3.315zm-6.629 0h-3.315V304.2h3.315zm-6.629 0h-3.315V304.2h3.315zm-6.629 0h-3.315V304.2h3.315zm-6.629 0h-3.315V304.2h3.315zm-6.629 0h-3.315V304.2h3.31zm-6.629 0h-3.315V304.2h3.315zm-6.629 0h-3.315V304.2h3.315zm-6.629 0H634.2V304.2h3.315z" class="cls-2" data-name="패스 711" transform="translate(942.516 214.905)"/>
        <path id="패스_712" d="M575.945 131.389a7.845 7.845 0 1 1 7.845-7.845 7.875 7.875 0 0 1-7.845 7.845zm0-12.817a5.082 5.082 0 1 0 5.082 5.082 5.141 5.141 0 0 0-5.082-5.081z" class="cls-2" data-name="패스 712" transform="translate(935.583 195.135)"/>
        <path id="패스_713" d="M608.645 238.289a7.845 7.845 0 1 1 7.845-7.845 7.875 7.875 0 0 1-7.845 7.845zm0-12.927a5.082 5.082 0 1 0 5.082 5.082 5.141 5.141 0 0 0-5.082-5.082z" class="cls-2" data-name="패스 713" transform="translate(939.013 206.347)"/>
        <path id="패스_714" d="M78.8 278.417l-2.1-2.541 2.541-2.1 2.1 2.541zm5.193-4.2l-2.1-2.541 2.541-2.1 2.1 2.541zm5.082-4.2l-2.1-2.541 2.541-2.1 2.1 2.541zm5.193-4.2l-2.1-2.541 2.541-2.1 2.1 2.541zm5.193-4.2l-2.1-2.541 2.541-2.1 2.1 2.541zm5.082-4.088l-2.1-2.541 2.541-2.1 2.1 2.541zm5.193-4.2l-2.1-2.541 2.541-2.1 2.1 2.541zm5.082-4.2l-2.1-2.541 2.541-2.1 2.1 2.541zm5.193-4.2l-2.1-2.541 2.541-2.1 2.1 2.541zm5.082-4.2l-2.1-2.541 2.541-2.1 2.1 2.541z" class="cls-2" data-name="패스 714" transform="translate(884.044 207.763)"/>
        <path id="패스_715" d="M52.8 279.021l-2.1-2.541 2.541-2.1 2.1 2.541zm5.082-4.2l-2.1-2.541 2.541-2.1 2.1 2.541zm5.193-4.2l-2.1-2.541 2.541-2.1 2.1 2.541zm5.193-4.2l-2.1-2.541 2.541-2.1 2.1 2.541zm5.082-4.088l-2.1-2.541 2.541-2.1 2.1 2.541zm5.193-4.2l-2.1-2.541 2.541-2.1 2.1 2.541zm5.082-4.2l-2.1-2.541 2.541-2.1 2.1 2.541z" class="cls-2" data-name="패스 715" transform="translate(881.318 209.147)"/>
        <path id="패스_716" d="M653.768 261.737a15.468 15.468 0 1 1 15.468-15.468 15.514 15.514 0 0 1-15.468 15.468zm0-27.622a12.154 12.154 0 1 0 12.154 12.154 12.119 12.119 0 0 0-12.154-12.154z" class="cls-2" data-name="패스 716" transform="translate(942.946 207.207)"/>
        <path id="사각형_381" d="M0 0h3.315v20.882H0z" class="cls-2" data-name="사각형 381" transform="translate(1595.057 426.958)"/>
        <path id="사각형_382" d="M0 0h3.315v20.882H0z" class="cls-2" data-name="사각형 382" transform="translate(1595.057 459.11)"/>
        <path id="사각형_383" d="M0 0h20.882v3.315H0z" class="cls-2" data-name="사각형 383" transform="translate(1570.197 451.818)"/>
        <path id="사각형_384" d="M0 0h20.882v3.315H0z" class="cls-2" data-name="사각형 384" transform="translate(1602.349 451.818)"/>
        <path id="사각형_385" d="M0 0h3.315v71.707H0z" class="cls-2" data-name="사각형 385" transform="translate(1072.116 349.948)"/>
        <path id="패스_717" d="M167.352 278.026h-35.246L119.4 265.32l2.32-2.32 11.712 11.712h33.92z" class="cls-2" data-name="패스 717" transform="translate(888.523 210.584)"/>
        <path id="사각형_386" d="M0 0h3.315v24.749H0z" class="cls-2" data-name="사각형 386" transform="rotate(-45 1055.144 -1055.124)"/>
        <path id="패스_718" d="M201.65 230.8a6.85 6.85 0 1 1 6.85-6.85 6.814 6.814 0 0 1-6.85 6.85zm0-10.5a3.56 3.56 0 0 0-3.536 3.536 3.536 3.536 0 0 0 7.071 0 3.56 3.56 0 0 0-3.535-3.536z" class="cls-1" data-name="패스 718" transform="translate(896.431 205.77)"/>
        <path id="패스_719" d="M200.971 136.241a9.171 9.171 0 1 1 9.171-9.171 9.148 9.148 0 0 1-9.171 9.171zm0-15.026a5.856 5.856 0 1 0 5.856 5.856 5.895 5.895 0 0 0-5.856-5.856z" class="cls-1" data-name="패스 719" transform="translate(896.116 195.366)"/>
        <path id="패스_720" d="M104.063 240.354l-.331-3.315a11.218 11.218 0 0 0 2.762-.663l1.326 3.094a14.332 14.332 0 0 1-3.757.884zm-3.757-.111a13.4 13.4 0 0 1-3.536-1.215l1.547-2.983a8.335 8.335 0 0 0 2.652.884zm10.717-2.762l-2.1-2.541a8.535 8.535 0 0 0 1.878-2.1l2.762 1.878a19.818 19.818 0 0 1-2.539 2.764zm-17.347-.663a15.411 15.411 0 0 1-2.32-2.983l2.873-1.657a8.2 8.2 0 0 0 1.771 2.21zm21.435-5.635l-3.2-.994a11.994 11.994 0 0 0 .442-2.762h3.315a10.685 10.685 0 0 1-.556 3.757zm-25.08-.883a11.8 11.8 0 0 1-.331-2.762v-.994l3.315.221v.773a13.537 13.537 0 0 0 .221 2.1zm22.208-4.2a10.507 10.507 0 0 0-.773-2.652l2.983-1.436a12.754 12.754 0 0 1 1.1 3.646zM93.678 224l-3.094-1.215a12.251 12.251 0 0 1 1.878-3.315l2.652 1.989A8.344 8.344 0 0 0 93.678 224zm16.242-2.983a8.652 8.652 0 0 0-2.21-1.768l1.768-2.873a10.192 10.192 0 0 1 2.873 2.431zm-12.82-1.435l-1.878-2.652a12.583 12.583 0 0 1 3.425-1.768l1.1 3.094a9.931 9.931 0 0 0-2.647 1.326zm8.066-1.436a11.8 11.8 0 0 0-2.762-.331l-.11-3.315a14.549 14.549 0 0 1 3.757.442z" class="cls-1" data-name="패스 720" transform="translate(885.408 205.497)"/>
        <path id="사각형_387" d="M0 0h3.315v34.472H0z" class="cls-2" data-name="사각형 387" transform="rotate(-45 1095.643 -962.698)"/>
        <path id="사각형_388" d="M0 0h3.315v38.45H0z" class="cls-1" data-name="사각형 388" transform="translate(1096.424 435.245)"/>
        <path id="패스_721" d="M46.515 326.555V316.39a10.275 10.275 0 0 1 20.551 0v10.165h3.314V316.39a13.59 13.59 0 0 0-27.18 0v10.165z" class="cls-2" data-name="패스 721" transform="translate(880.531 214.758)"/>
        <g id="그룹_74" data-name="그룹 74" transform="translate(1067.117 252.608)">
            <path id="패스_722" d="M227.142 89.828H207.7a1.666 1.666 0 0 0-1.547.994 16.943 16.943 0 0 1-15.358 9.723 17.332 17.332 0 0 1-12.927-5.856h11.822a2.317 2.317 0 0 0 1.215-.442l9.5-9.5a1.662 1.662 0 0 0 .442-1.215 2.317 2.317 0 0 0-.442-1.215l-9.5-9.5a1.662 1.662 0 0 0-1.215-.442h-11.826a16.95 16.95 0 0 1 12.927-5.856 17.135 17.135 0 0 1 15.358 9.723 1.733 1.733 0 0 0 1.547.994h31.489v-3.319H208.69a20.339 20.339 0 0 0-35.467-.663 1.505 1.505 0 0 0 0 1.657 1.724 1.724 0 0 0 1.436.884h14.363l7.845 7.845-7.845 7.845H174.66a1.724 1.724 0 0 0-1.436.884 1.505 1.505 0 0 0 0 1.657 20.339 20.339 0 0 0 35.467-.663h18.452z" class="cls-2" data-name="패스 722" transform="translate(-172.975 -62.979)"/>
            <path id="패스_723" d="M332.092 91.285h-14.364l-7.845-7.845 7.845-7.845h14.363a1.724 1.724 0 0 0 1.436-.884 1.505 1.505 0 0 0 0-1.657 20.339 20.339 0 0 0-35.467.663h-20.55v3.315h21.656a1.666 1.666 0 0 0 1.547-.994 16.943 16.943 0 0 1 15.358-9.723A17.333 17.333 0 0 1 329 72.171h-11.824a2.317 2.317 0 0 0-1.215.442l-9.5 9.5a1.6 1.6 0 0 0 0 2.32l9.5 9.5a1.662 1.662 0 0 0 1.215.442h11.712a16.95 16.95 0 0 1-12.927 5.856 17.135 17.135 0 0 1-15.361-9.719 1.733 1.733 0 0 0-1.547-.994H277.4v3.315h20.551a20.339 20.339 0 0 0 35.467.663 1.506 1.506 0 0 0 0-1.657c-.332-.554-.663-.554-1.326-.554z" class="cls-2" data-name="패스 723" transform="translate(-162.023 -63)"/>
        </g>
        <path id="패스_724" d="M235.147 112.006h3.425a8.55 8.55 0 0 0-2.1-4.088 9.081 9.081 0 0 0-6.74-2.541 5.856 5.856 0 0 1-4.309-1.547 7.192 7.192 0 0 1-1.657-4.42V82.174c8.066.773 8.95 7.624 8.95 7.955a1.665 1.665 0 0 0 3.315-.221V63.5a4.42 4.42 0 1 1 8.839 0 1.7 1.7 0 0 0 1.657 1.657h.111A1.7 1.7 0 0 0 248.3 63.5v-3.866a4.42 4.42 0 1 1 8.839 0v1.216a1.7 1.7 0 0 0 1.657 1.657h.111a1.7 1.7 0 0 0 1.657-1.657 4.506 4.506 0 0 1 4.42-4.42 4.433 4.433 0 0 1 4.42 4.42v5.635a1.7 1.7 0 0 0 1.657 1.657h.111a1.605 1.605 0 0 0 1.657-1.547 4.483 4.483 0 0 1 4.42-4.309 4.433 4.433 0 0 1 4.42 4.42v28.505c0 .11.111 1.547.111 10.5a23.066 23.066 0 0 1-1.547 6.187h3.536a23.076 23.076 0 0 0 1.215-5.856v-.221c0-9.281-.11-10.717-.11-10.717V66.816a7.757 7.757 0 0 0-7.734-7.734 7.565 7.565 0 0 0-4.641 1.547 7.845 7.845 0 0 0-7.734-7.4 7.939 7.939 0 0 0-5.745 2.541 7.753 7.753 0 0 0-6.74-3.867 7.854 7.854 0 0 0-7.513 5.635 7.69 7.69 0 0 0-12.6 5.966v19.333c-2.1-2.21-5.3-4.088-10.607-4.088a1.7 1.7 0 0 0-1.657 1.657V99.3a10.358 10.358 0 0 0 2.541 6.85 9.081 9.081 0 0 0 6.74 2.541 5.856 5.856 0 0 1 4.309 1.547 2.567 2.567 0 0 1 1.654 1.768z" class="cls-2" data-name="패스 724" transform="translate(899.063 188.443)"/>
        <path id="패스_725" d="M217.83 200.62a8.363 8.363 0 0 1-1.657.11 15.358 15.358 0 0 1 0-30.716 8.361 8.361 0 0 1 1.657.111v-3.315c-.552 0-1.1-.111-1.657-.111a18.673 18.673 0 1 0 0 37.345 8.361 8.361 0 0 0 1.657-.111z" class="cls-2" data-name="패스 725" transform="translate(896.714 200.484)"/>
        <path id="패스_726" d="M217 190.952a8.528 8.528 0 0 1-1.657.221 6.629 6.629 0 0 1 0-13.259 8.528 8.528 0 0 1 1.657.221v-3.425a8.361 8.361 0 0 0-1.657-.111 9.944 9.944 0 0 0 0 19.888c.552 0 1.1-.11 1.657-.11z" class="cls-2" data-name="패스 726" transform="translate(897.543 201.312)"/>
        <path id="패스_727" d="M606.277 137.4L562.3 174.082l-26.4-23.313-26.3 22.54v8.95l26.186-22.65 26.407 23.2 48.283-40.328z" class="cls-1" data-name="패스 727" transform="translate(929.448 197.411)"/>
        <circle id="타원_62" cx="5.635" cy="5.635" r="5.635" class="cls-1" data-name="타원 62" transform="translate(1362.479 288.185)"/>
        <path id="사각형_389" d="M0 0h9.391v9.391H0z" class="cls-1" data-name="사각형 389" transform="translate(1525.56 398.673)"/>
        <path id="사각형_390" d="M0 0h10.938v10.938H0z" class="cls-1" data-name="사각형 390" transform="translate(1546.111 498.223)"/>
        <circle id="타원_63" cx="8.839" cy="8.839" r="8.839" class="cls-2" data-name="타원 63" transform="translate(1456.836 458.337)"/>
        <path id="사각형_391" d="M0 0h64.415v3.867H0z" class="cls-1" data-name="사각형 391" transform="translate(975.108 346.081)"/>
        <path id="사각형_392" d="M0 0h64.415v3.867H0z" class="cls-1" data-name="사각형 392" transform="translate(975.108 358.455)"/>
        <path id="사각형_393" d="M0 0h54.471v3.867H0z" class="cls-1" data-name="사각형 393" transform="translate(975.108 371.714)"/>
        <g id="그룹_76" data-name="그룹 76" transform="translate(1050.903 294.041)">
            <g id="그룹_75" data-name="그룹 75">
                <path id="패스_728" d="M160.952 106.024c3.536 0 3.536-5.524 0-5.524s-3.536 5.524 0 5.524z" class="cls-2" data-name="패스 728" transform="translate(-158.3 -100.5)"/>
            </g>
        </g>
        <path id="패스_729" d="M523.292 339.661H231.824a5.471 5.471 0 0 1-5.524-5.524V154.924a5.471 5.471 0 0 1 5.524-5.524h291.468a5.471 5.471 0 0 1 5.524 5.524v179.1a5.637 5.637 0 0 1-5.524 5.637z" class="cls-7" data-name="패스 729" transform="translate(899.735 198.669)"/>
        <path id="패스_730" d="M528.014 349.769H228.149a11.081 11.081 0 0 1-11.049-11.048V150.449a11.081 11.081 0 0 1 11.049-11.049h299.865a11.081 11.081 0 0 1 11.049 11.049v188.272a11.081 11.081 0 0 1-11.049 11.048z" class="cls-8" data-name="패스 730" transform="translate(898.77 197.621)"/>
        <path id="패스_731" d="M380.406 330.8l8.729 41.212h-48.947l8.729-41.212H345.6l-9.5 44.748h57.233l-9.5-44.748z" class="cls-2" data-name="패스 731" transform="translate(911.251 217.695)"/>
    </g>
</svg>
