<?xml version="1.0" encoding="UTF-8" standalone="no"?>
<!-- Generator: Adobe Illustrator 23.0.1, SVG Export Plug-In . SVG Version: 6.00 Build 0)  -->

<svg
   xmlns:dc="http://purl.org/dc/elements/1.1/"
   xmlns:cc="http://creativecommons.org/ns#"
   xmlns:rdf="http://www.w3.org/1999/02/22-rdf-syntax-ns#"
   xmlns:svg="http://www.w3.org/2000/svg"
   xmlns="http://www.w3.org/2000/svg"
   xmlns:sodipodi="http://sodipodi.sourceforge.net/DTD/sodipodi-0.dtd"
   xmlns:inkscape="http://www.inkscape.org/namespaces/inkscape"
   version="1.1"
   id="레이어_1"
   x="0px"
   y="0px"
   viewBox="0 0 46 50"
   xml:space="preserve"
   sodipodi:docname="scvlogo.svg"
   width="46"
   height="50"
   inkscape:version="0.92.4 5da689c313, 2019-01-14"><metadata
   id="metadata3945"><rdf:RDF><cc:Work
       rdf:about=""><dc:format>image/svg+xml</dc:format><dc:type
         rdf:resource="http://purl.org/dc/dcmitype/StillImage" /><dc:title></dc:title></cc:Work></rdf:RDF></metadata><defs
   id="defs3943" /><sodipodi:namedview
   pagecolor="#ffffff"
   bordercolor="#666666"
   borderopacity="1"
   objecttolerance="10"
   gridtolerance="10"
   guidetolerance="10"
   inkscape:pageopacity="0"
   inkscape:pageshadow="2"
   inkscape:window-width="2560"
   inkscape:window-height="1386"
   id="namedview3941"
   showgrid="false"
   inkscape:snap-to-guides="false"
   inkscape:zoom="5.1602947"
   inkscape:cx="19.221412"
   inkscape:cy="69.921291"
   inkscape:window-x="1080"
   inkscape:window-y="26"
   inkscape:window-maximized="1"
   inkscape:current-layer="레이어_1" />
<style
   type="text/css"
   id="style3849">
	.st0{fill:url(#SVGID_1_);}
	.st1{fill:url(#SVGID_2_);}
	.st2{fill:url(#SVGID_3_);}
	.st3{fill:url(#SVGID_4_);}
	.st4{fill:#FFFFFF;}
	.st5{opacity:0.4;enable-background:new    ;}
	.st6{opacity:0.5;}
	.st7{fill:url(#SVGID_5_);}
	.st8{fill:url(#SVGID_6_);}
	.st9{fill:url(#SVGID_7_);}
	.st10{fill:#909090;}
</style>
<g
   id="g3879"
   transform="translate(-0.19378734,-13.516671)">
	
		<linearGradient
   id="SVGID_1_"
   gradientUnits="userSpaceOnUse"
   x1="-0.51300001"
   y1="43.069698"
   x2="50.9207"
   y2="43.069698"
   gradientTransform="matrix(1,0,0,-1,0,82)">
		<stop
   offset="0"
   style="stop-color:#F8C25E"
   id="stop3851" />
		<stop
   offset="1"
   style="stop-color:#E34554"
   id="stop3853" />
	</linearGradient>
	<path
   class="st0"
   d="m 46.2,63.5 c -1.9,0 -6.4,-3.7 -2.7,-9.7 3.4,-5.4 1.8,-9.5 1.5,-10.2 0,0 0,-0.1 0,-0.1 0,0 0,0 0,0 v 0 c -1,-2.1 -1.5,-4.2 -1.7,-5.3 -0.1,-0.5 -0.1,-0.9 -0.1,-0.9 0,0 0,0 0,0 0,0 0,0 0,0 0,0 -0.1,0.2 -0.2,0.6 -0.7,2.1 -0.3,4 0,5.1 0,0.1 0.9,2.8 -1.8,4.5 -0.9,0.5 -2.1,0.6 -3.2,0.3 -2.4,-0.7 -2.9,-3.4 -3,-3.4 -0.2,-1.5 0.4,-2.9 1.5,-3.8 v 0 c 0,0 0.1,-0.1 0.1,-0.1 4.2,-3.3 3.1,-10.8 3.1,-10.8 0,0 0,0 0,0.1 v -0.1 c -2.3,7.4 -8.2,9.2 -8.2,9.2 1,-6 -3.2,-10.3 -3.2,-10.3 -0.6,-0.8 -1.4,-1.6 -2.4,-2.2 -6.6,-4.2 -2.1,-12 -2.1,-12 0,0 -12,7.8 -5.5,15.5 v 0 c 0.9,0.8 1.4,2 1.4,3.3 0,2.6 -2.2,4.7 -4.9,4.7 -2.7,0 -4.9,-2.1 -4.9,-4.7 0,-1.2 0.5,-2.4 1.3,-3.2 0.3,-0.2 0.5,-0.5 0.8,-0.7 0,0 -8.2,4 -3.8,14 3,6.9 -1.6,13.9 -4.8,17.5 -0.7,0.8 -1.9,2.1 -2.9,2.7 h 3.6 v 0 c 5.5,0 11.6,0 14.5,0 h 1.6 3.3 v 0 h 4.2 v 0 h 14.6 v 0 c 0,0 3.9,0 3.9,0 z"
   id="path3856"
   style="fill:url(#SVGID_1_)"
   inkscape:connector-curvature="0" />
	
		<linearGradient
   id="SVGID_2_"
   gradientUnits="userSpaceOnUse"
   x1="-0.51300001"
   y1="62.098499"
   x2="50.9207"
   y2="62.098499"
   gradientTransform="matrix(1,0,0,-1,0,82)">
		<stop
   offset="0"
   style="stop-color:#F8C25E"
   id="stop3858" />
		<stop
   offset="1"
   style="stop-color:#E34554"
   id="stop3860" />
	</linearGradient>
	<path
   class="st1"
   d="m 28.3,24.4 c -2.2,-4.5 2,-9 2,-9 -7.4,3.9 -2,9 -2,9 z"
   id="path3863"
   style="fill:url(#SVGID_2_)"
   inkscape:connector-curvature="0" />
	
		<linearGradient
   id="SVGID_3_"
   gradientUnits="userSpaceOnUse"
   x1="-0.51300001"
   y1="35.7458"
   x2="50.9207"
   y2="35.7458"
   gradientTransform="matrix(1,0,0,-1,0,82)">
		<stop
   offset="0"
   style="stop-color:#F8C25E"
   id="stop3865" />
		<stop
   offset="1"
   style="stop-color:#E34554"
   id="stop3867" />
	</linearGradient>
	<path
   class="st2"
   d="m 1,39.4 c 0,0 3.8,5.4 4.8,13.7 -0.1,0 2.9,-8.2 -4.8,-13.7 z"
   id="path3870"
   style="fill:url(#SVGID_3_)"
   inkscape:connector-curvature="0" />
	
		<linearGradient
   id="SVGID_4_"
   gradientUnits="userSpaceOnUse"
   x1="-0.51300001"
   y1="54.891201"
   x2="50.9207"
   y2="54.891201"
   gradientTransform="matrix(1,0,0,-1,0,82)">
		<stop
   offset="0"
   style="stop-color:#F8C25E"
   id="stop3872" />
		<stop
   offset="1"
   style="stop-color:#E34554"
   id="stop3874" />
	</linearGradient>
	<path
   class="st3"
   d="m 33.8,32.7 c 0.2,-0.2 2.1,-1.9 1.8,-3.3 0,0 1,1.9 -1.9,4.9 0,0 5.4,-2.7 2.5,-7.4 0,0 -1.3,-1.9 -2.5,-2.5 -1.2,-0.6 -1.8,-2.4 -1.6,-4.4 0,0 -1.7,3.3 0.7,7.5 2.2,3.8 1.1,5 1,5.2 z"
   id="path3877"
   style="fill:url(#SVGID_4_)"
   inkscape:connector-curvature="0" />
</g>
<path
   class="st4"
   d="M 23.306212,23.683329"
   id="path3881"
   inkscape:connector-curvature="0"
   style="fill:#ffffff" />
<path
   class="st4"
   d="M 23.306212,23.683329"
   id="path3883"
   inkscape:connector-curvature="0"
   style="fill:#ffffff" />
<polygon
   class="st4"
   points="41.5,63.5 37.9,57.2 6.4,63.5 "
   id="polygon3885"
   transform="translate(-0.19378734,-13.516671)"
   style="fill:#ffffff" />
<polygon
   class="st4"
   points="13.1,52 8.3,60.3 36.4,54.6 32.6,48 "
   id="polygon3887"
   transform="translate(-0.19378734,-13.516671)"
   style="fill:#ffffff" />
<g
   id="g3893"
   transform="translate(-0.19378734,-13.516671)">
	<polygon
   class="st4"
   points="20.2,39.6 27,38.3 24,33.1 "
   id="polygon3889"
   style="fill:#ffffff" />
	<polygon
   class="st4"
   points="18.5,42.6 15,48.7 31.1,45.5 28.3,40.6 "
   id="polygon3891"
   style="fill:#ffffff" />
</g>
<polygon
   class="st5"
   points="8.3,60.3 12.7,62.3 37.9,57.2 33.1,55.3 "
   id="polygon3895"
   transform="translate(-0.19378734,-13.516671)"
   style="opacity:0.4;enable-background:new" />
<polygon
   class="st5"
   points="32.6,48 29.2,45.9 15,48.7 18.2,50.9 "
   id="polygon3897"
   transform="translate(-0.19378734,-13.516671)"
   style="opacity:0.4;enable-background:new" />
<polygon
   class="st5"
   points="28.3,40.6 26.1,38.5 20.2,39.6 22.2,41.9 "
   id="polygon3899"
   transform="translate(-0.19378734,-13.516671)"
   style="opacity:0.4;enable-background:new" />
<g
   class="st6"
   id="g3909"
   transform="translate(-0.19378734,-13.516671)"
   style="opacity:0.5">
	<polygon
   class="st5"
   points="34.2,57.9 29,59 29.9,63.5 36.6,63.5 "
   id="polygon3901"
   style="opacity:0.4;enable-background:new" />
	<polygon
   class="st5"
   points="30.3,48.5 27.1,49.1 28.5,56.2 33.1,55.3 "
   id="polygon3903"
   style="opacity:0.4;enable-background:new" />
	<polygon
   class="st5"
   points="26.1,38.5 24,33.1 25,38.7 "
   id="polygon3905"
   style="opacity:0.4;enable-background:new" />
	<polygon
   class="st5"
   points="27.6,46.2 29.2,45.9 27.1,40.8 25.5,41.2 26.5,46.4 "
   id="polygon3907"
   style="opacity:0.4;enable-background:new" />
</g>




</svg>