<svg xmlns="http://www.w3.org/2000/svg" viewBox="0 0 278.1 252.6">
    <defs>
        <style>
            .cls-1{fill:#e36146}.cls-2{opacity:.5}.cls-3,.cls-4{fill:#ec867c}.cls-3{fill-rule:evenodd}.cls-5{fill:#fff}.cls-6{fill:#d65e45}
        </style>
    </defs>
    <g id="supericon1" transform="translate(-722 -2161)">
        <path id="패스_775" d="M203.1 250.1s-18.2-8.2-18.2-21.7h-69.1s1.4 21-11.5 22.5z" class="cls-1" data-name="패스 775" transform="translate(722 2161)"/>
        <g id="그룹_88" class="cls-2" data-name="그룹 88" transform="translate(722 2161)">
            <path id="패스_776" d="M215.3 60.8a34.55 34.55 0 1 0-61.5 0z" class="cls-3" data-name="패스 776"/>
        </g>
        <g id="그룹_89" data-name="그룹 89" transform="translate(722 2161)">
            <path id="패스_777" d="M230.8 94.4h46.4s4.9-33.6-22.5-33.6-23.9 33.6-23.9 33.6z" class="cls-4" data-name="패스 777"/>
        </g>
        <path id="패스_778" d="M65.4 96h-3v-3h3zm0-6h-3v-3h3zm0-6h-3v-3h3zm0-6h-3v-3h3zm0-6h-3v-3h3zm0-6h-3v-3h3zm0-6h-3v-3h3z" class="cls-1" data-name="패스 778" transform="translate(722 2161)"/>
        <path id="패스_779" d="M278.1 83.6a24.412 24.412 0 0 0-24.4-24.3H123.8a24.279 24.279 0 0 0-23.4 24.3v55.3h.7a19.483 19.483 0 0 1 2.5.2V85.3h.1v-1.7a21.1 21.1 0 0 1 21.1-21.1h116.6a24.121 24.121 0 0 0-12.2 21v142.8h-.1v1.7a21.1 21.1 0 0 1-42.2 0v-1.7H184l-.4.1h-66.7v3.3h66.7a24.428 24.428 0 0 0 12.3 19.6H187v-.1h-2.9l-.4.1h-72.9a16.135 16.135 0 0 1-9.6 3.3h106.4l.3-.1h.2a24.433 24.433 0 0 0 24.4-24.4V95.7H278zm-3.2 8.8h-42.3v-9.1a21.1 21.1 0 0 1 42.2.2v.2z" class="cls-5" data-name="패스 779" transform="translate(722 2161)"/>
        <path id="패스_780" d="M101.3 141.9a12.931 12.931 0 0 1 12.9 12.9v81.6a12.931 12.931 0 0 1-12.9 12.9H24.6a12.931 12.931 0 0 1-12.9-12.9v-81.6a12.931 12.931 0 0 1 12.9-12.9h76.7m0-3H24.6a15.876 15.876 0 0 0-15.9 15.9v81.6a15.876 15.876 0 0 0 15.9 15.9h76.7a15.876 15.876 0 0 0 15.9-15.9v-81.6a15.94 15.94 0 0 0-15.9-15.9z" class="cls-5" data-name="패스 780" transform="translate(722 2161)"/>
        <path id="패스_781" d="M154 3a20.9 20.9 0 0 1 0 41.8 21.109 21.109 0 0 1-19.6-13.5h-6.3v-7.9h-9.6v7.9h-6.3v-7.9h-9.6v7.9H86.2v15.1h-5.4l.1-15.1H70l-.2 23h-6.5v-23H52.6V18.2h81.3A20.848 20.848 0 0 1 154 3m0-3a24.011 24.011 0 0 0-22.3 15.2H49.6v19.2h10.6v23h12.5v-3l.2-20h4.9l-.1 12v3h11.4v-15h16.4v-7.9h3.6v7.9h12.3v-7.9h3.6v7.9h7.3a24.239 24.239 0 0 0 21.5 13.5A23.951 23.951 0 0 0 154 0z" class="cls-5" data-name="패스 781" transform="translate(722 2161)"/>
        <circle id="타원_71" cx="5.1" cy="5.1" r="5.1" class="cls-1" data-name="타원 71" transform="translate(871.1 2172.8)"/>
        <path id="패스_782" d="M154.2 11.8a5.1 5.1 0 1 1-5.1 5.1 5.121 5.121 0 0 1 5.1-5.1m0-3a8.1 8.1 0 1 0 8.1 8.1 8.066 8.066 0 0 0-8.1-8.1z" class="cls-5" data-name="패스 782" transform="translate(722 2161)"/>
        <path id="패스_783" d="M18 120.8l-3-.5C20.7 86.2 53 82 53.4 82l.3 3c-1.2.2-30.3 4-35.7 35.8z" class="cls-5" data-name="패스 783" transform="translate(722 2161)"/>
        <path id="패스_784" d="M38.6 63.9a7.2 7.2 0 1 1 7.2-7.2 7.17 7.17 0 0 1-7.2 7.2zm0-11.4a4.2 4.2 0 1 0 4.2 4.2 4.225 4.225 0 0 0-4.2-4.2z" class="cls-5" data-name="패스 784" transform="translate(722 2161)"/>
        <g id="그룹_90" data-name="그룹 90" transform="translate(722 2161)">
            <circle id="타원_72" cx="14.9" cy="14.9" r="14.9" class="cls-4" data-name="타원 72" transform="translate(196.2 8.8)"/>
        </g>
        <path id="패스_785" d="M11.3 86.2a13.234 13.234 0 0 1-3.3-.8l1.1-2.8a11.364 11.364 0 0 0 2.5.6zm3.4-.1l-.5-3a10.273 10.273 0 0 0 2.5-.7l1.2 2.7a9.179 9.179 0 0 1-3.2 1zm-9.6-2.3a13.629 13.629 0 0 1-2.4-2.4L5 79.6a10.218 10.218 0 0 0 1.8 1.8zm15.7-.4l-1.9-2.3a10.708 10.708 0 0 0 1.8-1.9l2.5 1.7a18.784 18.784 0 0 1-2.4 2.5zM1 78.5a17.826 17.826 0 0 1-.9-3.3l3-.4a7.172 7.172 0 0 0 .7 2.5zm23.7-.7l-2.8-1a7.418 7.418 0 0 0 .5-2.5l3 .2a11.377 11.377 0 0 1-.7 3.3zM3 73.6H0a19.7 19.7 0 0 1 .4-3.4l2.9.8a11.529 11.529 0 0 0-.3 2.6zm19.2-1.9a9.678 9.678 0 0 0-.8-2.4l2.7-1.3a12.129 12.129 0 0 1 1.1 3.2zm-17.8-3l-2.6-1.5a13.948 13.948 0 0 1 2.1-2.7L6 66.6a6.524 6.524 0 0 0-1.6 2.1zm15.5-1.6a11.2 11.2 0 0 0-2-1.7l1.6-2.5a13.771 13.771 0 0 1 2.6 2.2zm-11.8-2l-1.4-2.6a12.379 12.379 0 0 1 3.2-1.2l.7 2.9a8.146 8.146 0 0 0-2.5.9zm7.5-.7A7.457 7.457 0 0 0 13 64l.1-3a9.191 9.191 0 0 1 3.3.6z" class="cls-6" data-name="패스 785" transform="translate(722 2161)"/>
        <path id="패스_786" d="M99.8 167.4v8.4H28v-8.4h71.8m3-3H25v14.4h77.8v-14.4z" class="cls-5" data-name="패스 786" transform="translate(722 2161)"/>
        <path id="패스_787" d="M48.7 196.8H38.5a3.009 3.009 0 0 1-3-3 3.009 3.009 0 0 1 3-3h10.2a3.009 3.009 0 0 1 3 3 3.075 3.075 0 0 1-3 3z" class="cls-1" data-name="패스 787" transform="translate(722 2161)"/>
        <path id="패스_788" d="M69 196.8H58.8a3.009 3.009 0 0 1-3-3 3.009 3.009 0 0 1 3-3H69a3.009 3.009 0 0 1 3 3 3.075 3.075 0 0 1-3 3z" class="cls-1" data-name="패스 788" transform="translate(722 2161)"/>
        <path id="패스_789" d="M89.3 196.8H79.1a3.009 3.009 0 0 1-3-3 3.009 3.009 0 0 1 3-3h10.2a3.009 3.009 0 0 1 3 3 3.075 3.075 0 0 1-3 3z" class="cls-1" data-name="패스 789" transform="translate(722 2161)"/>
        <path id="패스_790" d="M48.7 207.3H38.5a3.009 3.009 0 0 1-3-3 3.009 3.009 0 0 1 3-3h10.2a3.009 3.009 0 0 1 3 3 3.075 3.075 0 0 1-3 3z" class="cls-1" data-name="패스 790" transform="translate(722 2161)"/>
        <path id="패스_791" d="M69 207.3H58.8a3.009 3.009 0 0 1-3-3 3.009 3.009 0 0 1 3-3H69a3.009 3.009 0 0 1 3 3 3.075 3.075 0 0 1-3 3z" class="cls-1" data-name="패스 791" transform="translate(722 2161)"/>
        <path id="패스_792" d="M89.3 207.3H79.1a3.009 3.009 0 0 1-3-3 3.009 3.009 0 0 1 3-3h10.2a3.009 3.009 0 0 1 3 3 3.075 3.075 0 0 1-3 3z" class="cls-1" data-name="패스 792" transform="translate(722 2161)"/>
        <path id="패스_793" d="M48.7 217.8H38.5a3.009 3.009 0 0 1-3-3 3.009 3.009 0 0 1 3-3h10.2a3.009 3.009 0 0 1 3 3 3.075 3.075 0 0 1-3 3z" class="cls-1" data-name="패스 793" transform="translate(722 2161)"/>
        <path id="패스_794" d="M69 217.8H58.8a3.009 3.009 0 0 1-3-3 3.009 3.009 0 0 1 3-3H69a3.009 3.009 0 0 1 3 3 3.075 3.075 0 0 1-3 3z" class="cls-1" data-name="패스 794" transform="translate(722 2161)"/>
        <path id="패스_795" d="M89.3 217.8H79.1a3.009 3.009 0 0 1-3-3 3.009 3.009 0 0 1 3-3h10.2a3.009 3.009 0 0 1 3 3 3.075 3.075 0 0 1-3 3z" class="cls-1" data-name="패스 795" transform="translate(722 2161)"/>
        <path id="패스_796" d="M48.7 228.4H38.5a3.009 3.009 0 0 1-3-3 3.009 3.009 0 0 1 3-3h10.2a3.009 3.009 0 0 1 3 3 3.148 3.148 0 0 1-3 3z" class="cls-1" data-name="패스 796" transform="translate(722 2161)"/>
        <path id="패스_797" d="M69 228.4H58.8a3.009 3.009 0 0 1-3-3 3.009 3.009 0 0 1 3-3H69a3.009 3.009 0 0 1 3 3 3.148 3.148 0 0 1-3 3z" class="cls-1" data-name="패스 797" transform="translate(722 2161)"/>
        <path id="패스_798" d="M89.3 228.4H79.1a3.009 3.009 0 0 1-3-3 3.009 3.009 0 0 1 3-3h10.2a3.009 3.009 0 0 1 3 3 3.148 3.148 0 0 1-3 3z" class="cls-1" data-name="패스 798" transform="translate(722 2161)"/>
        <circle id="타원_73" cx="36.9" cy="36.9" r="36.9" class="cls-1" data-name="타원 73" transform="translate(851.2 2247)"/>
        <path id="패스_799" d="M166.1 89a33.9 33.9 0 1 1-33.9 33.9A33.929 33.929 0 0 1 166.1 89m0-3a36.9 36.9 0 1 0 36.9 36.9A36.874 36.874 0 0 0 166.1 86z" class="cls-5" data-name="패스 799" transform="translate(722 2161)"/>
        <path id="패스_800" d="M201.9 124.6l-36.4-.2-25.6-25.6 2.1-2.1 24.8 24.7 35.1.2z" class="cls-5" data-name="패스 800" transform="translate(722 2161)"/>
        <path id="사각형_402" d="M0 0h38.9v3H0z" class="cls-5" data-name="사각형 402" transform="translate(897.3 2335)"/>
        <path id="사각형_403" d="M0 0h3.3v3H0z" class="cls-1" data-name="사각형 403" transform="translate(889.6 2335)"/>
        <path id="사각형_404" d="M0 0h3.3v3H0z" class="cls-1" data-name="사각형 404" transform="translate(889.6 2350)"/>
        <path id="사각형_405" d="M0 0h3.3v3H0z" class="cls-1" data-name="사각형 405" transform="translate(889.6 2365.8)"/>
        <path id="사각형_406" d="M0 0h38.9v3H0z" class="cls-5" data-name="사각형 406" transform="translate(897.3 2350.4)"/>
        <path id="사각형_407" d="M0 0h29.2v3H0z" class="cls-5" data-name="사각형 407" transform="translate(897.3 2365.8)"/>
        <g id="그룹_91" data-name="그룹 91" transform="translate(722 2161)">
            <path id="패스_801" d="M142.7 97.7l22.5 23.2V88.8a31.888 31.888 0 0 0-22.5 8.9z" class="cls-4" data-name="패스 801"/>
        </g>
        <path id="패스_802" d="M167.6 121.5h32.5s-.5-28.8-32.5-32.7z" class="cls-5" data-name="패스 802" transform="translate(722 2161)"/>
        <path id="패스_803" d="M159.7 209.1h-36.4v-36.4h36.4zm-33.5-3h30.4v-30.4h-30.4v30.4z" class="cls-5" data-name="패스 803" transform="translate(722 2161)"/>
        <path id="패스_804" d="M84.1 90.7a6.3 6.3 0 1 1 6.3-6.3 6.4 6.4 0 0 1-6.3 6.3zm0-9.5a3.3 3.3 0 1 0 3.3 3.3 3.4 3.4 0 0 0-3.3-3.3z" class="cls-6" data-name="패스 804" transform="translate(722 2161)"/>
        <path id="패스_805" d="M43.3 138.9h3v-7.8h.1l-.1-3.1v-.4a17.6 17.6 0 0 1 35.2 0v.4l-.1 3.1h.1v7.8h3v-11.3a20.6 20.6 0 1 0-41.2 0v11.3z" class="cls-5" data-name="패스 805" transform="translate(722 2161)"/>
        <path id="패스_806" d="M30.4 138.9h3v-5.6h.1l-.1-3.1v-.8a30.5 30.5 0 0 1 61 0v.8l-.1 3.1h.1v5.6h3v-9.4a33.5 33.5 0 0 0-67 0v9.4z" class="cls-5" data-name="패스 806" transform="translate(722 2161)"/>
        <path id="사각형_408" d="M0 0h3v35.9H0z" class="cls-5" data-name="사각형 408" transform="translate(886.6 2248)"/>
    </g>
</svg>
