<?xml version="1.0" encoding="utf-8"?>
<!-- Generator: Adobe Illustrator 22.1.0, SVG Export Plug-In . SVG Version: 6.00 Build 0)  -->
<svg version="1.1" id="레이어_1" xmlns="http://www.w3.org/2000/svg" xmlns:xlink="http://www.w3.org/1999/xlink" x="0px"
	 y="0px" viewBox="0 0 300 300" style="enable-background:new 0 0 300 300;" xml:space="preserve">
<style type="text/css">
	.st0{display:none;fill:#333333;}
	.st1{fill:#EC867C;}
	.st2{opacity:0.5;}
	.st3{fill:#D65E45;}
	.st4{fill:none;stroke:#FFFFFF;stroke-width:3;stroke-miterlimit:10;}
	.st5{stroke:#FFFFFF;stroke-width:2;stroke-miterlimit:10;}
	.st6{fill:#FFFFFF;}
	.st7{fill:#E36146;}
	.st8{fill:none;stroke:#FFFFFF;stroke-width:2;stroke-miterlimit:10;}
	.st9{fill:#D65E45;stroke:#FFFFFF;stroke-miterlimit:10;}
	.st10{fill:#202121;}
	.st11{fill:none;stroke:#E36146;stroke-width:3;stroke-miterlimit:10;}
</style>
<rect x="-67.5" y="-48.1" class="st0" width="432.2" height="408.3"/>
<g>
	<g id="그룹_152" transform="translate(1527.5 2161)">
		<circle id="타원_129" class="st1" cx="-1437.9" cy="-2118.7" r="16.3"/>
	</g>
	<g id="그룹_153" transform="translate(1527.5 2161)" class="st2">
		<circle id="타원_130" class="st1" cx="-1459" cy="-2089.4" r="36"/>
	</g>
	<path id="패스_963" class="st3" d="M241.4,81.1c-1.1-0.1-2.2-0.4-3.3-0.8l1.1-2.7c0.8,0.3,1.6,0.5,2.5,0.6L241.4,81.1z M244.8,81
		l-0.4-2.9c0.9-0.1,1.7-0.4,2.5-0.8l1.2,2.7C247,80.5,245.9,80.8,244.8,81z M235.2,78.6c-0.9-0.7-1.7-1.5-2.4-2.3l2.3-1.8
		c0.5,0.7,1.1,1.3,1.8,1.8L235.2,78.6z M250.8,78.2l-1.9-2.3c0.7-0.5,1.3-1.2,1.7-1.9l2.4,1.7C252.5,76.6,251.7,77.5,250.8,78.2z
		 M231.1,73.4c-0.4-1-0.7-2.1-0.9-3.3l2.9-0.3c0.1,0.9,0.3,1.7,0.7,2.5L231.1,73.4z M254.6,72.8l-2.8-1c0.3-0.8,0.4-1.6,0.5-2.5
		l3,0.2C255.2,70.6,255,71.7,254.6,72.8z M233.2,68.6h-3c0-1.1,0.2-2.2,0.4-3.3l2.8,0.8C233.3,66.9,233.2,67.7,233.2,68.6z
		 M252.2,66.7c-0.2-0.8-0.4-1.6-0.9-2.4l2.7-1.4c0.5,1,0.9,2.1,1.1,3.2L252.2,66.7z M234.5,63.7l-2.6-1.5c0.6-1,1.3-1.8,2.1-2.7
		l2.1,2.1C235.4,62.3,234.9,63,234.5,63.7z M249.9,62.1c-0.6-0.6-1.2-1.2-2-1.6l1.6-2.5c0.9,0.6,1.8,1.3,2.6,2.1L249.9,62.1z
		 M238.2,60.1l-1.5-2.6c1-0.5,2.1-0.9,3.2-1.2l0.7,2.9C239.7,59.4,238.9,59.7,238.2,60.1L238.2,60.1z M245.6,59.4
		c-0.8-0.3-1.6-0.4-2.5-0.4l0.1-3c1.1,0,2.3,0.2,3.3,0.6L245.6,59.4z"/>
	<line id="선_50" class="st4" x1="152.9" y1="236.7" x2="15.9" y2="99.7"/>
	<rect id="사각형_564" x="48.5" y="75.7" class="st5" width="157.8" height="110.5"/>
	<rect id="사각형_565" x="48.5" y="82.5" class="st4" width="157.8" height="9.7"/>
	<rect id="사각형_566" x="54.2" y="86.6" class="st6" width="35.5" height="1.5"/>
	<rect id="사각형_567" x="192.6" y="86.6" class="st6" width="8.1" height="1.5"/>
	<rect id="사각형_568" x="181.7" y="86.6" class="st6" width="8.1" height="1.5"/>
	<rect id="사각형_569" x="170.8" y="86.6" class="st6" width="8.1" height="1.5"/>
	<rect id="사각형_570" x="159.9" y="86.6" class="st6" width="8.1" height="1.5"/>
	<circle id="타원_131" class="st6" cx="54.8" cy="79.2" r="1"/>
	<circle id="타원_132" class="st6" cx="58.3" cy="79.2" r="1"/>
	<circle id="타원_133" class="st6" cx="61.8" cy="79.2" r="1"/>
	<rect id="사각형_571" x="74.2" y="107.4" class="st5" width="157.8" height="110.5"/>
	<rect id="사각형_572" x="88.5" y="197.1" class="st1" width="12.5" height="14.2"/>
	<rect id="사각형_573" x="105.2" y="190.7" class="st7" width="12.5" height="20.6"/>
	<rect id="사각형_574" x="121.9" y="201.4" class="st1" width="12.5" height="9.9"/>
	<rect id="사각형_575" x="138.6" y="161.8" class="st7" width="12.5" height="49.5"/>
	<rect id="사각형_576" x="155.2" y="176.9" class="st1" width="12.5" height="34.4"/>
	<rect id="사각형_577" x="171.9" y="189.4" class="st7" width="12.5" height="21.8"/>
	<rect id="사각형_578" x="188.6" y="151" class="st1" width="12.5" height="60.3"/>
	<rect id="사각형_579" x="205.3" y="135" class="st7" width="12.5" height="76.3"/>
	<circle id="타원_134" class="st8" cx="108.5" cy="151.8" r="20"/>
	<path id="패스_964" class="st8" d="M88.5,151.8c0,4.3,1.4,8.5,4,12l15.9-12v-20C97.5,131.8,88.5,140.7,88.5,151.8
		C88.5,151.7,88.5,151.7,88.5,151.8z"/>
	<path id="패스_965" class="st7" d="M110.3,153.6l-13.9,10.3c6.5,6.6,17.2,6.8,23.8,0.2c2.9-2.8,4.6-6.5,5-10.5H110.3z"/>
	<g id="그룹_154" transform="translate(1527.5 2161)" class="st2">
		<path id="패스_966" class="st1" d="M-1416.6-2009.2h14.5c0-8.4-6.2-15.5-14.5-16.7V-2009.2z"/>
	</g>
	<rect id="사각형_580" x="74.2" y="114.2" class="st9" width="157.8" height="9.7"/>
	<rect id="사각형_581" x="79.9" y="118.3" class="st6" width="35.5" height="1.5"/>
	<rect id="사각형_582" x="218.3" y="118.3" class="st6" width="8.1" height="1.5"/>
	<rect id="사각형_583" x="207.4" y="118.3" class="st6" width="8.1" height="1.5"/>
	<rect id="사각형_584" x="196.5" y="118.3" class="st6" width="8.1" height="1.5"/>
	<rect id="사각형_585" x="185.6" y="118.3" class="st6" width="8.1" height="1.5"/>
	<circle id="타원_135" class="st6" cx="80.5" cy="110.9" r="1"/>
	<circle id="타원_136" class="st6" cx="84.1" cy="110.9" r="1"/>
	<circle id="타원_137" class="st6" cx="87.5" cy="110.9" r="1"/>
	<circle id="타원_138" class="st4" cx="163.4" cy="247.2" r="14.8"/>
	<circle id="타원_139" class="st4" cx="257.3" cy="153.2" r="5.6"/>
	<circle id="타원_140" class="st8" cx="268.1" cy="44.4" r="5.2"/>
	<circle id="타원_141" class="st4" cx="281.8" cy="177.8" r="3.5"/>
	<line id="선_51" class="st4" x1="173.8" y1="236.7" x2="254" y2="156.6"/>
	<line id="선_52" class="st4" x1="261.3" y1="157.1" x2="279.9" y2="175.7"/>
	<line id="선_53" class="st4" x1="284.1" y1="175.6" x2="296.9" y2="162.7"/>
	<path id="패스_967" class="st4" d="M286,73.4h12.1v11.9"/>
	<path id="패스_968" class="st4" d="M288.5,162.2h9v8.9"/>
	<circle id="타원_142" class="st7" cx="163.4" cy="247.2" r="8.4"/>
	<circle id="타원_143" class="st4" cx="10.6" cy="94.4" r="8.1"/>
	<circle id="타원_144" class="st6" cx="10.6" cy="94.4" r="3"/>
	<rect id="사각형_586" x="67.5" y="171.1" width="5.7" height="24.6"/>
	<rect id="사각형_587" x="196.6" y="100.4" class="st10" width="24.6" height="5.7"/>
	<line id="선_54" class="st4" x1="231.9" y1="139.5" x2="298.5" y2="73"/>
	<path id="패스_969" class="st11" d="M10,217.1l3.3,3.3l7.4-7.4"/>
	<path id="패스_970" class="st11" d="M10,228l3.3,3.3l7.4-7.4"/>
	<path id="패스_971" class="st11" d="M10,238.9l3.3,3.3l7.4-7.4"/>
	<line id="선_55" class="st4" x1="29.7" y1="216.8" x2="64.7" y2="216.8"/>
	<line id="선_56" class="st4" x1="29.7" y1="239.6" x2="75.8" y2="239.6"/>
	<line id="선_57" class="st4" x1="29.7" y1="228.2" x2="90" y2="228.2"/>
</g>
</svg>
