<svg xmlns="http://www.w3.org/2000/svg" viewBox="0 0 348.1 277">
    <defs>
        <style>
            .cls-1{fill:#ec867c}.cls-2{opacity:.5}.cls-3,.cls-9{fill:#d65e45}.cls-11,.cls-4,.cls-8{fill:none}.cls-4,.cls-5,.cls-8,.cls-9{stroke:#fff}.cls-11,.cls-4,.cls-5,.cls-8,.cls-9{stroke-miterlimit:10}.cls-11,.cls-4,.cls-5{stroke-width:3px}.cls-10,.cls-5{fill:#202121}.cls-6{fill:#fff}.cls-7{fill:#e36146}.cls-8{stroke-width:2px}.cls-11{stroke:#e36146}
        </style>
    </defs>
    <g id="supericon3" transform="translate(-1527.5 -2161)">
        <g id="그룹_152" data-name="그룹 152" transform="translate(1527.5 2161)">
            <circle id="타원_129" cx="19" cy="19" r="19" class="cls-1" data-name="타원 129" transform="translate(84.2)"/>
        </g>
        <g id="그룹_153" class="cls-2" data-name="그룹 153" transform="translate(1527.5 2161)">
            <circle id="타원_130" cx="42" cy="42" r="42" class="cls-1" data-name="타원 130" transform="translate(36.5 11.2)"/>
        </g>
        <path id="패스_963" d="M280.4 64.3a16.2 16.2 0 0 1-3.8-.9l1.3-3.2a9.474 9.474 0 0 0 2.9.7zm3.9-.1l-.5-3.4a9.78 9.78 0 0 0 2.9-.9l1.4 3.2a16.568 16.568 0 0 1-3.8 1.1zm-11.1-2.8a17.886 17.886 0 0 1-2.8-2.7l2.7-2.1a10.447 10.447 0 0 0 2.1 2.1zm18.2-.5l-2.2-2.7a8.331 8.331 0 0 0 2-2.2l2.8 2a12.015 12.015 0 0 1-2.6 2.9zm-23-5.6a16.369 16.369 0 0 1-1-3.8l3.4-.4a9.612 9.612 0 0 0 .8 2.9zm27.4-.7l-3.3-1.2a13.566 13.566 0 0 0 .6-2.9l3.5.2a18.03 18.03 0 0 1-.8 3.9zm-25-4.9h-3.5a17.374 17.374 0 0 1 .5-3.9l3.3.9a15.264 15.264 0 0 0-.3 3zm22.2-2.2a9.38 9.38 0 0 0-1-2.8l3.1-1.6a16.272 16.272 0 0 1 1.3 3.7zM272.3 44l-3-1.8a18.312 18.312 0 0 1 2.4-3.1l2.4 2.5a15.029 15.029 0 0 0-1.8 2.4zm18-1.8a10.589 10.589 0 0 0-2.3-1.9l1.9-2.9a18.1 18.1 0 0 1 3 2.5zm-13.7-2.4l-1.7-3a16.569 16.569 0 0 1 3.7-1.4l.8 3.4a13.315 13.315 0 0 0-2.8 1zm8.7-.8a9.818 9.818 0 0 0-2.9-.5l.1-3.5a13.364 13.364 0 0 1 3.9.7z" class="cls-3" data-name="패스 963" transform="translate(1527.5 2161)"/>
        <path id="선_50" d="M160 160L0 0" class="cls-4" data-name="선 50" transform="translate(1544.6 2247)"/>
        <path id="사각형_564" d="M0 0h184.2v129H0z" class="cls-5" data-name="사각형 564" transform="translate(1582.7 2219)"/>
        <path id="사각형_565" d="M0 0h184.2v11.3H0z" class="cls-4" data-name="사각형 565" transform="translate(1582.7 2227)"/>
        <path id="사각형_566" d="M0 0h41.4v1.8H0z" class="cls-6" data-name="사각형 566" transform="translate(1589.3 2231.8)"/>
        <path id="사각형_567" d="M0 0h9.5v1.8H0z" class="cls-6" data-name="사각형 567" transform="translate(1750.9 2231.8)"/>
        <path id="사각형_568" d="M0 0h9.5v1.8H0z" class="cls-6" data-name="사각형 568" transform="translate(1738.2 2231.8)"/>
        <path id="사각형_569" d="M0 0h9.5v1.8H0z" class="cls-6" data-name="사각형 569" transform="translate(1725.5 2231.8)"/>
        <path id="사각형_570" d="M0 0h9.5v1.8H0z" class="cls-6" data-name="사각형 570" transform="translate(1712.7 2231.8)"/>
        <circle id="타원_131" cx="1.2" cy="1.2" r="1.2" class="cls-6" data-name="타원 131" transform="translate(1588.8 2221.9)"/>
        <circle id="타원_132" cx="1.2" cy="1.2" r="1.2" class="cls-6" data-name="타원 132" transform="translate(1592.9 2221.9)"/>
        <circle id="타원_133" cx="1.2" cy="1.2" r="1.2" class="cls-6" data-name="타원 133" transform="translate(1597 2221.9)"/>
        <path id="사각형_571" d="M0 0h184.2v129H0z" class="cls-5" data-name="사각형 571" transform="translate(1612.7 2256)"/>
        <path id="사각형_572" d="M0 0h14.6v16.6H0z" class="cls-1" data-name="사각형 572" transform="translate(1629.4 2360.7)"/>
        <path id="사각형_573" d="M0 0h14.6v24H0z" class="cls-7" data-name="사각형 573" transform="translate(1648.9 2353.3)"/>
        <path id="사각형_574" d="M0 0h14.6v11.5H0z" class="cls-1" data-name="사각형 574" transform="translate(1668.4 2365.8)"/>
        <path id="사각형_575" d="M0 0h14.6v57.8H0z" class="cls-7" data-name="사각형 575" transform="translate(1687.9 2319.5)"/>
        <path id="사각형_576" d="M0 0h14.6v40.1H0z" class="cls-1" data-name="사각형 576" transform="translate(1707.3 2337.2)"/>
        <path id="사각형_577" d="M0 0h14.6v25.5H0z" class="cls-7" data-name="사각형 577" transform="translate(1726.8 2351.8)"/>
        <path id="사각형_578" d="M0 0h14.6v70.4H0z" class="cls-1" data-name="사각형 578" transform="translate(1746.3 2306.9)"/>
        <path id="사각형_579" d="M0 0h14.6v89.1H0z" class="cls-7" data-name="사각형 579" transform="translate(1765.8 2288.2)"/>
        <circle id="타원_134" cx="23.3" cy="23.3" r="23.3" class="cls-8" data-name="타원 134" transform="translate(1629.4 2284.5)"/>
        <path id="패스_964" d="M101.9 146.8a23.345 23.345 0 0 0 4.7 14l18.6-14v-23.3a23.259 23.259 0 0 0-23.3 23.3z" class="cls-8" data-name="패스 964" transform="translate(1527.5 2161)"/>
        <path id="패스_965" d="M127.4 149l-16.2 12a19.643 19.643 0 0 0 33.6-12z" class="cls-7" data-name="패스 965" transform="translate(1527.5 2161)"/>
        <g id="그룹_154" class="cls-2" data-name="그룹 154" transform="translate(1527.5 2161)">
            <path id="패스_966" d="M128.1 146.8H145a19.8 19.8 0 0 0-16.9-19.5z" class="cls-1" data-name="패스 966"/>
        </g>
        <path id="사각형_580" d="M0 0h184.2v11.3H0z" class="cls-9" data-name="사각형 580" transform="translate(1612.7 2264)"/>
        <path id="사각형_581" d="M0 0h41.4v1.8H0z" class="cls-6" data-name="사각형 581" transform="translate(1619.3 2268.8)"/>
        <path id="사각형_582" d="M0 0h9.5v1.8H0z" class="cls-6" data-name="사각형 582" transform="translate(1780.9 2268.8)"/>
        <path id="사각형_583" d="M0 0h9.5v1.8H0z" class="cls-6" data-name="사각형 583" transform="translate(1768.2 2268.8)"/>
        <path id="사각형_584" d="M0 0h9.5v1.8H0z" class="cls-6" data-name="사각형 584" transform="translate(1755.5 2268.8)"/>
        <path id="사각형_585" d="M0 0h9.5v1.8H0z" class="cls-6" data-name="사각형 585" transform="translate(1742.8 2268.8)"/>
        <circle id="타원_135" cx="1.2" cy="1.2" r="1.2" class="cls-6" data-name="타원 135" transform="translate(1618.9 2258.9)"/>
        <circle id="타원_136" cx="1.2" cy="1.2" r="1.2" class="cls-6" data-name="타원 136" transform="translate(1623 2258.9)"/>
        <circle id="타원_137" cx="1.2" cy="1.2" r="1.2" class="cls-6" data-name="타원 137" transform="translate(1627 2258.9)"/>
        <circle id="타원_138" cx="17.3" cy="17.3" r="17.3" class="cls-4" data-name="타원 138" transform="translate(1699.5 2401.9)"/>
        <circle id="타원_139" cx="6.5" cy="6.5" r="6.5" class="cls-4" data-name="타원 139" transform="translate(1820 2303)"/>
        <circle id="타원_140" cx="6.1" cy="6.1" r="6.1" class="cls-8" data-name="타원 140" transform="translate(1832.9 2176.4)"/>
        <circle id="타원_141" cx="4.1" cy="4.1" r="4.1" class="cls-4" data-name="타원 141" transform="translate(1851 2334.1)"/>
        <path id="선_51" d="M0 93.5L93.6 0" class="cls-4" data-name="선 51" transform="translate(1729 2313.5)"/>
        <path id="선_52" d="M0 0l21.7 21.7" class="cls-4" data-name="선 52" transform="translate(1831.1 2314.1)"/>
        <path id="선_53" d="M0 15L15 0" class="cls-4" data-name="선 53" transform="translate(1857.7 2320.6)"/>
        <path id="패스_967" d="M332.5 55.3h14.1v13.9" class="cls-4" data-name="패스 967" transform="translate(1527.5 2161)"/>
        <path id="패스_968" d="M335.4 159h10.5v10.4" class="cls-4" data-name="패스 968" transform="translate(1527.5 2161)"/>
        <circle id="타원_142" cx="9.8" cy="9.8" r="9.8" class="cls-7" data-name="타원 142" transform="translate(1707 2409.4)"/>
        <circle id="타원_143" cx="9.5" cy="9.5" r="9.5" class="cls-4" data-name="타원 143" transform="translate(1529 2231.3)"/>
        <circle id="타원_144" cx="3.5" cy="3.5" r="3.5" class="cls-6" data-name="타원 144" transform="translate(1535 2237.3)"/>
        <path id="사각형_586" d="M0 0h6.7v28.7H0z" class="cls-10" data-name="사각형 586" transform="translate(1604.5 2330.4)"/>
        <path id="사각형_587" d="M0 0h6.7v28.7H0z" class="cls-10" data-name="사각형 587" transform="rotate(-90 2005.086 249.471)"/>
        <path id="선_54" d="M0 77.6L77.7 0" class="cls-4" data-name="선 54" transform="translate(1796.8 2215.9)"/>
        <path id="패스_969" d="M10.2 223.1l3.9 3.9 8.6-8.6" class="cls-11" data-name="패스 969" transform="translate(1527.5 2161)"/>
        <path id="패스_970" d="M10.2 235.8l3.9 3.9 8.6-8.6" class="cls-11" data-name="패스 970" transform="translate(1527.5 2161)"/>
        <path id="패스_971" d="M10.2 248.5l3.9 3.9 8.6-8.6" class="cls-11" data-name="패스 971" transform="translate(1527.5 2161)"/>
        <path id="선_55" d="M0 0h40.9" class="cls-4" data-name="선 55" transform="translate(1560.7 2383.7)"/>
        <path id="선_56" d="M0 0h53.9" class="cls-4" data-name="선 56" transform="translate(1560.7 2410.3)"/>
        <path id="선_57" d="M0 0h70.5" class="cls-4" data-name="선 57" transform="translate(1560.7 2397)"/>
    </g>
</svg>
