<svg xmlns="http://www.w3.org/2000/svg" viewBox="0 0 286.725 292">
    <defs>
        <style>
            .cls-1{fill:#ec867c}.cls-2,.cls-7{fill:none;stroke-miterlimit:10}.cls-2{stroke:#e36146;stroke-width:3px;stroke-dasharray:3 3}.cls-3{opacity:.5}.cls-4{fill:#fff}.cls-5{fill:#d65e45}.cls-6{fill:#202121}.cls-7{stroke:#fff;stroke-width:2px}.cls-8{fill:#060000;opacity:.4}.cls-9{fill:#e36146}
        </style>
    </defs>
    <g id="supericon2" transform="translate(-1130.002 -2141)">
        <g id="그룹_156" data-name="그룹 156" transform="translate(1130.027 2141)">
            <circle id="타원_145" cx="11" cy="11" r="11" class="cls-1" data-name="타원 145" transform="translate(34.1 41.5)"/>
        </g>
        <path id="선_58" d="M0 0h123.9" class="cls-2" data-name="선 58" transform="translate(1216.627 2405.7)"/>
        <g id="그룹_157" class="cls-3" data-name="그룹 157" transform="translate(1130.027 2141)">
            <circle id="타원_146" cx="42" cy="42" r="42" class="cls-1" data-name="타원 146" transform="translate(30.1 42.6)"/>
        </g>
        <path id="패스_972" d="M69.4 182.8l-2.7-7.9a1.782 1.782 0 0 0-2.3-1.1l-7.3 2.5a25.4 25.4 0 0 0-5.9-6.7l3.2-6.6a1.794 1.794 0 0 0-.8-2.4l-7.5-3.7a1.794 1.794 0 0 0-2.4.8l-3.2 6.6a29.951 29.951 0 0 0-8.5-.6l-2.4-7a1.782 1.782 0 0 0-2.3-1.1l-7.9 2.7a1.782 1.782 0 0 0-1.1 2.3l2.4 6.9a27.93 27.93 0 0 0-6.8 6l-6.6-3.2a1.794 1.794 0 0 0-2.4.8L1 178.6a1.794 1.794 0 0 0 .8 2.4l6.6 3.2a25.833 25.833 0 0 0-.5 8.8l-6.7 2.3a1.782 1.782 0 0 0-1.1 2.3l2.7 7.9a1.782 1.782 0 0 0 2.3 1.1l6.7-2.3a27.466 27.466 0 0 0 5.7 6.5l-3.3 6.7a1.794 1.794 0 0 0 .8 2.4l7.5 3.7a1.794 1.794 0 0 0 2.4-.8l3.3-6.7a25.163 25.163 0 0 0 9.1.5l2.4 7.1a1.782 1.782 0 0 0 2.3 1.1l7.9-2.7a1.782 1.782 0 0 0 1.1-2.3l-2.5-7.2a29.061 29.061 0 0 0 6.4-5.7l6.7 3.3a1.794 1.794 0 0 0 2.4-.8l3.7-7.5a1.794 1.794 0 0 0-.8-2.4l-6.7-3.3a25.83 25.83 0 0 0 .6-8.8l7.4-2.5a1.6 1.6 0 0 0 1.2-2.1zm-34.6 17.8a10.4 10.4 0 1 1 10.4-10.4 10.392 10.392 0 0 1-10.4 10.4z" class="cls-4" data-name="패스 972" transform="translate(1130.027 2141)"/>
        <path id="패스_973" d="M48.2 132l-1.1-3.1a.608.608 0 0 0-.9-.4l-2.8 1a9.564 9.564 0 0 0-2.3-2.6l1.3-2.6a.63.63 0 0 0-.3-.9l-2.9-1.4a.63.63 0 0 0-.9.3l-1.3 2.6a12.223 12.223 0 0 0-3.3-.2l-.9-2.7a.608.608 0 0 0-.9-.4l-3.1 1.1a.608.608 0 0 0-.4.9l.9 2.7a11.777 11.777 0 0 0-2.7 2.3l-2.6-1.3a.63.63 0 0 0-.9.3l-1.4 2.9a.63.63 0 0 0 .3.9l2.6 1.3a9.758 9.758 0 0 0-.2 3.4l-2.6.9a.608.608 0 0 0-.4.9l1.1 3.1a.608.608 0 0 0 .9.4l2.6-.9a10.673 10.673 0 0 0 2.2 2.5l-1.3 2.6a.63.63 0 0 0 .3.9l2.9 1.4a.63.63 0 0 0 .9-.3l1.3-2.6a10.187 10.187 0 0 0 3.5.2l.9 2.8a.608.608 0 0 0 .9.4l3.1-1.1a.608.608 0 0 0 .4-.9l-1-2.8a8.81 8.81 0 0 0 2.5-2.2l2.6 1.3a.63.63 0 0 0 .9-.3l1.4-2.9a.63.63 0 0 0-.3-.9l-2.6-1.3a9.616 9.616 0 0 0 .2-3.4l2.9-1c.5-.2.7-.6.5-.9zm-13.4 6.9a4 4 0 1 1 4-4 4.012 4.012 0 0 1-4 4z" class="cls-5" data-name="패스 973" transform="translate(1130.027 2141)"/>
        <path id="선_59" d="M69.1 0L0 182.2" class="cls-2" data-name="선 59" transform="translate(1198.527 2195.6)"/>
        <path id="선_60" d="M0 0l69.1 182.2" class="cls-2" data-name="선 60" transform="translate(1289.527 2195.6)"/>
        <path id="패스_974" d="M234.2 197H64.6a3.372 3.372 0 0 1-3.4-3.4V76.2a3.372 3.372 0 0 1 3.4-3.4h169.6a3.372 3.372 0 0 1 3.4 3.4v117.4a3.372 3.372 0 0 1-3.4 3.4z" class="cls-6" data-name="패스 974" transform="translate(1130.027 2141)"/>
        <path id="패스_975" d="M62.4 194.2l-1.8 6.3v13.7s0 4.8 6 4.8h164.9s6.6 1.2 6.6-7.4v-17.7l-175.1.6" class="cls-6" data-name="패스 975" transform="translate(1130.027 2141)"/>
        <path id="패스_976" d="M233.7 197.4H65.5a5.8 5.8 0 0 1-5.8-5.8V76.5a5.8 5.8 0 0 1 5.8-5.8h168.3a5.8 5.8 0 0 1 5.8 5.8v115.1a5.957 5.957 0 0 1-5.9 5.8zM65.5 73.4a3.116 3.116 0 0 0-3.1 3.1v115.1a3.116 3.116 0 0 0 3.1 3.1h168.3a3.116 3.116 0 0 0 3.1-3.1V76.5a3.116 3.116 0 0 0-3.1-3.1z" class="cls-4" data-name="패스 976" transform="translate(1130.027 2141)"/>
        <path id="패스_977" d="M272.7 88a13.233 13.233 0 0 1-3.3-.8l1.1-2.8a11.364 11.364 0 0 0 2.5.6zm3.3-.1l-.5-3a10.272 10.272 0 0 0 2.5-.7l1.2 2.7a8.028 8.028 0 0 1-3.2 1zm-9.6-2.3a13.629 13.629 0 0 1-2.4-2.4l2.4-1.8a10.219 10.219 0 0 0 1.8 1.8zm15.8-.4l-1.9-2.3a10.707 10.707 0 0 0 1.8-1.9l2.5 1.7c-.8.9-1.6 1.7-2.4 2.5zm-19.9-4.9a17.825 17.825 0 0 1-.9-3.3l3-.4a7.172 7.172 0 0 0 .7 2.5zm23.7-.7l-2.8-1a7.419 7.419 0 0 0 .5-2.5l3 .2a12.131 12.131 0 0 1-.7 3.3zm-21.7-4.2h-3a19.707 19.707 0 0 1 .4-3.4l2.9.8a11.53 11.53 0 0 0-.3 2.6zm19.2-1.9a9.679 9.679 0 0 0-.8-2.4l2.7-1.3a12.13 12.13 0 0 1 1.1 3.2zm-17.8-3l-2.6-1.5a13.947 13.947 0 0 1 2.1-2.7l2.1 2.2a6.422 6.422 0 0 0-1.6 2zm15.5-1.6a11.2 11.2 0 0 0-2-1.7l1.6-2.5a13.771 13.771 0 0 1 2.6 2.2zm-11.8-2l-1.4-2.6a12.379 12.379 0 0 1 3.2-1.2l.7 2.9a8.146 8.146 0 0 0-2.5.9zm7.5-.8a7.457 7.457 0 0 0-2.6-.4l.1-3a9.191 9.191 0 0 1 3.3.6z" class="cls-5" data-name="패스 977" transform="translate(1130.027 2141)"/>
        <path id="패스_978" d="M253.1 103.4a6.3 6.3 0 1 1 6.3-6.3 6.338 6.338 0 0 1-6.3 6.3zm0-9.6a3.3 3.3 0 1 0 3.3 3.3 3.329 3.329 0 0 0-3.3-3.3z" class="cls-5" data-name="패스 978" transform="translate(1130.027 2141)"/>
        <path id="패스_979" d="M173.9 246.8h-48.7v-28.4h48.7zm-46.1-2.7h43.4V221h-43.4v23.1z" class="cls-4" data-name="패스 979" transform="translate(1130.027 2141)"/>
        <path id="패스_980" d="M185.5 247.5h-72.2a2.3 2.3 0 0 1 0-4.6h72.2a2.263 2.263 0 0 1 2.3 2.3 2.4 2.4 0 0 1-2.3 2.3z" class="cls-4" data-name="패스 980" transform="translate(1130.027 2141)"/>
        <path id="패스_981" d="M236.8 94.7v120a3.116 3.116 0 0 1-3.1 3.1H65.5a3.116 3.116 0 0 1-3.1-3.1V99.6a.749.749 0 0 1 .1-.5v-4.4a5.759 5.759 0 0 0-2.7 4.9v115.1a5.8 5.8 0 0 0 5.8 5.8h168.3a5.8 5.8 0 0 0 5.8-5.8V99.6a6.809 6.809 0 0 0-2.9-4.9z" class="cls-4" data-name="패스 981" transform="translate(1130.027 2141)"/>
        <circle id="타원_147" cx="28" cy="28" r="28" class="cls-7" data-name="타원 147" transform="translate(1251.227 2142)"/>
        <circle id="타원_148" cx="28" cy="28" r="28" class="cls-7" data-name="타원 148" transform="translate(1160.227 2376)"/>
        <circle id="타원_149" cx="28" cy="28" r="28" class="cls-7" data-name="타원 149" transform="translate(1341.227 2376)"/>
        <path id="패스_983" d="M265.3 117.5h-5.9l-2.1 7.4 5 6.9 5.1-6.9z" class="cls-7" data-name="패스 983" transform="translate(1130.027 2141)"/>
        <path id="사각형_588" d="M0 0h19.2v51.7H0z" class="cls-7" data-name="사각형 588" transform="translate(1382.827 2309.6)"/>
        <path id="사각형_589" d="M0 0h12.6v4.7H0z" class="cls-7" data-name="사각형 589" transform="translate(1386.127 2305)"/>
        <path id="선_61" d="M0 0v33.1" class="cls-7" data-name="선 61" transform="translate(1392.327 2271.9)"/>
        <path id="선_62" d="M0 0v36.5" class="cls-7" data-name="선 62" transform="translate(1389.427 2317.1)"/>
        <path id="선_63" d="M0 0v36.5" class="cls-7" data-name="선 63" transform="translate(1395.427 2317.1)"/>
        <path id="선_64" d="M0 0h50.6" class="cls-7" data-name="선 64" transform="translate(1310.627 2203.3)"/>
        <path id="패스_986" d="M143.9 212.2h11.3l-1.2-2.1z" class="cls-4" data-name="패스 986" transform="translate(1130.027 2141)"/>
        <path id="패스_987" d="M146.1 208.5l-1.6 2.6 9-1.8-1.2-2.1z" class="cls-4" data-name="패스 987" transform="translate(1130.027 2141)"/>
        <g id="그룹_158" data-name="그룹 158" transform="translate(1130.027 2141)">
            <path id="패스_988" d="M150.5 204.1l-1-1.7-1.2 2.1z" class="cls-4" data-name="패스 988"/>
            <path id="패스_989" d="M147.8 205.5l-1.1 1.9 5.1-1-.9-1.6z" class="cls-4" data-name="패스 989"/>
        </g>
        <g id="그룹_159" class="cls-3" data-name="그룹 159" transform="translate(1130.027 2141)">
            <path id="패스_990" d="M152.8 210.4l-1.6.3.2 1.5h2.2z" class="cls-8" data-name="패스 990"/>
            <path id="패스_991" d="M151.6 207.4l-1.1.2.5 2.2 1.5-.3z" class="cls-8" data-name="패스 991"/>
            <path id="패스_992" d="M149.5 202.4l.4 1.8h.3z" class="cls-8" data-name="패스 992"/>
            <path id="패스_993" d="M150.7 206.6l.5-.1-.7-1.6-.5.1.4 1.7z" class="cls-8" data-name="패스 993"/>
        </g>
        <path id="사각형_590" d="M0 0h3.7v37.5H0z" class="cls-6" data-name="사각형 590" transform="translate(1185.927 2314.6)"/>
        <path id="패스_994" d="M233.5 194.5H65.7a3.372 3.372 0 0 1-3.4-3.4V76.4a3.372 3.372 0 0 1 3.4-3.4h167.8a3.372 3.372 0 0 1 3.4 3.4v114.7a3.436 3.436 0 0 1-3.4 3.4z" class="cls-6" data-name="패스 994" transform="translate(1130.027 2141)"/>
        <path id="사각형_591" d="M0 0h59.5v4.5H0z" class="cls-9" data-name="사각형 591" transform="translate(1218.227 2235.6)"/>
        <path id="사각형_592" d="M0 0h70.5v4.5H0z" class="cls-9" data-name="사각형 592" transform="translate(1218.227 2246.5)"/>
        <path id="사각형_593" d="M0 0h132.8v4.5H0z" class="cls-9" data-name="사각형 593" transform="translate(1218.327 2286.9)"/>
        <path id="사각형_594" d="M0 0h4.5v4.5H0z" class="cls-9" data-name="사각형 594" transform="translate(1293.927 2246.4)"/>
        <path id="사각형_595" d="M0 0h4.5v4.5H0z" class="cls-9" data-name="사각형 595" transform="translate(1207.527 2235.6)"/>
        <path id="사각형_596" d="M0 0h4.5v4.5H0z" class="cls-9" data-name="사각형 596" transform="translate(1207.527 2246.5)"/>
        <path id="사각형_597" d="M0 0h4.5v4.5H0z" class="cls-9" data-name="사각형 597" transform="translate(1207.527 2257.4)"/>
        <path id="사각형_598" d="M0 0h4.5v4.5H0z" class="cls-9" data-name="사각형 598" transform="translate(1207.627 2268.1)"/>
        <path id="사각형_599" d="M0 0h4.5v4.5H0z" class="cls-9" data-name="사각형 599" transform="translate(1207.627 2286.9)"/>
        <path id="사각형_600" d="M0 0h4.5v4.5H0z" class="cls-9" data-name="사각형 600" transform="translate(1207.627 2298.8)"/>
        <path id="사각형_601" d="M0 0h4.5v4.5H0z" class="cls-9" data-name="사각형 601" transform="translate(1207.627 2309.7)"/>
        <path id="사각형_602" d="M0 0h4.5v4.5H0z" class="cls-9" data-name="사각형 602" transform="translate(1293.927 2257.2)"/>
        <path id="사각형_603" d="M0 0h4.5v4.5H0z" class="cls-9" data-name="사각형 603" transform="translate(1293.927 2268.1)"/>
        <path id="사각형_604" d="M0 0h35.2v4.5H0z" class="cls-9" data-name="사각형 604" transform="translate(1253.427 2268.3)"/>
        <path id="사각형_605" d="M0 0h48.2v4.5H0z" class="cls-9" data-name="사각형 605" transform="translate(1302.927 2268.3)"/>
        <path id="사각형_606" d="M0 0h22.3v4.5H0z" class="cls-9" data-name="사각형 606" transform="translate(1302.927 2257.4)"/>
        <path id="사각형_607" d="M0 0h33.4v4.5H0z" class="cls-9" data-name="사각형 607" transform="translate(1302.927 2246.5)"/>
        <path id="사각형_608" d="M0 0h94.1v4.5H0z" class="cls-9" data-name="사각형 608" transform="translate(1257.027 2298.8)"/>
        <path id="사각형_609" d="M0 0h59.6v4.5H0z" class="cls-9" data-name="사각형 609" transform="translate(1238.827 2309.7)"/>
        <g id="그룹_160" data-name="그룹 160" transform="translate(1130.027 2141)">
            <path id="패스_995" d="M136.7 19.9c1.2 1 2.2 2 3.2 2.9a1.457 1.457 0 0 0 2.3-.1l.9-.9a1.4 1.4 0 0 0 0-2.3c-.9-1-1.8-2.1-2.8-3.1a5.645 5.645 0 0 1 7.3 3.6 9.9 9.9 0 0 1 .2 3 1.431 1.431 0 0 0 .3 1.1c4.3 4.3 8.7 8.6 13 13a3.225 3.225 0 0 1 1.2 2.6 2.408 2.408 0 0 1-1.5 2.1 2.636 2.636 0 0 1-2.7-.2 6.469 6.469 0 0 1-.9-.8c-4.2-4.2-8.5-8.4-12.7-12.7a1.666 1.666 0 0 0-1.6-.5 5.513 5.513 0 0 1-5.3-2.1 6.12 6.12 0 0 1-.9-5.6zm23 18.1a1.367 1.367 0 0 0-1.4 1.4 1.506 1.506 0 0 0 1.4 1.4 1.524 1.524 0 0 0 1.4-1.5 1.236 1.236 0 0 0-1.4-1.3z" class="cls-4" data-name="패스 995"/>
            <path id="패스_996" d="M154.5 27.6c-1.3-1.3-2.5-2.5-3.7-3.8.1-.1.2-.3.4-.4l6.1-6.1a4.157 4.157 0 0 1 3-1.3c1.6 0 2.5 1.3 2 3.1a5.559 5.559 0 0 1-.9 1.7c-2.2 2.3-4.4 4.4-6.6 6.7-.1 0-.2.1-.3.1z" class="cls-4" data-name="패스 996"/>
            <path id="패스_997" d="M145 31.1l2.3 2.3c-.9.8-1.9 1.7-2.9 2.5a3.933 3.933 0 0 0-1.6 2.5 1.589 1.589 0 0 1-.8 1l-3.9 2.4c-.4.2-.6.3-.9-.1-1-1.1-.9-.6-.2-1.8s1.4-2.3 2.1-3.4a2 2 0 0 1 1-.8 4.6 4.6 0 0 0 2.6-1.7 16.3 16.3 0 0 1 2.3-2.9z" class="cls-4" data-name="패스 997"/>
        </g>
        <path id="패스_998" d="M72 259.4l-.9-.9c-3-3-6-6-9-9.1-.1.1-.2.1-.2.2-3.3 3.3-6.6 6.6-10 9.9a.592.592 0 0 0-.1.7c.4 1.3.8 2.7 1.2 4a1.638 1.638 0 0 1-.8 2 16.408 16.408 0 0 1-2.9 1.6c-2.6 1-3.8 3.1-4.3 5.6a2.147 2.147 0 0 0 1.8 2.8.1.1 0 0 1 .1.1h1a12.664 12.664 0 0 0 1.8-.6 7.254 7.254 0 0 0 3.9-3.8 16.65 16.65 0 0 1 1.2-2.3c.9-1.5 1.5-1.8 3.1-1.3a28.264 28.264 0 0 1 3.1 1.1.684.684 0 0 0 1-.2c2.6-2.6 5.2-5.3 7.9-7.9zm-23.8 15.3a1.347 1.347 0 0 1-1.4-1.3 1.26 1.26 0 0 1 1.3-1.3 1.347 1.347 0 0 1 1.4 1.3 1.261 1.261 0 0 1-1.3 1.3zm13.5-6.5l-8.3-8.3 1.8-1.8 8.3 8.3zm4.5-5.5a2.22 2.22 0 0 1-1.1.5c-.5.1-.7-.2-.6-.8.1-.5.2-.9.3-1.4.1-.7-.3-1-1-.9a2.92 2.92 0 0 1-.9.2c-.3 0-.8.1-.9-.1a1.389 1.389 0 0 1-.2-1.1c.1-.6.5-1.1.6-1.6.1-.4.4-.8 0-1.2-.4-.3-.8 0-1.2.2-.5.3-1.1.6-1.6.9-.5.2-1 .5-1.4 0a1.248 1.248 0 0 1 .2-1.6c1.2-1.2 2.5-2.4 3.7-3.6l7.2 7.2c-1 1-2 2.2-3.1 3.3z" class="cls-4" data-name="패스 998" transform="translate(1130.027 2141)"/>
        <g id="그룹_161" data-name="그룹 161" transform="translate(1130.027 2141)">
            <path id="패스_999" d="M242.6 276.5a.773.773 0 0 1-.3-1.3c0-.1.1-.1.1-.2 0-.2.1-.4 0-.5a.764.764 0 0 0-.5-.2c-2.3.3-4.6.7-7 1l-4.2.6a.688.688 0 0 1-.8-.5.657.657 0 0 1 .5-.8c.6-.1 1.1-.2 1.7-.3 1.6-.2 3.2-.5 4.8-.7s3.2-.5 4.7-.7a20.028 20.028 0 0 0 2.4-.4c.3 0 .6 0 .7.3a.608.608 0 0 1 0 .8.758.758 0 0 0-.2.4c0 .2-.1.4 0 .5a.758.758 0 0 0 .4.2c.9-.1 1.7-.2 2.6-.3 1.4-.2 2.8-.4 4.2-.5.2 0 .3-.1.5-.1.4 0 .7.2.7.6a.661.661 0 0 1-.6.7c-.9.1-1.7.2-2.6.3-1.4.2-2.9.4-4.3.5l-2.4.3c-.1 0-.2 0-.2.1 0 .2-.1.2-.2.2z" class="cls-4" data-name="패스 999"/>
            <path id="패스_1000" d="M226 275c0-.4.1-.8.1-1.2.6.5 1.1.9 1.7 1.4-.5.1-1 .3-1.4.4a.758.758 0 0 1-.4-.2v-.4z" class="cls-4" data-name="패스 1000"/>
            <path id="패스_1001" d="M238 255.5l5.7 4.8c-.5.6-.9 1.1-1.4 1.6L233 273a2.286 2.286 0 0 1-1 .7c-1 .3-2.1.5-3.1.8a.367.367 0 0 1-.3-.1l-1.8-1.5a.52.52 0 0 1-.2-.4c.1-1.1.2-2.2.2-3.4a1.389 1.389 0 0 1 .5-1l3.3-3.9c2.4-2.8 4.8-5.7 7.2-8.5.1 0 .1-.1.2-.2z" class="cls-4" data-name="패스 1001"/>
            <path id="패스_1002" d="M247.3 256.2c-1.9-1.6-3.8-3.2-5.8-4.9a8.635 8.635 0 0 1 1.3-1.4 2.1 2.1 0 0 1 2.6-.1 29.773 29.773 0 0 1 2.7 2.3 2 2 0 0 1 .2 2.7 8.468 8.468 0 0 1-1 1.4z" class="cls-4" data-name="패스 1002"/>
            <path id="패스_1003" d="M238.8 254.6c.7-.8 1.3-1.5 2-2.3l5.7 4.8c-.6.8-1.3 1.5-2 2.3-1.8-1.6-3.8-3.2-5.7-4.8z" class="cls-4" data-name="패스 1003"/>
        </g>
    </g>
</svg>
