<?xml version="1.0" encoding="utf-8"?>
<!-- Generator: Adobe Illustrator 22.1.0, SVG Export Plug-In . SVG Version: 6.00 Build 0)  -->
<svg version="1.1" id="레이어_1" xmlns="http://www.w3.org/2000/svg" xmlns:xlink="http://www.w3.org/1999/xlink" x="0px"
	 y="0px" viewBox="0 0 300 300" style="enable-background:new 0 0 300 300;" xml:space="preserve">
<style type="text/css">
	.st0{display:none;fill:#333333;}
	.st1{fill:#E36146;}
	.st2{opacity:0.5;}
	.st3{fill:#EC867C;}
	.st4{fill:#FFFFFF;}
	.st5{fill:#D65E45;}
</style>
<rect x="-67.5" y="-48.1" class="st0" width="432.2" height="408.3"/>
<g id="supericon1" transform="translate(-722 -2161)">
	<path id="패스_775" class="st1" d="M934.7,2435.2c0,0-18.2-8.2-18.2-21.7h-69.1c0,0,1.4,21-11.5,22.5L934.7,2435.2z"/>
	<g id="그룹_88" transform="translate(722 2161)" class="st2">
		<path id="패스_776" class="st3" d="M224.9,84.9c8.7-17,2-37.8-15-46.5s-37.8-2-46.5,15c-5.1,9.9-5.1,21.6,0,31.5H224.9z"/>
	</g>
	<g id="그룹_89" transform="translate(722 2161)">
		<path id="패스_777" class="st3" d="M240.4,118.5h46.4c0,0,4.9-33.6-22.5-33.6S240.4,118.5,240.4,118.5z"/>
	</g>
	<path id="패스_778" class="st1" d="M797,2281.1h-3v-3h3V2281.1z M797,2275.1h-3v-3h3V2275.1z M797,2269.1h-3v-3h3V2269.1z
		 M797,2263.1h-3v-3h3V2263.1z M797,2257.1h-3v-3h3V2257.1z M797,2251.1h-3v-3h3V2251.1z M797,2245.1h-3v-3h3V2245.1z"/>
	<path id="패스_779" class="st4" d="M1009.7,2268.7c-0.1-13.4-11-24.3-24.4-24.3H855.4c-13.1,0.5-23.4,11.2-23.4,24.3v55.3h0.7
		c0.8,0,1.7,0.1,2.5,0.2v-53.8h0.1v-1.7c0-11.7,9.4-21.1,21.1-21.1H973c-7.6,4.3-12.2,12.3-12.2,21v142.8h-0.1v1.7
		c0,11.7-9.5,21.1-21.1,21.1c-11.6,0-21.1-9.4-21.1-21.1v-1.7h-2.9l-0.4,0.1h-66.7v3.3h66.7c0.5,8.2,5.2,15.5,12.3,19.6h-8.9v-0.1
		h-2.9l-0.4,0.1h-72.9c-2.8,2.1-6.1,3.3-9.6,3.3h106.4l0.3-0.1h0.2c13.5,0,24.4-10.9,24.4-24.4v-1l0,0v-131.4h45.5L1009.7,2268.7z
		 M1006.5,2277.5h-42.3v-9.1c0.1-11.7,9.5-21.1,21.2-21c11.7,0.1,21.1,9.5,21,21.2l0,0v0.2L1006.5,2277.5z"/>
	<path id="패스_780" class="st4" d="M832.9,2327c7.1,0,12.9,5.8,12.9,12.9v81.6c0,7.1-5.8,12.9-12.9,12.9h-76.7
		c-7.1,0-12.9-5.8-12.9-12.9v-81.6c0-7.1,5.8-12.9,12.9-12.9H832.9 M832.9,2324h-76.7c-8.8,0-15.9,7.1-15.9,15.9c0,0,0,0,0,0v81.6
		c0,8.8,7.1,15.9,15.9,15.9c0,0,0,0,0,0h76.7c8.8,0,15.9-7.1,15.9-15.9c0,0,0,0,0,0v-81.6C848.8,2331.1,841.7,2324,832.9,2324z"/>
	<path id="패스_781" class="st4" d="M885.6,2188.1c11.5,0,20.9,9.4,20.9,20.9c0,11.5-9.4,20.9-20.9,20.9
		c-8.7,0-16.5-5.4-19.6-13.5h-6.3v-7.9h-9.6v7.9h-6.3v-7.9h-9.6v7.9h-16.4v15.1h-5.4l0.1-15.1h-10.9l-0.2,23h-6.5v-23h-10.7v-13.1
		h81.3C868,2194.3,876.2,2188,885.6,2188.1 M885.6,2185.1c-9.8,0-18.7,6-22.3,15.2h-82.1v19.2h10.6v23h12.5v-3l0.2-20h4.9l-0.1,12v3
		h11.4v-15h16.4v-7.9h3.6v7.9H853v-7.9h3.6v7.9h7.3c4,8.2,12.4,13.4,21.5,13.5c13.2-0.1,23.9-10.8,23.9-24
		C909.2,2195.8,898.7,2185.2,885.6,2185.1z"/>
	<circle id="타원_71" class="st1" cx="885.8" cy="2202" r="5.1"/>
	<path id="패스_782" class="st4" d="M885.8,2196.9c2.8,0,5.1,2.3,5.1,5.1s-2.3,5.1-5.1,5.1s-5.1-2.3-5.1-5.1
		C880.7,2199.1,883,2196.9,885.8,2196.9 M885.8,2193.9c-4.5,0-8.1,3.6-8.1,8.1c0,4.5,3.6,8.1,8.1,8.1s8.1-3.6,8.1-8.1
		C893.9,2197.5,890.3,2193.9,885.8,2193.9C885.8,2193.9,885.8,2193.9,885.8,2193.9z"/>
	<path id="패스_783" class="st4" d="M749.6,2305.9l-3-0.5c5.7-34.1,38-38.3,38.4-38.3l0.3,3C784.1,2270.3,755,2274.1,749.6,2305.9
		z"/>
	<path id="패스_784" class="st4" d="M770.2,2249c-4,0-7.2-3.2-7.2-7.2c0-4,3.2-7.2,7.2-7.2c4,0,7.2,3.2,7.2,7.2
		C777.4,2245.7,774.2,2248.9,770.2,2249C770.2,2249,770.2,2249,770.2,2249z M770.2,2237.6c-2.3,0-4.2,1.9-4.2,4.2s1.9,4.2,4.2,4.2
		c2.3,0,4.2-1.9,4.2-4.2C774.4,2239.4,772.5,2237.6,770.2,2237.6z"/>
	<g id="그룹_90" transform="translate(722 2161)">
		<circle id="타원_72" class="st3" cx="220.7" cy="47.8" r="14.9"/>
	</g>
	<path id="패스_785" class="st5" d="M742.9,2271.3c-1.1-0.1-2.2-0.4-3.3-0.8l1.1-2.8c0.8,0.3,1.6,0.5,2.5,0.6L742.9,2271.3z
		 M746.3,2271.2l-0.5-3c0.9-0.1,1.7-0.4,2.5-0.7l1.2,2.7C748.5,2270.7,747.4,2271,746.3,2271.2z M736.7,2268.9
		c-0.9-0.7-1.7-1.5-2.4-2.4l2.3-1.8c0.5,0.7,1.1,1.3,1.8,1.8L736.7,2268.9z M752.4,2268.5l-1.9-2.3c0.7-0.6,1.3-1.2,1.8-1.9l2.5,1.7
		C754.1,2266.9,753.3,2267.7,752.4,2268.5z M732.6,2263.6c-0.4-1.1-0.7-2.2-0.9-3.3l3-0.4c0.1,0.9,0.3,1.7,0.7,2.5L732.6,2263.6z
		 M756.3,2262.9l-2.8-1c0.3-0.8,0.5-1.6,0.5-2.5l3,0.2C756.9,2260.7,756.7,2261.8,756.3,2262.9z M734.6,2258.7h-3
		c0-1.1,0.2-2.3,0.4-3.4l2.9,0.8C734.7,2256.9,734.6,2257.8,734.6,2258.7z M753.8,2256.8c-0.2-0.8-0.4-1.6-0.8-2.4l2.7-1.3
		c0.5,1,0.9,2.1,1.1,3.2L753.8,2256.8z M736,2253.8l-2.6-1.5c0.6-1,1.3-1.9,2.1-2.7l2.1,2.1C736.9,2252.2,736.4,2253,736,2253.8z
		 M751.5,2252.2c-0.6-0.6-1.3-1.2-2-1.7l1.6-2.5c1,0.6,1.8,1.4,2.6,2.2L751.5,2252.2z M739.7,2250.2l-1.4-2.6c1-0.5,2.1-0.9,3.2-1.2
		l0.7,2.9C741.3,2249.4,740.5,2249.7,739.7,2250.2z M747.2,2249.5c-0.8-0.3-1.7-0.4-2.6-0.4l0.1-3c1.1,0,2.2,0.2,3.3,0.6
		L747.2,2249.5z"/>
	<path id="패스_786" class="st4" d="M831.4,2352.5v8.4h-71.8v-8.4H831.4 M834.4,2349.5h-77.8v14.4h77.8V2349.5z"/>
	<path id="패스_787" class="st1" d="M780.3,2381.9h-10.2c-1.7,0-3-1.3-3-3l0,0c0-1.7,1.3-3,3-3h10.2c1.7,0,3,1.3,3,3l0,0
		C783.3,2380.5,781.9,2381.8,780.3,2381.9z"/>
	<path id="패스_788" class="st1" d="M800.6,2381.9h-10.2c-1.7,0-3-1.3-3-3l0,0c0-1.7,1.3-3,3-3h10.2c1.7,0,3,1.3,3,3l0,0
		C803.6,2380.5,802.2,2381.8,800.6,2381.9z"/>
	<path id="패스_789" class="st1" d="M820.9,2381.9h-10.2c-1.7,0-3-1.3-3-3l0,0c0-1.7,1.3-3,3-3h10.2c1.7,0,3,1.3,3,3l0,0
		C823.9,2380.5,822.5,2381.8,820.9,2381.9z"/>
	<path id="패스_790" class="st1" d="M780.3,2392.4h-10.2c-1.7,0-3-1.3-3-3l0,0c0-1.7,1.3-3,3-3h10.2c1.7,0,3,1.3,3,3l0,0
		C783.3,2391,781.9,2392.3,780.3,2392.4z"/>
	<path id="패스_791" class="st1" d="M800.6,2392.4h-10.2c-1.7,0-3-1.3-3-3l0,0c0-1.7,1.3-3,3-3h10.2c1.7,0,3,1.3,3,3l0,0
		C803.6,2391,802.2,2392.3,800.6,2392.4z"/>
	<path id="패스_792" class="st1" d="M820.9,2392.4h-10.2c-1.7,0-3-1.3-3-3l0,0c0-1.7,1.3-3,3-3h10.2c1.7,0,3,1.3,3,3l0,0
		C823.9,2391,822.5,2392.3,820.9,2392.4z"/>
	<path id="패스_793" class="st1" d="M780.3,2402.9h-10.2c-1.7,0-3-1.3-3-3l0,0c0-1.7,1.3-3,3-3h10.2c1.7,0,3,1.3,3,3l0,0
		C783.3,2401.5,781.9,2402.8,780.3,2402.9z"/>
	<path id="패스_794" class="st1" d="M800.6,2402.9h-10.2c-1.7,0-3-1.3-3-3l0,0c0-1.7,1.3-3,3-3h10.2c1.7,0,3,1.3,3,3l0,0
		C803.6,2401.5,802.2,2402.8,800.6,2402.9z"/>
	<path id="패스_795" class="st1" d="M820.9,2402.9h-10.2c-1.7,0-3-1.3-3-3l0,0c0-1.7,1.3-3,3-3h10.2c1.7,0,3,1.3,3,3l0,0
		C823.9,2401.5,822.5,2402.8,820.9,2402.9z"/>
	<path id="패스_796" class="st1" d="M780.3,2413.5h-10.2c-1.7,0-3-1.3-3-3l0,0c0-1.7,1.3-3,3-3h10.2c1.7,0,3,1.3,3,3l0,0
		C783.2,2412.1,781.9,2413.4,780.3,2413.5z"/>
	<path id="패스_797" class="st1" d="M800.6,2413.5h-10.2c-1.7,0-3-1.3-3-3l0,0c0-1.7,1.3-3,3-3h10.2c1.7,0,3,1.3,3,3l0,0
		C803.5,2412.1,802.2,2413.4,800.6,2413.5z"/>
	<path id="패스_798" class="st1" d="M820.9,2413.5h-10.2c-1.7,0-3-1.3-3-3l0,0c0-1.7,1.3-3,3-3h10.2c1.7,0,3,1.3,3,3l0,0
		C823.8,2412.1,822.5,2413.4,820.9,2413.5z"/>
	<circle id="타원_73" class="st1" cx="897.7" cy="2308" r="36.9"/>
	<path id="패스_799" class="st4" d="M897.7,2274.1c18.7,0,33.9,15.2,33.9,33.9c0,18.7-15.2,33.9-33.9,33.9
		c-18.7,0-33.9-15.2-33.9-33.9l0,0C863.8,2289.2,879,2274.1,897.7,2274.1 M897.7,2271.1c-20.4,0-36.9,16.5-36.9,36.9
		c0,20.4,16.5,36.9,36.9,36.9c20.4,0,36.9-16.5,36.9-36.9l0,0C934.6,2287.6,918.1,2271.1,897.7,2271.1
		C897.7,2271.1,897.7,2271.1,897.7,2271.1z"/>
	<path id="패스_800" class="st4" d="M933.5,2309.7l-36.4-0.2l-25.6-25.6l2.1-2.1l24.8,24.7l35.1,0.2V2309.7z"/>
	<rect id="사각형_402" x="906.9" y="2359.1" class="st4" width="38.9" height="3"/>
	<rect id="사각형_403" x="899.2" y="2359.1" class="st1" width="3.3" height="3"/>
	<rect id="사각형_404" x="899.2" y="2374.1" class="st1" width="3.3" height="3"/>
	<rect id="사각형_405" x="899.2" y="2389.9" class="st1" width="3.3" height="3"/>
	<rect id="사각형_406" x="906.9" y="2374.5" class="st4" width="38.9" height="3"/>
	<rect id="사각형_407" x="906.9" y="2389.9" class="st4" width="29.2" height="3"/>
	<g id="그룹_91" transform="translate(722 2161)">
		<path id="패스_801" class="st3" d="M152.3,121.8l22.5,23.2v-32.1C166.4,112.8,158.3,115.9,152.3,121.8z"/>
	</g>
	<path id="패스_802" class="st4" d="M899.2,2306.6h32.5c0,0-0.5-28.8-32.5-32.7V2306.6z"/>
	<path id="패스_803" class="st4" d="M891.3,2394.2h-36.4v-36.4h36.4V2394.2z M857.8,2391.2h30.4v-30.4h-30.4V2391.2L857.8,2391.2z
		"/>
	<path id="패스_804" class="st5" d="M815.7,2275.8c-3.5,0-6.3-2.8-6.3-6.3c0-3.5,2.8-6.3,6.3-6.3c3.5,0,6.3,2.8,6.3,6.3
		C821.9,2272.9,819.2,2275.7,815.7,2275.8z M815.7,2266.3c-1.8,0-3.3,1.5-3.3,3.3s1.5,3.3,3.3,3.3c1.8,0,3.3-1.5,3.3-3.3
		C818.9,2267.8,817.5,2266.3,815.7,2266.3z"/>
	<path id="패스_805" class="st4" d="M774.9,2324h3v-7.8h0.1l-0.1-3.1v-0.4c0-9.7,7.9-17.6,17.6-17.6s17.6,7.9,17.6,17.6v0.4
		l-0.1,3.1h0.1v7.8h3v-10.8l0,0v-0.5c0-11.4-9.2-20.6-20.6-20.6c-11.4,0-20.6,9.2-20.6,20.6c0,0,0,0,0,0v0.5l0,0V2324L774.9,2324z"
		/>
	<path id="패스_806" class="st4" d="M762,2324h3v-5.6h0.1l-0.1-3.1v-0.8c0-16.8,13.7-30.5,30.5-30.5c16.8,0,30.5,13.7,30.5,30.5
		v0.8l-0.1,3.1h0.1v5.6h3v-8.6l0,0v-0.8c0-18.5-15-33.5-33.5-33.5c-18.5,0-33.5,15-33.5,33.5v0.8l0,0C762,2315.4,762,2324,762,2324z
		"/>
	<rect id="사각형_408" x="896.2" y="2272.1" class="st4" width="3" height="35.9"/>
</g>
</svg>
