<?xml version="1.0" encoding="utf-8"?>
<!-- Generator: Adobe Illustrator 22.1.0, SVG Export Plug-In . SVG Version: 6.00 Build 0)  -->
<svg version="1.1" id="레이어_1" xmlns="http://www.w3.org/2000/svg" xmlns:xlink="http://www.w3.org/1999/xlink" x="0px"
	 y="0px" viewBox="0 0 300 300" style="enable-background:new 0 0 300 300;" xml:space="preserve">
<style type="text/css">
	.st0{display:none;fill:#333333;}
	.st1{opacity:0.5;fill:#EC867C;}
	.st2{fill:#EC867C;}
	.st3{fill:none;stroke:#E36146;stroke-width:3;stroke-miterlimit:10;stroke-dasharray:3,3;}
	.st4{fill:#D65E45;}
	.st5{fill:#E36146;}
	.st6{fill:#FFFFFF;}
	.st7{fill:#202121;}
	.st8{fill:none;stroke:#FFFFFF;stroke-width:2;stroke-miterlimit:10;}
	.st9{opacity:0.5;}
	.st10{opacity:0.4;fill:#060000;enable-background:new    ;}
</style>
<rect x="-67.5" y="-48.1" class="st0" width="432.2" height="408.3"/>
<g>
	<path class="st1" d="M62.3,76.5h51c-5.2-17.3-21.2-29.9-40.2-29.9c-23.2,0-42,18.8-42,42c0,19.5,13.2,35.8,31.2,40.6V76.5z"/>
	<g id="그룹_156" transform="translate(1130.027 2141)">
		<circle id="타원_145" class="st2" cx="-1083.9" cy="-2084.5" r="11"/>
	</g>
	<line id="선_58" class="st3" x1="87.6" y1="268.7" x2="211.5" y2="268.7"/>
	<path id="패스_973" class="st4" d="M49.2,136l-1.1-3.1c-0.1-0.3-0.4-0.5-0.7-0.5c-0.1,0-0.1,0-0.2,0.1l-2.8,1
		c-0.6-1-1.4-1.9-2.3-2.6l1.3-2.6c0.2-0.3,0.1-0.7-0.2-0.9c0,0,0,0-0.1,0l-2.9-1.4c-0.3-0.2-0.7-0.1-0.9,0.2c0,0,0,0,0,0.1l-1.3,2.6
		c-1.1-0.2-2.2-0.3-3.3-0.2l-0.9-2.7c-0.1-0.3-0.4-0.5-0.7-0.5c-0.1,0-0.1,0-0.2,0.1l-3.1,1.1c-0.3,0.1-0.5,0.4-0.5,0.7
		c0,0.1,0,0.1,0.1,0.2l0.9,2.7c-1,0.6-1.9,1.4-2.7,2.3l-2.6-1.3c-0.3-0.2-0.7-0.1-0.9,0.2c0,0,0,0,0,0.1l-1.4,2.9
		c-0.2,0.3-0.1,0.7,0.2,0.9c0,0,0,0,0.1,0l2.6,1.3c-0.3,1.1-0.3,2.3-0.2,3.4l-2.6,0.9c-0.3,0.1-0.5,0.4-0.5,0.7c0,0.1,0,0.1,0.1,0.2
		l1.1,3.1c0.1,0.3,0.4,0.5,0.7,0.5c0.1,0,0.1,0,0.2-0.1l2.6-0.9c0.6,0.9,1.3,1.8,2.2,2.5l-1.3,2.6c-0.2,0.3-0.1,0.7,0.2,0.9
		c0,0,0,0,0.1,0l2.9,1.4c0.3,0.2,0.7,0.1,0.9-0.2c0,0,0,0,0-0.1l1.3-2.6c1.1,0.3,2.3,0.3,3.5,0.2l0.9,2.8c0.1,0.3,0.4,0.5,0.7,0.5
		c0.1,0,0.1,0,0.2-0.1l3.1-1.1c0.3-0.1,0.5-0.4,0.5-0.7c0-0.1,0-0.1-0.1-0.2l-1-2.8c1-0.6,1.8-1.3,2.5-2.2l2.6,1.3
		c0.3,0.2,0.7,0.1,0.9-0.2c0,0,0,0,0-0.1l1.4-2.9c0.2-0.3,0.1-0.7-0.2-0.9c0,0,0,0-0.1,0l-2.6-1.3c0.3-1.1,0.3-2.3,0.2-3.4l2.9-1
		C49.2,136.7,49.4,136.3,49.2,136z M35.8,142.9c-2.2,0-4-1.8-4-4s1.8-4,4-4s4,1.8,4,4C39.8,141.1,38,142.9,35.8,142.9z"/>
	<rect x="68.6" y="238" transform="matrix(0.3548 -0.9349 0.9349 0.3548 -178.697 219.9686)" class="st5" width="2.9" height="3"/>
	<rect x="70.6" y="232.4" transform="matrix(0.3548 -0.9349 0.9349 0.3548 -172.1548 218.3572)" class="st5" width="3" height="3"/>
	<rect x="72.8" y="226.8" transform="matrix(0.3548 -0.9349 0.9349 0.3548 -165.5375 216.7269)" class="st5" width="3" height="3"/>
	<rect x="132.3" y="69.7" transform="matrix(0.3545 -0.935 0.935 0.3545 19.7899 171.1144)" class="st5" width="3" height="3"/>
	<rect x="134.5" y="64.1" transform="matrix(0.3545 -0.935 0.935 0.3545 26.4092 169.4829)" class="st5" width="3" height="3"/>
	<rect x="136.6" y="58.5" transform="matrix(0.3545 -0.935 0.935 0.3545 33.0278 167.8512)" class="st5" width="3" height="3"/>
	<rect x="227.6" y="238" transform="matrix(0.9351 -0.3544 0.3544 0.9351 -70.0014 96.7573)" class="st5" width="3" height="2.9"/>
	<rect x="225.5" y="232.4" transform="matrix(0.9351 -0.3544 0.3544 0.9351 -68.1707 95.6485)" class="st5" width="3" height="3"/>
	<rect x="223.4" y="226.8" transform="matrix(0.935 -0.3545 0.3545 0.935 -66.336 94.5637)" class="st5" width="3" height="3"/>
	<rect x="163.8" y="69.7" transform="matrix(0.935 -0.3548 0.3548 0.935 -14.5148 63.282)" class="st5" width="3" height="3"/>
	<rect x="161.7" y="64.1" transform="matrix(0.9351 -0.3545 0.3545 0.9351 -12.6617 62.1088)" class="st5" width="3" height="3"/>
	<rect x="159.6" y="58.5" transform="matrix(0.9351 -0.3545 0.3545 0.9351 -10.8113 60.9902)" class="st5" width="3" height="3"/>
	<path id="패스_976" class="st6" d="M234.7,201.4H66.5c-3.2,0-5.8-2.6-5.8-5.8l0,0V80.5c0-3.2,2.6-5.8,5.8-5.8l0,0h168.3
		c3.2,0,5.8,2.6,5.8,5.8c0,0,0,0,0,0v115.1C240.5,198.8,237.9,201.4,234.7,201.4z M66.5,77.4c-1.7,0-3.1,1.4-3.1,3.1v115.1
		c0,1.7,1.4,3.1,3.1,3.1h168.3c1.7,0,3.1-1.4,3.1-3.1V80.5c0-1.7-1.4-3.1-3.1-3.1H66.5z"/>
	<path id="패스_977" class="st4" d="M273.7,92c-1.1-0.1-2.2-0.4-3.3-0.8l1.1-2.8c0.8,0.3,1.6,0.5,2.5,0.6L273.7,92z M277,91.9
		l-0.5-3c0.9-0.1,1.7-0.4,2.5-0.7l1.2,2.7C279.2,91.5,278.2,91.8,277,91.9z M267.4,89.6c-0.9-0.7-1.7-1.5-2.4-2.4l2.4-1.8
		c0.5,0.7,1.1,1.3,1.8,1.8L267.4,89.6z M283.2,89.2l-1.9-2.3c0.7-0.6,1.3-1.2,1.8-1.9l2.5,1.7C284.8,87.6,284,88.4,283.2,89.2
		L283.2,89.2z M263.3,84.3c-0.4-1.1-0.7-2.2-0.9-3.3l3-0.4c0.1,0.9,0.3,1.7,0.7,2.5L263.3,84.3z M287,83.6l-2.8-1
		c0.3-0.8,0.5-1.6,0.5-2.5l3,0.2C287.6,81.4,287.4,82.5,287,83.6z M265.3,79.4h-3c0-1.1,0.2-2.3,0.4-3.4l2.9,0.8
		C265.4,77.7,265.3,78.5,265.3,79.4z M284.5,77.5c-0.2-0.8-0.4-1.6-0.8-2.4l2.7-1.3c0.5,1,0.9,2.1,1.1,3.2L284.5,77.5z M266.7,74.5
		l-2.6-1.5c0.6-1,1.3-1.9,2.1-2.7l2.1,2.2C267.7,73.1,267.1,73.7,266.7,74.5z M282.2,72.9c-0.6-0.6-1.3-1.2-2-1.7l1.6-2.5
		c1,0.6,1.8,1.4,2.6,2.2L282.2,72.9z M270.4,70.9l-1.4-2.6c1-0.5,2.1-0.9,3.2-1.2l0.7,2.9C272,70.2,271.2,70.5,270.4,70.9
		L270.4,70.9z M277.9,70.1c-0.8-0.3-1.7-0.4-2.6-0.4l0.1-3c1.1,0,2.2,0.2,3.3,0.6L277.9,70.1z"/>
	<path id="패스_978" class="st4" d="M254.1,107.4c-3.5,0-6.3-2.8-6.3-6.3c0-3.5,2.8-6.3,6.3-6.3c3.5,0,6.3,2.8,6.3,6.3v0
		C260.4,104.6,257.6,107.4,254.1,107.4z M254.1,97.8c-1.8,0-3.3,1.5-3.3,3.3c0,1.8,1.5,3.3,3.3,3.3s3.3-1.5,3.3-3.3v0
		C257.4,99.3,255.9,97.8,254.1,97.8z"/>
	<path id="패스_979" class="st6" d="M174.9,250.8h-48.7v-28.4h48.7V250.8z M128.8,248.1h43.4V225h-43.4
		C128.8,225,128.8,248.1,128.8,248.1z"/>
	<path id="패스_980" class="st6" d="M186.5,251.5h-72.2c-1.3,0-2.3-1-2.3-2.3s1-2.3,2.3-2.3l0,0h72.2c1.2,0,2.3,1,2.3,2.2
		c0,0,0,0,0,0.1C188.8,250.4,187.8,251.4,186.5,251.5z"/>
	<path id="패스_981" class="st6" d="M237.8,98.7v120c0,1.7-1.4,3.1-3.1,3.1H66.5c-1.7,0-3.1-1.4-3.1-3.1V103.6
		c0-0.2,0-0.4,0.1-0.5v-4.4c-1.7,1.1-2.7,2.9-2.7,4.9v115.1c0,3.2,2.6,5.8,5.8,5.8l0,0h168.3c3.2,0,5.8-2.6,5.8-5.8l0,0V103.6
		C240.5,101.6,239.5,99.8,237.8,98.7z"/>
	<path id="패스_982" class="st7" d="M62.3,198.6"/>
	<circle id="타원_147" class="st8" cx="150.2" cy="33" r="28"/>
	<circle id="타원_148" class="st8" cx="59.2" cy="267" r="28"/>
	<circle id="타원_149" class="st8" cx="240.2" cy="267" r="28"/>
	<path id="패스_983" class="st8" d="M266.3,121.5h-5.9l-2.1,7.4l5,6.9l5.1-6.9L266.3,121.5z"/>
	<rect id="사각형_588" x="253.8" y="172.6" class="st8" width="19.2" height="51.7"/>
	<rect id="사각형_589" x="257.1" y="168" class="st8" width="12.6" height="4.7"/>
	<line id="선_61" class="st8" x1="263.3" y1="134.9" x2="263.3" y2="168"/>
	<line id="선_62" class="st8" x1="260.4" y1="180.1" x2="260.4" y2="216.6"/>
	<line id="선_63" class="st8" x1="266.4" y1="180.1" x2="266.4" y2="216.6"/>
	<line id="선_64" class="st8" x1="181.6" y1="66.3" x2="232.2" y2="66.3"/>
	<path id="패스_984" class="st6" d="M150.4,211.8"/>
	<path id="패스_985" class="st6" d="M150.4,211.8"/>
	<path id="패스_986" class="st6" d="M144.9,216.2h11.3l-1.2-2.1L144.9,216.2z"/>
	<path id="패스_987" class="st6" d="M147.1,212.5l-1.6,2.6l9-1.8l-1.2-2.1L147.1,212.5z"/>
	<g id="그룹_158" transform="translate(1130.027 2141)">
		<path id="패스_988" class="st6" d="M-978.5-1932.9l-1-1.7l-1.2,2.1L-978.5-1932.9z"/>
		<path id="패스_989" class="st6" d="M-981.2-1931.5l-1.1,1.9l5.1-1l-0.9-1.6L-981.2-1931.5z"/>
	</g>
	<g id="그룹_159" transform="translate(1130.027 2141)" class="st9">
		<path id="패스_990" class="st10" d="M-976.2-1926.6l-1.6,0.3l0.2,1.5h2.2L-976.2-1926.6z"/>
		<path id="패스_991" class="st10" d="M-977.4-1929.6l-1.1,0.2l0.5,2.2l1.5-0.3L-977.4-1929.6z"/>
		<path id="패스_992" class="st10" d="M-979.5-1934.6l0.4,1.8h0.3L-979.5-1934.6z"/>
		<path id="패스_993" class="st10" d="M-978.3-1930.4l0.5-0.1l-0.7-1.6l-0.5,0.1l0.4,1.7L-978.3-1930.4z"/>
	</g>
	<rect id="사각형_591" x="89.2" y="98.6" class="st5" width="59.5" height="4.5"/>
	<rect id="사각형_592" x="89.2" y="109.5" class="st5" width="70.5" height="4.5"/>
	<rect id="사각형_593" x="89.3" y="149.9" class="st5" width="132.8" height="4.5"/>
	<rect id="사각형_594" x="164.9" y="109.4" class="st5" width="4.5" height="4.5"/>
	<rect id="사각형_595" x="78.5" y="98.6" class="st5" width="4.5" height="4.5"/>
	<rect id="사각형_596" x="78.5" y="109.5" class="st5" width="4.5" height="4.5"/>
	<rect id="사각형_597" x="78.5" y="120.4" class="st5" width="4.5" height="4.5"/>
	<rect id="사각형_598" x="78.6" y="131.1" class="st5" width="4.5" height="4.5"/>
	<rect id="사각형_599" x="78.6" y="149.9" class="st5" width="4.5" height="4.5"/>
	<rect id="사각형_600" x="78.6" y="161.8" class="st5" width="4.5" height="4.5"/>
	<rect id="사각형_601" x="78.6" y="172.7" class="st5" width="4.5" height="4.5"/>
	<rect id="사각형_602" x="164.9" y="120.2" class="st5" width="4.5" height="4.5"/>
	<rect id="사각형_603" x="164.9" y="131.1" class="st5" width="4.5" height="4.5"/>
	<rect id="사각형_604" x="124.4" y="131.3" class="st5" width="35.2" height="4.5"/>
	<rect id="사각형_605" x="173.9" y="131.3" class="st5" width="48.2" height="4.5"/>
	<rect id="사각형_606" x="173.9" y="120.4" class="st5" width="22.3" height="4.5"/>
	<rect id="사각형_607" x="173.9" y="109.5" class="st5" width="33.4" height="4.5"/>
	<rect id="사각형_608" x="128" y="161.8" class="st5" width="94.1" height="4.5"/>
	<rect id="사각형_609" x="109.8" y="172.7" class="st5" width="59.6" height="4.5"/>
	<g id="그룹_160" transform="translate(1130.027 2141)">
		<path id="패스_995" class="st6" d="M-992.3-2117.1c1.2,1,2.2,2,3.2,2.9c0.5,0.6,1.4,0.7,2.1,0.2c0.1-0.1,0.2-0.2,0.2-0.3
			l0.9-0.9c0.6-0.4,0.8-1.3,0.4-1.9c-0.1-0.1-0.2-0.3-0.4-0.4c-0.9-1-1.8-2.1-2.8-3.1c2.9-1.1,6.2,0.5,7.2,3.4c0,0.1,0,0.1,0.1,0.2
			c0.2,1,0.3,2,0.2,3c-0.1,0.4,0.1,0.8,0.3,1.1c4.3,4.3,8.7,8.6,13,13c0.8,0.6,1.2,1.6,1.2,2.6c-0.1,0.9-0.6,1.7-1.5,2.1
			c-0.9,0.4-1.9,0.4-2.7-0.2c-0.3-0.2-0.6-0.5-0.9-0.8c-4.2-4.2-8.5-8.4-12.7-12.7c-0.4-0.4-1-0.6-1.6-0.5c-2,0.3-4.1-0.5-5.3-2.1
			C-992.6-2113.1-992.9-2115.2-992.3-2117.1z M-969.3-2099c-0.8,0-1.4,0.6-1.4,1.3c0,0,0,0,0,0.1c0.1,0.8,0.6,1.3,1.4,1.4
			c0.8-0.1,1.4-0.7,1.4-1.5c0-0.7-0.5-1.3-1.2-1.3C-969.1-2099-969.2-2099-969.3-2099z"/>
		<path id="패스_996" class="st6" d="M-974.5-2109.4c-1.3-1.3-2.5-2.5-3.7-3.8c0.1-0.1,0.2-0.3,0.4-0.4l6.1-6.1
			c0.8-0.8,1.9-1.3,3-1.3c1.6,0,2.5,1.3,2,3.1c-0.2,0.6-0.5,1.2-0.9,1.7c-2.2,2.3-4.4,4.4-6.6,6.7
			C-974.3-2109.5-974.4-2109.4-974.5-2109.4z"/>
		<path id="패스_997" class="st6" d="M-984-2105.9l2.3,2.3c-0.9,0.8-1.9,1.7-2.9,2.5c-0.8,0.6-1.4,1.5-1.6,2.5
			c-0.1,0.4-0.4,0.8-0.8,1l-3.9,2.4c-0.4,0.2-0.6,0.3-0.9-0.1c-1-1.1-0.9-0.6-0.2-1.8c0.7-1.2,1.4-2.3,2.1-3.4
			c0.2-0.4,0.6-0.7,1-0.8c1-0.2,2-0.8,2.6-1.7C-985.6-2104.1-984.9-2105-984-2105.9z"/>
	</g>
	<path id="패스_998" class="st6" d="M73,263.4l-0.9-0.9l0,0c-3-3-6-6-9-9.1c-0.1,0.1-0.2,0.1-0.2,0.2c-3.3,3.3-6.6,6.6-10,9.9
		c-0.2,0.2-0.2,0.5-0.1,0.7c0.4,1.3,0.8,2.7,1.2,4c0.3,0.8-0.1,1.6-0.8,2c-0.9,0.6-1.9,1.2-2.9,1.6c-2.6,1-3.8,3.1-4.3,5.6
		c-0.4,1.1,0.2,2.3,1.4,2.7c0.1,0,0.3,0.1,0.4,0.1c0.1,0,0.1,0,0.1,0.1l0,0h1c0.6-0.2,1.2-0.4,1.8-0.6c1.7-0.7,3.1-2.1,3.9-3.8
		c0.3-0.8,0.7-1.6,1.2-2.3c0.9-1.5,1.5-1.8,3.1-1.3c1.1,0.3,2.1,0.7,3.1,1.1c0.3,0.2,0.7,0.2,1-0.1c0,0,0,0,0-0.1
		c2.6-2.6,5.2-5.3,7.9-7.9l0,0L73,263.4z M49.2,278.7c-0.7,0-1.4-0.5-1.4-1.3c0,0,0,0,0,0c0-0.7,0.5-1.3,1.2-1.3c0,0,0.1,0,0.1,0
		c0.7,0,1.4,0.5,1.4,1.3c0,0,0,0,0,0C50.5,278.1,50,278.7,49.2,278.7C49.3,278.7,49.3,278.7,49.2,278.7z M62.7,272.2l-8.3-8.3
		l1.8-1.8l8.3,8.3L62.7,272.2z M67.2,266.7c-0.3,0.3-0.7,0.4-1.1,0.5c-0.5,0.1-0.7-0.2-0.6-0.8c0.1-0.5,0.2-0.9,0.3-1.4
		c0.1-0.7-0.3-1-1-0.9c-0.3,0.1-0.6,0.2-0.9,0.2c-0.3,0-0.8,0.1-0.9-0.1c-0.2-0.3-0.3-0.7-0.2-1.1c0.1-0.6,0.5-1.1,0.6-1.6
		c0.1-0.4,0.4-0.8,0-1.2c-0.4-0.3-0.8,0-1.2,0.2c-0.5,0.3-1.1,0.6-1.6,0.9c-0.5,0.2-1,0.5-1.4,0c-0.3-0.5-0.2-1.2,0.2-1.6
		c1.2-1.2,2.5-2.4,3.7-3.6l7.2,7.2C69.3,264.4,68.3,265.6,67.2,266.7z"/>
	<g id="그룹_161" transform="translate(1130.027 2141)">
		<path id="패스_999" class="st6" d="M-886.4-1860.5c-0.4-0.1-0.6-0.6-0.5-1c0-0.1,0.1-0.2,0.2-0.3c0-0.1,0.1-0.1,0.1-0.2
			c0-0.2,0.1-0.4,0-0.5c-0.1-0.1-0.3-0.2-0.5-0.2c-2.3,0.3-4.6,0.7-7,1l-4.2,0.6c-0.4,0.1-0.7-0.1-0.8-0.5c-0.1-0.4,0.1-0.7,0.5-0.8
			c0,0,0,0,0,0c0.6-0.1,1.1-0.2,1.7-0.3c1.6-0.2,3.2-0.5,4.8-0.7c1.6-0.2,3.2-0.5,4.7-0.7c0.8-0.1,1.6-0.2,2.4-0.4
			c0.3,0,0.6,0,0.7,0.3c0.2,0.2,0.2,0.6,0,0.8c-0.1,0.1-0.2,0.2-0.2,0.4c0,0.2-0.1,0.4,0,0.5c0.1,0.1,0.2,0.2,0.4,0.2
			c0.9-0.1,1.7-0.2,2.6-0.3c1.4-0.2,2.8-0.4,4.2-0.5c0.2,0,0.3-0.1,0.5-0.1c0.4,0,0.7,0.2,0.7,0.6c0,0.4-0.2,0.7-0.6,0.7
			c-0.9,0.1-1.7,0.2-2.6,0.3c-1.4,0.2-2.9,0.4-4.3,0.5l-2.4,0.3c-0.1,0-0.2,0-0.2,0.1C-886.2-1860.5-886.3-1860.5-886.4-1860.5z"/>
		<path id="패스_1000" class="st6" d="M-903-1862c0-0.4,0.1-0.8,0.1-1.2c0.6,0.5,1.1,0.9,1.7,1.4c-0.5,0.1-1,0.3-1.4,0.4
			c-0.2,0-0.3-0.1-0.4-0.2C-903-1861.8-903-1861.9-903-1862z"/>
		<path id="패스_1001" class="st6" d="M-891-1881.5l5.7,4.8c-0.5,0.6-0.9,1.1-1.4,1.6l-9.3,11.1c-0.3,0.3-0.6,0.6-1,0.7
			c-1,0.3-2.1,0.5-3.1,0.8c-0.1,0-0.2,0-0.3-0.1l-1.8-1.5c-0.1-0.1-0.2-0.2-0.2-0.4c0.1-1.1,0.2-2.2,0.2-3.4c0-0.4,0.2-0.8,0.5-1
			l3.3-3.9c2.4-2.8,4.8-5.7,7.2-8.5C-891.1-1881.3-891.1-1881.4-891-1881.5z"/>
		<path id="패스_1002" class="st6" d="M-881.7-1880.8c-1.9-1.6-3.8-3.2-5.8-4.9c0.4-0.5,0.8-1,1.3-1.4c0.7-0.6,1.8-0.7,2.6-0.1
			c0.9,0.7,1.8,1.5,2.7,2.3c0.8,0.7,0.8,1.9,0.2,2.7C-881-1881.7-881.3-1881.2-881.7-1880.8z"/>
		<path id="패스_1003" class="st6" d="M-890.2-1882.4c0.7-0.8,1.3-1.5,2-2.3l5.7,4.8c-0.6,0.8-1.3,1.5-2,2.3
			C-886.3-1879.2-888.3-1880.8-890.2-1882.4z"/>
	</g>
	<path class="st6" d="M56.9,178.5c-1.3-1.8-2.9-3.5-4.7-4.9l3.2-6.6c0.4-0.9,0.1-2-0.8-2.4l-7.5-3.7c-0.9-0.4-2-0.1-2.4,0.8
		l-3.2,6.6c-2.8-0.6-5.7-0.8-8.5-0.6l-2.4-7c-0.3-0.9-1.3-1.4-2.3-1.1c0,0,0,0,0,0l-7.9,2.7c-0.9,0.3-1.4,1.3-1.1,2.3c0,0,0,0,0,0
		l2.4,6.9c-2.6,1.6-4.9,3.6-6.8,6l-6.6-3.2c-0.9-0.4-2-0.1-2.4,0.8L2,182.6c-0.4,0.9-0.1,2,0.8,2.4l6.6,3.2
		c-0.7,2.9-0.8,5.9-0.5,8.8l-6.7,2.3c-0.9,0.3-1.4,1.3-1.1,2.3c0,0,0,0,0,0l2.7,7.9c0.3,0.9,1.3,1.4,2.3,1.1c0,0,0,0,0,0l6.7-2.3
		c1.5,2.5,3.5,4.6,5.7,6.5l-3.3,6.7c-0.4,0.9-0.1,2,0.8,2.4l7.5,3.7c0.9,0.4,2,0.1,2.4-0.8l3.3-6.7c3,0.7,6.1,0.9,9.1,0.5l2.4,7.1
		c0.3,0.9,1.3,1.4,2.3,1.1c0,0,0,0,0,0l7.9-2.7c0.9-0.3,1.4-1.3,1.1-2.3c0,0,0,0,0,0l-2.5-7.2c2.4-1.6,4.6-3.5,6.4-5.7l1,0.5V178.5z
		 M35.8,204.6C35.8,204.6,35.8,204.6,35.8,204.6c-5.8,0-10.4-4.7-10.4-10.4s4.7-10.4,10.4-10.4s10.4,4.7,10.4,10.4
		C46.2,199.9,41.6,204.6,35.8,204.6z"/>
</g>
</svg>
